<svg version="1.1" id="Layer_1" xmlns="http://www.w3.org/2000/svg" x="0" y="0" viewBox="0 0 1200 900" xml:space="preserve"><style>.st1,.st2{fill:#fcfcfc}.st2{stroke:#000;stroke-width:.25;stroke-miterlimit:10}.st3{fill:#141111}.st4{fill:#f33443}.st5,.st6,.st7,.st8{fill:#f9f3f2;stroke:#000;stroke-width:.25;stroke-miterlimit:10}.st6,.st7,.st8{fill:#f33443;stroke-width:.5}.st7,.st8{fill:#fbced6;stroke-width:.25}.st8{fill:red}</style><path fill="#d4f4ff" d="M.3 1h1200v898H.3z"/><path class="st1" d="M748.2 896.1H409.6c2.8-16.8 8.1-32.7 15.5-48.4 9 7.6 19.1 10.6 30 11.8 22.6 2.5 43.7-3.2 64.2-12 22.2-9.6 42.5-22.8 63.4-34.9 5.3-3.1 8.8-3.1 14.1.4 27.3 18.1 56.7 29.6 90.3 25.7 17.9-2.1 34.9-6.1 45.7-22.6.1-.1.7 0 1.3 0 6.5 26.2 11.5 52.9 14.1 80z"/><path class="st2" d="M320.9 815.3c0-6.6 4.6-11.4 11-11.4 6.1 0 10.9 5.1 10.9 11.5 0 5.5-5.9 11.6-11.2 11.5-6.4-.1-10.7-4.9-10.7-11.6zM416.5 508.2c-.1 6.1-4.4 10.2-10.6 10.1-5.5-.1-11.3-6.1-11.2-11.6.1-5.6 5.4-11.3 10.7-11.4 6-.1 11.2 5.9 11.1 12.9zM881.5 634.6c5.9.1 10.8 4.8 10.7 10.4-.1 5.4-5.3 10.3-11 10.3s-11.9-5.6-11.7-10.6c.2-5.4 5.9-10.2 12-10.1zM669.9 300.2c0-5.2 4.6-9.7 10.1-9.9 4.3-.2 9.5 5 9.5 9.6.1 5.9-3.9 9.8-10.1 10-5.6 0-9.5-3.8-9.5-9.7zM280.6 587.4c4.4 0 8.1 4.4 8 9.4-.1 4.2-4 8-8.2 7.9-3.9-.1-8-4.4-7.9-8.3.3-4.5 4.3-9 8.1-9zM924.5 449.2c-5 0-9.3-3.8-9.2-7.3.1-4 2.5-6.3 6.4-6.5 4.1-.2 8.7 4 8.4 7.6-.3 4-2.8 5.9-5.6 6.2zM282.1 67.2c-5.5 0-7.9-2-8.2-6.5-.3-4.6 2.6-6.9 6.4-7.2 4.1-.3 6.9 2.9 7.1 6.6.2 3.8-2 6.9-5.3 7.1zM755.2 546c-4.1-.3-6.9-2.3-6.9-6.7 0-4.2 2.6-6.1 6.6-6.1 3.9-.1 7 1.5 6.9 5.7 0 3.9-2 6.9-6.6 7.1zM362.6 338.6c4.4 0 6.5 1.6 6.7 5.4.2 4.4-2.5 6.6-6.1 6.9-3.1.3-6.4-1.6-6.4-5.2 0-3.9 2-6.9 5.8-7.1zM913 805.7c.3 3.1-2.2 5-5.2 4.8-3.4-.2-7.3-1.8-7.2-5.9.1-3.5 3-5.4 6.8-5.3 3.8.1 5.5 2.1 5.6 6.4zM918.4 330.6c-3-.1-5.2-1.4-5.3-4.3-.1-3.3 2.1-5.6 5.1-5.8 2.7-.1 5.2 1.5 5 5-.1 3.2-1.8 4.8-4.8 5.1zM794 848.9c3.7-.1 5.1 1.4 4.9 4.2-.3 3.5-2.3 5.8-5.8 5.9-3.2.2-3.3-2.4-3.4-4.8-.3-3.8 1.8-5.1 4.3-5.3zM252.9 714.5c.2 3.3-.6 5.4-4 5.4-3.9 0-4.1-2.6-4.1-5.5 0-2.7.6-5.5 3.7-5.5 3.4 0 5 2.5 4.4 5.6z"/><path class="st3" d="M479.7 363.4l-.1-.1c.1 0 0 0 .1.1zM632.1 432.9l-.2.2.2-.2zM610.1 444.4l-.1.1.1-.1zM471.8 354.7z"/><path class="st2" d="M273.3 173.2c-2.5-.8-4.2-2.3-3.9-4.9.3-2.8 2.3-4.2 5.1-4.2 2.5 0 4.2 1.2 3.8 3.7-.4 2.9-2.4 4.5-5 5.4zM353.2 644.9c0-3.2 1.3-4.6 4.2-4.6 3 .1 4 1.8 3.8 4.5-.2 2.6-1.6 4.5-4.3 4.4-2.7 0-4.2-1.7-3.7-4.3zM826.8 492.8c-2.3-.9-4-2.4-3.6-5 .3-2.2 1.8-4.1 4.1-3.8 2.5.3 4 2.3 3.6 4.9-.2 2.3-1.6 3.7-4.1 3.9zM793.4 634.6c-2.6-.1-3.8-1.4-3.6-3.7.2-2.5 1.3-4.3 4.3-4.3 2.2 0 3.8.5 3.7 3.1-.2 2.9-1.8 4.5-4.4 4.9zM377.9 414.6c2.5 0 4.2.9 4 3.6-.1 2.4-1.5 4.1-3.9 4.2-2.4.1-3.8-1.7-4-4-.2-2.6 1.3-3.8 3.9-3.8zM870.1 291.3c-.6 2.5-2 4.2-4.3 4.2-2.4 0-3.7-1.6-3.5-4.2.2-2.7 1.8-3.5 4.2-3.5 2.6.1 3 2 3.6 3.5zM663.5 31.1c-.8 3.2-2.5 5.4-5.5 5.4-3.1 0-4.7-2-4.4-5.3.3-3.4 2.3-4.4 5.4-4.4 3.2 0 3.8 2.3 4.5 4.3zM510 39c-.7 2.6-2 4.3-4.4 4.3-2.5 0-3.8-1.6-3.5-4.2.2-2.7 1.9-3.5 4.3-3.5 2.6 0 3.1 1.8 3.6 3.4zM251.7 369.1c-.7 2.4-2 3.9-4.4 4-2.3.1-3.6-1.2-3.5-3.5.2-2.6 1.6-4.4 4.3-4.2 2.1.1 3.2 1.9 3.6 3.7zM357.2 129.3c-2.3-.4-4.1-1.6-4.2-4-.1-2.5 2-2.9 4-2.9 2.2 0 3.7 1 3.7 3.4 0 2.3-1.4 3.3-3.5 3.5zM785 351.2c-2.3-.2-3.4-1.5-3.2-3.8.2-2.4 1.9-3.1 4-3.1 2.3 0 2.9 1.3 2.8 3.3-.2 2.4-1.3 3.6-3.6 3.6zM912 208.6c2.5.3 3.3 1.6 3.2 3.6-.1 2-1.3 3.1-3.3 3.1-2 0-3.5-.8-3.3-3 .1-2.2 1.8-3.1 3.4-3.7zM745.1 40.1c-.6 2.1-1.8 3.6-3.9 3.7-2.1.1-2.9-1.5-2.8-3.5.1-2 1.3-3.1 3.3-3.2 2 0 3.2 1 3.4 3zM310.2 459.7c-.5 2.2-1.6 3.5-4 3.3-2-.1-2.6-1.3-2.5-3 .1-2.2.8-3.9 3.3-3.6 1.7.2 2.9 1.5 3.2 3.3zM405.9 33.8c-.5 2.2-1.6 3.5-4 3.3-2-.1-2.6-1.3-2.5-3 .1-2.2.8-3.9 3.3-3.6 1.7.2 2.9 1.5 3.2 3.3zM346.1 219.2c-.2 2.1-1.4 3.5-3.4 3.9-2.1.4-3.1-1-3.2-3-.1-2 .8-3.3 2.9-3.5 1.9-.3 3.3.4 3.7 2.6zM906.4 529.8c-2.2-.1-3.7-.9-3.5-3 .2-2.1 1.7-3.5 3.8-3.6 1.8-.1 2.7 1.2 2.8 2.9.1 2.2-1.1 3.5-3.1 3.7zM517.2 293.6c-2.2-.1-3.7-.9-3.5-3 .2-2.1 1.7-3.5 3.8-3.6 1.8-.1 2.7 1.2 2.8 2.9.1 2.3-1 3.5-3.1 3.7zM268.1 292.7c-.6 2.6-1.9 4.2-4.7 3.9-1.9-.2-4-.5-3.9-2.8.2-2.5 2.2-3.8 4.7-4 2 0 3.6.7 3.9 2.9zM416.8 262.8c2.1.4 2.8 1.9 2.6 3.7-.2 2-1.5 3-3.5 2.9-2.1-.1-2.2-1.7-2.1-3.3 0-1.9.8-3.2 3-3.3zM625.7 250c-.5 1.7-1.6 3-3.4 3.2-1.8.2-3-.9-3-2.6 0-2.1 1.3-3.7 3.4-3.7 1.5.1 2.6 1.4 3 3.1zM822.9 190.3c0 1.9-1 2.8-2.7 3.1-1.5.2-2.6-.3-2.7-2-.1-1.7.5-3 2.3-3.4 1.8-.4 2.7.7 3.1 2.3zM875.3 129.1c-.1 2.2-1.1 2.8-2.6 2.7-1.5-.1-2.8-.8-2.6-2.4.2-1.6 1.4-2.9 3.1-2.8 1.7.1 2 1.6 2.1 2.5z"/><path class="st1" d="M683.6 408.4c1.6-.8 3-1.5 4.6-1.8 14.5-2.9 29.6 4.4 35.7 17.2 6.4 13.4 2.6 28.3-9.6 38.1-4.5 3.6-9.5 6.6-14.8 8.7-4.2 1.7-5 4-4.3 8.3 3.5 22.7 6.6 45.5 8.7 68.5 1.7 18.6 1.4 37.2 2.3 55.8.1 3-1.6 3.3-3.6 4.1-18.9 7.1-38.7 9.4-58.5 11.3-37.3 3.6-74.7 3.9-112.1 1.2-24.7-1.8-49.1-5.5-73.6-9.5-4.9-.8-3.8-3.8-3.6-6.6 2.4-23.1 6.4-45.9 10.8-68.7 3.8-19.4 7.3-38.8 11.2-58.1.9-4.4-.5-7.1-3.3-10.2-10.4-11.4-14.5-24.8-10.9-39.8 4.9-20.3 29.8-30.7 47.7-19.9 14.5 5.6 19.4 2.7 19.4 2.7l10.5-1.7 13-2.8 17.4-3.6s16.6-1.6 30.3-1.2c34.1.9 53 8.5 53 8.5s15.7 6.3 29.7-.5zm-51.7 140.4c1-7.3-.7-15.4-2.4-23.4-4-19.2-13.7-32.7-34.4-36.6-15.4-2.9-30.2 4.4-35.6 19.1-3.7 10.3-5.1 21.1-5.8 32-.8 13 .7 26 3.6 38.6 2.2 9.7 5.9 19.2 14.9 25 14.6 9.6 35.8 5.6 48.3-11.5 9.2-12.7 12.1-26.9 11.4-43.2zm-128.4 9.9c11.5 0 20.2-8.3 20.2-19.5 0-11.5-8.6-20.6-19.9-20.9-10.7-.3-20.4 9.4-20.5 20.6 0 11 8.9 19.8 20.2 19.8zm151.3-21.3c0 10 7.4 17.6 17.2 17.7 9.1.1 17.6-8.2 17.5-17.5 0-10.1-7.8-18.3-17.4-18.2-10.2.1-17.3 7.5-17.3 18zm55.5-100.5c.7-5.7-1.6-10.3-7.3-12.6-6.7-2.7-13.4-1.6-19.9 1.4-2.8 1.3-2.9 2.8-1.7 5.4 3.1 7.2 5.9 14.4 7 22.2.3 2.1 1.1 4.4 4 3.7 8-1.8 18.9-11 17.9-20.1zm-216-16.6c-5.6 1.1-11.4 2.9-14.5 9.1-4.9 9.9-2 18.5 4 26.7 2.2 3.1 3.5 3.9 5.6-.3 4.5-9.5 9.5-18.8 18.8-24.7 2-1.3 1.9-2.7.4-4.2-3.8-3.8-8.3-6.1-14.3-6.6zm47.1 72.6c-8.2 7.4-16.1 9.1-24 .2-.7-.8-1.9-.8-2.5.1-.8 1.2.2 2.2.7 3.1 3.2 4.9 8.1 7 13.8 6.5 5.8-.4 10.3-3.3 12-9.9zm115.5 11.3c4.9.1 10.7-4 11.7-8.5.2-.8.2-2.3-.2-2.6-1.3-.9-1.8.4-2.5 1.3-6.4 8.1-9.2 8.2-16.7 1-.8-.8-1.6-2.1-2.8-1.3-1.4.9-.8 2.5-.2 3.6 2.1 4.4 6.1 5.9 10.7 6.5z"/><path d="M855.5 707.8c-8.2-3-15.6-8.5-25.4-7.1-13.8 2-27.5 5.2-41.6 5.5-15 .4-29.5-1.3-43.5-6.8-1.1-.4-4.5-.1-2.3-3 5.7-7.6 3.2-15-.4-22.2-10.1-19.9-16.3-40.8-19.2-62.9-1.1-8.6-3.1-17.2-10.8-22.7-2.4-1.7-2.9-3.4-3-6.1-.4-11.7-.9-23.4-1.7-35.1-1.6-22.6-4.8-45-8.3-67.4-.6-3.7 0-5.9 3.8-7.5 5.7-2.4 10.8-5.8 15.5-9.8 10.7-9.3 14.8-21 11.2-34.7-3.6-13.8-12.7-22.5-26.8-25.5-2-.4-4.1-.7-6.1-1-.6-.2-1.6-.3-3-.4.3-.1.5-.3.8-.4-.3.1-.7.3-1 .4-11.3-.5-21 10.2-28.7 6.7-6.2-2.8-20.1-6.6-28-8.9-8-2.3-50-3.4-51.6-3.3-9 .3-18 1.2-26.9 3-.3.1-22.4 6-28 6.5-.3 0-8.5.5-10.3 1.3-4.7-2.5-22.5-10.5-36.3-6.6-13.4 3.8-22.6 12.6-25.5 26.3-3.2 15.3.6 29.5 11.1 41.2 3.5 3.9 3.8 7.2 3 11.9-7 38.3-16.2 76.2-20.5 115-.2 1.6 0 3.6-2.1 4.3-10.5 3.8-12.8 12.6-12.6 22.3.5 16.8-.8 33.3-6.5 49.3-1.8 5.2-2.1 10.8 1 15.6 1.7 2.6 1.4 4.2 0 6.5-5.8 9.7-11.2 19.6-15.9 30-18.3 41-18.8 81.3 4.4 120.7 1.5 2.6 1 4.4-.1 6.8-6.4 15-12 30.3-14.2 46.5h3.5c2.8-16.8 8.1-32.8 15.6-48.5 9 7.6 19.2 10.6 30 11.8 22.7 2.5 43.8-3.2 64.3-12 22.3-9.6 42.6-22.8 63.4-34.9 5.3-3.1 8.8-3.1 14.1.4 27.3 18.2 56.7 29.7 90.4 25.7 17.9-2.1 34.9-6.1 45.8-22.6.1-.1.7 0 1.3 0 6.4 26.4 11.5 53.1 14.1 80.2h4.6c-.3-.4-.8-.9-.9-1.3-3-26.9-8-53.5-14.5-79.7-.4-1.6-.5-2.9.2-4.4 1.9-4.2 3.8-8.4 5.5-12.6.6-1.6 1.1-2.8 3.2-2 13.5 5.6 27.8 4.8 42 5.7 7.3.4 14.6 1.7 16.6 10.9.3 1.5 1.8 3.6 3.8 2.3 2.2-1.3.4-2.9-.4-4.4-3.9-7.4-3.9-7.4.8-14.5.8.9 1.4 1.8 2.2 2.7 1.4 1.5 2.7 5 5 2.9 2.1-2-1-4.1-2.6-5.3-4.2-3.2-4.3-6.7-1.5-11.2 1.3 1.1 2.6 2.2 3.9 3.2 1.3 1 2.9 2.9 4.4 1.2 1.5-1.7-.5-3-1.8-4.1-1.5-1.2-3.2-2.2-4.6-3.4-2.5-2-1-4.5 0-6.2 1.2-2 2.5.4 3.7.9 1 .4 1.9 1.3 2.9 1.8.8.4 2 .8 2.6-.2.8-1.2.1-2.2-.9-2.9-.9-.7-1.9-1.4-2.9-1.8-5.2-1.9-5.2-5.3-2.9-9.6 1.2.6 2.3 1.4 3.5 1.9 3 1.2 7.1 5.9 8.5 3.3 2-4-4-4.9-6.8-6.3-4.4-2.2-5.5-4.7-2.4-9.1 1.5 1.2 2.9 2.5 4.4 3.5 2.1 1.3 4.4 5.1 6.6 2.2 1.7-2.2-2.2-3.7-4.1-5.1-7.3-5.2-7.3-5.1-2-13 2 2.1 4 4.2 6 6.2.8.8 2 1.5 3 .4.9-1 .5-2.2-.4-3.1-1.8-1.8-3.5-3.6-5.5-5-3.9-2.8-.8-5.4.7-7.2 2-2.4 2.7 1.1 4.1 1.8.7.3 1.1 1.1 1.7 1.6 1.3.9 2.6 3.1 4.3 1.3 1.7-1.8-.4-3-1.6-4.1-1.4-1.3-3-2.4-4.3-3.9-2.8-3.1.9-4.7 2.1-6.6 1.5-2.4 2.3.3 3.4.9 2 1.3 3.3 6.1 5.9 3.3 2.2-2.4-2.1-4.2-3.9-5.9-2.1-1.9-1.9-3-.4-5.2 1.9-2.5 2.9-.9 4.6.1 2.3 1.4 5 5.6 7 2.8 2.1-3-3.1-3.6-4.9-5.4-.9-.9-2.6-1.3-1.7-3.1.9-1.7 2.2-2.5 4.2-1.5 1.7.9 3.6 1.4 5.4 1.9.9.3 2 .2 2.5-.9.4-1.2-.5-2-1.3-2.3zM454.7 603.3c2.4-23.1 6.4-46 10.8-68.8 3.8-19.4 7.3-38.8 11.3-58.2.9-4.4-.5-7.1-3.3-10.2-10.4-11.4-14.5-24.8-10.9-39.9 4.9-20.4 28.4-27.9 47.8-19.9 8 3.3 10.3 4.4 18.7 3.2 8.3-1.1 38.4-7.9 38.7-7.9 7.1-1.3 46.8-2.2 63.2.3 16.4 2.5 19.8 5.9 30.8 9.1 11 3.2 25.4-4.6 25.4-4.6.4-.1.9-.2 1.4-.3 14.5-2.9 29.6 4.4 35.7 17.2 6.4 13.4 2.6 28.3-9.6 38.1-4.5 3.6-9.5 6.6-14.8 8.7-4.3 1.7-5 4-4.3 8.3 3.5 22.8 6.6 45.6 8.7 68.5 1.7 18.6 1.4 37.2 2.3 55.8.1 3-1.6 3.3-3.7 4.1-18.9 7.1-38.7 9.4-58.6 11.3-37.4 3.6-74.8 3.9-112.3 1.2-24.7-1.8-49.2-5.5-73.6-9.5-5-.6-4-3.6-3.7-6.5zm-4.2-1.1c2.1 7-2.9 5.4-6.3 5.7 1-3.2 3.1-5 6.3-5.7zM435 671.1c4.9-16.2 6.6-32.6 6-49.5-.2-4.7.2-9.5 3.2-13.5-.2 2.6 2 2.5 3.7 3 3.2 1 6.7.9 9.7 2.7 2-.4 3.9-.1 5.7 1 4.2.4 8.4.9 12.3 2.3 2.2-.1 4.4-.2 6.3 1.1 11.8 1.4 23.5 2.9 35.3 4.3 2.4.1 4.7.3 7.1.4 4.6-.3 9 .6 13.5 1.1 2.3.1 4.5.1 6.8.2 5 .3 9.9.6 14.9.9 1.6 0 3.2 0 4.8.1 3.9 0 7.8.1 11.7.1h5.2c12.9-.4 25.9-.7 38.8-1.1 2.1-.1 4.3-.2 6.4-.2 4.3-.4 8.7-.7 13-1.1 2.1-.3 4.1-.9 6.2-.3 4-1.7 8.3-1 12.4-1.5 2-1 4.2-.8 6.3-.7 3.9-.7 7.9-1.3 11.8-2 1.9-.3 3.8-.7 5.7-1 6.8-1.6 13.5-3.3 20.3-4.9 2.1-1.6 4.6-2.3 7.2-3 1.9-1.8 5.6-2.6 1.1-6.5-2-1.8-.7-7.5-.9-12.4 6.3 5.1 8.4 11.3 9.1 17.7 2.6 24.3 9.6 47.2 20.3 69.1 2.9 6 5.1 12.3-1.5 17.7-2 2.4-4.6 3.7-7.5 4.6-1.1.7-2.1 1.9-3.3 2.1-10.7 1.9-20.3 6.8-30.3 10.6-2.7 1.1-5.4 2.1-8.1 3.2-4.2 1.9-8.4 3.4-13 4-2.4 1.5-5.3 1.5-7.9 2-3.1.6-6.2 1.8-9.5 1.4-2.6 1.1-5.3 1.4-8 1.1-7.1 1-14.1 1.7-21.3 1.3-3.3.7-6.6 1.1-9.9.3-12 1-23.9 0-35.8-1.1l-8.1-.6c-3.1.4-6.1-.5-9.2-1-2.4.1-4.8.3-7-1-6.1 0-12-1.3-18-2.7-2.1-.4-4.2-.7-6.4-1.1-5.9-1.2-12-1.9-17.6-4.3-2.4.2-4.5-.7-6.7-1.4-11.3-2.8-22.4-6.3-33.3-10.6-2.5-.7-5.2-1.2-7.3-3-6.5-1.9-12.6-4.6-18.4-7.8-2.2-.9-4.4-1.9-6.7-2.8-10.2-3.6-12.3-6.7-9.1-17.2zm150.1 135.5c-25 14.1-48.9 30.3-75.9 40.6-20.8 8-42.1 11.5-64.3 6.4-12.3-2.9-21.1-9.3-26.6-21.3-15.9-34.3-15.5-68.6-1.4-103.1 5-12.3 11.3-23.9 18.1-35.2.9-1.6 1.4-4.3 4.6-2.6 20.3 10.8 42.2 17.6 64.8 24.4-5.5 4.9-5.7 12.3-10.4 17.2-1 1.1-1.7 3.4-1.4 4.8 1.8 7.8-2.7 6.4-7.5 5.7-8.2-1.4-16.5-.8-24.6.7-1.3.2-3.2.1-3.6 2.2 1.3 1.8 3.2.9 4.7.8 9.7-1.2 19.2.1 28.7 1.5.7.1 1.8.1 2.1.5 5.3 6.7 13.5 7.6 20.7 10.3 5.2 1.9 10.1 4.6 14.8 7.7 19.1 12.8 38.3 25.6 57.3 38.4.1.4.1.9-.1 1zm154.6-7.9c-9.5 20.2-24.3 32.5-47.2 35.4-26.5 3.3-51.1-1.1-74.5-13.6-25.1-13.4-47.8-30.5-71.4-46.3-13.6-9.1-26.9-18.5-43.1-22.4-.7-.2-1.4-.6-2.1-.9-2.1-1.2-5.2-2.2-5.1-4.8.1-2.7 3.1-3.5 5.3-4.6 2.3-1.2 7.3-1.4 6-4.4-1.5-3.4-5.2-.2-7.9.8-1.1.4-2.1 1-3.8 1.9 1-6.6 5.5-9.4 9.7-12.4 1.3-.9 3.5-1.4 3.1-3.6-.4-2.3-2.9-1-4.2-2 3.4-4.1 7.5-4.1 12.3-2.9 42.6 10.7 85.8 14.3 129.7 10.4 2.7-.2 4.6.4 6.5 2.5 23.7 26.4 51.9 46.6 84.4 60.6 3.7 1.5 3.7 3.2 2.3 6.3zm85.2-69.2c-10.1 17.6-12.9 37.4-17.4 56.7-.3 1.3-.7 2.6-1.1 3.9-3 9.7-3 9.6-12.4 7.7-3.5-.7-7.2-.7-10.8-1.1-3.1 0-6.3.1-9.4.1-12.3 0-23.7-3.3-34.7-8.6-2.3-1-4.7-1.9-7-2.9-8.6-4-17.2-8-25-13.6-2.2-.7-4.1-1.9-5.7-3.6-8.9-5.3-17.3-11.3-24.8-18.5-2.6-1.5-4.9-3.4-6.7-5.8-5.4-4.3-10-9.3-15.4-15 4.2-.8 7.5-1.4 10.7-2 10-1.8 19.9-4.3 29.1-8.7 13.7-6.6 28.2-10.9 42.2-16.4 2.5-1 4 .3 5.8 1.3 4.3 1.7 8.6 3.5 12.9 5.2 2.8-.3 5.4.6 8 1.4 4.9.4 9.7.8 14.6 1.2H791l7.5-.3c6-.8 12-1.6 18.1-2.5 3.6-1.3 7.2-2.4 11.1-2 5-2 9.9-.7 16 .4-7.8 6.5-18.8 23-18.8 23.1z"/><path class="st1" d="M504.4 715.9c-5.5 4.9-5.7 12.3-10.4 17.2-1 1.1-1.7 3.4-1.4 4.8 1.7 7.8-2.7 6.4-7.5 5.7-8.2-1.3-16.4-.8-24.6.7-1.3.2-3.2.1-3.6 2.2 1.3 1.8 3.2.9 4.7.8 9.6-1.2 19.1.1 28.6 1.5.7.1 1.8.1 2.1.5 5.3 6.7 13.5 7.6 20.7 10.3 5.2 1.9 10.1 4.6 14.7 7.7 19.1 12.7 38.2 25.6 57.3 38.3-.1.5-.1 1-.3 1.1-25 14-48.8 30.3-75.8 40.6-20.8 8-42 11.5-64.2 6.4-12.3-2.9-21.1-9.3-26.6-21.2-15.9-34.3-15.5-68.5-1.4-103 5-12.3 11.3-23.8 18.1-35.2.9-1.6 1.4-4.3 4.6-2.6 20.6 10.7 42.4 17.4 65 24.2z"/><path class="st1" d="M495.8 739.7c1-6.6 5.5-9.4 9.7-12.3 1.3-.9 3.5-1.4 3.1-3.6-.4-2.3-2.9-1-4.2-2 3.4-4.1 7.5-4.1 12.3-2.8 42.6 10.7 85.7 14.3 129.5 10.4 2.7-.2 4.6.4 6.4 2.5 23.7 26.3 51.8 46.5 84.3 60.5 3.8 1.6 3.8 3.3 2.3 6.4-9.5 20.2-24.3 32.5-47.2 35.3-26.4 3.3-51.1-1.1-74.4-13.6-25.1-13.4-47.8-30.5-71.3-46.2-13.5-9.1-26.8-18.5-43-22.4-.7-.2-1.4-.6-2.1-.9-2.1-1.2-5.1-2.2-5.1-4.8.1-2.7 3.1-3.5 5.3-4.6 2.3-1.2 7.3-1.4 6-4.4-1.4-3.4-5.2-.2-7.9.8-.9.2-1.9.8-3.7 1.7z"/><path class="st4" d="M580.9 625.7c12.9-.4 25.8-.7 38.8-1.1-1.5 6.9-6.3 12.2-9.1 18.5-2.2 5-1.4 8.6 3.6 11.6 7.8 4.5 7.7 4.7 2 12.1-8.9 11.4-8.6 13.8 3.3 21.8 2.9 2 2.4 3.1.3 5.1-3.1 3.1-5.7 6.7-7.6 10.7-2 4.2-1.1 7.5 3 9.7 2.5 1.4 6.6 2.1 7.3 4.1.9 2.7-3.2 4.8-4.2 7.7-11.9 1-23.8 0-35.7-1.1.4-8.1-3.9-16-1.1-24.3 1.4-4 1.4-8.3 1.2-12.5-.4-8.8-1.1-17.5-1.4-26.3-.4-12-.4-24-.4-36zm18.6 83.9c-.6-3.4-2.5-5.3-6-5-3.4.3-5.3 2.5-5.1 5.8.2 3.3 2.4 5.1 5.8 4.9 3.7-.2 4.9-2.7 5.3-5.7zm.4-68.4c-.3-2.4-1.8-4.4-5.1-4.3-3.3.1-4.8 2.1-4.7 5.2.1 2.9 1.9 4.7 4.7 4.7 3 .1 5-1.6 5.1-5.6zm-7.2 35.8c.2 2.9 1.6 4.7 4.6 4.8 2.9.1 4.7-1.5 4.8-4.5.1-2.9-1.5-4.7-4.4-4.8-3 0-4.5 1.7-5 4.5zM481.8 618.5c11.7 1.4 23.5 2.9 35.2 4.3-1.6 2.6-3.3 5.2-4.8 7.8-6 10.1-6.1 10.1 2.8 17.4 1.9 1.6 2.5 2.7.4 4.5-1.2 1-2.1 2.2-3.2 3.3-8.4 9-8.4 9-.3 18.1.5.6.9 1.2 1.5 1.7 2.9 2.4 2.1 4.1-.8 6-11.9 8.2-10.3 7.5-2 16.7 3.1 3.4 5.4 6.5.4 10.1-1.4 1-1.5 2.6-1.4 4.2-11.3-2.8-22.4-6.3-33.2-10.6 0-2.7.3-5.3 0-8-1-10.5.1-20.9 2-31.3 2.6-14.5 4.6-29.2 3.4-44.2zm15.3 72.7c-.3-3.6-2-6.2-6-6.3-4.1-.1-5.9 2.7-6 6.3-.1 3.5 2 5.8 5.6 6 3.9.2 5.8-2.2 6.4-6zm2.1-27.4c-.5-3-1.8-5.3-5.5-5.2-3.5.1-5.5 2.1-5.5 5.4 0 3.3 2 5.3 5.5 5.4 3.6 0 5-2.3 5.5-5.6zm-4.7-24.9c2.6-.4 4.8-1.4 5-4.5.2-3.2-1.5-5.2-4.6-5.4-2.8-.2-4.8 1.6-5.2 4.3-.3 3.3 1.8 4.9 4.8 5.6zM797.9 710.6c6-.8 12-1.6 18-2.5-6.5 6.1-6.6 6.2-1.7 14 1.7 2.7-.1 3.3-1.6 4.4-6.4 4.6-12.6 9.3-17.4 15.7-1.4 1.8-2.9 3.5-1.2 6.2 1.6 2.5 5.1 4.8 3.9 7.7-1 2.5-4.3 4.2-6.6 6.2-1.6 1.4-3.2 2.7-4.8 4.1-6.9 6.1-7 6.2-1 12.9 2.5 2.8 2 3.9-1 5.9-4.6 2.9-9.6 5.7-11.2 11.6-12.3 0-23.7-3.3-34.6-8.6.1-6.7 7-8.8 9.3-13.9 5.7-12.7 16.3-20.4 27.3-27.8 4.6-3.1 9.3-6.4 11.9-11.4 3.8-8 7.1-16.3 10.7-24.5zm-35.3 74.5c3.7-.5 6.1-2.4 6-5.9 0-3.4-2.2-5.8-5.8-5.6-3.8.2-6 2.8-5.8 6.5.1 3.3 2.7 4.7 5.6 5zm18.5-24.9c2.8-.2 4.8-1.7 4.9-4.5.1-2.8-1.5-4.7-4.4-5-3-.3-4.7 1.3-4.8 4.3-.2 3 1.3 4.7 4.3 5.2zm18.8-40.2c-2.8.6-4.6 2.2-4.3 5.1.2 2.9 2.2 4.4 5.1 4.1 2.6-.3 4.1-2 4-4.6-.2-2.9-2.1-4.2-4.8-4.6zM681.3 617.7c6.8-1.6 13.5-3.2 20.3-4.9-.3 3.6-.6 7.3-.8 10.9-.2 2.9.8 5.9 3.5 6.8 8.3 2.5 6.6 7.3 3.6 12.8-.9 1.7-1.3 3.6-1.7 5.5-1.3 5.3.6 9.4 4.9 12.5 7.9 5.6 7.9 5.6 5.1 14.6-.3.9-.5 1.9-.7 2.8-2 7.9-1 10.5 5.5 15.2 2.8 2 5.5 4.1 8.3 6.1-1.1.7-2.1 1.9-3.3 2.1-10.7 1.9-20.3 6.8-30.3 10.6-.5-1.2-1.2-2.4-1.5-3.7-4.2-18.1-7.2-36.4-8.2-54.9-.6-12.3-1.3-24.5-4.7-36.4zm21.3 71.1c-3.1.8-5.5 2.3-5.4 5.8.1 3.4 2.1 5.5 5.5 5.4 3.3-.1 5.3-2.2 5.3-5.6-.1-3.5-2.3-5.1-5.4-5.6zm-8.5-52.4c-3.3.4-5.1 2.1-4.9 5.4.1 2.9 1.8 4.7 4.7 4.7 3.2 0 5-1.8 5-5 .1-3.3-1.9-4.7-4.8-5.1zm5 38.8c3.3-.2 4.9-2.1 4.9-4.9-.1-3.1-2-5-5.2-4.8-2.9.1-4.7 1.8-4.6 4.8.1 3.2 2.1 4.7 4.9 4.9zM666.8 721.8c-3.1.6-6.2 1.8-9.5 1.4-.4-2.7-2.6-4.2-4-6.2-3.3-4.6-9.6-8.1-9.8-13.6-.2-5.6 5.4-9.8 8.9-14.3 2.4-3.2 2-5.5-.9-7.8-2.7-2.2-5.1-4.6-7.9-6.7-2.5-1.9-2.9-3.5-.9-6.1 3.3-4.3 6.1-8.8 9.2-13.2 2.3-3.2 3-7.1-.4-9.2-10-5.9-10.7-13.6-6.2-23.1 4-1.7 8.2-1 12.4-1.5.5 13.3 3.1 26.4 4 39.7 1.2 20.2 4.7 40.3 5.1 60.6zM777.2 710.9h13.2c-3.3 4.5-6 9.3-7.8 14.6-1.6 4.7-4.4 8.7-8.7 11-18.1 9.7-29.2 25.9-40.4 42.2-1.4 2-1.9 4.2-1.9 6.5-8.6-4-17.2-8-24.9-13.6.5-.3 1-.6 1.5-.8 3.3-1.6 7.8-.4 10.2-3.2 2.9-3.5-.6-7.2-1-10.9-.3-2.9.9-3.1 3.3-2.8 4.6.5 9.2.5 13.7 1.1 4.5.6 6.4-1.3 6.4-5.7 0-3.3.4-6.5 0-9.7-.4-4 1.4-5 4.9-4.8 4.4.3 8.8.6 13.2.4 11-.5 11.4-1.2 8.2-11.8-.2-.7-.3-1.5-.6-2.2-1.4-3.7 0-5.4 3.8-6.5 2.5-.6 6.3.3 6.9-3.8z"/><path class="st4" d="M754.6 708.3c2.8-.3 5.4.6 8 1.4-7.3 5-2.7 11.7-2.3 17.9h-19c-5.2 0-7.5 3-7.9 7.9-.3 3.8 1.7 8.8-.9 11-2.8 2.4-7.6-.1-11.6-.3-11.7-.5-11.9-.6-10.6 10.7.4 3.6-.1 5.8-4 6.5-2.4.5-4.8 1.5-5.3 4.5-8.9-5.3-17.2-11.3-24.7-18.5 4-.7 8 .2 12 .4 3.4.1 5-1.3 4.9-4.7-.1-1.5.1-3.1 0-4.6-.4-3.9 1.3-5.1 5-4.4 4.3.8 8.7 1.6 13 2.2 4 .5 6.6-.9 7.4-5.2 2.4-12.9 2.5-12.9 15.8-10.5.9.2 1.9.4 2.8.4 3.3.1 6.2-1.3 6.4-4.5.4-6.9 3.3-10.2 10.4-9.6.1.1.4-.4.6-.6zM533.9 718.4c-5.9-1.2-12-1.9-17.6-4.2 1.5-1.7 2.8-3.6 4.5-5.2 3.5-3.3 3.7-6.2.2-9.7-2.7-2.6-5.1-5.7-7.7-8.7 2-1.6 3.8-3.1 5.6-4.5 7.3-5.8 7.4-7.2.7-13.7-6.6-6.5-6.5-6.4-.1-13.8 7.7-9 11.1-8.7-1.3-16.7-2.7-1.7-2.4-3.1-.9-5.4 2.7-4.1 5.6-8.3 6.7-13.2 4.5-.3 9 .6 13.5 1.1-1.9 2.9-3.7 5.8-5.8 8.6-2.6 3.4-2.8 6.3.3 9.7 2.6 2.8 5.9 5.8 6.7 9.2.9 4-4.1 6.2-6.3 9.3-3.1 4.3-3.3 8 .8 11.6 3 2.7 5.8 5.5 9 8.4-1.3.9-2.3 1.7-3.4 2.5-9.5 6.3-10 10.6-2.3 18.5.5.5 1 1.2 1.6 1.6 2.5 1.8 3 3.4.2 5.7-2.8 2.2-4.8 5-4.4 8.9zM649.3 724.3c-7 1-14.1 1.7-21.2 1.3 6.2-9.8 6-11.3-2.1-14.9-7.8-3.5-7.8-3.5-2.1-10 .8-.9 1.6-1.7 2.4-2.5 6.4-6.5 5.9-10.5-1.8-15.3-7.5-4.6-7.5-4.6-1.9-11.5.5-.6.9-1.2 1.5-1.8 13.3-13.3 7.9-14.7-2.6-20.2-3.6-1.9-3.1-3.8-1.6-6.8 3-5.7 6.4-11.4 6.2-18.2 4.3-.4 8.6-.7 13-1.1-.4 1.1-.8 2.1-1.3 3.1-6 12.4-6 12.4 4.7 21.1.3.2.6.5.9.7 2.6 1.5 2.6 3 .7 5.4-3.4 4.3-6.5 9-9.5 13.7-1.9 2.9-2.3 6.1.5 8.9 3.2 3.2 9 6.2 9.2 9.6.3 3.8-4.4 8-6.9 12.1-3.1 4.9-2.4 9.2 1.6 13.5 3.5 4.1 6.8 8.6 10.3 12.9z"/><path class="st4" d="M544.4 624.6c4.9.3 9.9.6 14.8.9-1.7 3.5-3.1 7-3.4 10.9-.9 11.7.7 23.4-1.2 35-.3 1.8.3 3.8.9 5.6 2.4 6.8 2.9 13.8 2.8 21-.2 8.1-.1 16.1-.1 24.2-6.1 0-12-1.3-17.9-2.7 1.3-1.6 2.6-3.4 4-4.9 7.7-7.8 7.7-7.8-.2-15.5l-.8-.8c-5.2-5-5.2-5 .7-9.2 8.6-6.2 8.7-8.1 1.1-15.4-7.8-7.4-7.9-7.5-.1-15.1 3.2-3.2 4.8-7.1 1.3-10-9.4-7.6-7.7-15.5-1.9-24zM469.1 699.1c-6.4-1.9-12.5-4.6-18.4-7.8 1.3-2.4 2.3-4.9 3.8-7.1 4.5-6.7 6.5-13.2.7-20.4-2.7-3.4-.7-6.2 2.2-8.8 7.8-7 7.9-7.2 2.6-16.3-3.5-6.1-4.2-11.7.5-17.5 1.4-1.8 2.3-3.9 2.6-6.3 4.2.4 8.3.9 12.3 2.3-4.2 27.3-5.5 54.6-6.3 81.9z"/><path class="st5" d="M626 624.4c.2 6.8-3.2 12.5-6.2 18.2-1.5 2.9-2 4.8 1.6 6.8 10.5 5.5 15.9 6.9 2.6 20.2-.5.5-1 1.2-1.5 1.8-5.6 6.9-5.6 6.9 1.9 11.5 7.8 4.8 8.3 8.8 1.8 15.3-.8.8-1.6 1.6-2.4 2.5-5.8 6.6-5.8 6.6 2.1 10 8 3.5 8.2 5 2.1 14.9-3.3.7-6.6 1.1-9.9.3.9-2.9 5.1-5 4.2-7.7-.7-2-4.8-2.7-7.3-4.1-4-2.3-4.9-5.6-3-9.7 1.9-4 4.5-7.6 7.6-10.7 2-2 2.6-3.2-.3-5.1-11.9-7.9-12.2-10.3-3.3-21.8 5.7-7.3 5.8-7.5-2-12.1-5-2.9-5.8-6.5-3.6-11.6 2.8-6.3 7.5-11.6 9.1-18.5 2.2-.1 4.4-.1 6.5-.2z"/><path class="st4" d="M663.9 620.8c3.9-.7 7.9-1.3 11.8-2 1.2 15.8 2.1 31.7 3.8 47.4 1.8 16.7 4.3 33.3 8.2 49.7-4.2 1.9-8.4 3.4-13 4-.3-6.1.1-12.4-1-18.4-4.3-24.7-3.8-49.9-9.6-74.4-.4-2-.2-4.2-.2-6.3zM669.5 743.8c-5.4-4.3-10-9.3-15.4-14.9 4.2-.8 7.5-1.4 10.7-2 10-1.8 19.9-4.3 29-8.7 13.6-6.5 28.1-10.9 42.1-16.4 2.5-1 4 .3 5.8 1.3-1.3.8-3.1 1.7-3.1 3.2-.1 9.6-6.2 9.1-12.9 7.9-1.7-.3-3.5-.1-5.2.1-3.8.4-6.3 2.4-7.6 6.1-1.2 3.3 0 8.6-3.1 9.8-3.1 1.2-7.4-.7-11.2-1.2-.8-.1-1.5-.2-2.3-.3-8.2-1.2-10.6.3-11.1 8.7-.2 4.4-2.2 4.2-5.3 4.2-3.4.1-7.6-1.9-10.4 2.2z"/><path class="st5" d="M701 768.1c.4-3.1 2.8-4.1 5.3-4.5 3.9-.7 4.4-2.9 4-6.5-1.2-11.3-1.1-11.2 10.6-10.7 4 .2 8.8 2.7 11.6.3 2.6-2.2.6-7.3.9-11 .4-4.9 2.7-7.9 7.9-7.9h19c-.4-6.2-5-12.9 2.3-17.9 4.9.4 9.7.8 14.6 1.2-.6 4.1-4.4 3.2-6.8 3.9-3.8 1.1-5.2 2.8-3.8 6.5.3.7.3 1.5.6 2.2 3.1 10.6 2.7 11.3-8.2 11.8-4.4.2-8.8-.1-13.2-.4-3.6-.2-5.4.7-4.9 4.8.3 3.2 0 6.5 0 9.7 0 4.4-1.9 6.3-6.4 5.7-4.5-.6-9.2-.6-13.7-1.1-2.4-.3-3.6-.1-3.3 2.8.4 3.7 3.9 7.4 1 10.9-2.4 2.8-6.9 1.6-10.2 3.2-.5.2-1 .6-1.5.8-2.3-.9-4.2-2.2-5.8-3.8zM649.3 724.3c-3.5-4.3-6.8-8.8-10.5-12.9-3.9-4.3-4.6-8.6-1.6-13.5 2.5-4 7.1-8.2 6.9-12.1-.2-3.4-6-6.3-9.2-9.6-2.8-2.8-2.3-6-.5-8.9 3-4.7 6-9.3 9.5-13.7 1.9-2.4 1.9-3.9-.7-5.4-.3-.2-.6-.5-.9-.7-10.7-8.7-10.7-8.7-4.7-21.1.5-1 .9-2.1 1.3-3.1 2.1-.3 4.1-.9 6.2-.3-4.5 9.5-3.8 17.2 6.2 23.1 3.5 2 2.7 6 .4 9.2-3.1 4.4-5.9 9-9.2 13.2-2 2.6-1.7 4.2.9 6.1 2.8 2 5.2 4.5 7.9 6.7 2.9 2.3 3.4 4.6.9 7.8-3.5 4.5-9.1 8.7-8.9 14.3.2 5.6 6.5 9 9.8 13.6 1.4 2 3.6 3.5 4 6.2-2.4 1.1-5 1.4-7.8 1.1zM544.4 624.6c-5.7 8.5-7.4 16.4 1.9 24.1 3.5 2.9 1.9 6.8-1.3 10-7.7 7.6-7.7 7.6.1 15.1 7.6 7.3 7.5 9.2-1.1 15.4-5.9 4.2-5.9 4.2-.7 9.2.3.3.6.5.8.8 7.9 7.6 7.8 7.6.2 15.5-1.5 1.5-2.7 3.2-4 4.9-2.1-.4-4.2-.7-6.4-1.1-.4-3.9 1.7-6.7 4.4-8.9 2.8-2.2 2.3-3.8-.2-5.7-.6-.4-1.1-1.1-1.6-1.6-7.7-7.9-7.2-12.2 2.3-18.5 1.1-.7 2.1-1.5 3.4-2.5-3.1-2.9-6-5.7-9-8.4-4-3.7-3.8-7.3-.8-11.6 2.2-3.1 7.2-5.3 6.3-9.3-.7-3.4-4.1-6.4-6.7-9.2-3.1-3.3-2.9-6.3-.3-9.7 2.1-2.7 3.9-5.7 5.8-8.6 2.3 0 4.6 0 6.9.1z"/><path class="st4" d="M444 688.5c-10.1-3.7-12.2-6.8-9-17.2 4.9-16.2 6.6-32.6 5.9-49.4-.2-4.8.2-9.6 3.3-13.7l-.1-.1c-.4 2.9 1.9 2.8 3.6 3.3 3.2 1 6.7.9 9.7 2.7-1 1.6-1.8 3.4-3 4.8-5.3 6.8-5.9 14-1.5 21.3 2.9 4.7 2.8 7.9-2.2 11.1-4.5 2.9-6.3 7.8-3.3 12.5 5.2 8.1 2.9 14.9-2.1 21.7-.5.8-.8 2-1.3 3zM564 625.6c3.9 0 7.8.1 11.7.1-1.7 11.2-1.3 22.5-1.4 33.7-.1 11.3 1.7 22.7-.4 33.7-2 10.6-2 20.8.5 31.1-3.1.4-6.1-.5-9.2-1 .9-16.6 3.4-33.2-1.7-49.6-.3-1.1-.6-2.3-.4-3.4 2.8-14.8-2.2-29.8.9-44.6z"/><path class="st5" d="M524.1 623.3c-1.2 4.9-4 9.1-6.7 13.2-1.5 2.3-1.8 3.7.9 5.4 12.4 8 9 7.7 1.3 16.7-6.3 7.4-6.4 7.3.1 13.8 6.7 6.6 6.6 7.9-.7 13.7-1.8 1.4-3.6 2.9-5.6 4.5 2.6 3 4.9 6 7.7 8.7 3.6 3.5 3.3 6.5-.2 9.7-1.7 1.6-3 3.4-4.5 5.2-2.4.2-4.5-.7-6.7-1.4-.1-1.6 0-3.1 1.4-4.2 5-3.6 2.7-6.7-.4-10.1-8.3-9.3-9.9-8.5 2-16.7 2.9-2 3.7-3.6.8-6-.6-.5-1-1.2-1.5-1.7-8.1-9.1-8.1-9.1.3-18.1 1-1.1 2-2.3 3.2-3.3 2-1.8 1.5-2.9-.4-4.5-8.9-7.3-8.8-7.4-2.8-17.4l4.8-7.8c2.2 0 4.6.1 7 .3z"/><path class="st4" d="M736.9 695.4c-2.6-3.4-6.4-5.5-9.9-7.6-3.9-2.4-4.5-5.2-2.9-9 .9-2.1 1.7-4.3 2.4-6.4 2.4-6.9.9-11.2-5.6-14.9-7.6-4.4-7.8-4.9-4.4-13 1-2.5 2.2-4.9 2.9-7.5 1.2-4.4 0-8.5-4.4-9.9-5.9-1.8-7.1-5.4-6.2-10.8.3-2 0-4.2 0-6.3 1.9-1.8 5.6-2.6 1.1-6.5-2-1.8-.7-7.5-.9-12.3 6.3 5.1 8.4 11.3 9.1 17.7 2.5 24.3 9.6 47.1 20.3 69 2.9 5.8 5.1 12.1-1.5 17.5z"/><path class="st5" d="M669.5 743.8c2.8-4.1 7-2.1 10.6-2.1 3.2 0 5.1.2 5.3-4.2.4-8.3 2.8-9.8 11.1-8.7.8.1 1.5.2 2.3.3 3.8.5 8.1 2.4 11.2 1.2 3.1-1.2 1.9-6.5 3.1-9.8 1.3-3.7 3.8-5.7 7.6-6.1 1.7-.2 3.5-.4 5.2-.1 6.7 1.2 12.8 1.7 12.9-7.9 0-1.5 1.8-2.4 3.1-3.2 4.3 1.7 8.6 3.5 12.9 5.2-.3.3-.6.8-.8.7-7-.6-10 2.8-10.4 9.6-.2 3.2-3.1 4.6-6.4 4.5-.9 0-1.9-.2-2.8-.4-13.3-2.4-13.4-2.4-15.8 10.5-.8 4.3-3.4 5.8-7.4 5.2-4.4-.6-8.7-1.3-13-2.2-3.7-.7-5.4.5-5 4.4.2 1.5 0 3.1 0 4.6.2 3.4-1.5 4.9-4.9 4.7-4-.2-8-1.1-12-.4-2.7-1.5-5-3.4-6.8-5.8zM731.6 785.2c.1-2.3.5-4.5 1.9-6.5 11.1-16.3 22.3-32.5 40.4-42.2 4.4-2.3 7.1-6.4 8.7-11 1.8-5.3 4.6-10.1 7.8-14.6l7.5-.3c-3.6 8.2-6.9 16.5-10.9 24.4-2.5 5-7.3 8.3-11.9 11.4-10.9 7.4-21.5 15.1-27.3 27.8-2.3 5-9.2 7.2-9.3 13.9-2.2-.9-4.6-1.9-6.9-2.9zM564 625.6c-3.1 14.8 2 29.8-.9 44.6-.2 1.1 0 2.3.4 3.4 5.1 16.4 2.6 33 1.7 49.6-2.4.1-4.8.3-7-1 0-8.1-.1-16.1.1-24.2.2-7.2-.3-14.2-2.8-21-.6-1.8-1.2-3.8-.9-5.6 1.9-11.6.3-23.4 1.2-35 .3-3.9 1.7-7.5 3.4-10.9 1.6 0 3.2 0 4.8.1zM663.9 620.8c.1 2.1-.2 4.3.3 6.3 5.8 24.4 5.3 49.7 9.6 74.4 1 6 .7 12.2 1 18.4-2.4 1.5-5.3 1.5-7.9 2-.4-20.3-3.8-40.4-5.2-60.5-.9-13.3-3.5-26.4-4-39.7 1.9-1.2 4-1 6.2-.9zM574.3 724.2c-2.5-10.3-2.5-20.5-.5-31.1 2.1-11 .3-22.5.4-33.7.1-11.3-.2-22.5 1.4-33.7h5.2c.1 12 0 24 .3 36.1.2 8.8 1 17.5 1.4 26.3.2 4.2.2 8.5-1.2 12.5-2.8 8.3 1.5 16.2 1.1 24.3-2.7-.2-5.4-.4-8.1-.7zM687.7 715.8c-4-16.3-6.4-33-8.2-49.7-1.7-15.8-2.6-31.6-3.8-47.4 1.9-.3 3.8-.7 5.7-1 3.4 11.9 4 24.1 4.7 36.3 1 18.6 4.1 36.8 8.2 54.9.3 1.3 1 2.5 1.5 3.7-2.8 1.1-5.4 2.2-8.1 3.2zM469.1 699.1c.8-27.4 2.1-54.7 6.3-81.8 2.2-.1 4.4-.2 6.3 1.1 1.2 15-.8 29.7-3.4 44.4-1.9 10.4-3 20.7-2 31.3.2 2.6 0 5.3 0 8-2.5-.7-5.1-1.2-7.2-3zM444 688.5c.5-1 .7-2.2 1.4-3.1 5-6.8 7.3-13.6 2.1-21.7-3-4.6-1.2-9.5 3.3-12.5 4.9-3.2 5.1-6.4 2.2-11.1-4.5-7.3-3.9-14.5 1.5-21.3 1.2-1.5 2-3.2 3-4.8 2-.4 3.9-.1 5.7 1-.2 2.4-1.1 4.5-2.6 6.3-4.7 5.8-3.9 11.4-.5 17.5 5.2 9.1 5.1 9.3-2.6 16.3-2.9 2.6-5 5.4-2.2 8.8 5.8 7.2 3.8 13.7-.7 20.4-1.5 2.2-2.6 4.7-3.8 7.1-2.3-1-4.6-1.9-6.8-2.9z"/><path class="st6" d="M536.6 443.7c-5.1 0-7.1-3.1-7.2-6.5-.2-3.6 1.3-7.8 5.9-7.9 4.2-.1 8 2.3 8.2 6.7.1 4.4-3.6 6.5-6.9 7.7zM520.5 390c-3.9-.6-6.4-2.6-6.6-6.5-.1-3.6 2-6.1 5.7-6 3.5.1 6.6 1.9 7 5.9.3 4.2-2.8 5.7-6.1 6.6z"/><path class="st4" d="M545.7 364.6c0 4.7-2.9 6.5-6.7 6.3-3.5-.3-6.4-2.4-6.5-6.4 0-3.9 2.3-6.4 6.1-6.5 4.3-.1 7.1 1.9 7.1 6.6z"/><path class="st6" d="M551.6 456.4c-4.6.2-6.4-2.3-6.7-6.2-.3-4 1.5-6.5 5.9-6.5 4.1 0 7.7 1.6 7.8 6 .2 4.3-3.3 6.1-7 6.7zM650.3 389.4c-1.2 3.5-3.8 5.4-7.4 5.3-3.2-.1-5.3-2-5.2-5.4.1-3.8 2.5-5.6 6-5.3 3.2.2 6 1.6 6.6 5.4zM693.9 390.3c-3.6 0-4.9-2.6-5-5.4-.2-3.4 1-6.8 5-7.3 3.5-.4 5.7 1.9 6.1 5.3.5 4.2-2.4 6.3-6.1 7.4zM591.2 379.1c3.2.1 5.3 1.6 5.5 4.8.2 3.4-1.4 6-4.8 6.4-3.7.4-6.4-1.7-6.5-5.6-.1-3.7 3-4.7 5.8-5.6zM708.5 399.5c-3.5-1.1-5.1-3.7-5.3-6.9-.2-2.9 2.2-4.2 4.7-4 3.8.3 5.2 3 5 6.5-.2 2.7-1.9 4.1-4.4 4.4zM654.2 386.4c-2.7-.3-5.1-1.3-5.2-4.4-.1-3.3 2.3-5.1 5.3-5.3 3-.1 4.2 2.3 4.4 5 .1 3.2-1.4 4.8-4.5 4.7z"/><path class="st4" d="M444.2 608.2c.9-3.2 3-5.1 6.3-5.8 2.2 7.1-3 5.4-6.3 5.8-.1-.1 0 0 0 0z"/><path class="st1" d="M677.9 411c.3-.9 1.3-1.2 1.7-.6.7.8-.5 1-.9 1.5-.3-.3-.6-.6-.8-.9z"/><path class="st4" d="M843 706.6c-6.1-1.1-11-2.5-16-.4-.4 3.4-2.9 5.3-5.3 7.2-2.4 1.8-2.5 3.2-.5 5.5 2.2 2.5 4.3 5.3 4 9 0 0-.1.6-.3.9-.2.2-.8.4-.8.4-7.6 3.4-13.2 9.5-19.5 14.6-2.6 2.1-2.9 3.6-.9 6.5 3.8 5.5 3.2 8.5-1.6 13-1.4 1.3-2.9 2.5-4.3 3.7-7 5.9-7 5.9-1.9 13.2 3.3 4.8 2.9 6.3-2.6 9-3.9 1.9-7.9 3.8-10.7 7.5 3.6.3 7.3.4 10.8 1.1 9.4 1.9 9.4 2 12.4-7.7.4-1.3.8-2.6 1.1-3.9 4.5-19.3 7.3-39.1 17.4-56.6.2-.1 11.1-16.6 18.7-23z"/><path class="st7" d="M631.9 548.8c.7 16.3-2.2 30.5-11.4 43.2-12.5 17.1-33.7 21.2-48.3 11.5-8.9-5.9-12.6-15.3-14.9-25-2.9-12.7-4.4-25.6-3.6-38.6.7-10.8 2.1-21.7 5.8-32 5.3-14.7 20.2-22.1 35.6-19.1 20.6 3.9 30.4 17.4 34.4 36.6 1.6 8 3.4 16.1 2.4 23.4zm-39.1 5.2c0 7.7-.1 15.3.1 23 0 2.1-.7 5.8 1.9 5.8 3.3 0 1.7-3.7 1.7-5.6 0-15.1-.1-30.3-.4-45.4-.1-3 .6-4.3 3.6-5.1 4.9-1.3 8.7-4.2 9.2-9.7.6-6.4-4.8-12.8-11.9-14-7.5-1.3-14.2 2.9-16.3 10.3-1.8 6.4.7 10.3 9.1 13.2 2.3.8 3.2 1.7 3.1 4.4-.3 7.8-.1 15.5-.1 23.1zM503.5 558.7c-11.3 0-20.2-8.7-20.1-19.8 0-11.2 9.7-20.9 20.5-20.6 11.3.3 19.9 9.4 19.9 20.9-.2 11.2-8.8 19.5-20.3 19.5zM654.8 537.4c0-10.5 7.1-17.9 17.3-18 9.6 0 17.4 8.1 17.4 18.2 0 9.2-8.4 17.6-17.5 17.5-9.8-.1-17.1-7.7-17.2-17.7zM710.3 436.9c1 9.1-9.9 18.3-17.8 20.2-2.8.7-3.7-1.6-4-3.7-1.1-7.8-4-15.1-7-22.2-1.1-2.7-1-4.1 1.7-5.4 6.5-3 13.1-4.1 19.9-1.4 5.6 2.2 7.9 6.8 7.2 12.5zM494.3 420.3c5.9.5 10.4 2.8 14.2 6.5 1.5 1.5 1.6 2.9-.4 4.2-9.3 5.9-14.3 15.2-18.8 24.7-2 4.3-3.3 3.4-5.6.3-5.9-8.3-8.9-16.9-4-26.7 3.3-6.1 9-7.9 14.6-9z"/><path class="st3" d="M541.4 492.9c-1.7 6.6-6.2 9.5-12 9.9-5.6.5-10.5-1.6-13.8-6.5-.6-.9-1.6-1.9-.7-3.1.7-.9 1.8-.9 2.5-.1 7.9 8.9 15.8 7.2 24-.2zM656.8 504.2c-4.5-.6-8.5-2.2-10.8-6.5-.6-1.1-1.2-2.7.2-3.6 1.2-.7 2 .5 2.8 1.3 7.5 7.2 10.3 7 16.7-1 .7-.9 1.2-2.2 2.5-1.3.5.3.4 1.8.2 2.6-.9 4.5-6.6 8.6-11.6 8.5z"/><path class="st5" d="M599.5 709.6c-.4 3-1.6 5.5-5.2 5.7-3.4.2-5.7-1.6-5.8-4.9-.2-3.2 1.7-5.5 5.1-5.8 3.3-.2 5.3 1.6 5.9 5zM599.9 641.2c0 4-2.1 5.6-5.1 5.6-2.8 0-4.6-1.8-4.7-4.7-.1-3.1 1.4-5.2 4.7-5.2 3.2 0 4.7 2 5.1 4.3zM592.7 677c.4-2.8 1.9-4.5 4.9-4.4 3 .1 4.5 1.9 4.4 4.8-.1 3-1.9 4.5-4.8 4.5-2.9-.1-4.3-2-4.5-4.9zM497.1 691.2c-.6 3.8-2.5 6.2-6.4 6-3.6-.2-5.8-2.5-5.6-6 .1-3.5 2-6.3 6-6.3 4 .2 5.6 2.7 6 6.3zM499.2 663.8c-.5 3.3-1.9 5.6-5.5 5.5-3.5-.1-5.5-2.1-5.5-5.4 0-3.3 2-5.2 5.5-5.4 3.7-.1 5 2.2 5.5 5.3zM494.5 638.9c-2.9-.7-5.1-2.3-4.7-5.5.3-2.7 2.3-4.5 5.2-4.3 3.1.2 4.8 2.2 4.6 5.4-.3 3-2.5 4-5.1 4.4zM762.6 785.1c-2.9-.3-5.5-1.7-5.6-5-.2-3.7 2-6.2 5.8-6.5 3.7-.2 5.8 2.1 5.8 5.6.1 3.4-2.3 5.4-6 5.9zM781.1 760.2c-3-.5-4.4-2.2-4.3-5.1.1-3 1.7-4.6 4.8-4.3 2.9.3 4.6 2.2 4.4 5-.2 2.8-2.1 4.2-4.9 4.4zM799.9 720c2.7.3 4.7 1.7 4.8 4.6.1 2.7-1.4 4.3-4 4.6-2.9.3-4.8-1.2-5.1-4.1-.3-2.9 1.5-4.4 4.3-5.1zM702.6 688.8c3.2.5 5.4 2 5.3 5.5 0 3.4-2 5.5-5.3 5.6-3.3.1-5.4-2-5.5-5.4 0-3.4 2.3-4.9 5.5-5.7zM694.1 636.4c2.9.3 4.9 1.7 4.9 5.1 0 3.3-1.8 5-5 5-2.9 0-4.6-1.8-4.7-4.7-.3-3.2 1.5-4.9 4.8-5.4zM699.1 675.2c-2.8-.1-4.8-1.7-4.9-4.9-.1-2.9 1.7-4.6 4.6-4.8 3.2-.2 5.1 1.7 5.2 4.8 0 2.8-1.6 4.6-4.9 4.9z"/><path class="st3" d="M592.8 554c0-7.7-.2-15.3.1-23 .1-2.7-.9-3.6-3.1-4.4-8.3-2.9-10.9-6.8-9.1-13.2 2.1-7.4 8.8-11.6 16.3-10.3 7.1 1.3 12.5 7.6 11.9 14-.5 5.6-4.3 8.5-9.2 9.7-3 .8-3.7 2.1-3.6 5.1.3 15.1.5 30.3.4 45.4 0 1.9 1.6 5.6-1.7 5.6-2.7 0-1.9-3.7-1.9-5.8-.2-7.7-.1-15.4-.1-23.1z"/><path class="st5" d="M729.4 700c-2.8-2-5.5-4.2-8.3-6.1-6.6-4.6-7.6-7.2-5.5-15.2.2-.9.4-1.9.7-2.8 2.8-9 2.8-9-5.1-14.6-4.3-3.1-6.2-7.2-4.9-12.5.4-1.9.8-3.8 1.7-5.5 3-5.5 4.7-10.3-3.6-12.8-2.6-.8-3.6-3.8-3.5-6.8.2-3.6.5-7.3.8-10.9 2.1-1.6 4.6-2.3 7.2-3 0 2.1.3 4.3 0 6.3-.9 5.4.3 9 6.2 10.8 4.4 1.4 5.7 5.5 4.4 9.9-.7 2.6-1.9 5-2.9 7.5-3.3 8.1-3.2 8.5 4.4 13 6.4 3.7 8 7.9 5.6 14.9-.8 2.2-1.5 4.3-2.4 6.4-1.7 3.9-1 6.7 2.9 9 3.5 2.2 7.3 4.2 9.9 7.6-2.1 2.5-4.7 3.9-7.6 4.8zM825.1 727.4c.2-3.8-1.6-6-3.8-8.5-2-2.2-1.9-3.6.5-5.5 2.4-1.8 4.9-3.8 5.3-7.2-3.9-.4-7.5.7-11.1 2-6.5 6.1-6.6 6.2-1.7 14 1.7 2.7-.1 3.3-1.6 4.4-6.4 4.6-12.6 9.3-17.4 15.7-1.4 1.8-2.9 3.5-1.2 6.2 1.6 2.5 5.1 4.8 3.9 7.7-1 2.5-4.3 4.2-6.6 6.2-1.6 1.4-3.2 2.7-4.8 4.1-6.9 6.1-7 6.2-1 12.9 2.5 2.8 2 3.9-1 5.9-4.6 2.9-9.6 5.7-11.2 11.6 3.1 0 6.3-.1 9.4-.1 2.8-3.6 6.8-5.5 10.7-7.5 5.5-2.7 5.9-4.2 2.6-9-5.1-7.3-5.1-7.3 1.9-13.2 1.5-1.2 3-2.4 4.3-3.7 4.8-4.5 5.4-7.5 1.6-13-2-2.9-1.7-4.4.9-6.5 6.3-5.1 19-14 19.4-14.2.3-.5.8-1.4.9-2.3z"/><path class="st3" d="M712 387.6c-3.1-2.2-6.8-1.9-9.1.5-2.3 2.5.2 6.8-7.1 8.8-.2-4.7 4.8-4.7 6.4-9.8s-.8-10.2-5.3-11.7c-3.8-1.2-6.8-.2-8.8 3.3-2.5 4.4-1.6 9.3 2.4 12.8 3 2.6 1.4 9.9-2.8 10.9-5.1 1.3-9.6 3.6-14.3 5.7-4.7 2.1-7.3.6-11.3-1.2-2-.9-2.1-3.2-2.1-6.2 0-2.2-.3-5.2-.6-7.1-.7-3.9-1.3-5.1 1.2-9.3 1.9-3.2.8-7.3-3.2-9.3-3.6-1.8-7.3-.8-9 2.5-1.6 3-3.5 3.4-6.5 3.9-4.6.7-7 4-6.4 8.7.6 4.7 4.2 8 8.3 6.8 7.7-2.3 8.7 4.2 12.2 7.3-16.6-1-18.1-4-26.2-12.3-1.8-1.9-2.6-2.7-.9-5.7 1.8-3.4 2.9-7.9.3-12-2.7 1.3-2.5 3.7-2.3 5.7.2 1.8.1 4.4-1.5 5.7-1.5 1.2-3.5-3.6-4.8-5-1.1-1.2-.4-1.7.6-2.6 3.4-3.1 3.4-7.5 4-11.6.2-1.1.5-2.6-1-2.9-1.9-.3-2 1.5-2.2 2.7-.6 3.6-1.7 6.9-3.9 10.6-1.4-2.6-3.7-3.8-3.2-6.9 3.4-2.5 6.3-11.8 4.9-16-.3-.8-.6-1.4-1.5-1.4-1 0-1.2.8-1.3 1.5-.7 5.1-1 9-3 15-2.6-2.6-3.5-5.9-4.3-9.3 1.5-1.9 5-6.8 5.5-9.3.6-2.8 1.2-9.5-.9-9.5-1.7 0-1.5 2-1.5 3.2-.1 3.6-1 7.1-2 10.6-.2.7-.8 2.3-1.4 3.7-.1-.5-.2-1.1-.4-1.6-1-4.2-2.5-8.2.2-13 2.2-3.9 1.8-9.3-.5-14.6-3.5 4.2-.8 9.3-3.6 12.8-2.5-2-1.1-5.8-4.3-7.6-3.2 8 4.2 13.4 4.9 21-4.2-2.8-6.3-6-7.9-9.5-.4-.9-1-1.7-2.1-1.4-1 .3-1.7 1.1-1.3 2.1 1.9 4.9 4.4 9 9.3 10.7 4.7 1.6 3.5 5.3 4.7 8.4-5.2-1.3-8.2-4.8-11.6-7.7-.7-.6-1.6-1.3-2.5-.6-.9.8-.5 1.9.2 2.5 4.1 3.7 6.9 7.4 14.3 7.5 1.1 0 1.9 1.9 2.2 2.6.9 2.1 2.1 3.8 3.2 7.2-4.3-.6-8.8-2.5-11.9-4.7-.8-.6-1.8-1-2.5.1-.3.5-.2 1.5.1 2.1 2.1 4.1 9.6 6.5 13.9 4.4 1.3-.6 1.7.1 2.1.9 1.2 2.3 3.4 3.5 3.8 6.1-2.4.3-4.4.4-6.5.1-3.1-.4-10.1-4.7-8.1-1.3.4.6 3.5 2.7 6.9 3.4 4.3.9 8.8-1.1 9.2-.7 3.7 4.3 8.7 10.2 12.4 14.6-11.3-1.3-23.1-2.2-32.8-2-1 0-2 .1-2.9.2v-.2c0-4.1-3.2-7.9.3-12.5 2.7-3.5-.1-8.9-4.1-10.4-3.8-1.3-9.1 1.1-10.5 4.9-1.6 4.1.7 8.3 5.4 9.8.5.2 1.2.1 1.7.3 4.3 1.3 4 5.5 4.1 8.5-7.4 1.2-14.8 3.8-23.7 2.6-9.8-1.3-19.8-5.5-21.5-6.3-5.6-2.7-5.2-10.1-5.6-13.7-.4-3.3-.7-11.2 2.2-14.4 3.2-3.6 1.4-9.2-2.8-11.9-4-2.5-9-1.3-11.6 2.6-2.6 3.9-1.8 9.8 2.3 11.6 8.9 3.7 7.6 11.2 7.9 18.3 0 .9 0 2.5-1.1 2.1-3.6-1.2-7.1-2.9-10.6-4.4-2.2-.9-.7-2.7-.9-4-.6-4-2.7-6.6-6.6-7.8-6.2-1.9-15.4 3.1-11.3 11.9 3.7 5 8.4 7.7 14.6 3.6 1.4-.9 2.5-.5 3.7.2 5.5 2.9 20.6 11.8 34.8 15.1 14.2 3.3 21.3.1 31.9-1.3 8.5-1.1 17-1.9 25.6.4-17.8-1.4-34.1 6.5-51.5 7.6-7.8.5-26.4-.9-35.7-4.1-9.4-3.1-17.5-7.8-20.5-10.1-2.9-2.3-6.3-7.1-6.3-7.1s1.2-2.7 1.4-7.4c.3-4.7-1.9-9.1-1.9-9.1s-.8 5.7-.8 7.1c.1 2.2 1.3 5.7-.5 7.7-2.1-1.1-3.5-2.7-2.7-5.3 1-3.6 1-7.4.4-9.1-.8-2.2-2.9-3.9-2.9-3.9s1.6 7.7.8 13.2c-6.6-6.7-4-9.2-3.6-13.1.5-4-2.4-10.5-2.4-10.5s-1 1.7-1.1 3.9c-.1 3.3 1.8 8.6.3 12-4.8-4.9-5.9-7.7-5.9-7.7s2.9-8.3 2.3-10.7c-.6-2.4-3.8-7.2-3.8-7.2l-.1 7.9s.3 3.3-.1 8.1c-3.3-3.5-7.6-9.6-7.6-9.6.9-2.5 3.8-6.5 3.4-10.3-.2-1.5-1.9-6.6-1.9-6.6s-1 3.6-1.4 6.6c-.4 3-1 8.4-1.5 8.5-1.8-1.9-3.2-4-2.7-5.3 2.3-6 .8-13.2.8-13.2l-3.4-6.5s1.2 12.5.5 18c-4.7-3.1-1.6-11.7-2.1-14.9-.6-3.2-3.5-6.7-5.9-7.2.4 1.6.7 2.7 1 3.7 1.3 4.8 3.6 7.4 2.3 13.2-.7-1.6-5-7.8-5.2-8.1-2.8-4.4-5.7-8.7-10.2-11.8 1 5.4 3.6 9.8 7.3 13.6l3.6 3.6s5.5 7.7-3.5 2.9c-9-4.7-6.4-4.7-10.6-7.8 1.5 6.9 6 9.8 9.4 11.2 3.5 1.4 6.1 1 8.1 1s3 2.1 4.8 5.3c-3.8 1.4-6.4-1.8-12-1.9-1 0-5.1-.7-5.1-.7s5.5 4.6 10.6 5.5c5.2.8 6 1.1 7.3-1 2.5 1.6 3.5 4.7 5.6 7.5-3.5-.3-7.3-.6-9.7-.8-2.6-.2-7.3-1.1-7.3-1.1s4.4 3.8 9.1 4.6c4.6.7 8.2.1 9.8-.9 2.2 2.5 4.3 4.8 6 7.6-5.4.3-7.3-.2-12.1-1.4-1.5-.4-7.6.5-7.6.5s5.2 3.2 6.6 3.5c5.5 1.4 14.3-1.1 14.8-.5 2.1 2.5 3.7 4.6 5.8 7.2-1.7 0-4.6-.2-7.5.3-2.9.5-14.6-.8-14.6-.8s9.9 4.7 14.1 4.7c4.2 0 7.9-1.3 9.2-2.6 1.4 1.7 2.8 3.5 4.3 5.3-3.2-.3-11.8-.5-16.5-.1-4.6.4-10.2 1.9-10.2 1.9s4.5 2 10.4 2.3c5.9.2 14.9-1.6 17.6-2.5.7.8 2 2.5 2.7 3.4-7.2-1.4-11.9.2-16.8 2.8 3.9-.8 9.1 1.3 13.8.9 4.8-.5 2-4.5 9.4 1.6 2.9 2.4 4.6 4.5 9.1 6.8 4.5 2.2 14 5.6 16 6.2 7.4 2.1 14.9 3.4 23.9 4.3-6.5 3.8-11.8 7.7-16.5 12.2-1.4 1.3-2.4-.1-3.6-.6-5.9-2.2-10.2-.3-11.6 5.3-1.6 6.3 1.2 11.8 6.6 12.6 4.8.7 11.4-4.1 10.7-8.9-1.1-7.7 4.7-9.4 9.4-13.5.4 6-.7 10.9-1.9 15.8-.6 2.4-2.2 2.7-4.1 3.2-3.9 1-5.7 3.8-5.5 7.7.2 4.4 3.3 7.1 7.1 8.1 3.6 1 6.7-1.3 8.7-4.3 2.2-3.1 1.6-6.5-1.1-8.8-2.5-2.2-2.5-4.2-1.7-7 .9-3.1 1-6.4 1.5-9.6.4-2.4-1.8-5.3.4-7.1 2.8-2.2 6.3-4.8 9.5-5 12.6-.5 24.4-5.5 36.7-6.7 14.4-1.4 32.9-3.9 42.9 3.3s26.2-.1 30.3-1.8c-2 5.2-10.7 8.9-17.6 10.3-4.6.9-7.3-2.4-10.3-4.1-3-1.7-11-2-11-2l14.9 7.1-7 1.4s-3.8-4.5-8-5.6c-4.2-1.2-7.1-.7-7.1-.7s2.4 2.5 5.6 3.9c3.3 1.4 5.2.8 7.5 3.1-2.8 1.1-6.6 1.5-6.6 1.5s-3.1-2.9-7.4-4.5c-4.3-1.6-7.7-.1-7.7-.1s8.8 4.5 12.7 5.5c-4.3 2.9-10.2-1.6-15.2-3.1-4-1.2-10.1 0-10.1 0s4.9 3.5 8.2 4.4c3.3.9 3.3.8 8.4 2.1-2.5.7-3 .9-5.2 2.1-4.7-3.1-7.9-3.1-12.8-3.3-5-.2-7.2.8-7.2.8s2.2 1.7 6.9 2.6c4.7.9 6.4 2 11.7 1.6-5.6 3.2-10 4.9-10 4.9s-6.4-1.7-10.6-1.4c-4.2.3-6.3 2.3-6.3 2.3s4.6 1.9 12.2.6c5.4 1.6.7 1.5-3.7 4-4.5 2.5-8.5 8.1-8.5 8.1s5.7-1.7 9.9-4.5 2.3-2.7 6-4.6c-1 2.9-1.2 4-2.2 6.1-.5 1-2.2 5.8-2.2 5.8s3-1.5 5.1-4.5c2.1-3.1 2.3-5.8 1.7-7.6-.6-1.9 4.8-3.8 7.7-5.4-.4 5.4-1.3 5-3.4 9-.6 1.1-2.5 7.8-2.5 7.8s6.5-6.1 7.3-7.3c2.2-2.9 1.3-10.4 1.3-10.4s-.3-2 9.5-4.6c0 0-1.9 5-3.7 9.8-.5 1.4-1.1 9.1-1.1 9.1s5-6.3 5.7-7.9c1.9-4 1.6-10.5.8-11.5 1.5-.8 6.9-1.9 8.8-2.5-2.7 5-3.1 3.1-4.9 8-1.8 4.9-1.6 10.4-1.6 10.4s4.5-4.9 6.1-9.1c1.2-3 2.4-9.8 2.4-9.8s2.8-.8 4-.7c-1.3 4.7-1 4-2.4 8.8-1.3 4.8-.7 8.7-.7 8.7s3.2-2.6 4.7-7.4c1.5-4.8.8-10.2.6-11.2 2.1-.9 8.9-2.4 8.7-1.9-1.1 4.2-2.3 2.8-3.1 7.7-.7 4.9-.4 9.9-.4 9.9s3.6-5.5 5-10.4c1.3-4.9-1.2-7.2 3.4-9 8.2-3.2 15.9-6.8 20.5-14.8.6-1 1.5-1.5 2.4-1.8 2.3-2.5 4.3-4.7 7.5-5.7 3.3-1.9 6.2-4.8 10.5-.7 4 3.8 10.3.3 10.8-5.4.5-3.4-.6-5.9-3.2-7.7zm-68.8 6.1c-2.6-.1-4.3-1.7-4.2-4.4.1-3.1 2-4.6 4.9-4.3 2.5.2 4.8 1.4 5.4 4.4-1.1 2.8-3.2 4.4-6.1 4.3zm-51.5-5.1c-2.6.3-4.5-1.2-4.6-3.9-.1-2.6 2.1-3.3 4.1-3.9 2.3.1 3.7 1.1 3.8 3.4.2 2.3-1 4.2-3.3 4.4zm-71.3.6c-3.3-.5-5.5-2.2-5.6-5.6-.1-3.1 1.8-5.3 4.9-5.2 3.1.1 5.7 1.7 6 5.1.3 3.6-2.4 4.9-5.3 5.7zm18.6-20c-2.6-.2-4.8-1.8-4.8-4.7 0-2.9 1.7-4.7 4.6-4.8 3.2-.1 5.2 1.3 5.2 4.9s-2.2 4.8-5 4.6zm-59.3-6.2zm56.8 79.1c-3.9 0-5.5-2.4-5.6-5.1-.1-2.8 1-6.1 4.5-6.1 3.2-.1 6.2 1.7 6.4 5.2.2 3.4-2.7 5-5.3 6zm19.9 7.7c.1 2.9-2.2 4.1-4.7 4.5-3.1.1-4.3-1.6-4.5-4.2-.2-2.7 1-4.4 4-4.4 2.6.1 5.1 1.1 5.2 4.1zm94.2-67.9c-.1-2.3 1.6-3.5 3.6-3.6 2.1-.1 2.9 1.5 3 3.4.1 2.1-.9 3.2-3 3.1-2-.1-3.6-.8-3.6-2.9zm3.3 6.7c2.5 3.4 2.7 7.1 3.3 11.2-5.5-2.7-7.5-5.8-3.3-11.2zm-7.9 19.3c6.1.2 11.8 2.2 17.5 4.4-6.7 2-12-1.7-17.5-4.4zm48-19.1c-2.7 0-3.7-2-3.8-4.1-.2-2.6.7-5.2 3.8-5.5 2.7-.3 4.4 1.5 4.7 4 .3 3.2-1.8 4.7-4.7 5.6zm14.3 9.2c-2.6-.8-3.7-2.7-3.9-5.1-.1-2.1 1.6-3 3.4-2.9 2.8.2 3.8 2.2 3.7 4.7 0 2.1-1.3 3.1-3.2 3.3z"/><path class="st8" d="M579.4 223.8c2-.1 5-15.5 8.4-22.9 4.4-9.6 9.5-19 14.8-28.2 1.1-1.9 4-3.2 6.3-3.7 1.3-.3 4.1.9 4.5 2.7.4 1.8-1 2.5-1.8 3.6-6.4 9.3-7.6 19.1-4.3 27.7 7-5.9 14.7-11.7 21.4-18.5 2-2 1.3-6.9 1.4-10.4.2-4 0-7.9 0-12.3-13.1-2.4-25.9-5.5-38.9-6.7-12.5-1.1-25.3-.2-37.9-.2-.1-.5-.3-1.1-.4-1.6 2.3-.8 4.5-1.8 6.8-2.3 16.5-2.9 32.6-.2 48.7 2.8 6.9 1.3 13.9 2.3 21.3 3.6 0-3.2-.4-5.8.1-8.4.3-1.7-.1-3.7 2.8-4.4s4.8 1.8 5.5 3.5c1.1 3.1.9 6.7 1.4 11.6h30.1c0 .8-.1 1.6-.1 2.3-9.7 3-19.6 1.4-30 1-1.1 22.3-2.7 67.1-.8 67.2 1.9.1 2-4.9 2.6-7.4 3.1-12.6 6-25.2 9.1-37.7.7-2.9 2.1-5.7 3.2-8.5 1.6-3.9 4.5-5.7 8.6-4.8 4.3 1 5.5 4.3 5.4 8.3 0 1.9-.4 3.8-.6 6.3 2.5-4.3 4.3-8.5 7.1-11.8 1.7-2 5.4-4.1 7.4-3.5 2.7.9 5.5 4 6.6 6.7 1.1 2.8.2 6.3.2 11 3-5.1 5.3-9.1 7.8-13.1 1.9-3 4.6-6.2 8.2-4.2 2.6 1.5 5.7 5.3 5.7 8-.2 9.8-1.7 19.6-2.7 29.5-.8 8.7-4.6 25.6-2.2 26 2.4.4 5.5-12.9 7.2-19.6 2.9-11.5 7.1-22.5 14.3-32.1 5.7-7.4 10-8.5 17.9-5.6 2.6-.3 5.4-1.2 7.8-.6.9.2 1.4 4.1 1.2 6.2-1.6 11.8-8.9 33.5-5.1 35.2 2.1-.4 2.6-2.6 3-4.2 4.7-17.1 10-34 20.1-48.8 1.5-2.3 3.8-4.4 6.2-5.6 1.6-.7 5-1.4 6.2.8 1.3 2.2-.6 3.8-1.6 5.2-5.2 6.5-6.2 17.1-2.6 23.8 11.6-8 23-16.7 35.2-24 8.9-5.3 18.9-8.9 28.5-13 1.7-.7 4.6-1.7 5.8-1.1 1.2.6 1.1 2.1.5 2.7-.6.7-4.2 2-6.4 2.8-21.2 7.7-40 19.4-56.5 34.8-3.3 3.1-3.7 5.4-1.4 9.6 3.4 6.5 6.2 13.5 7.6 20.7 2.2 11.1-4.8 19.9-16 21.5-10.2 1.5-18.6-6.3-16-16.5 2.2-8.7 6.2-17.1 10.5-25 1.9-3.5 2.2-5.8.4-9.1-1.5-2.8-3.3-10.2-4.9-9.2-1.6 1-6.6 21.2-9.8 31.8-1.2 3.8-1.8 7.9-3.5 11.4-1.1 2.2-4.3 5.2-5.8 4.8-2.6-.7-6.1-3.4-6.6-5.7-1.2-6.5-1-13.2-1.5-20.3-1.6 3.6-3.1 7.1-4.8 10.5-5.1 10.5-10.4 11.2-17.7 2-1.9 6.7-3.6 13.3-5.6 19.8-1.1 3.7-2.5 7.5-7.6 6.9-5.2-.6-7.5-4.2-7.2-8.7.9-14 2.2-28 3.5-42 .4-5 1.9-15.4.1-15.4-1.8 0-3.1 4.2-3.9 6.6-3.4 9.9-6.6 19.8-9.7 29.8-.9 2.8-1.1 5.8-5.2 5.4-3.9-.5-4.8-3.2-4.6-6.6.5-7.8 1.1-15.7 2.2-21.9s2.7-13.6.5-13.5c-2.2.2-9 16.1-11.5 24.7-1.8 6.2-2.7 12.6-3.6 19-.5 3.4-1.2 6.1-5.3 5.8-3.8-.2-4.6-2.9-4.4-6 .8-13.4 5-41.6 2.3-41.1s-3.8 13.8-5.4 20.5c-1.9 8.3-3.5 16.8-5.3 25.1-.4 2-1 4.1-1.8 6-1.5 3.6-3.7 6.2-8.2 5.7-4.4-.5-7.3-3.1-7.6-7.2-.6-9.1-.7-18.2-.7-27.3 0-3.4.4-6.8-.5-11.1-5.3 5.8-10.6 11.7-16.1 17.7 5.5 8.9 9.8 17.7 9.6 28.1-.2 9.6-7 17.6-16.6 18.7-6 .7-10.8-2.5-12.5-8.4-2.4-8.1.4-15.3 3.9-22.4 9-18.4 1.5-32.2.1-32.4-1.5-.2-6.3 19.8-9.2 29-1.4 4.3-3.1 9.4-9.4 9.2-6-.3-7.1-4.5-8.3-9.6-.9-4-.6-12.8-2.1-13.3s-4.8 13.3-7.1 19.3c-1.6 4.2-4.2 7.3-9.3 7-5.3-.3-8.2-3.5-9.7-8.3-2.5-8.3-.8-16.2 1.8-24.1.8-2.5 1.8-5 2.8-7.8-2.7-2.2-7.1-8.2-8.9-7.2-1.8 1-3.9 16.9-6.1 25-3.5 12.6-7.2 25.2-11 37.8-1.1 3.7-4.4 7.1-9.4 6-4.7-1-5-4.4-4.6-8.6 1-10.8 2.4-21.5 3.9-32.2 1.4-10.2 3.3-20.3 4.7-30.5.4-2.5 1.6-8.3-.6-9.7-2.1-1.4-3.9 4.1-4.9 5.7-7.3 12.3-14.9 34.2-15.4 37.1-.5 2.9-3.2 6-4.8 6.1-3.4.3-5.1-1.9-4.8-5.5 1-12.1 1.9-24.3 2.8-36.5.7-8.6 1.3-17.3 1.9-25.9-.6-.2-1.2-.5-1.8-.7-6.3 11.4-13 22.6-18.7 34.2-5 10.2-9 21-13.4 31.5-1.2 2.8-2.3 5.7-3.5 8.4-2.3 5.1-4.6 10.9-10.9 11.3-6.7.4-12.6-3.8-15.2-9.5-3.5-7.6-6.4-15.9-7.4-24.3-.3-2.3-.1-4.5-.1-7.2-10.7.6-20.3-1-29.1-6.2-15.7-9.2-21.8-22.9-17.8-40.6.3-1.2.5-3.3 2.9-3.3s2 2.6 2 3.8c0 4.4-1.1 8.8-.6 13.1 2 19 22.3 32.7 42.4 28.6.6-14.4 3.3-28.7 9.5-41.8 3-6.4 8-11.9 12.5-17.4 1.6-1.9 4.2-3.3 6.7-4.2 12.1-4.9 21.2.8 19.6 13.6-3 22.5-13.4 40.7-34.8 50.9-3.4 1.6-4.4 3.2-4.3 6.8.3 10.3 1.8 20.2 8.2 28.6 3 3.1 7.1 3.8 9.4-.8 5.1-10.2 8.5-21.2 13.8-31.3 9.2-17.5 19.4-34.4 28.7-51.8 1.9-3.5 1.5-8.2 1.8-12.4.2-2.8-.7-6.2 3.5-6.4 4.1-.2 5.7 2.2 5.6 6.2-.6 15-1 30-1.6 45.1-.1 3.6-.5 7.2.2 11.2 1.7-3 3.3-6.1 5.1-9.1 1.6-2.6 3.4-5.1 5.2-7.5 2.5-3.2 6-6.1 9.7-3.7 3 1.9 6.2 5.8 6.4 9 .5 7.3-.5 14.8-1.6 22.1-2.1 14.1-8.3 41.6-6.9 42.2 1.3.6 2.7-2.2 3.1-3.6 5.3-20.2 10.8-40.4 15.6-60.8 1.5-6.2.7-12.8 1.3-19.3.2-2 .8-4.3 2-5.9 1.1-1.4 3.5-2.7 5-2.4 1.4.3 3.2 2.9 3.2 4.4-.1 4-.9 7.9-1.7 11.8-1.9 9.6.7 15.5 9.3 20.2 3.4 1.9 4.9 4 2.8 8.3-4.3 9-7.4 18.4-4.4 28.6.3.9.8 3.6 2.9 3.1 2.1-.5 3.2-8.6 5-12.8 3.4-8.3 6.8-16.5 10.1-24.8 1.2-2.9 2.7-5.1 6.3-4.2 3.8 1 3.2 4 3.2 6.9-.2 8-.2 15.9-.2 23.9-.2 1.4-.1 4.8 1.9 4.8zm-152.5-30.2c2.8 1.2 8.7-3.7 12-6.8 10.6-10 17.7-22.3 20.8-36.7 1-4.9 2.2-10.9-2.8-13.4s-11.8 2.6-16.4 8.7c-11.8 15.7-16.4 47-13.6 48.2zm348.4 10.1c-2.5 0-5.9 16.3-7.8 24.7-.6 2.5 1.8 7.8 3.8 8.3 2.7.7 7.1-1 9.3-3.2 2.1-2.1 3.7-6.3 3.2-9.2-.8-7-6-20.6-8.5-20.6zm-170.5 14.9c-2.1 0-5 12-6.9 19.8-.9 3.7-.2 12.6 4.7 13.7 5.2 1.1 8.2-1.8 9.2-10.8s-4.9-22.7-7-22.7zm122.2-3.4c2.6.9 4.5-3.8 6.1-7.3 1.4-2.9 4.5-11.2 8.1-17.9 2-3.6 1.7-8.7-2.6-8.4s-15.4 32.3-11.6 33.6z"/><path class="st8" d="M692.7 111c-4.6 9.5-9.5 10.3-17 2.3-2 6.3-3.9 12.5-6.1 18.5-1.4 3.7-3 7.4-5.1 10.8-2.1 3.4-5.2 5.8-9.6 4.5-4.4-1.3-6.6-4.9-6.7-9 0-6.6.8-13.3 1.3-19.9.1-1.5.3-3.1.8-4.5 1.6-4.5-.5-6.8-4.8-7.9-1.8 5.7-3.3 11.5-5.3 17.1-2.4 6.4-6.3 9-11.4 8.4-5.1-.6-8.1-4.2-8.6-11.1-.3-3.6 0-7.2.5-10.8 1-6.4 1.2-6.4-4.7-9.9-3.1 9.9-6 19.9-9.4 29.7-1.8 5.3-5 9.3-11.6 9.3-5.2-.1-8.7-2.3-10.8-6.9-1-2.2-1.8-4.6-2.2-5.4-4.4.2-8.4 1.3-11.7.2-4.5-1.5-4.5-6.3-3.9-10.3 1.3-9.2 3-18.4 4.5-27.6.5-3.4.7-6.9 1.1-10.4-.6-.2-1.2-.4-1.9-.6-1.5 2.3-3.3 4.4-4.5 6.8-6.3 12.9-11.6 26.1-13.3 40.5-.4 3.4-1.5 5.5-5.1 5.4-4-.2-5-2.8-4.6-6.3 1.3-12.7 2.7-25.3 4-38 .2-2.2 1-6.9-.8-7.2-1.8-.2-2.6 2.9-3.5 4.5-6.3 11.6-11.6 23.6-13.1 36.9-.4 3.2-1.6 5-4.9 4.8-3.4-.2-4.6-2.1-4.5-5.3.3-7.6.5-15.2.8-22.8.1-3.2.5-6.4.7-9.9-6.1 3.5-11.5 7.2-17.5 9.9-18.1 8-36 7-53.2-2.8-3.5-2-8.9-7.3-9.3-8.2s.2-1.5 1.4-2.3c1.1-.7 3.9.4 4.9 1.5 11.7 12.8 26.6 14.8 42.4 11.7 13-2.5 24.1-9 32.3-20 1.2-1.6 4.4-2.6 6.5-2.3 1.1.2 2.3 3.8 2.3 5.8 0 4.1-.7 8.2-.2 12.6 2.1-4.1 4.2-8.3 6.4-12.3 2.6-4.7 5.8-9.1 12-7.1 5.8 1.9 6.3 7 6 12.2-.1 1.6 0 3.2 0 6.3 2.6-4.9 4.3-8.7 6.4-12.1 2.7-4.3 6.1-8.2 12-6.5 4.6 1.3 7.4 7.7 6.4 13.9-1.6 9.4-3.3 18.7-4.9 28.1-.3 1.7 0 5.1 1.6 5.3 1.7.2 3.4-8 4.9-12.4 2.1-6.1 3.6-12.4 6-18.4 1.6-4.2 5.2-6.5 10-6.1 5.4.4 7.8 3.2 7.7 8.6-.2 9-4.9 14.5-14.3 16.6-1.8 8.1-.2 24.1 3.5 24.5s4.6-4.7 5.4-7.2c3.7-11.1 6.2-19.2 9.4-30.5.4-1.5.5-5.8.5-8.2 0-2.3-.1-15.6.7-23.2.2-2.1 2.6-5.7 5.8-5.7s3.1 4.2 3.2 6.4c.1 4.7-.6 9.5-1.2 14.2-1.2 8.8 2.3 15.8 10.2 19.5 3.1 1.5 3.2 3.4 2.4 6.5-1.7 6.7-2.1 21.1-.2 21.4 2 .3 3.2-3.7 3.8-5.5 3.2-9.7 6.6-18.9 3.9-29.9-1.6-6.3.8-13.8 2.3-20.5.4-1.6 2.8-4.8 6.5-3.6 3.7 1.2 3 4.3 2.9 6.3-.2 4.9-1.4 9.8-2.3 14.6-1.3 7.6 1.4 13 8.7 15.8 3.3 1.3 3.7 3.3 3.2 6.2-.9 5.6-1.9 11.3-2.5 16.9-.5 4.3-1.9 12.9 1.1 13.1 2.3.1 3.1-3.4 3.9-5.5 5.5-16.3 10.8-32.3 16.1-48.6 1-3.2 2.3-5.3 5.9-4.5 3.8.8 3.7 3.6 3.2 6.7-1.3 7.4-5.3 21.4-2.2 22.4 3.1 1.1 8.5-13.8 12.5-20.8 1.7-2.8 3.9-4.8 6.8-3 1.6 1 2.7 3.9 2.6 5.9-.4 8.9-1.4 17.8-2.3 27.9 10.1-4.5 20.1-7.8 29-13 13.5-7.8 19.7-20.3 18.8-35.9-.4-7.5-3.2-13.7-10.3-17.3-.7-.3-1.3-.8-1.8-1.3-.2-.2-1.3-.8-.8-2.3.5-1.4 4.2-.2 5.7.5 7.8 3.5 11.9 9.8 13.1 18.1 2.5 18-5.4 33.8-22.2 42.6-8.5 4.5-17.7 7.8-26.8 11.1-4 1.4-5.5 3.2-6 7.5-.8 6.7-2.2 13.5-4.3 20-2.3 6.8-10.3 10.2-16.7 8-5.4-1.9-8.5-8.9-6.9-15.9 1.9-8 7.2-13.5 14.1-17.1 4.3-2.2 6.3-4.5 6.3-9.3 0-4.4.9-8.9 1.5-13.3-.1-.1-3.6 5.3-4.9 8.1zm3.2 17.7c-10.2 3.7-16.1 13.2-13.9 20.9.5 1.6.7 3.6 2.9 4.5s4.1-2 4.6-3.6c2.4-6.8 4.2-13.9 6.4-21.8zM597.7 88c-1.7 0-3.9 10.4-6.2 16.5 7.6-5 7.9-16.5 6.2-16.5z"/><path d="M839.1 53.5c0-2.5 1.2-5 5.1-4.5 1.1.1 2.7 1.2 2.7 4.5 0 3.2-.2 5-4.6 4.5-1.2-.2-3.2-1.9-3.2-4.5z" fill="none" stroke="#000" stroke-width=".25" stroke-miterlimit="10"/><path d="M572.8 167c2.8.5 4.3 2.1 4.2 4.8-.1 2.9-1.8 4.9-4.9 5.1-3.1.1-4.1-2-4-4.7.1-2.9 1.6-4.8 4.7-5.2z" fill="#ec361c" stroke="#000" stroke-width=".25" stroke-miterlimit="10"/><circle class="st2" cx="176" cy="400.4" r="4.8"/><circle class="st2" cx="126" cy="300.1" r="4.5"/><circle class="st2" cx="198" cy="208.6" r="3.8"/><circle class="st2" cx="95" cy="122.4" r="4.7"/><circle class="st2" cx="180.8" cy="67.2" r="3.2"/><circle class="st2" cx="42" cy="359.6" r="8.7"/><circle class="st2" cx="95" cy="506.8" r="4.7"/><circle class="st2" cx="177.6" cy="591" r="6.4"/><circle class="st2" cx="218" cy="497.7" r="4.9"/><circle class="st2" cx="74" cy="712.7" r="4.5"/><circle class="st2" cx="42" cy="615.1" r="5.2"/><circle class="st2" cx="184" cy="768.1" r="5.1"/><circle class="st2" cx="69.5" cy="848.9" r="8.9"/><circle class="st2" cx="233" cy="864" r="4.9"/><circle class="st2" cx="50.7" cy="211.9" r="3.4"/><circle class="st2" cx="47.3" cy="31.6" r="3.4"/><circle class="st2" cx="974.6" cy="83" r="6"/><circle class="st2" cx="1090.1" cy="77" r="8.3"/><circle class="st2" cx="980.6" cy="177.5" r="6.6"/><circle class="st2" cx="1105.1" cy="246.2" r="8.8"/><circle class="st2" cx="1010.6" cy="320.5" r="10.7"/><circle class="st2" cx="1039.1" cy="414.6" r="6.8"/><circle class="st2" cx="1132.1" cy="376.8" r="5.9"/><circle class="st2" cx="1098.4" cy="492.8" r="8.8"/><circle class="st2" cx="1000" cy="573.5" r="10.7"/><circle class="st2" cx="1145.6" cy="591" r="6.4"/><circle class="st2" cx="1039.1" cy="652.6" r="7.8"/><circle class="st2" cx="989.3" cy="760.2" r="7.8"/><circle class="st2" cx="1132.1" cy="785.2" r="7.1"/><circle class="st2" cx="1046.9" cy="848.9" r="7.2"/><circle class="st2" cx="1166.6" cy="154.3" r="6.4"/></svg>