<?xml version="1.0" encoding="utf-8"?>
<svg version="1.1" id="Layer_1" xmlns="http://www.w3.org/2000/svg" xmlns:xlink="http://www.w3.org/1999/xlink" x="0px" y="0px"
	 viewBox="0 0 2 429" style="enable-background:new 0 0 2 429;" xml:space="preserve">
<style type="text/css">
	.cord1{fill:none;stroke:#006837;stroke-width:0.25;stroke-miterlimit:10;}
</style>
<path class="cord1" d="M0.9,0.3C0.9,0.3,2,9.7,2,17c0,7.3-0.6,13.1-0.9,18.8C1,40.2,2,51.3,1.9,56.1c-0.1,4.1-1.9,25.7-1.6,32
	c0.3,6.3,2.1,17.3,2,25.7c-0.1,8.3-1.6,19.6-1.4,24.5s1.4,20.5,1.4,26.4c0,5.9-0.4,45.6-1.1,55c-1,13.1,1.2,22.9,1.1,33.1
	c-0.1,10.2-1.5,33.3-1.6,42.9c-0.1,9.4,1.3,32.8,1.3,39c0.1,6.5-1.3,38.5-1.3,47.8c0,5.8,1.2,16.6,1.4,22.3c0.1,5-1.4,16.9-1.1,21.2
	c0.3,3.4,0.5,2.9,0.5,2.9"/>
<path class="cord2" d="M1.8,429c0,0-1.1-9.5-1.2-16.8c0-7.3,0.6-13.1,0.9-18.8c0.2-4.4-0.9-15.5-0.8-20.3c0.1-4.1,1.9-25.7,1.6-32
	c-0.3-6.3-2.1-17.3-2-25.7c0.1-8.3,1.6-19.6,1.4-24.5c-0.2-5-1.4-20.5-1.4-26.4s0.4-45.6,1.1-55c1-13.1-1.2-22.9-1.1-33.1
	S1.9,143,2,133.5c0.1-9.4-1.3-32.8-1.3-39C0.5,88,2,56,2,46.7C2,40.8,0.7,30,0.6,24.4C0.5,19.4,2,7.5,1.7,3.2
	C1.4-0.2,1.1,0.3,1.1,0.3"/>
</svg>
