<?xml version="1.0" encoding="utf-8"?>
<!-- Generator: Adobe Illustrator 22.1.0, SVG Export Plug-In . SVG Version: 6.00 Build 0)  -->
<svg version="1.1" id="Layer_1" xmlns="http://www.w3.org/2000/svg" xmlns:xlink="http://www.w3.org/1999/xlink" x="0px" y="0px"
	 viewBox="0 0 1200 900" style="enable-background:new 0 0 1200 900;" xml:space="preserve">
<style type="text/css">
	.st0{fill:#FFFFFF;stroke:#000000;stroke-width:0.5;stroke-miterlimit:10;}
	.st1{fill:#FFFFFF;}
	.st2{fill:#FFFFFF;stroke:#000000;stroke-width:0.25;stroke-miterlimit:10;}
	.st3{fill:#FCFCFC;}
</style>
<rect x="0.3" y="1" class="st0" width="1200" height="898"/>
<path class="st1" d="M748.2,896.1c-112.9,0-225.8,0-338.6,0c2.8-16.8,8.1-32.7,15.5-48.4c9,7.6,19.1,10.6,30,11.8
	c22.6,2.5,43.7-3.2,64.2-12c22.2-9.6,42.5-22.8,63.4-34.9c5.3-3.1,8.8-3.1,14.1,0.4c27.3,18.1,56.7,29.6,90.3,25.7
	c17.9-2.1,34.9-6.1,45.7-22.6c0.1-0.1,0.7,0,1.3,0C740.6,842.3,745.6,869,748.2,896.1z"/>
<path class="st2" d="M320.9,815.3c0-6.6,4.6-11.4,11-11.4c6.1,0,10.9,5.1,10.9,11.5c0,5.5-5.9,11.6-11.2,11.5
	C325.2,826.8,320.9,822,320.9,815.3z"/>
<path class="st2" d="M416.5,508.2c-0.1,6.1-4.4,10.2-10.6,10.1c-5.5-0.1-11.3-6.1-11.2-11.6c0.1-5.6,5.4-11.3,10.7-11.4
	C411.4,495.2,416.6,501.2,416.5,508.2z"/>
<path class="st2" d="M881.5,634.6c5.9,0.1,10.8,4.8,10.7,10.4c-0.1,5.4-5.3,10.3-11,10.3c-5.7,0-11.9-5.6-11.7-10.6
	C869.7,639.3,875.4,634.5,881.5,634.6z"/>
<path class="st2" d="M698.1,330.7c0-5.2,4.6-9.7,10.1-9.9c4.3-0.2,9.5,5,9.5,9.6c0.1,5.9-3.9,9.8-10.1,10
	C702,340.4,698.1,336.6,698.1,330.7z"/>
<path class="st2" d="M280.6,587.4c4.4,0,8.1,4.4,8,9.4c-0.1,4.2-4,8-8.2,7.9c-3.9-0.1-8-4.4-7.9-8.3
	C272.8,591.9,276.8,587.4,280.6,587.4z"/>
<path class="st2" d="M924.5,449.2c-5,0-9.3-3.8-9.2-7.3c0.1-4,2.5-6.3,6.4-6.5c4.1-0.2,8.7,4,8.4,7.6
	C929.8,447,927.3,448.9,924.5,449.2z"/>
<path class="st2" d="M282.1,67.2c-5.5,0-7.9-2-8.2-6.5c-0.3-4.6,2.6-6.9,6.4-7.2c4.1-0.3,6.9,2.9,7.1,6.6
	C287.6,63.9,285.4,67,282.1,67.2z"/>
<path class="st2" d="M755.2,546c-4.1-0.3-6.9-2.3-6.9-6.7c0-4.2,2.6-6.1,6.6-6.1c3.9-0.1,7,1.5,6.9,5.7
	C761.8,542.8,759.8,545.8,755.2,546z"/>
<path class="st2" d="M362.6,338.6c4.4,0,6.5,1.6,6.7,5.4c0.2,4.4-2.5,6.6-6.1,6.9c-3.1,0.3-6.4-1.6-6.4-5.2
	C356.8,341.8,358.8,338.8,362.6,338.6z"/>
<path class="st2" d="M913,805.7c0.3,3.1-2.2,5-5.2,4.8c-3.4-0.2-7.3-1.8-7.2-5.9c0.1-3.5,3-5.4,6.8-5.3
	C911.2,799.4,912.9,801.4,913,805.7z"/>
<path class="st2" d="M918.4,330.6c-3-0.1-5.2-1.4-5.3-4.3c-0.1-3.3,2.1-5.6,5.1-5.8c2.7-0.1,5.2,1.5,5,5
	C923.1,328.7,921.4,330.3,918.4,330.6z"/>
<path class="st2" d="M794,848.9c3.7-0.1,5.1,1.4,4.9,4.2c-0.3,3.5-2.3,5.8-5.8,5.9c-3.2,0.2-3.3-2.4-3.4-4.8
	C789.4,850.4,791.5,849.1,794,848.9z"/>
<path class="st2" d="M252.9,714.5c0.2,3.3-0.6,5.4-4,5.4c-3.9,0-4.1-2.6-4.1-5.5c0-2.7,0.6-5.5,3.7-5.5
	C251.9,708.9,253.5,711.4,252.9,714.5z"/>
<g>
	<path class="st1" d="M479.7,363.4c0,0-0.1-0.1-0.1-0.1C479.7,363.3,479.6,363.3,479.7,363.4C479.7,363.4,479.7,363.4,479.7,363.4z"
		/>
	<path class="st1" d="M632.1,432.9L632.1,432.9c-0.1,0.1-0.1,0.1-0.2,0.2L632.1,432.9z"/>
	<path class="st1" d="M610.1,444.4C610.1,444.4,610.1,444.4,610.1,444.4c0,0-0.1,0.1-0.1,0.1L610.1,444.4z"/>
	<path class="st1" d="M471.8,354.7C471.8,354.7,471.8,354.7,471.8,354.7C471.8,354.7,471.8,354.7,471.8,354.7
		C471.8,354.7,471.8,354.7,471.8,354.7C471.8,354.7,471.8,354.7,471.8,354.7z"/>
</g>
<path class="st2" d="M273.3,173.2c-2.5-0.8-4.2-2.3-3.9-4.9c0.3-2.8,2.3-4.2,5.1-4.2c2.5,0,4.2,1.2,3.8,3.7
	C277.9,170.7,275.9,172.3,273.3,173.2z"/>
<path class="st2" d="M353.2,644.9c0-3.2,1.3-4.6,4.2-4.6c3,0.1,4,1.8,3.8,4.5c-0.2,2.6-1.6,4.5-4.3,4.4
	C354.2,649.2,352.7,647.5,353.2,644.9z"/>
<path class="st2" d="M826.8,492.8c-2.3-0.9-4-2.4-3.6-5c0.3-2.2,1.8-4.1,4.1-3.8c2.5,0.3,4,2.3,3.6,4.9
	C830.7,491.2,829.3,492.6,826.8,492.8z"/>
<path class="st2" d="M793.4,634.6c-2.6-0.1-3.8-1.4-3.6-3.7c0.2-2.5,1.3-4.3,4.3-4.3c2.2,0,3.8,0.5,3.7,3.1
	C797.6,632.6,796,634.2,793.4,634.6z"/>
<path class="st2" d="M377.9,414.6c2.5,0,4.2,0.9,4,3.6c-0.1,2.4-1.5,4.1-3.9,4.2c-2.4,0.1-3.8-1.7-4-4
	C373.8,415.8,375.3,414.6,377.9,414.6z"/>
<path class="st2" d="M870.1,291.3c-0.6,2.5-2,4.2-4.3,4.2c-2.4,0-3.7-1.6-3.5-4.2c0.2-2.7,1.8-3.5,4.2-3.5
	C869.1,287.9,869.5,289.8,870.1,291.3z"/>
<path class="st2" d="M663.5,31.1c-0.8,3.2-2.5,5.4-5.5,5.4c-3.1,0-4.7-2-4.4-5.3c0.3-3.4,2.3-4.4,5.4-4.4
	C662.2,26.8,662.8,29.1,663.5,31.1z"/>
<path class="st2" d="M510,39c-0.7,2.6-2,4.3-4.4,4.3c-2.5,0-3.8-1.6-3.5-4.2c0.2-2.7,1.9-3.5,4.3-3.5C509,35.6,509.5,37.4,510,39z"
	/>
<path class="st2" d="M251.7,369.1c-0.7,2.4-2,3.9-4.4,4c-2.3,0.1-3.6-1.2-3.5-3.5c0.2-2.6,1.6-4.4,4.3-4.2
	C250.2,365.5,251.3,367.3,251.7,369.1z"/>
<path class="st2" d="M357.2,129.3c-2.3-0.4-4.1-1.6-4.2-4c-0.1-2.5,2-2.9,4-2.9c2.2,0,3.7,1,3.7,3.4
	C360.7,128.1,359.3,129.1,357.2,129.3z"/>
<path class="st2" d="M785,351.2c-2.3-0.2-3.4-1.5-3.2-3.8c0.2-2.4,1.9-3.1,4-3.1c2.3,0,2.9,1.3,2.8,3.3
	C788.4,350,787.3,351.2,785,351.2z"/>
<path class="st2" d="M912,208.6c2.5,0.3,3.3,1.6,3.2,3.6c-0.1,2-1.3,3.1-3.3,3.1c-2,0-3.5-0.8-3.3-3
	C908.7,210.1,910.4,209.2,912,208.6z"/>
<path class="st2" d="M758.4,17.6c-0.6,2.1-1.8,3.6-3.9,3.7c-2.1,0.1-2.9-1.5-2.8-3.5c0.1-2,1.3-3.1,3.3-3.2
	C757,14.6,758.1,15.6,758.4,17.6z"/>
<path class="st2" d="M310.2,459.7c-0.5,2.2-1.6,3.5-4,3.3c-2-0.1-2.6-1.3-2.5-3c0.1-2.2,0.8-3.9,3.3-3.6
	C308.7,456.6,309.9,457.9,310.2,459.7z"/>
<path class="st2" d="M405.9,33.8c-0.5,2.2-1.6,3.5-4,3.3c-2-0.1-2.6-1.3-2.5-3c0.1-2.2,0.8-3.9,3.3-3.6
	C404.4,30.7,405.6,32,405.9,33.8z"/>
<path class="st2" d="M346.1,219.2c-0.2,2.1-1.4,3.5-3.4,3.9c-2.1,0.4-3.1-1-3.2-3c-0.1-2,0.8-3.3,2.9-3.5
	C344.3,216.3,345.7,217,346.1,219.2z"/>
<path class="st2" d="M906.4,529.8c-2.2-0.1-3.7-0.9-3.5-3c0.2-2.1,1.7-3.5,3.8-3.6c1.8-0.1,2.7,1.2,2.8,2.9
	C909.6,528.3,908.4,529.6,906.4,529.8z"/>
<path class="st2" d="M517.2,293.6c-2.2-0.1-3.7-0.9-3.5-3c0.2-2.1,1.7-3.5,3.8-3.6c1.8-0.1,2.7,1.2,2.8,2.9
	C520.4,292.2,519.3,293.4,517.2,293.6z"/>
<path class="st2" d="M268.1,292.7c-0.6,2.6-1.9,4.2-4.7,3.9c-1.9-0.2-4-0.5-3.9-2.8c0.2-2.5,2.2-3.8,4.7-4
	C266.2,289.8,267.8,290.5,268.1,292.7z"/>
<path class="st2" d="M416.8,262.8c2.1,0.4,2.8,1.9,2.6,3.7c-0.2,2-1.5,3-3.5,2.9c-2.1-0.1-2.2-1.7-2.1-3.3
	C413.8,264.2,414.6,262.9,416.8,262.8z"/>
<path class="st2" d="M623.7,299.9c-0.5,1.7-1.6,3-3.4,3.2c-1.8,0.2-3-0.9-3-2.6c0-2.1,1.3-3.7,3.4-3.7
	C622.2,296.9,623.3,298.3,623.7,299.9z"/>
<path class="st2" d="M822.9,190.3c0,1.9-1,2.8-2.7,3.1c-1.5,0.2-2.6-0.3-2.7-2c-0.1-1.7,0.5-3,2.3-3.4
	C821.6,187.6,822.5,188.7,822.9,190.3z"/>
<path class="st2" d="M875.3,129.1c-0.1,2.2-1.1,2.8-2.6,2.7c-1.5-0.1-2.8-0.8-2.6-2.4c0.2-1.6,1.4-2.9,3.1-2.8
	C874.9,126.7,875.2,128.2,875.3,129.1z"/>
<path class="st1" d="M683.6,408.4c1.6-0.8,3-1.5,4.6-1.8c14.5-2.9,29.6,4.4,35.7,17.2c6.4,13.4,2.6,28.3-9.6,38.1
	c-4.5,3.6-9.5,6.6-14.8,8.7c-4.2,1.7-5,4-4.3,8.3c3.5,22.7,6.6,45.5,8.7,68.5c1.7,18.6,1.4,37.2,2.3,55.8c0.1,3-1.6,3.3-3.6,4.1
	c-18.9,7.1-38.7,9.4-58.5,11.3c-37.3,3.6-74.7,3.9-112.1,1.2c-24.7-1.8-49.1-5.5-73.6-9.5c-4.9-0.8-3.8-3.8-3.6-6.6
	c2.4-23.1,6.4-45.9,10.8-68.7c3.8-19.4,7.3-38.8,11.2-58.1c0.9-4.4-0.5-7.1-3.3-10.2c-10.4-11.4-14.5-24.8-10.9-39.8
	c4.9-20.3,29.8-30.7,47.7-19.9c14.5,5.6,19.4,2.7,19.4,2.7l10.5-1.7l13-2.8l17.4-3.6c0,0,16.6-1.6,30.3-1.2c34.1,0.9,53,8.5,53,8.5
	S669.6,415.2,683.6,408.4z M631.9,548.8c1-7.3-0.7-15.4-2.4-23.4c-4-19.2-13.7-32.7-34.4-36.6c-15.4-2.9-30.2,4.4-35.6,19.1
	c-3.7,10.3-5.1,21.1-5.8,32c-0.8,13,0.7,26,3.6,38.6c2.2,9.7,5.9,19.2,14.9,25c14.6,9.6,35.8,5.6,48.3-11.5
	C629.7,579.3,632.6,565.1,631.9,548.8z M503.5,558.7c11.5,0,20.2-8.3,20.2-19.5c0-11.5-8.6-20.6-19.9-20.9
	c-10.7-0.3-20.4,9.4-20.5,20.6C483.3,549.9,492.2,558.7,503.5,558.7z M654.8,537.4c0,10,7.4,17.6,17.2,17.7
	c9.1,0.1,17.6-8.2,17.5-17.5c0-10.1-7.8-18.3-17.4-18.2C661.9,519.5,654.8,526.9,654.8,537.4z M710.3,436.9
	c0.7-5.7-1.6-10.3-7.3-12.6c-6.7-2.7-13.4-1.6-19.9,1.4c-2.8,1.3-2.9,2.8-1.7,5.4c3.1,7.2,5.9,14.4,7,22.2c0.3,2.1,1.1,4.4,4,3.7
	C700.4,455.2,711.3,446,710.3,436.9z M494.3,420.3c-5.6,1.1-11.4,2.9-14.5,9.1c-4.9,9.9-2,18.5,4,26.7c2.2,3.1,3.5,3.9,5.6-0.3
	c4.5-9.5,9.5-18.8,18.8-24.7c2-1.3,1.9-2.7,0.4-4.2C504.8,423.1,500.3,420.8,494.3,420.3z M541.4,492.9c-8.2,7.4-16.1,9.1-24,0.2
	c-0.7-0.8-1.9-0.8-2.5,0.1c-0.8,1.2,0.2,2.2,0.7,3.1c3.2,4.9,8.1,7,13.8,6.5C535.2,502.4,539.7,499.5,541.4,492.9z M656.9,504.2
	c4.9,0.1,10.7-4,11.7-8.5c0.2-0.8,0.2-2.3-0.2-2.6c-1.3-0.9-1.8,0.4-2.5,1.3c-6.4,8.1-9.2,8.2-16.7,1c-0.8-0.8-1.6-2.1-2.8-1.3
	c-1.4,0.9-0.8,2.5-0.2,3.6C648.3,502.1,652.3,503.6,656.9,504.2z"/>
<path d="M855.5,707.8c-8.2-3-15.6-8.5-25.4-7.1c-13.8,2-27.5,5.2-41.6,5.5c-15,0.4-29.5-1.3-43.5-6.8c-1.1-0.4-4.5-0.1-2.3-3
	c5.7-7.6,3.2-15-0.4-22.2c-10.1-19.9-16.3-40.8-19.2-62.9c-1.1-8.6-3.1-17.2-10.8-22.7c-2.4-1.7-2.9-3.4-3-6.1
	c-0.4-11.7-0.9-23.4-1.7-35.1c-1.6-22.6-4.8-45-8.3-67.4c-0.6-3.7,0-5.9,3.8-7.5c5.7-2.4,10.8-5.8,15.5-9.8
	c10.7-9.3,14.8-21,11.2-34.7c-3.6-13.8-12.7-22.5-26.8-25.5c-2-0.4-4.1-0.7-6.1-1c-0.6-0.2-1.6-0.3-3-0.4c0.3-0.1,0.5-0.3,0.8-0.4
	c-0.3,0.1-0.7,0.3-1,0.4c-11.3-0.5-21,10.2-28.7,6.7c-6.2-2.8-20.1-6.6-28-8.9c-8-2.3-50-3.4-51.6-3.3c-9,0.3-18,1.2-26.9,3
	c-0.3,0.1-22.4,6-28,6.5c-0.3,0-8.5,0.5-10.3,1.3c-4.7-2.5-22.5-10.5-36.3-6.6c-13.4,3.8-22.6,12.6-25.5,26.3
	c-3.2,15.3,0.6,29.5,11.1,41.2c3.5,3.9,3.8,7.2,3,11.9c-7,38.3-16.2,76.2-20.5,115c-0.2,1.6,0,3.6-2.1,4.3
	c-10.5,3.8-12.8,12.6-12.6,22.3c0.5,16.8-0.8,33.3-6.5,49.3c-1.8,5.2-2.1,10.8,1,15.6c1.7,2.6,1.4,4.2,0,6.5
	c-5.8,9.7-11.2,19.6-15.9,30c-18.3,41-18.8,81.3,4.4,120.7c1.5,2.6,1,4.4-0.1,6.8c-6.4,15-12,30.3-14.2,46.5c1.2,0,2.3,0,3.5,0
	c2.8-16.8,8.1-32.8,15.6-48.5c9,7.6,19.2,10.6,30,11.8c22.7,2.5,43.8-3.2,64.3-12c22.3-9.6,42.6-22.8,63.4-34.9
	c5.3-3.1,8.8-3.1,14.1,0.4c27.3,18.2,56.7,29.7,90.4,25.7c17.9-2.1,34.9-6.1,45.8-22.6c0.1-0.1,0.7,0,1.3,0
	c6.4,26.4,11.5,53.1,14.1,80.2c1.5,0,3.1,0,4.6,0c-0.3-0.4-0.8-0.9-0.9-1.3c-3-26.9-8-53.5-14.5-79.7c-0.4-1.6-0.5-2.9,0.2-4.4
	c1.9-4.2,3.8-8.4,5.5-12.6c0.6-1.6,1.1-2.8,3.2-2c13.5,5.6,27.8,4.8,42,5.7c7.3,0.4,14.6,1.7,16.6,10.9c0.3,1.5,1.8,3.6,3.8,2.3
	c2.2-1.3,0.4-2.9-0.4-4.4c-3.9-7.4-3.9-7.4,0.8-14.5c0.8,0.9,1.4,1.8,2.2,2.7c1.4,1.5,2.7,5,5,2.9c2.1-2-1-4.1-2.6-5.3
	c-4.2-3.2-4.3-6.7-1.5-11.2c1.3,1.1,2.6,2.2,3.9,3.2c1.3,1,2.9,2.9,4.4,1.2c1.5-1.7-0.5-3-1.8-4.1c-1.5-1.2-3.2-2.2-4.6-3.4
	c-2.5-2-1-4.5,0-6.2c1.2-2,2.5,0.4,3.7,0.9c1,0.4,1.9,1.3,2.9,1.8c0.8,0.4,2,0.8,2.6-0.2c0.8-1.2,0.1-2.2-0.9-2.9
	c-0.9-0.7-1.9-1.4-2.9-1.8c-5.2-1.9-5.2-5.3-2.9-9.6c1.2,0.6,2.3,1.4,3.5,1.9c3,1.2,7.1,5.9,8.5,3.3c2-4-4-4.9-6.8-6.3
	c-4.4-2.2-5.5-4.7-2.4-9.1c1.5,1.2,2.9,2.5,4.4,3.5c2.1,1.3,4.4,5.1,6.6,2.2c1.7-2.2-2.2-3.7-4.1-5.1c-7.3-5.2-7.3-5.1-2-13
	c2,2.1,4,4.2,6,6.2c0.8,0.8,2,1.5,3,0.4c0.9-1,0.5-2.2-0.4-3.1c-1.8-1.8-3.5-3.6-5.5-5c-3.9-2.8-0.8-5.4,0.7-7.2
	c2-2.4,2.7,1.1,4.1,1.8c0.7,0.3,1.1,1.1,1.7,1.6c1.3,0.9,2.6,3.1,4.3,1.3c1.7-1.8-0.4-3-1.6-4.1c-1.4-1.3-3-2.4-4.3-3.9
	c-2.8-3.1,0.9-4.7,2.1-6.6c1.5-2.4,2.3,0.3,3.4,0.9c2,1.3,3.3,6.1,5.9,3.3c2.2-2.4-2.1-4.2-3.9-5.9c-2.1-1.9-1.9-3-0.4-5.2
	c1.9-2.5,2.9-0.9,4.6,0.1c2.3,1.4,5,5.6,7,2.8c2.1-3-3.1-3.6-4.9-5.4c-0.9-0.9-2.6-1.3-1.7-3.1c0.9-1.7,2.2-2.5,4.2-1.5
	c1.7,0.9,3.6,1.4,5.4,1.9c0.9,0.3,2,0.2,2.5-0.9C857.2,708.9,856.3,708.1,855.5,707.8z M454.7,603.3c2.4-23.1,6.4-46,10.8-68.8
	c3.8-19.4,7.3-38.8,11.3-58.2c0.9-4.4-0.5-7.1-3.3-10.2c-10.4-11.4-14.5-24.8-10.9-39.9c4.9-20.4,28.4-27.9,47.8-19.9
	c8,3.3,10.3,4.4,18.7,3.2c8.3-1.1,38.4-7.9,38.7-7.9c7.1-1.3,46.8-2.2,63.2,0.3c16.4,2.5,19.8,5.9,30.8,9.1
	c11,3.2,25.4-4.6,25.4-4.6c0.4-0.1,0.9-0.2,1.4-0.3c14.5-2.9,29.6,4.4,35.7,17.2c6.4,13.4,2.6,28.3-9.6,38.1
	c-4.5,3.6-9.5,6.6-14.8,8.7c-4.3,1.7-5,4-4.3,8.3c3.5,22.8,6.6,45.6,8.7,68.5c1.7,18.6,1.4,37.2,2.3,55.8c0.1,3-1.6,3.3-3.7,4.1
	c-18.9,7.1-38.7,9.4-58.6,11.3c-37.4,3.6-74.8,3.9-112.3,1.2c-24.7-1.8-49.2-5.5-73.6-9.5C453.4,609.2,454.4,606.2,454.7,603.3z
	 M450.5,602.2c2.1,7-2.9,5.4-6.3,5.7C445.2,604.7,447.3,602.9,450.5,602.2z M435,671.1c4.9-16.2,6.6-32.6,6-49.5
	c-0.2-4.7,0.2-9.5,3.2-13.5c-0.2,2.6,2,2.5,3.7,3c3.2,1,6.7,0.9,9.7,2.7c2-0.4,3.9-0.1,5.7,1c4.2,0.4,8.4,0.9,12.3,2.3
	c2.2-0.1,4.4-0.2,6.3,1.1c11.8,1.4,23.5,2.9,35.3,4.3c2.4,0.1,4.7,0.3,7.1,0.4c4.6-0.3,9,0.6,13.5,1.1c2.3,0.1,4.5,0.1,6.8,0.2
	c5,0.3,9.9,0.6,14.9,0.9c1.6,0,3.2,0,4.8,0.1c3.9,0,7.8,0.1,11.7,0.1c1.7,0,3.4,0,5.2,0c12.9-0.4,25.9-0.7,38.8-1.1
	c2.1-0.1,4.3-0.2,6.4-0.2c4.3-0.4,8.7-0.7,13-1.1c2.1-0.3,4.1-0.9,6.2-0.3c4-1.7,8.3-1,12.4-1.5c2-1,4.2-0.8,6.3-0.7
	c3.9-0.7,7.9-1.3,11.8-2c1.9-0.3,3.8-0.7,5.7-1c6.8-1.6,13.5-3.3,20.3-4.9c2.1-1.6,4.6-2.3,7.2-3c1.9-1.8,5.6-2.6,1.1-6.5
	c-2-1.8-0.7-7.5-0.9-12.4c6.3,5.1,8.4,11.3,9.1,17.7c2.6,24.3,9.6,47.2,20.3,69.1c2.9,6,5.1,12.3-1.5,17.7c-2,2.4-4.6,3.7-7.5,4.6
	c-1.1,0.7-2.1,1.9-3.3,2.1c-10.7,1.9-20.3,6.8-30.3,10.6c-2.7,1.1-5.4,2.1-8.1,3.2c-4.2,1.9-8.4,3.4-13,4c-2.4,1.5-5.3,1.5-7.9,2
	c-3.1,0.6-6.2,1.8-9.5,1.4c-2.6,1.1-5.3,1.4-8,1.1c-7.1,1-14.1,1.7-21.3,1.3c-3.3,0.7-6.6,1.1-9.9,0.3c-12,1-23.9,0-35.8-1.1
	c-2.7-0.2-5.4-0.4-8.1-0.6c-3.1,0.4-6.1-0.5-9.2-1c-2.4,0.1-4.8,0.3-7-1c-6.1,0-12-1.3-18-2.7c-2.1-0.4-4.2-0.7-6.4-1.1
	c-5.9-1.2-12-1.9-17.6-4.3c-2.4,0.2-4.5-0.7-6.7-1.4c-11.3-2.8-22.4-6.3-33.3-10.6c-2.5-0.7-5.2-1.2-7.3-3
	c-6.5-1.9-12.6-4.6-18.4-7.8c-2.2-0.9-4.4-1.9-6.7-2.8C433.9,684.7,431.8,681.6,435,671.1z M585.1,806.6
	c-25,14.1-48.9,30.3-75.9,40.6c-20.8,8-42.1,11.5-64.3,6.4c-12.3-2.9-21.1-9.3-26.6-21.3c-15.9-34.3-15.5-68.6-1.4-103.1
	c5-12.3,11.3-23.9,18.1-35.2c0.9-1.6,1.4-4.3,4.6-2.6c20.3,10.8,42.2,17.6,64.8,24.4c-5.5,4.9-5.7,12.3-10.4,17.2
	c-1,1.1-1.7,3.4-1.4,4.8c1.8,7.8-2.7,6.4-7.5,5.7c-8.2-1.4-16.5-0.8-24.6,0.7c-1.3,0.2-3.2,0.1-3.6,2.2c1.3,1.8,3.2,0.9,4.7,0.8
	c9.7-1.2,19.2,0.1,28.7,1.5c0.7,0.1,1.8,0.1,2.1,0.5c5.3,6.7,13.5,7.6,20.7,10.3c5.2,1.9,10.1,4.6,14.8,7.7
	c19.1,12.8,38.3,25.6,57.3,38.4C585.3,806,585.3,806.5,585.1,806.6z M739.7,798.7c-9.5,20.2-24.3,32.5-47.2,35.4
	c-26.5,3.3-51.1-1.1-74.5-13.6c-25.1-13.4-47.8-30.5-71.4-46.3c-13.6-9.1-26.9-18.5-43.1-22.4c-0.7-0.2-1.4-0.6-2.1-0.9
	c-2.1-1.2-5.2-2.2-5.1-4.8c0.1-2.7,3.1-3.5,5.3-4.6c2.3-1.2,7.3-1.4,6-4.4c-1.5-3.4-5.2-0.2-7.9,0.8c-1.1,0.4-2.1,1-3.8,1.9
	c1-6.6,5.5-9.4,9.7-12.4c1.3-0.9,3.5-1.4,3.1-3.6c-0.4-2.3-2.9-1-4.2-2c3.4-4.1,7.5-4.1,12.3-2.9c42.6,10.7,85.8,14.3,129.7,10.4
	c2.7-0.2,4.6,0.4,6.5,2.5c23.7,26.4,51.9,46.6,84.4,60.6C741.1,793.9,741.1,795.6,739.7,798.7z M824.9,729.5
	c-10.1,17.6-12.9,37.4-17.4,56.7c-0.3,1.3-0.7,2.6-1.1,3.9c-3,9.7-3,9.6-12.4,7.7c-3.5-0.7-7.2-0.7-10.8-1.1c-3.1,0-6.3,0.1-9.4,0.1
	c-12.3,0-23.7-3.3-34.7-8.6c-2.3-1-4.7-1.9-7-2.9c-8.6-4-17.2-8-25-13.6c-2.2-0.7-4.1-1.9-5.7-3.6c-8.9-5.3-17.3-11.3-24.8-18.5
	c-2.6-1.5-4.9-3.4-6.7-5.8c-5.4-4.3-10-9.3-15.4-15c4.2-0.8,7.5-1.4,10.7-2c10-1.8,19.9-4.3,29.1-8.7c13.7-6.6,28.2-10.9,42.2-16.4
	c2.5-1,4,0.3,5.8,1.3c4.3,1.7,8.6,3.5,12.9,5.2c2.8-0.3,5.4,0.6,8,1.4c4.9,0.4,9.7,0.8,14.6,1.2c4.4,0,8.8,0,13.2,0
	c2.5-0.1,5-0.2,7.5-0.3c6-0.8,12-1.6,18.1-2.5c3.6-1.3,7.2-2.4,11.1-2c5-2,9.9-0.7,16,0.4C835.9,712.9,824.9,729.4,824.9,729.5z"/>
<path class="st3" d="M504.4,715.9c-5.5,4.9-5.7,12.3-10.4,17.2c-1,1.1-1.7,3.4-1.4,4.8c1.7,7.8-2.7,6.4-7.5,5.7
	c-8.2-1.3-16.4-0.8-24.6,0.7c-1.3,0.2-3.2,0.1-3.6,2.2c1.3,1.8,3.2,0.9,4.7,0.8c9.6-1.2,19.1,0.1,28.6,1.5c0.7,0.1,1.8,0.1,2.1,0.5
	c5.3,6.7,13.5,7.6,20.7,10.3c5.2,1.9,10.1,4.6,14.7,7.7c19.1,12.7,38.2,25.6,57.3,38.3c-0.1,0.5-0.1,1-0.3,1.1
	c-25,14-48.8,30.3-75.8,40.6c-20.8,8-42,11.5-64.2,6.4c-12.3-2.9-21.1-9.3-26.6-21.2c-15.9-34.3-15.5-68.5-1.4-103
	c5-12.3,11.3-23.8,18.1-35.2c0.9-1.6,1.4-4.3,4.6-2.6C460,702.4,481.8,709.1,504.4,715.9z"/>
<path class="st3" d="M495.8,739.7c1-6.6,5.5-9.4,9.7-12.3c1.3-0.9,3.5-1.4,3.1-3.6c-0.4-2.3-2.9-1-4.2-2c3.4-4.1,7.5-4.1,12.3-2.8
	c42.6,10.7,85.7,14.3,129.5,10.4c2.7-0.2,4.6,0.4,6.4,2.5c23.7,26.3,51.8,46.5,84.3,60.5c3.8,1.6,3.8,3.3,2.3,6.4
	c-9.5,20.2-24.3,32.5-47.2,35.3c-26.4,3.3-51.1-1.1-74.4-13.6c-25.1-13.4-47.8-30.5-71.3-46.2c-13.5-9.1-26.8-18.5-43-22.4
	c-0.7-0.2-1.4-0.6-2.1-0.9c-2.1-1.2-5.1-2.2-5.1-4.8c0.1-2.7,3.1-3.5,5.3-4.6c2.3-1.2,7.3-1.4,6-4.4c-1.4-3.4-5.2-0.2-7.9,0.8
	C498.6,738.2,497.6,738.8,495.8,739.7z"/>
<path class="st1" d="M580.9,625.7c12.9-0.4,25.8-0.7,38.8-1.1c-1.5,6.9-6.3,12.2-9.1,18.5c-2.2,5-1.4,8.6,3.6,11.6
	c7.8,4.5,7.7,4.7,2,12.1c-8.9,11.4-8.6,13.8,3.3,21.8c2.9,2,2.4,3.1,0.3,5.1c-3.1,3.1-5.7,6.7-7.6,10.7c-2,4.2-1.1,7.5,3,9.7
	c2.5,1.4,6.6,2.1,7.3,4.1c0.9,2.7-3.2,4.8-4.2,7.7c-11.9,1-23.8,0-35.7-1.1c0.4-8.1-3.9-16-1.1-24.3c1.4-4,1.4-8.3,1.2-12.5
	c-0.4-8.8-1.1-17.5-1.4-26.3C580.9,649.7,580.9,637.7,580.9,625.7z M599.5,709.6c-0.6-3.4-2.5-5.3-6-5c-3.4,0.3-5.3,2.5-5.1,5.8
	c0.2,3.3,2.4,5.1,5.8,4.9C597.9,715.1,599.1,712.6,599.5,709.6z M599.9,641.2c-0.3-2.4-1.8-4.4-5.1-4.3c-3.3,0.1-4.8,2.1-4.7,5.2
	c0.1,2.9,1.9,4.7,4.7,4.7C597.8,646.9,599.8,645.2,599.9,641.2z M592.7,677c0.2,2.9,1.6,4.7,4.6,4.8c2.9,0.1,4.7-1.5,4.8-4.5
	c0.1-2.9-1.5-4.7-4.4-4.8C594.7,672.5,593.2,674.2,592.7,677z"/>
<path class="st1" d="M481.8,618.5c11.7,1.4,23.5,2.9,35.2,4.3c-1.6,2.6-3.3,5.2-4.8,7.8c-6,10.1-6.1,10.1,2.8,17.4
	c1.9,1.6,2.5,2.7,0.4,4.5c-1.2,1-2.1,2.2-3.2,3.3c-8.4,9-8.4,9-0.3,18.1c0.5,0.6,0.9,1.2,1.5,1.7c2.9,2.4,2.1,4.1-0.8,6
	c-11.9,8.2-10.3,7.5-2,16.7c3.1,3.4,5.4,6.5,0.4,10.1c-1.4,1-1.5,2.6-1.4,4.2c-11.3-2.8-22.4-6.3-33.2-10.6c0-2.7,0.3-5.3,0-8
	c-1-10.5,0.1-20.9,2-31.3C481,648.2,483,633.5,481.8,618.5z M497.1,691.2c-0.3-3.6-2-6.2-6-6.3c-4.1-0.1-5.9,2.7-6,6.3
	c-0.1,3.5,2,5.8,5.6,6C494.6,697.4,496.5,695,497.1,691.2z M499.2,663.8c-0.5-3-1.8-5.3-5.5-5.2c-3.5,0.1-5.5,2.1-5.5,5.4
	c0,3.3,2,5.3,5.5,5.4C497.3,669.4,498.7,667.1,499.2,663.8z M494.5,638.9c2.6-0.4,4.8-1.4,5-4.5c0.2-3.2-1.5-5.2-4.6-5.4
	c-2.8-0.2-4.8,1.6-5.2,4.3C489.4,636.6,491.5,638.2,494.5,638.9z"/>
<path class="st1" d="M797.9,710.6c6-0.8,12-1.6,18-2.5c-6.5,6.1-6.6,6.2-1.7,14c1.7,2.7-0.1,3.3-1.6,4.4
	c-6.4,4.6-12.6,9.3-17.4,15.7c-1.4,1.8-2.9,3.5-1.2,6.2c1.6,2.5,5.1,4.8,3.9,7.7c-1,2.5-4.3,4.2-6.6,6.2c-1.6,1.4-3.2,2.7-4.8,4.1
	c-6.9,6.1-7,6.2-1,12.9c2.5,2.8,2,3.9-1,5.9c-4.6,2.9-9.6,5.7-11.2,11.6c-12.3,0-23.7-3.3-34.6-8.6c0.1-6.7,7-8.8,9.3-13.9
	c5.7-12.7,16.3-20.4,27.3-27.8c4.6-3.1,9.3-6.4,11.9-11.4C791,727.1,794.3,718.8,797.9,710.6z M762.6,785.1c3.7-0.5,6.1-2.4,6-5.9
	c0-3.4-2.2-5.8-5.8-5.6c-3.8,0.2-6,2.8-5.8,6.5C757.1,783.4,759.7,784.8,762.6,785.1z M781.1,760.2c2.8-0.2,4.8-1.7,4.9-4.5
	c0.1-2.8-1.5-4.7-4.4-5c-3-0.3-4.7,1.3-4.8,4.3C776.6,758,778.1,759.7,781.1,760.2z M799.9,720c-2.8,0.6-4.6,2.2-4.3,5.1
	c0.2,2.9,2.2,4.4,5.1,4.1c2.6-0.3,4.1-2,4-4.6C804.5,721.7,802.6,720.4,799.9,720z"/>
<path class="st1" d="M681.3,617.7c6.8-1.6,13.5-3.2,20.3-4.9c-0.3,3.6-0.6,7.3-0.8,10.9c-0.2,2.9,0.8,5.9,3.5,6.8
	c8.3,2.5,6.6,7.3,3.6,12.8c-0.9,1.7-1.3,3.6-1.7,5.5c-1.3,5.3,0.6,9.4,4.9,12.5c7.9,5.6,7.9,5.6,5.1,14.6c-0.3,0.9-0.5,1.9-0.7,2.8
	c-2,7.9-1,10.5,5.5,15.2c2.8,2,5.5,4.1,8.3,6.1c-1.1,0.7-2.1,1.9-3.3,2.1c-10.7,1.9-20.3,6.8-30.3,10.6c-0.5-1.2-1.2-2.4-1.5-3.7
	c-4.2-18.1-7.2-36.4-8.2-54.9C685.4,641.8,684.7,629.6,681.3,617.7z M702.6,688.8c-3.1,0.8-5.5,2.3-5.4,5.8c0.1,3.4,2.1,5.5,5.5,5.4
	c3.3-0.1,5.3-2.2,5.3-5.6C707.9,690.9,705.7,689.3,702.6,688.8z M694.1,636.4c-3.3,0.4-5.1,2.1-4.9,5.4c0.1,2.9,1.8,4.7,4.7,4.7
	c3.2,0,5-1.8,5-5C699,638.2,697,636.8,694.1,636.4z M699.1,675.2c3.3-0.2,4.9-2.1,4.9-4.9c-0.1-3.1-2-5-5.2-4.8
	c-2.9,0.1-4.7,1.8-4.6,4.8C694.3,673.5,696.3,675,699.1,675.2z"/>
<path class="st1" d="M666.8,721.8c-3.1,0.6-6.2,1.8-9.5,1.4c-0.4-2.7-2.6-4.2-4-6.2c-3.3-4.6-9.6-8.1-9.8-13.6
	c-0.2-5.6,5.4-9.8,8.9-14.3c2.4-3.2,2-5.5-0.9-7.8c-2.7-2.2-5.1-4.6-7.9-6.7c-2.5-1.9-2.9-3.5-0.9-6.1c3.3-4.3,6.1-8.8,9.2-13.2
	c2.3-3.2,3-7.1-0.4-9.2c-10-5.9-10.7-13.6-6.2-23.1c4-1.7,8.2-1,12.4-1.5c0.5,13.3,3.1,26.4,4,39.7
	C662.9,681.4,666.4,701.5,666.8,721.8z"/>
<path class="st1" d="M777.2,710.9c4.4,0,8.8,0,13.2,0c-3.3,4.5-6,9.3-7.8,14.6c-1.6,4.7-4.4,8.7-8.7,11
	c-18.1,9.7-29.2,25.9-40.4,42.2c-1.4,2-1.9,4.2-1.9,6.5c-8.6-4-17.2-8-24.9-13.6c0.5-0.3,1-0.6,1.5-0.8c3.3-1.6,7.8-0.4,10.2-3.2
	c2.9-3.5-0.6-7.2-1-10.9c-0.3-2.9,0.9-3.1,3.3-2.8c4.6,0.5,9.2,0.5,13.7,1.1c4.5,0.6,6.4-1.3,6.4-5.7c0-3.3,0.4-6.5,0-9.7
	c-0.4-4,1.4-5,4.9-4.8c4.4,0.3,8.8,0.6,13.2,0.4c11-0.5,11.4-1.2,8.2-11.8c-0.2-0.7-0.3-1.5-0.6-2.2c-1.4-3.7,0-5.4,3.8-6.5
	C772.8,714.1,776.6,715,777.2,710.9z"/>
<path class="st1" d="M754.6,708.3c2.8-0.3,5.4,0.6,8,1.4c-7.3,5-2.7,11.7-2.3,17.9c-6.4,0-12.7,0-19,0c-5.2,0-7.5,3-7.9,7.9
	c-0.3,3.8,1.7,8.8-0.9,11c-2.8,2.4-7.6-0.1-11.6-0.3c-11.7-0.5-11.9-0.6-10.6,10.7c0.4,3.6-0.1,5.8-4,6.5c-2.4,0.5-4.8,1.5-5.3,4.5
	c-8.9-5.3-17.2-11.3-24.7-18.5c4-0.7,8,0.2,12,0.4c3.4,0.1,5-1.3,4.9-4.7c-0.1-1.5,0.1-3.1,0-4.6c-0.4-3.9,1.3-5.1,5-4.4
	c4.3,0.8,8.7,1.6,13,2.2c4,0.5,6.6-0.9,7.4-5.2c2.4-12.9,2.5-12.9,15.8-10.5c0.9,0.2,1.9,0.4,2.8,0.4c3.3,0.1,6.2-1.3,6.4-4.5
	c0.4-6.9,3.3-10.2,10.4-9.6C754.1,709,754.4,708.5,754.6,708.3z"/>
<path class="st1" d="M533.9,718.4c-5.9-1.2-12-1.9-17.6-4.2c1.5-1.7,2.8-3.6,4.5-5.2c3.5-3.3,3.7-6.2,0.2-9.7
	c-2.7-2.6-5.1-5.7-7.7-8.7c2-1.6,3.8-3.1,5.6-4.5c7.3-5.8,7.4-7.2,0.7-13.7c-6.6-6.5-6.5-6.4-0.1-13.8c7.7-9,11.1-8.7-1.3-16.7
	c-2.7-1.7-2.4-3.1-0.9-5.4c2.7-4.1,5.6-8.3,6.7-13.2c4.5-0.3,9,0.6,13.5,1.1c-1.9,2.9-3.7,5.8-5.8,8.6c-2.6,3.4-2.8,6.3,0.3,9.7
	c2.6,2.8,5.9,5.8,6.7,9.2c0.9,4-4.1,6.2-6.3,9.3c-3.1,4.3-3.3,8,0.8,11.6c3,2.7,5.8,5.5,9,8.4c-1.3,0.9-2.3,1.7-3.4,2.5
	c-9.5,6.3-10,10.6-2.3,18.5c0.5,0.5,1,1.2,1.6,1.6c2.5,1.8,3,3.4,0.2,5.7C535.5,711.7,533.5,714.5,533.9,718.4z"/>
<path class="st1" d="M649.3,724.3c-7,1-14.1,1.7-21.2,1.3c6.2-9.8,6-11.3-2.1-14.9c-7.8-3.5-7.8-3.5-2.1-10c0.8-0.9,1.6-1.7,2.4-2.5
	c6.4-6.5,5.9-10.5-1.8-15.3c-7.5-4.6-7.5-4.6-1.9-11.5c0.5-0.6,0.9-1.2,1.5-1.8c13.3-13.3,7.9-14.7-2.6-20.2
	c-3.6-1.9-3.1-3.8-1.6-6.8c3-5.7,6.4-11.4,6.2-18.2c4.3-0.4,8.6-0.7,13-1.1c-0.4,1.1-0.8,2.1-1.3,3.1c-6,12.4-6,12.4,4.7,21.1
	c0.3,0.2,0.6,0.5,0.9,0.7c2.6,1.5,2.6,3,0.7,5.4c-3.4,4.3-6.5,9-9.5,13.7c-1.9,2.9-2.3,6.1,0.5,8.9c3.2,3.2,9,6.2,9.2,9.6
	c0.3,3.8-4.4,8-6.9,12.1c-3.1,4.9-2.4,9.2,1.6,13.5C642.5,715.5,645.8,720,649.3,724.3z"/>
<path class="st1" d="M544.4,624.6c4.9,0.3,9.9,0.6,14.8,0.9c-1.7,3.5-3.1,7-3.4,10.9c-0.9,11.7,0.7,23.4-1.2,35
	c-0.3,1.8,0.3,3.8,0.9,5.6c2.4,6.8,2.9,13.8,2.8,21c-0.2,8.1-0.1,16.1-0.1,24.2c-6.1,0-12-1.3-17.9-2.7c1.3-1.6,2.6-3.4,4-4.9
	c7.7-7.8,7.7-7.8-0.2-15.5c-0.3-0.3-0.5-0.5-0.8-0.8c-5.2-5-5.2-5,0.7-9.2c8.6-6.2,8.7-8.1,1.1-15.4c-7.8-7.4-7.9-7.5-0.1-15.1
	c3.2-3.2,4.8-7.1,1.3-10C536.9,641,538.6,633.1,544.4,624.6z"/>
<path class="st1" d="M469.1,699.1c-6.4-1.9-12.5-4.6-18.4-7.8c1.3-2.4,2.3-4.9,3.8-7.1c4.5-6.7,6.5-13.2,0.7-20.4
	c-2.7-3.4-0.7-6.2,2.2-8.8c7.8-7,7.9-7.2,2.6-16.3c-3.5-6.1-4.2-11.7,0.5-17.5c1.4-1.8,2.3-3.9,2.6-6.3c4.2,0.4,8.3,0.9,12.3,2.3
	C471.2,644.5,469.9,671.8,469.1,699.1z"/>
<path class="st0" d="M626,624.4c0.2,6.8-3.2,12.5-6.2,18.2c-1.5,2.9-2,4.8,1.6,6.8c10.5,5.5,15.9,6.9,2.6,20.2
	c-0.5,0.5-1,1.2-1.5,1.8c-5.6,6.9-5.6,6.9,1.9,11.5c7.8,4.8,8.3,8.8,1.8,15.3c-0.8,0.8-1.6,1.6-2.4,2.5c-5.8,6.6-5.8,6.6,2.1,10
	c8,3.5,8.2,5,2.1,14.9c-3.3,0.7-6.6,1.1-9.9,0.3c0.9-2.9,5.1-5,4.2-7.7c-0.7-2-4.8-2.7-7.3-4.1c-4-2.3-4.9-5.6-3-9.7
	c1.9-4,4.5-7.6,7.6-10.7c2-2,2.6-3.2-0.3-5.1c-11.9-7.9-12.2-10.3-3.3-21.8c5.7-7.3,5.8-7.5-2-12.1c-5-2.9-5.8-6.5-3.6-11.6
	c2.8-6.3,7.5-11.6,9.1-18.5C621.7,624.5,623.9,624.5,626,624.4z"/>
<path class="st1" d="M663.9,620.8c3.9-0.7,7.9-1.3,11.8-2c1.2,15.8,2.1,31.7,3.8,47.4c1.8,16.7,4.3,33.3,8.2,49.7
	c-4.2,1.9-8.4,3.4-13,4c-0.3-6.1,0.1-12.4-1-18.4c-4.3-24.7-3.8-49.9-9.6-74.4C663.7,625.1,663.9,622.9,663.9,620.8z"/>
<path class="st1" d="M669.5,743.8c-5.4-4.3-10-9.3-15.4-14.9c4.2-0.8,7.5-1.4,10.7-2c10-1.8,19.9-4.3,29-8.7
	c13.6-6.5,28.1-10.9,42.1-16.4c2.5-1,4,0.3,5.8,1.3c-1.3,0.8-3.1,1.7-3.1,3.2c-0.1,9.6-6.2,9.1-12.9,7.9c-1.7-0.3-3.5-0.1-5.2,0.1
	c-3.8,0.4-6.3,2.4-7.6,6.1c-1.2,3.3,0,8.6-3.1,9.8c-3.1,1.2-7.4-0.7-11.2-1.2c-0.8-0.1-1.5-0.2-2.3-0.3c-8.2-1.2-10.6,0.3-11.1,8.7
	c-0.2,4.4-2.2,4.2-5.3,4.2C676.5,741.7,672.3,739.7,669.5,743.8z"/>
<path class="st0" d="M701,768.1c0.4-3.1,2.8-4.1,5.3-4.5c3.9-0.7,4.4-2.9,4-6.5c-1.2-11.3-1.1-11.2,10.6-10.7
	c4,0.2,8.8,2.7,11.6,0.3c2.6-2.2,0.6-7.3,0.9-11c0.4-4.9,2.7-7.9,7.9-7.9c6.3,0,12.6,0,19,0c-0.4-6.2-5-12.9,2.3-17.9
	c4.9,0.4,9.7,0.8,14.6,1.2c-0.6,4.1-4.4,3.2-6.8,3.9c-3.8,1.1-5.2,2.8-3.8,6.5c0.3,0.7,0.3,1.5,0.6,2.2c3.1,10.6,2.7,11.3-8.2,11.8
	c-4.4,0.2-8.8-0.1-13.2-0.4c-3.6-0.2-5.4,0.7-4.9,4.8c0.3,3.2,0,6.5,0,9.7c0,4.4-1.9,6.3-6.4,5.7c-4.5-0.6-9.2-0.6-13.7-1.1
	c-2.4-0.3-3.6-0.1-3.3,2.8c0.4,3.7,3.9,7.4,1,10.9c-2.4,2.8-6.9,1.6-10.2,3.2c-0.5,0.2-1,0.6-1.5,0.8
	C704.5,771,702.6,769.7,701,768.1z"/>
<path class="st0" d="M649.3,724.3c-3.5-4.3-6.8-8.8-10.5-12.9c-3.9-4.3-4.6-8.6-1.6-13.5c2.5-4,7.1-8.2,6.9-12.1
	c-0.2-3.4-6-6.3-9.2-9.6c-2.8-2.8-2.3-6-0.5-8.9c3-4.7,6-9.3,9.5-13.7c1.9-2.4,1.9-3.9-0.7-5.4c-0.3-0.2-0.6-0.5-0.9-0.7
	c-10.7-8.7-10.7-8.7-4.7-21.1c0.5-1,0.9-2.1,1.3-3.1c2.1-0.3,4.1-0.9,6.2-0.3c-4.5,9.5-3.8,17.2,6.2,23.1c3.5,2,2.7,6,0.4,9.2
	c-3.1,4.4-5.9,9-9.2,13.2c-2,2.6-1.7,4.2,0.9,6.1c2.8,2,5.2,4.5,7.9,6.7c2.9,2.3,3.4,4.6,0.9,7.8c-3.5,4.5-9.1,8.7-8.9,14.3
	c0.2,5.6,6.5,9,9.8,13.6c1.4,2,3.6,3.5,4,6.2C654.7,724.3,652.1,724.6,649.3,724.3z"/>
<path class="st0" d="M544.4,624.6c-5.7,8.5-7.4,16.4,1.9,24.1c3.5,2.9,1.9,6.8-1.3,10c-7.7,7.6-7.7,7.6,0.1,15.1
	c7.6,7.3,7.5,9.2-1.1,15.4c-5.9,4.2-5.9,4.2-0.7,9.2c0.3,0.3,0.6,0.5,0.8,0.8c7.9,7.6,7.8,7.6,0.2,15.5c-1.5,1.5-2.7,3.2-4,4.9
	c-2.1-0.4-4.2-0.7-6.4-1.1c-0.4-3.9,1.7-6.7,4.4-8.9c2.8-2.2,2.3-3.8-0.2-5.7c-0.6-0.4-1.1-1.1-1.6-1.6c-7.7-7.9-7.2-12.2,2.3-18.5
	c1.1-0.7,2.1-1.5,3.4-2.5c-3.1-2.9-6-5.7-9-8.4c-4-3.7-3.8-7.3-0.8-11.6c2.2-3.1,7.2-5.3,6.3-9.3c-0.7-3.4-4.1-6.4-6.7-9.2
	c-3.1-3.3-2.9-6.3-0.3-9.7c2.1-2.7,3.9-5.7,5.8-8.6C539.8,624.5,542.1,624.5,544.4,624.6z"/>
<path class="st1" d="M444,688.5c-10.1-3.7-12.2-6.8-9-17.2c4.9-16.2,6.6-32.6,5.9-49.4c-0.2-4.8,0.2-9.6,3.3-13.7l-0.1-0.1
	c-0.4,2.9,1.9,2.8,3.6,3.3c3.2,1,6.7,0.9,9.7,2.7c-1,1.6-1.8,3.4-3,4.8c-5.3,6.8-5.9,14-1.5,21.3c2.9,4.7,2.8,7.9-2.2,11.1
	c-4.5,2.9-6.3,7.8-3.3,12.5c5.2,8.1,2.9,14.9-2.1,21.7C444.8,686.3,444.5,687.5,444,688.5z"/>
<path class="st1" d="M564,625.6c3.9,0,7.8,0.1,11.7,0.1c-1.7,11.2-1.3,22.5-1.4,33.7c-0.1,11.3,1.7,22.7-0.4,33.7
	c-2,10.6-2,20.8,0.5,31.1c-3.1,0.4-6.1-0.5-9.2-1c0.9-16.6,3.4-33.2-1.7-49.6c-0.3-1.1-0.6-2.3-0.4-3.4
	C565.9,655.4,560.9,640.4,564,625.6z"/>
<path class="st0" d="M524.1,623.3c-1.2,4.9-4,9.1-6.7,13.2c-1.5,2.3-1.8,3.7,0.9,5.4c12.4,8,9,7.7,1.3,16.7
	c-6.3,7.4-6.4,7.3,0.1,13.8c6.7,6.6,6.6,7.9-0.7,13.7c-1.8,1.4-3.6,2.9-5.6,4.5c2.6,3,4.9,6,7.7,8.7c3.6,3.5,3.3,6.5-0.2,9.7
	c-1.7,1.6-3,3.4-4.5,5.2c-2.4,0.2-4.5-0.7-6.7-1.4c-0.1-1.6,0-3.1,1.4-4.2c5-3.6,2.7-6.7-0.4-10.1c-8.3-9.3-9.9-8.5,2-16.7
	c2.9-2,3.7-3.6,0.8-6c-0.6-0.5-1-1.2-1.5-1.7c-8.1-9.1-8.1-9.1,0.3-18.1c1-1.1,2-2.3,3.2-3.3c2-1.8,1.5-2.9-0.4-4.5
	c-8.9-7.3-8.8-7.4-2.8-17.4c1.6-2.6,3.2-5.2,4.8-7.8C519.3,623,521.7,623.1,524.1,623.3z"/>
<path class="st1" d="M736.9,695.4c-2.6-3.4-6.4-5.5-9.9-7.6c-3.9-2.4-4.5-5.2-2.9-9c0.9-2.1,1.7-4.3,2.4-6.4
	c2.4-6.9,0.9-11.2-5.6-14.9c-7.6-4.4-7.8-4.9-4.4-13c1-2.5,2.2-4.9,2.9-7.5c1.2-4.4,0-8.5-4.4-9.9c-5.9-1.8-7.1-5.4-6.2-10.8
	c0.3-2,0-4.2,0-6.3c1.9-1.8,5.6-2.6,1.1-6.5c-2-1.8-0.7-7.5-0.9-12.3c6.3,5.1,8.4,11.3,9.1,17.7c2.5,24.3,9.6,47.1,20.3,69
	C741.3,683.7,743.5,690,736.9,695.4z"/>
<path class="st0" d="M669.5,743.8c2.8-4.1,7-2.1,10.6-2.1c3.2,0,5.1,0.2,5.3-4.2c0.4-8.3,2.8-9.8,11.1-8.7c0.8,0.1,1.5,0.2,2.3,0.3
	c3.8,0.5,8.1,2.4,11.2,1.2c3.1-1.2,1.9-6.5,3.1-9.8c1.3-3.7,3.8-5.7,7.6-6.1c1.7-0.2,3.5-0.4,5.2-0.1c6.7,1.2,12.8,1.7,12.9-7.9
	c0-1.5,1.8-2.4,3.1-3.2c4.3,1.7,8.6,3.5,12.9,5.2c-0.3,0.3-0.6,0.8-0.8,0.7c-7-0.6-10,2.8-10.4,9.6c-0.2,3.2-3.1,4.6-6.4,4.5
	c-0.9,0-1.9-0.2-2.8-0.4c-13.3-2.4-13.4-2.4-15.8,10.5c-0.8,4.3-3.4,5.8-7.4,5.2c-4.4-0.6-8.7-1.3-13-2.2c-3.7-0.7-5.4,0.5-5,4.4
	c0.2,1.5,0,3.1,0,4.6c0.2,3.4-1.5,4.9-4.9,4.7c-4-0.2-8-1.1-12-0.4C673.6,748.1,671.3,746.2,669.5,743.8z"/>
<path class="st0" d="M731.6,785.2c0.1-2.3,0.5-4.5,1.9-6.5c11.1-16.3,22.3-32.5,40.4-42.2c4.4-2.3,7.1-6.4,8.7-11
	c1.8-5.3,4.6-10.1,7.8-14.6c2.5-0.1,5-0.2,7.5-0.3c-3.6,8.2-6.9,16.5-10.9,24.4c-2.5,5-7.3,8.3-11.9,11.4
	c-10.9,7.4-21.5,15.1-27.3,27.8c-2.3,5-9.2,7.2-9.3,13.9C736.3,787.2,733.9,786.2,731.6,785.2z"/>
<path class="st0" d="M564,625.6c-3.1,14.8,2,29.8-0.9,44.6c-0.2,1.1,0,2.3,0.4,3.4c5.1,16.4,2.6,33,1.7,49.6c-2.4,0.1-4.8,0.3-7-1
	c0-8.1-0.1-16.1,0.1-24.2c0.2-7.2-0.3-14.2-2.8-21c-0.6-1.8-1.2-3.8-0.9-5.6c1.9-11.6,0.3-23.4,1.2-35c0.3-3.9,1.7-7.5,3.4-10.9
	C560.8,625.5,562.4,625.5,564,625.6z"/>
<path class="st0" d="M663.9,620.8c0.1,2.1-0.2,4.3,0.3,6.3c5.8,24.4,5.3,49.7,9.6,74.4c1,6,0.7,12.2,1,18.4c-2.4,1.5-5.3,1.5-7.9,2
	c-0.4-20.3-3.8-40.4-5.2-60.5c-0.9-13.3-3.5-26.4-4-39.7C659.6,620.5,661.7,620.7,663.9,620.8z"/>
<path class="st0" d="M574.3,724.2c-2.5-10.3-2.5-20.5-0.5-31.1c2.1-11,0.3-22.5,0.4-33.7c0.1-11.3-0.2-22.5,1.4-33.7
	c1.7,0,3.4,0,5.2,0c0.1,12,0,24,0.3,36.1c0.2,8.8,1,17.5,1.4,26.3c0.2,4.2,0.2,8.5-1.2,12.5c-2.8,8.3,1.5,16.2,1.1,24.3
	C579.7,724.7,577,724.5,574.3,724.2z"/>
<path class="st0" d="M687.7,715.8c-4-16.3-6.4-33-8.2-49.7c-1.7-15.8-2.6-31.6-3.8-47.4c1.9-0.3,3.8-0.7,5.7-1
	c3.4,11.9,4,24.1,4.7,36.3c1,18.6,4.1,36.8,8.2,54.9c0.3,1.3,1,2.5,1.5,3.7C693,713.7,690.4,714.8,687.7,715.8z"/>
<path class="st0" d="M469.1,699.1c0.8-27.4,2.1-54.7,6.3-81.8c2.2-0.1,4.4-0.2,6.3,1.1c1.2,15-0.8,29.7-3.4,44.4
	c-1.9,10.4-3,20.7-2,31.3c0.2,2.6,0,5.3,0,8C473.8,701.4,471.2,700.9,469.1,699.1z"/>
<path class="st0" d="M444,688.5c0.5-1,0.7-2.2,1.4-3.1c5-6.8,7.3-13.6,2.1-21.7c-3-4.6-1.2-9.5,3.3-12.5c4.9-3.2,5.1-6.4,2.2-11.1
	c-4.5-7.3-3.9-14.5,1.5-21.3c1.2-1.5,2-3.2,3-4.8c2-0.4,3.9-0.1,5.7,1c-0.2,2.4-1.1,4.5-2.6,6.3c-4.7,5.8-3.9,11.4-0.5,17.5
	c5.2,9.1,5.1,9.3-2.6,16.3c-2.9,2.6-5,5.4-2.2,8.8c5.8,7.2,3.8,13.7-0.7,20.4c-1.5,2.2-2.6,4.7-3.8,7.1
	C448.5,690.4,446.2,689.5,444,688.5z"/>
<path class="st0" d="M536.6,443.7c-5.1,0-7.1-3.1-7.2-6.5c-0.2-3.6,1.3-7.8,5.9-7.9c4.2-0.1,8,2.3,8.2,6.7
	C543.6,440.4,539.9,442.5,536.6,443.7z"/>
<path class="st0" d="M520.5,390c-3.9-0.6-6.4-2.6-6.6-6.5c-0.1-3.6,2-6.1,5.7-6c3.5,0.1,6.6,1.9,7,5.9
	C526.9,387.6,523.8,389.1,520.5,390z"/>
<path class="st1" d="M545.7,364.6c0,4.7-2.9,6.5-6.7,6.3c-3.5-0.3-6.4-2.4-6.5-6.4c0-3.9,2.3-6.4,6.1-6.5
	C542.9,357.9,545.7,359.9,545.7,364.6z"/>
<path class="st0" d="M551.6,456.4c-4.6,0.2-6.4-2.3-6.7-6.2c-0.3-4,1.5-6.5,5.9-6.5c4.1,0,7.7,1.6,7.8,6
	C558.8,454,555.3,455.8,551.6,456.4z"/>
<path class="st0" d="M650.3,389.4c-1.2,3.5-3.8,5.4-7.4,5.3c-3.2-0.1-5.3-2-5.2-5.4c0.1-3.8,2.5-5.6,6-5.3
	C646.9,384.2,649.7,385.6,650.3,389.4z"/>
<path class="st0" d="M693.9,390.3c-3.6,0-4.9-2.6-5-5.4c-0.2-3.4,1-6.8,5-7.3c3.5-0.4,5.7,1.9,6.1,5.3
	C700.5,387.1,697.6,389.2,693.9,390.3z"/>
<path class="st0" d="M591.2,379.1c3.2,0.1,5.3,1.6,5.5,4.8c0.2,3.4-1.4,6-4.8,6.4c-3.7,0.4-6.4-1.7-6.5-5.6
	C585.3,381,588.4,380,591.2,379.1z"/>
<path class="st0" d="M708.5,399.5c-3.5-1.1-5.1-3.7-5.3-6.9c-0.2-2.9,2.2-4.2,4.7-4c3.8,0.3,5.2,3,5,6.5
	C712.7,397.8,711,399.2,708.5,399.5z"/>
<path class="st0" d="M654.2,386.4c-2.7-0.3-5.1-1.3-5.2-4.4c-0.1-3.3,2.3-5.1,5.3-5.3c3-0.1,4.2,2.3,4.4,5
	C658.8,384.9,657.3,386.5,654.2,386.4z"/>
<path class="st1" d="M444.2,608.2c0.9-3.2,3-5.1,6.3-5.8C452.7,609.5,447.5,607.8,444.2,608.2C444.1,608.1,444.2,608.2,444.2,608.2z
	"/>
<path class="st1" d="M677.9,411c0.3-0.9,1.3-1.2,1.7-0.6c0.7,0.8-0.5,1-0.9,1.5C678.4,411.6,678.1,411.3,677.9,411z"/>
<path class="st1" d="M843,706.6c-6.1-1.1-11-2.5-16-0.4c-0.4,3.4-2.9,5.3-5.3,7.2c-2.4,1.8-2.5,3.2-0.5,5.5c2.2,2.5,4.3,5.3,4,9
	c0,0-0.1,0.6-0.3,0.9c-0.2,0.2-0.8,0.4-0.8,0.4c-7.6,3.4-13.2,9.5-19.5,14.6c-2.6,2.1-2.9,3.6-0.9,6.5c3.8,5.5,3.2,8.5-1.6,13
	c-1.4,1.3-2.9,2.5-4.3,3.7c-7,5.9-7,5.9-1.9,13.2c3.3,4.8,2.9,6.3-2.6,9c-3.9,1.9-7.9,3.8-10.7,7.5c3.6,0.3,7.3,0.4,10.8,1.1
	c9.4,1.9,9.4,2,12.4-7.7c0.4-1.3,0.8-2.6,1.1-3.9c4.5-19.3,7.3-39.1,17.4-56.6C824.5,729.5,835.4,713,843,706.6z"/>
<path class="st0" d="M631.9,548.8c0.7,16.3-2.2,30.5-11.4,43.2c-12.5,17.1-33.7,21.2-48.3,11.5c-8.9-5.9-12.6-15.3-14.9-25
	c-2.9-12.7-4.4-25.6-3.6-38.6c0.7-10.8,2.1-21.7,5.8-32c5.3-14.7,20.2-22.1,35.6-19.1c20.6,3.9,30.4,17.4,34.4,36.6
	C631.1,533.4,632.9,541.5,631.9,548.8z M592.8,554c0,7.7-0.1,15.3,0.1,23c0,2.1-0.7,5.8,1.9,5.8c3.3,0,1.7-3.7,1.7-5.6
	c0-15.1-0.1-30.3-0.4-45.4c-0.1-3,0.6-4.3,3.6-5.1c4.9-1.3,8.7-4.2,9.2-9.7c0.6-6.4-4.8-12.8-11.9-14c-7.5-1.3-14.2,2.9-16.3,10.3
	c-1.8,6.4,0.7,10.3,9.1,13.2c2.3,0.8,3.2,1.7,3.1,4.4C592.6,538.7,592.8,546.4,592.8,554z"/>
<path class="st0" d="M503.5,558.7c-11.3,0-20.2-8.7-20.1-19.8c0-11.2,9.7-20.9,20.5-20.6c11.3,0.3,19.9,9.4,19.9,20.9
	C523.6,550.4,515,558.7,503.5,558.7z"/>
<path class="st0" d="M654.8,537.4c0-10.5,7.1-17.9,17.3-18c9.6,0,17.4,8.1,17.4,18.2c0,9.2-8.4,17.6-17.5,17.5
	C662.2,555,654.9,547.4,654.8,537.4z"/>
<path class="st0" d="M710.3,436.9c1,9.1-9.9,18.3-17.8,20.2c-2.8,0.7-3.7-1.6-4-3.7c-1.1-7.8-4-15.1-7-22.2c-1.1-2.7-1-4.1,1.7-5.4
	c6.5-3,13.1-4.1,19.9-1.4C708.7,426.6,711,431.2,710.3,436.9z"/>
<path class="st0" d="M494.3,420.3c5.9,0.5,10.4,2.8,14.2,6.5c1.5,1.5,1.6,2.9-0.4,4.2c-9.3,5.9-14.3,15.2-18.8,24.7
	c-2,4.3-3.3,3.4-5.6,0.3c-5.9-8.3-8.9-16.9-4-26.7C483,423.2,488.7,421.4,494.3,420.3z"/>
<path class="st0" d="M541.4,492.9c-1.7,6.6-6.2,9.5-12,9.9c-5.6,0.5-10.5-1.6-13.8-6.5c-0.6-0.9-1.6-1.9-0.7-3.1
	c0.7-0.9,1.8-0.9,2.5-0.1C525.3,502,533.2,500.3,541.4,492.9z"/>
<path class="st0" d="M656.8,504.2c-4.5-0.6-8.5-2.2-10.8-6.5c-0.6-1.1-1.2-2.7,0.2-3.6c1.2-0.7,2,0.5,2.8,1.3c7.5,7.2,10.3,7,16.7-1
	c0.7-0.9,1.2-2.2,2.5-1.3c0.5,0.3,0.4,1.8,0.2,2.6C667.5,500.2,661.8,504.3,656.8,504.2z"/>
<path class="st0" d="M599.5,709.6c-0.4,3-1.6,5.5-5.2,5.7c-3.4,0.2-5.7-1.6-5.8-4.9c-0.2-3.2,1.7-5.5,5.1-5.8
	C596.9,704.4,598.9,706.2,599.5,709.6z"/>
<path class="st0" d="M599.9,641.2c0,4-2.1,5.6-5.1,5.6c-2.8,0-4.6-1.8-4.7-4.7c-0.1-3.1,1.4-5.2,4.7-5.2
	C598,636.9,599.5,638.9,599.9,641.2z"/>
<path class="st0" d="M592.7,677c0.4-2.8,1.9-4.5,4.9-4.4c3,0.1,4.5,1.9,4.4,4.8c-0.1,3-1.9,4.5-4.8,4.5
	C594.3,681.8,592.9,679.9,592.7,677z"/>
<path class="st0" d="M497.1,691.2c-0.6,3.8-2.5,6.2-6.4,6c-3.6-0.2-5.8-2.5-5.6-6c0.1-3.5,2-6.3,6-6.3
	C495.1,685.1,496.7,687.6,497.1,691.2z"/>
<path class="st0" d="M499.2,663.8c-0.5,3.3-1.9,5.6-5.5,5.5c-3.5-0.1-5.5-2.1-5.5-5.4c0-3.3,2-5.2,5.5-5.4
	C497.4,658.4,498.7,660.7,499.2,663.8z"/>
<path class="st0" d="M494.5,638.9c-2.9-0.7-5.1-2.3-4.7-5.5c0.3-2.7,2.3-4.5,5.2-4.3c3.1,0.2,4.8,2.2,4.6,5.4
	C499.3,637.5,497.1,638.5,494.5,638.9z"/>
<path class="st0" d="M762.6,785.1c-2.9-0.3-5.5-1.7-5.6-5c-0.2-3.7,2-6.2,5.8-6.5c3.7-0.2,5.8,2.1,5.8,5.6
	C768.7,782.6,766.3,784.6,762.6,785.1z"/>
<path class="st0" d="M781.1,760.2c-3-0.5-4.4-2.2-4.3-5.1c0.1-3,1.7-4.6,4.8-4.3c2.9,0.3,4.6,2.2,4.4,5
	C785.8,758.6,783.9,760,781.1,760.2z"/>
<path class="st0" d="M799.9,720c2.7,0.3,4.7,1.7,4.8,4.6c0.1,2.7-1.4,4.3-4,4.6c-2.9,0.3-4.8-1.2-5.1-4.1
	C795.3,722.2,797.1,720.7,799.9,720z"/>
<path class="st0" d="M702.6,688.8c3.2,0.5,5.4,2,5.3,5.5c0,3.4-2,5.5-5.3,5.6c-3.3,0.1-5.4-2-5.5-5.4
	C697.1,691.1,699.4,689.6,702.6,688.8z"/>
<path class="st0" d="M694.1,636.4c2.9,0.3,4.9,1.7,4.9,5.1c0,3.3-1.8,5-5,5c-2.9,0-4.6-1.8-4.7-4.7
	C689,638.6,690.8,636.9,694.1,636.4z"/>
<path class="st0" d="M699.1,675.2c-2.8-0.1-4.8-1.7-4.9-4.9c-0.1-2.9,1.7-4.6,4.6-4.8c3.2-0.2,5.1,1.7,5.2,4.8
	C704,673.1,702.4,674.9,699.1,675.2z"/>
<path class="st0" d="M592.8,554c0-7.7-0.2-15.3,0.1-23c0.1-2.7-0.9-3.6-3.1-4.4c-8.3-2.9-10.9-6.8-9.1-13.2
	c2.1-7.4,8.8-11.6,16.3-10.3c7.1,1.3,12.5,7.6,11.9,14c-0.5,5.6-4.3,8.5-9.2,9.7c-3,0.8-3.7,2.1-3.6,5.1c0.3,15.1,0.5,30.3,0.4,45.4
	c0,1.9,1.6,5.6-1.7,5.6c-2.7,0-1.9-3.7-1.9-5.8C592.7,569.4,592.8,561.7,592.8,554z"/>
<path class="st0" d="M729.4,700c-2.8-2-5.5-4.2-8.3-6.1c-6.6-4.6-7.6-7.2-5.5-15.2c0.2-0.9,0.4-1.9,0.7-2.8c2.8-9,2.8-9-5.1-14.6
	c-4.3-3.1-6.2-7.2-4.9-12.5c0.4-1.9,0.8-3.8,1.7-5.5c3-5.5,4.7-10.3-3.6-12.8c-2.6-0.8-3.6-3.8-3.5-6.8c0.2-3.6,0.5-7.3,0.8-10.9
	c2.1-1.6,4.6-2.3,7.2-3c0,2.1,0.3,4.3,0,6.3c-0.9,5.4,0.3,9,6.2,10.8c4.4,1.4,5.7,5.5,4.4,9.9c-0.7,2.6-1.9,5-2.9,7.5
	c-3.3,8.1-3.2,8.5,4.4,13c6.4,3.7,8,7.9,5.6,14.9c-0.8,2.2-1.5,4.3-2.4,6.4c-1.7,3.9-1,6.7,2.9,9c3.5,2.2,7.3,4.2,9.9,7.6
	C734.9,697.7,732.3,699.1,729.4,700z"/>
<path class="st0" d="M825.1,727.4c0.2-3.8-1.6-6-3.8-8.5c-2-2.2-1.9-3.6,0.5-5.5c2.4-1.8,4.9-3.8,5.3-7.2c-3.9-0.4-7.5,0.7-11.1,2
	c-6.5,6.1-6.6,6.2-1.7,14c1.7,2.7-0.1,3.3-1.6,4.4c-6.4,4.6-12.6,9.3-17.4,15.7c-1.4,1.8-2.9,3.5-1.2,6.2c1.6,2.5,5.1,4.8,3.9,7.7
	c-1,2.5-4.3,4.2-6.6,6.2c-1.6,1.4-3.2,2.7-4.8,4.1c-6.9,6.1-7,6.2-1,12.9c2.5,2.8,2,3.9-1,5.9c-4.6,2.9-9.6,5.7-11.2,11.6
	c3.1,0,6.3-0.1,9.4-0.1c2.8-3.6,6.8-5.5,10.7-7.5c5.5-2.7,5.9-4.2,2.6-9c-5.1-7.3-5.1-7.3,1.9-13.2c1.5-1.2,3-2.4,4.3-3.7
	c4.8-4.5,5.4-7.5,1.6-13c-2-2.9-1.7-4.4,0.9-6.5c6.3-5.1,19-14,19.4-14.2C824.5,729.2,825,728.3,825.1,727.4z"/>
<path d="M712,387.6c-3.1-2.2-6.8-1.9-9.1,0.5c-2.3,2.5,0.2,6.8-7.1,8.8c-0.2-4.7,4.8-4.7,6.4-9.8s-0.8-10.2-5.3-11.7
	c-3.8-1.2-6.8-0.2-8.8,3.3c-2.5,4.4-1.6,9.3,2.4,12.8c3,2.6,1.4,9.9-2.8,10.9c-5.1,1.3-9.6,3.6-14.3,5.7c-4.7,2.1-7.3,0.6-11.3-1.2
	c-2-0.9-2.1-3.2-2.1-6.2c0-2.2-0.3-5.2-0.6-7.1c-0.7-3.9-1.3-5.1,1.2-9.3c1.9-3.2,0.8-7.3-3.2-9.3c-3.6-1.8-7.3-0.8-9,2.5
	c-1.6,3-3.5,3.4-6.5,3.9c-4.6,0.7-7,4-6.4,8.7c0.6,4.7,4.2,8,8.3,6.8c7.7-2.3,8.7,4.2,12.2,7.3c-16.6-1-18.1-4-26.2-12.3
	c-1.8-1.9-2.6-2.7-0.9-5.7c1.8-3.4,2.9-7.9,0.3-12c-2.7,1.3-2.5,3.7-2.3,5.7c0.2,1.8,0.1,4.4-1.5,5.7c-1.5,1.2-3.5-3.6-4.8-5
	c-1.1-1.2-0.4-1.7,0.6-2.6c3.4-3.1,3.4-7.5,4-11.6c0.2-1.1,0.5-2.6-1-2.9c-1.9-0.3-2,1.5-2.2,2.7c-0.6,3.6-1.7,6.9-3.9,10.6
	c-1.4-2.6-3.7-3.8-3.2-6.9c0,0,0,0,0,0c3.4-2.5,6.3-11.8,4.9-16c-0.3-0.8-0.6-1.4-1.5-1.4c-1,0-1.2,0.8-1.3,1.5c-0.7,5.1-1,9-3,15
	c-2.6-2.6-3.5-5.9-4.3-9.3c1.5-1.9,5-6.8,5.5-9.3c0.6-2.8,1.2-9.5-0.9-9.5c-1.7,0-1.5,2-1.5,3.2c-0.1,3.6-1,7.1-2,10.6
	c-0.2,0.7-0.8,2.3-1.4,3.7c-0.1-0.5-0.2-1.1-0.4-1.6c-1-4.2-2.5-8.2,0.2-13c2.2-3.9,1.8-9.3-0.5-14.6c-3.5,4.2-0.8,9.3-3.6,12.8
	c-2.5-2-1.1-5.8-4.3-7.6c-3.2,8,4.2,13.4,4.9,21c-4.2-2.8-6.3-6-7.9-9.5c-0.4-0.9-1-1.7-2.1-1.4c-1,0.3-1.7,1.1-1.3,2.1
	c1.9,4.9,4.4,9,9.3,10.7c4.7,1.6,3.5,5.3,4.7,8.4c-5.2-1.3-8.2-4.8-11.6-7.7c-0.7-0.6-1.6-1.3-2.5-0.6c-0.9,0.8-0.5,1.9,0.2,2.5
	c4.1,3.7,6.9,7.4,14.3,7.5c1.1,0,1.9,1.9,2.2,2.6c0.9,2.1,2.1,3.8,3.2,7.2c-4.3-0.6-8.8-2.5-11.9-4.7c-0.8-0.6-1.8-1-2.5,0.1
	c-0.3,0.5-0.2,1.5,0.1,2.1c2.1,4.1,9.6,6.5,13.9,4.4c1.3-0.6,1.7,0.1,2.1,0.9c1.2,2.3,3.4,3.5,3.8,6.1c-2.4,0.3-4.4,0.4-6.5,0.1
	c-3.1-0.4-10.1-4.7-8.1-1.3c0.4,0.6,3.5,2.7,6.9,3.4c4.3,0.9,8.8-1.1,9.2-0.7c3.7,4.3,8.7,10.2,12.4,14.6c-11.3-1.3-23.1-2.2-32.8-2
	c-1,0-2,0.1-2.9,0.2c0-0.1,0-0.1,0-0.2c0-4.1-3.2-7.9,0.3-12.5c2.7-3.5-0.1-8.9-4.1-10.4c-3.8-1.3-9.1,1.1-10.5,4.9
	c-1.6,4.1,0.7,8.3,5.4,9.8c0.5,0.2,1.2,0.1,1.7,0.3c4.3,1.3,4,5.5,4.1,8.5c-7.4,1.2-14.8,3.8-23.7,2.6c-9.8-1.3-19.8-5.5-21.5-6.3
	c-5.6-2.7-5.2-10.1-5.6-13.7c-0.4-3.3-0.7-11.2,2.2-14.4c3.2-3.6,1.4-9.2-2.8-11.9c-4-2.5-9-1.3-11.6,2.6c-2.6,3.9-1.8,9.8,2.3,11.6
	c8.9,3.7,7.6,11.2,7.9,18.3c0,0.9,0,2.5-1.1,2.1c-3.6-1.2-7.1-2.9-10.6-4.4c-2.2-0.9-0.7-2.7-0.9-4c-0.6-4-2.7-6.6-6.6-7.8
	c-6.2-1.9-15.4,3.1-11.3,11.9c3.7,5,8.4,7.7,14.6,3.6c1.4-0.9,2.5-0.5,3.7,0.2c5.5,2.9,20.6,11.8,34.8,15.1
	c14.2,3.3,21.3,0.1,31.9-1.3c8.5-1.1,17-1.9,25.6,0.4c-17.8-1.4-34.1,6.5-51.5,7.6c-7.8,0.5-26.4-0.9-35.7-4.1
	c-9.4-3.1-17.5-7.8-20.5-10.1c-2.9-2.3-6.3-7.1-6.3-7.1s1.2-2.7,1.4-7.4c0.3-4.7-1.9-9.1-1.9-9.1s-0.8,5.7-0.8,7.1
	c0.1,2.2,1.3,5.7-0.5,7.7c-2.1-1.1-3.5-2.7-2.7-5.3c1-3.6,1-7.4,0.4-9.1c-0.8-2.2-2.9-3.9-2.9-3.9s1.6,7.7,0.8,13.2
	c-6.6-6.7-4-9.2-3.6-13.1c0.5-4-2.4-10.5-2.4-10.5s-1,1.7-1.1,3.9c-0.1,3.3,1.8,8.6,0.3,12c-4.8-4.9-5.9-7.7-5.9-7.7
	s2.9-8.3,2.3-10.7c-0.6-2.4-3.8-7.2-3.8-7.2l-0.1,7.9c0,0,0.3,3.3-0.1,8.1c-3.3-3.5-7.6-9.6-7.6-9.6c0.9-2.5,3.8-6.5,3.4-10.3
	c-0.2-1.5-1.9-6.6-1.9-6.6s-1,3.6-1.4,6.6c-0.4,3-1,8.4-1.5,8.5c-1.8-1.9-3.2-4-2.7-5.3c2.3-6,0.8-13.2,0.8-13.2l-3.4-6.5
	c0,0,1.2,12.5,0.5,18c-4.7-3.1-1.6-11.7-2.1-14.9c-0.6-3.2-3.5-6.7-5.9-7.2c0.4,1.6,0.7,2.7,1,3.7c1.3,4.8,3.6,7.4,2.3,13.2
	c-0.7-1.6-5-7.8-5.2-8.1c-2.8-4.4-5.7-8.7-10.2-11.8c1,5.4,3.6,9.8,7.3,13.6l3.6,3.6c0,0,5.5,7.7-3.5,2.9c-9-4.7-6.4-4.7-10.6-7.8
	c1.5,6.9,6,9.8,9.4,11.2c3.5,1.4,6.1,1,8.1,1c2,0,3,2.1,4.8,5.3c-3.8,1.4-6.4-1.8-12-1.9c-1,0-5.1-0.7-5.1-0.7s5.5,4.6,10.6,5.5
	c5.2,0.8,6,1.1,7.3-1c2.5,1.6,3.5,4.7,5.6,7.5c-3.5-0.3-7.3-0.6-9.7-0.8c-2.6-0.2-7.3-1.1-7.3-1.1s4.4,3.8,9.1,4.6
	c4.6,0.7,8.2,0.1,9.8-0.9c2.2,2.5,4.3,4.8,6,7.6c-5.4,0.3-7.3-0.2-12.1-1.4c-1.5-0.4-7.6,0.5-7.6,0.5s5.2,3.2,6.6,3.5
	c5.5,1.4,14.3-1.1,14.8-0.5c2.1,2.5,3.7,4.6,5.8,7.2c-1.7,0-4.6-0.2-7.5,0.3c-2.9,0.5-14.6-0.8-14.6-0.8s9.9,4.7,14.1,4.7
	c4.2,0,7.9-1.3,9.2-2.6c1.4,1.7,2.8,3.5,4.3,5.3c-3.2-0.3-11.8-0.5-16.5-0.1c-4.6,0.4-10.2,1.9-10.2,1.9s4.5,2,10.4,2.3
	c5.9,0.2,14.9-1.6,17.6-2.5c0.7,0.8,2,2.5,2.7,3.4c-7.2-1.4-11.9,0.2-16.8,2.8c3.9-0.8,9.1,1.3,13.8,0.9c4.8-0.5,2-4.5,9.4,1.6
	c2.9,2.4,4.6,4.5,9.1,6.8c4.5,2.2,14,5.6,16,6.2c7.4,2.1,14.9,3.4,23.9,4.3c-6.5,3.8-11.8,7.7-16.5,12.2c-1.4,1.3-2.4-0.1-3.6-0.6
	c-5.9-2.2-10.2-0.3-11.6,5.3c-1.6,6.3,1.2,11.8,6.6,12.6c4.8,0.7,11.4-4.1,10.7-8.9c-1.1-7.7,4.7-9.4,9.4-13.5
	c0.4,6-0.7,10.9-1.9,15.8c-0.6,2.4-2.2,2.7-4.1,3.2c-3.9,1-5.7,3.8-5.5,7.7c0.2,4.4,3.3,7.1,7.1,8.1c3.6,1,6.7-1.3,8.7-4.3
	c2.2-3.1,1.6-6.5-1.1-8.8c-2.5-2.2-2.5-4.2-1.7-7c0.9-3.1,1-6.4,1.5-9.6c0.4-2.4-1.8-5.3,0.4-7.1c2.8-2.2,6.3-4.8,9.5-5
	c12.6-0.5,24.4-5.5,36.7-6.7c14.4-1.4,32.9-3.9,42.9,3.3s26.2-0.1,30.3-1.8c-2,5.2-10.7,8.9-17.6,10.3c-4.6,0.9-7.3-2.4-10.3-4.1
	c-3-1.7-11-2-11-2l14.9,7.1l-7,1.4c0,0-3.8-4.5-8-5.6c-4.2-1.2-7.1-0.7-7.1-0.7s2.4,2.5,5.6,3.9c3.3,1.4,5.2,0.8,7.5,3.1
	c-2.8,1.1-6.6,1.5-6.6,1.5s-3.1-2.9-7.4-4.5c-4.3-1.6-7.7-0.1-7.7-0.1s8.8,4.5,12.7,5.5c-4.3,2.9-10.2-1.6-15.2-3.1
	c-4-1.2-10.1,0-10.1,0s4.9,3.5,8.2,4.4c3.3,0.9,3.3,0.8,8.4,2.1c-2.5,0.7-3,0.9-5.2,2.1c-4.7-3.1-7.9-3.1-12.8-3.3
	c-5-0.2-7.2,0.8-7.2,0.8s2.2,1.7,6.9,2.6c4.7,0.9,6.4,2,11.7,1.6c-5.6,3.2-10,4.9-10,4.9s-6.4-1.7-10.6-1.4
	c-4.2,0.3-6.3,2.3-6.3,2.3s4.6,1.9,12.2,0.6c5.4,1.6,0.7,1.5-3.7,4c-4.5,2.5-8.5,8.1-8.5,8.1s5.7-1.7,9.9-4.5c4.2-2.8,2.3-2.7,6-4.6
	c-1,2.9-1.2,4-2.2,6.1c-0.5,1-2.2,5.8-2.2,5.8s3-1.5,5.1-4.5c2.1-3.1,2.3-5.8,1.7-7.6c-0.6-1.9,4.8-3.8,7.7-5.4
	c-0.4,5.4-1.3,5-3.4,9c-0.6,1.1-2.5,7.8-2.5,7.8s6.5-6.1,7.3-7.3c2.2-2.9,1.3-10.4,1.3-10.4s-0.3-2,9.5-4.6c0,0-1.9,5-3.7,9.8
	c-0.5,1.4-1.1,9.1-1.1,9.1s5-6.3,5.7-7.9c1.9-4,1.6-10.5,0.8-11.5c1.5-0.8,6.9-1.9,8.8-2.5c-2.7,5-3.1,3.1-4.9,8
	c-1.8,4.9-1.6,10.4-1.6,10.4s4.5-4.9,6.1-9.1c1.2-3,2.4-9.8,2.4-9.8s2.8-0.8,4-0.7c-1.3,4.7-1,4-2.4,8.8c-1.3,4.8-0.7,8.7-0.7,8.7
	s3.2-2.6,4.7-7.4c1.5-4.8,0.8-10.2,0.6-11.2c2.1-0.9,8.9-2.4,8.7-1.9c-1.1,4.2-2.3,2.8-3.1,7.7c-0.7,4.9-0.4,9.9-0.4,9.9
	s3.6-5.5,5-10.4c1.3-4.9-1.2-7.2,3.4-9c8.2-3.2,15.9-6.8,20.5-14.8c0.6-1,1.5-1.5,2.4-1.8c2.3-2.5,4.3-4.7,7.5-5.7
	c3.3-1.9,6.2-4.8,10.5-0.7c4,3.8,10.3,0.3,10.8-5.4C715.7,391.9,714.6,389.4,712,387.6z M643.2,393.7c-2.6-0.1-4.3-1.7-4.2-4.4
	c0.1-3.1,2-4.6,4.9-4.3c2.5,0.2,4.8,1.4,5.4,4.4C648.2,392.2,646.1,393.8,643.2,393.7z M591.7,388.6c-2.6,0.3-4.5-1.2-4.6-3.9
	c-0.1-2.6,2.1-3.3,4.1-3.9c2.3,0.1,3.7,1.1,3.8,3.4C595.2,386.5,594,388.4,591.7,388.6z M520.4,389.2c-3.3-0.5-5.5-2.2-5.6-5.6
	c-0.1-3.1,1.8-5.3,4.9-5.2c3.1,0.1,5.7,1.7,6,5.1C526,387.1,523.3,388.4,520.4,389.2z M539,369.2c-2.6-0.2-4.8-1.8-4.8-4.7
	c0-2.9,1.7-4.7,4.6-4.8c3.2-0.1,5.2,1.3,5.2,4.9S541.8,369.4,539,369.2z M479.7,363C479.7,363,479.7,363,479.7,363
	C479.7,363,479.7,363,479.7,363C479.7,363,479.7,363,479.7,363z M536.5,442.1c-3.9,0-5.5-2.4-5.6-5.1c-0.1-2.8,1-6.1,4.5-6.1
	c3.2-0.1,6.2,1.7,6.4,5.2C542,439.5,539.1,441.1,536.5,442.1z M556.4,449.8c0.1,2.9-2.2,4.1-4.7,4.5c-3.1,0.1-4.3-1.6-4.5-4.2
	c-0.2-2.7,1-4.4,4-4.4C553.8,445.8,556.3,446.8,556.4,449.8z M650.6,381.9c-0.1-2.3,1.6-3.5,3.6-3.6c2.1-0.1,2.9,1.5,3,3.4
	c0.1,2.1-0.9,3.2-3,3.1C652.2,384.7,650.6,384,650.6,381.9z M653.9,388.6c2.5,3.4,2.7,7.1,3.3,11.2
	C651.7,397.1,649.7,394,653.9,388.6z M646,407.9c6.1,0.2,11.8,2.2,17.5,4.4C656.8,414.3,651.5,410.6,646,407.9z M694,388.8
	c-2.7,0-3.7-2-3.8-4.1c-0.2-2.6,0.7-5.2,3.8-5.5c2.7-0.3,4.4,1.5,4.7,4C699,386.4,696.9,387.9,694,388.8z M708.3,398
	c-2.6-0.8-3.7-2.7-3.9-5.1c-0.1-2.1,1.6-3,3.4-2.9c2.8,0.2,3.8,2.2,3.7,4.7C711.5,396.8,710.2,397.8,708.3,398z"/>
<path class="st0" d="M579.4,223.8c2-0.1,5-15.5,8.4-22.9c4.4-9.6,9.5-19,14.8-28.2c1.1-1.9,4-3.2,6.3-3.7c1.3-0.3,4.1,0.9,4.5,2.7
	c0.4,1.8-1,2.5-1.8,3.6c-6.4,9.3-7.6,19.1-4.3,27.7c7-5.9,14.7-11.7,21.4-18.5c2-2,1.3-6.9,1.4-10.4c0.2-4,0-7.9,0-12.3
	c-13.1-2.4-25.9-5.5-38.9-6.7c-12.5-1.1-25.3-0.2-37.9-0.2c-0.1-0.5-0.3-1.1-0.4-1.6c2.3-0.8,4.5-1.8,6.8-2.3
	c16.5-2.9,32.6-0.2,48.7,2.8c6.9,1.3,13.9,2.3,21.3,3.6c0-3.2-0.4-5.8,0.1-8.4c0.3-1.7-0.1-3.7,2.8-4.4s4.8,1.8,5.5,3.5
	c1.1,3.1,0.9,6.7,1.4,11.6c10.1,0,20.1,0,30.1,0c0,0.8-0.1,1.6-0.1,2.3c-9.7,3-19.6,1.4-30,1c-1.1,22.3-2.7,67.1-0.8,67.2
	c1.9,0.1,2-4.9,2.6-7.4c3.1-12.6,6-25.2,9.1-37.7c0.7-2.9,2.1-5.7,3.2-8.5c1.6-3.9,4.5-5.7,8.6-4.8c4.3,1,5.5,4.3,5.4,8.3
	c0,1.9-0.4,3.8-0.6,6.3c2.5-4.3,4.3-8.5,7.1-11.8c1.7-2,5.4-4.1,7.4-3.5c2.7,0.9,5.5,4,6.6,6.7c1.1,2.8,0.2,6.3,0.2,11
	c3-5.1,5.3-9.1,7.8-13.1c1.9-3,4.6-6.2,8.2-4.2c2.6,1.5,5.7,5.3,5.7,8c-0.2,9.8-1.7,19.6-2.7,29.5c-0.8,8.7-4.6,25.6-2.2,26
	c2.4,0.4,5.5-12.9,7.2-19.6c2.9-11.5,7.1-22.5,14.3-32.1c5.7-7.4,10-8.5,17.9-5.6c2.6-0.3,5.4-1.2,7.8-0.6c0.9,0.2,1.4,4.1,1.2,6.2
	c-1.6,11.8-8.9,33.5-5.1,35.2c2.1-0.4,2.6-2.6,3-4.2c4.7-17.1,10-34,20.1-48.8c1.5-2.3,3.8-4.4,6.2-5.6c1.6-0.7,5-1.4,6.2,0.8
	c1.3,2.2-0.6,3.8-1.6,5.2c-5.2,6.5-6.2,17.1-2.6,23.8c11.6-8,23-16.7,35.2-24c8.9-5.3,18.9-8.9,28.5-13c1.7-0.7,4.6-1.7,5.8-1.1
	c1.2,0.6,1.1,2.1,0.5,2.7c-0.6,0.7-4.2,2-6.4,2.8c-21.2,7.7-40,19.4-56.5,34.8c-3.3,3.1-3.7,5.4-1.4,9.6c3.4,6.5,6.2,13.5,7.6,20.7
	c2.2,11.1-4.8,19.9-16,21.5c-10.2,1.5-18.6-6.3-16-16.5c2.2-8.7,6.2-17.1,10.5-25c1.9-3.5,2.2-5.8,0.4-9.1
	c-1.5-2.8-3.3-10.2-4.9-9.2c-1.6,1-6.6,21.2-9.8,31.8c-1.2,3.8-1.8,7.9-3.5,11.4c-1.1,2.2-4.3,5.2-5.8,4.8c-2.6-0.7-6.1-3.4-6.6-5.7
	c-1.2-6.5-1-13.2-1.5-20.3c-1.6,3.6-3.1,7.1-4.8,10.5c-5.1,10.5-10.4,11.2-17.7,2c-1.9,6.7-3.6,13.3-5.6,19.8
	c-1.1,3.7-2.5,7.5-7.6,6.9c-5.2-0.6-7.5-4.2-7.2-8.7c0.9-14,2.2-28,3.5-42c0.4-5,1.9-15.4,0.1-15.4c-1.8,0-3.1,4.2-3.9,6.6
	c-3.4,9.9-6.6,19.8-9.7,29.8c-0.9,2.8-1.1,5.8-5.2,5.4c-3.9-0.5-4.8-3.2-4.6-6.6c0.5-7.8,1.1-15.7,2.2-21.9s2.7-13.6,0.5-13.5
	c-2.2,0.2-9,16.1-11.5,24.7c-1.8,6.2-2.7,12.6-3.6,19c-0.5,3.4-1.2,6.1-5.3,5.8c-3.8-0.2-4.6-2.9-4.4-6c0.8-13.4,5-41.6,2.3-41.1
	c-2.7,0.5-3.8,13.8-5.4,20.5c-1.9,8.3-3.5,16.8-5.3,25.1c-0.4,2-1,4.1-1.8,6c-1.5,3.6-3.7,6.2-8.2,5.7c-4.4-0.5-7.3-3.1-7.6-7.2
	c-0.6-9.1-0.7-18.2-0.7-27.3c0-3.4,0.4-6.8-0.5-11.1c-5.3,5.8-10.6,11.7-16.1,17.7c5.5,8.9,9.8,17.7,9.6,28.1
	c-0.2,9.6-7,17.6-16.6,18.7c-6,0.7-10.8-2.5-12.5-8.4c-2.4-8.1,0.4-15.3,3.9-22.4c9-18.4,1.5-32.2,0.1-32.4
	c-1.5-0.2-6.3,19.8-9.2,29c-1.4,4.3-3.1,9.4-9.4,9.2c-6-0.3-7.1-4.5-8.3-9.6c-0.9-4-0.6-12.8-2.1-13.3s-4.8,13.3-7.1,19.3
	c-1.6,4.2-4.2,7.3-9.3,7c-5.3-0.3-8.2-3.5-9.7-8.3c-2.5-8.3-0.8-16.2,1.8-24.1c0.8-2.5,1.8-5,2.8-7.8c-2.7-2.2-7.1-8.2-8.9-7.2
	c-1.8,1-3.9,16.9-6.1,25c-3.5,12.6-7.2,25.2-11,37.8c-1.1,3.7-4.4,7.1-9.4,6c-4.7-1-5-4.4-4.6-8.6c1-10.8,2.4-21.5,3.9-32.2
	c1.4-10.2,3.3-20.3,4.7-30.5c0.4-2.5,1.6-8.3-0.6-9.7c-2.1-1.4-3.9,4.1-4.9,5.7c-7.3,12.3-14.9,34.2-15.4,37.1
	c-0.5,2.9-3.2,6-4.8,6.1c-3.4,0.3-5.1-1.9-4.8-5.5c1-12.1,1.9-24.3,2.8-36.5c0.7-8.6,1.3-17.3,1.9-25.9c-0.6-0.2-1.2-0.5-1.8-0.7
	c-6.3,11.4-13,22.6-18.7,34.2c-5,10.2-9,21-13.4,31.5c-1.2,2.8-2.3,5.7-3.5,8.4c-2.3,5.1-4.6,10.9-10.9,11.3
	c-6.7,0.4-12.6-3.8-15.2-9.5c-3.5-7.6-6.4-15.9-7.4-24.3c-0.3-2.3-0.1-4.5-0.1-7.2c-10.7,0.6-20.3-1-29.1-6.2
	c-15.7-9.2-21.8-22.9-17.8-40.6c0.3-1.2,0.5-3.3,2.9-3.3c2.4,0,2,2.6,2,3.8c0,4.4-1.1,8.8-0.6,13.1c2,19,22.3,32.7,42.4,28.6
	c0.6-14.4,3.3-28.7,9.5-41.8c3-6.4,8-11.9,12.5-17.4c1.6-1.9,4.2-3.3,6.7-4.2c12.1-4.9,21.2,0.8,19.6,13.6
	c-3,22.5-13.4,40.7-34.8,50.9c-3.4,1.6-4.4,3.2-4.3,6.8c0.3,10.3,1.8,20.2,8.2,28.6c3,3.1,7.1,3.8,9.4-0.8
	c5.1-10.2,8.5-21.2,13.8-31.3c9.2-17.5,19.4-34.4,28.7-51.8c1.9-3.5,1.5-8.2,1.8-12.4c0.2-2.8-0.7-6.2,3.5-6.4
	c4.1-0.2,5.7,2.2,5.6,6.2c-0.6,15-1,30-1.6,45.1c-0.1,3.6-0.5,7.2,0.2,11.2c1.7-3,3.3-6.1,5.1-9.1c1.6-2.6,3.4-5.1,5.2-7.5
	c2.5-3.2,6-6.1,9.7-3.7c3,1.9,6.2,5.8,6.4,9c0.5,7.3-0.5,14.8-1.6,22.1c-2.1,14.1-8.3,41.6-6.9,42.2c1.3,0.6,2.7-2.2,3.1-3.6
	c5.3-20.2,10.8-40.4,15.6-60.8c1.5-6.2,0.7-12.8,1.3-19.3c0.2-2,0.8-4.3,2-5.9c1.1-1.4,3.5-2.7,5-2.4c1.4,0.3,3.2,2.9,3.2,4.4
	c-0.1,4-0.9,7.9-1.7,11.8c-1.9,9.6,0.7,15.5,9.3,20.2c3.4,1.9,4.9,4,2.8,8.3c-4.3,9-7.4,18.4-4.4,28.6c0.3,0.9,0.8,3.6,2.9,3.1
	c2.1-0.5,3.2-8.6,5-12.8c3.4-8.3,6.8-16.5,10.1-24.8c1.2-2.9,2.7-5.1,6.3-4.2c3.8,1,3.2,4,3.2,6.9c-0.2,8-0.2,15.9-0.2,23.9
	C577.3,220.4,577.4,223.8,579.4,223.8z M426.9,193.6c2.8,1.2,8.7-3.7,12-6.8c10.6-10,17.7-22.3,20.8-36.7c1-4.9,2.2-10.9-2.8-13.4
	c-5-2.5-11.8,2.6-16.4,8.7C428.7,161.1,424.1,192.4,426.9,193.6z M775.3,203.7c-2.5,0-5.9,16.3-7.8,24.7c-0.6,2.5,1.8,7.8,3.8,8.3
	c2.7,0.7,7.1-1,9.3-3.2c2.1-2.1,3.7-6.3,3.2-9.2C783,217.3,777.8,203.7,775.3,203.7z M604.8,218.6c-2.1,0-5,12-6.9,19.8
	c-0.9,3.7-0.2,12.6,4.7,13.7c5.2,1.1,8.2-1.8,9.2-10.8S606.9,218.6,604.8,218.6z M727,215.2c2.6,0.9,4.5-3.8,6.1-7.3
	c1.4-2.9,4.5-11.2,8.1-17.9c2-3.6,1.7-8.7-2.6-8.4S723.2,213.9,727,215.2z"/>
<path class="st0" d="M692.7,111c-4.6,9.5-9.5,10.3-17,2.3c-2,6.3-3.9,12.5-6.1,18.5c-1.4,3.7-3,7.4-5.1,10.8
	c-2.1,3.4-5.2,5.8-9.6,4.5c-4.4-1.3-6.6-4.9-6.7-9c0-6.6,0.8-13.3,1.3-19.9c0.1-1.5,0.3-3.1,0.8-4.5c1.6-4.5-0.5-6.8-4.8-7.9
	c-1.8,5.7-3.3,11.5-5.3,17.1c-2.4,6.4-6.3,9-11.4,8.4c-5.1-0.6-8.1-4.2-8.6-11.1c-0.3-3.6,0-7.2,0.5-10.8c1-6.4,1.2-6.4-4.7-9.9
	c-3.1,9.9-6,19.9-9.4,29.7c-1.8,5.3-5,9.3-11.6,9.3c-5.2-0.1-8.7-2.3-10.8-6.9c-1-2.2-1.8-4.6-2.2-5.4c-4.4,0.2-8.4,1.3-11.7,0.2
	c-4.5-1.5-4.5-6.3-3.9-10.3c1.3-9.2,3-18.4,4.5-27.6c0.5-3.4,0.7-6.9,1.1-10.4c-0.6-0.2-1.2-0.4-1.9-0.6c-1.5,2.3-3.3,4.4-4.5,6.8
	c-6.3,12.9-11.6,26.1-13.3,40.5c-0.4,3.4-1.5,5.5-5.1,5.4c-4-0.2-5-2.8-4.6-6.3c1.3-12.7,2.7-25.3,4-38c0.2-2.2,1-6.9-0.8-7.2
	c-1.8-0.2-2.6,2.9-3.5,4.5c-6.3,11.6-11.6,23.6-13.1,36.9c-0.4,3.2-1.6,5-4.9,4.8c-3.4-0.2-4.6-2.1-4.5-5.3
	c0.3-7.6,0.5-15.2,0.8-22.8c0.1-3.2,0.5-6.4,0.7-9.9c-6.1,3.5-11.5,7.2-17.5,9.9c-18.1,8-36,7-53.2-2.8c-3.5-2-8.9-7.3-9.3-8.2
	s0.2-1.5,1.4-2.3c1.1-0.7,3.9,0.4,4.9,1.5c11.7,12.8,26.6,14.8,42.4,11.7c13-2.5,24.1-9,32.3-20c1.2-1.6,4.4-2.6,6.5-2.3
	c1.1,0.2,2.3,3.8,2.3,5.8c0,4.1-0.7,8.2-0.2,12.6c2.1-4.1,4.2-8.3,6.4-12.3c2.6-4.7,5.8-9.1,12-7.1c5.8,1.9,6.3,7,6,12.2
	c-0.1,1.6,0,3.2,0,6.3c2.6-4.9,4.3-8.7,6.4-12.1c2.7-4.3,6.1-8.2,12-6.5c4.6,1.3,7.4,7.7,6.4,13.9c-1.6,9.4-3.3,18.7-4.9,28.1
	c-0.3,1.7,0,5.1,1.6,5.3c1.7,0.2,3.4-8,4.9-12.4c2.1-6.1,3.6-12.4,6-18.4c1.6-4.2,5.2-6.5,10-6.1c5.4,0.4,7.8,3.2,7.7,8.6
	c-0.2,9-4.9,14.5-14.3,16.6c-1.8,8.1-0.2,24.1,3.5,24.5s4.6-4.7,5.4-7.2c3.7-11.1,6.2-19.2,9.4-30.5c0.4-1.5,0.5-5.8,0.5-8.2
	c0-2.3-0.1-15.6,0.7-23.2c0.2-2.1,2.6-5.7,5.8-5.7s3.1,4.2,3.2,6.4c0.1,4.7-0.6,9.5-1.2,14.2c-1.2,8.8,2.3,15.8,10.2,19.5
	c3.1,1.5,3.2,3.4,2.4,6.5c-1.7,6.7-2.1,21.1-0.2,21.4c2,0.3,3.2-3.7,3.8-5.5c3.2-9.7,6.6-18.9,3.9-29.9c-1.6-6.3,0.8-13.8,2.3-20.5
	c0.4-1.6,2.8-4.8,6.5-3.6c3.7,1.2,3,4.3,2.9,6.3c-0.2,4.9-1.4,9.8-2.3,14.6c-1.3,7.6,1.4,13,8.7,15.8c3.3,1.3,3.7,3.3,3.2,6.2
	c-0.9,5.6-1.9,11.3-2.5,16.9c-0.5,4.3-1.9,12.9,1.1,13.1c2.3,0.1,3.1-3.4,3.9-5.5c5.5-16.3,10.8-32.3,16.1-48.6
	c1-3.2,2.3-5.3,5.9-4.5c3.8,0.8,3.7,3.6,3.2,6.7c-1.3,7.4-5.3,21.4-2.2,22.4c3.1,1.1,8.5-13.8,12.5-20.8c1.7-2.8,3.9-4.8,6.8-3
	c1.6,1,2.7,3.9,2.6,5.9c-0.4,8.9-1.4,17.8-2.3,27.9c10.1-4.5,20.1-7.8,29-13c13.5-7.8,19.7-20.3,18.8-35.9
	c-0.4-7.5-3.2-13.7-10.3-17.3c-0.7-0.3-1.3-0.8-1.8-1.3c-0.2-0.2-1.3-0.8-0.8-2.3c0.5-1.4,4.2-0.2,5.7,0.5
	c7.8,3.5,11.9,9.8,13.1,18.1c2.5,18-5.4,33.8-22.2,42.6c-8.5,4.5-17.7,7.8-26.8,11.1c-4,1.4-5.5,3.2-6,7.5c-0.8,6.7-2.2,13.5-4.3,20
	c-2.3,6.8-10.3,10.2-16.7,8c-5.4-1.9-8.5-8.9-6.9-15.9c1.9-8,7.2-13.5,14.1-17.1c4.3-2.2,6.3-4.5,6.3-9.3c0-4.4,0.9-8.9,1.5-13.3
	C697.5,102.8,694,108.2,692.7,111z M695.9,128.7c-10.2,3.7-16.1,13.2-13.9,20.9c0.5,1.6,0.7,3.6,2.9,4.5s4.1-2,4.6-3.6
	C691.9,143.7,693.7,136.6,695.9,128.7z M597.7,88c-1.7,0-3.9,10.4-6.2,16.5C599.1,99.5,599.4,88,597.7,88z"/>
<path class="st2" d="M839.1,53.5c0-2.5,1.2-5,5.1-4.5c1.1,0.1,2.7,1.2,2.7,4.5c0,3.2-0.2,5-4.6,4.5
	C841.1,57.8,839.1,56.1,839.1,53.5z"/>
<path class="st0" d="M572.8,167c2.8,0.5,4.3,2.1,4.2,4.8c-0.1,2.9-1.8,4.9-4.9,5.1c-3.1,0.1-4.1-2-4-4.7
	C568.2,169.3,569.7,167.4,572.8,167z"/>
<circle class="st2" cx="176" cy="400.4" r="4.8"/>
<circle class="st2" cx="126" cy="300.1" r="4.5"/>
<circle class="st2" cx="198" cy="208.6" r="3.8"/>
<circle class="st2" cx="95" cy="122.4" r="4.7"/>
<circle class="st2" cx="180.8" cy="67.2" r="3.2"/>
<circle class="st2" cx="42" cy="359.6" r="8.7"/>
<circle class="st2" cx="95" cy="506.8" r="4.7"/>
<circle class="st2" cx="177.6" cy="591" r="6.4"/>
<circle class="st2" cx="218" cy="497.7" r="4.9"/>
<circle class="st2" cx="74" cy="712.7" r="4.5"/>
<circle class="st2" cx="42" cy="615.1" r="5.2"/>
<circle class="st2" cx="184" cy="768.1" r="5.1"/>
<circle class="st2" cx="69.5" cy="848.9" r="8.9"/>
<circle class="st2" cx="233" cy="864" r="4.9"/>
<circle class="st2" cx="50.7" cy="211.9" r="3.4"/>
<circle class="st2" cx="47.3" cy="31.6" r="3.4"/>
<circle class="st2" cx="974.6" cy="83" r="6"/>
<circle class="st2" cx="1090.1" cy="77" r="8.3"/>
<circle class="st2" cx="980.6" cy="177.5" r="6.6"/>
<circle class="st2" cx="1105.1" cy="246.2" r="8.8"/>
<circle class="st2" cx="1010.6" cy="320.5" r="10.7"/>
<circle class="st2" cx="1039.1" cy="414.6" r="6.8"/>
<circle class="st2" cx="1132.1" cy="376.8" r="5.9"/>
<circle class="st2" cx="1098.4" cy="492.8" r="8.8"/>
<circle class="st2" cx="1000" cy="573.5" r="10.7"/>
<circle class="st2" cx="1145.6" cy="591" r="6.4"/>
<circle class="st2" cx="1039.1" cy="652.6" r="7.8"/>
<circle class="st2" cx="989.3" cy="760.2" r="7.8"/>
<circle class="st2" cx="1132.1" cy="785.2" r="7.1"/>
<circle class="st2" cx="1046.9" cy="848.9" r="7.2"/>
<circle class="st2" cx="1166.6" cy="154.3" r="6.4"/>
</svg>
