<svg version="1.1" id="Layer_1" xmlns="http://www.w3.org/2000/svg" x="0" y="0" viewBox="0 0 1200 900" xml:space="preserve"><style>.st0{fill:#fff}.st1,.st2{fill:#fff;stroke:#000;stroke-width:.75;stroke-miterlimit:10}.st2{stroke-width:.25}</style><path class="st0" d="M.4 450.6C.4 302.3.4 154.1.2 5.8.3 1 1.5 0 8.1 0c394.7.2 789.4.2 1184 0 6.6 0 7.8 1 7.8 5.9-.2 296.5-.2 593 0 889.5 0 4.9-1.3 5.9-7.8 5.9-394.7-.2-789.4-.2-1184 0-6.6 0-7.9-1-7.8-5.9.2-148.2.1-296.5.1-444.8z"/><path class="st1" d="M755.4 313.9h-.2c-.3-.8-.5-1.6-.9-2.3-6.3-12.8-12.7-25.7-19-38.5 0-2.8-1.8-4.8-2.9-7.1-6.1-12-12.3-24-18.4-35.9-5 1.4-9.9 2.8-14.9 4.2-1.2-.5-2.5-.2-3.7.1-1.8.5-3.6 1.2-5.1 2.4-1.2 1.2-2.2 3-4.2 1.4-3.8.7-8.1.1-10.5 4.3 1.6 1.6 2 3.7 2.7 5.7 8.6 24.7 15.3 49.9 19.8 75.7 3.7 29.9-.5 59-9.7 87.5-6.3 15.4-13.3 30.4-27.6 40.4.5.7 1 2.2 1.5 2.1 10.7-1 21.5-2.5 30.7-8.1 15.9-9.7 28.2-22.6 38.2-38.7 17-27.7 22.9-58.1 26.2-89.5.1-1.8-.6-3-2-3.7zM364.7 444.2c-7.6-.5-14.3-4.5-21.8-5.7-9.4-7-16.7-23-20.3-19.4-1.7-2.4-3.3-5.4-4.4-10.9-.9-4.7-1.3-25.6-2.2-19.9-2.7.8.2-21 1.6-31.9.5-3.7 1-4.9-1.8-3.5 0-10.8 5.4-21.1 11.2-30.6 5.2-5.2 12-7.8 18.3-11.1 37.7-19.7 78-29 120.4-28.5 10.5.1 21.1 1.3 29.4 9.2 6.8 6.1 18.9 18.2 18.7 19.7-3 .7-1.2 1.7-1.1 1.9 5.1 5.5 8.5 11.6 11.9 17.5-4.2 2.1 7.3 21.2 6.7 24.6-3.7.4.8 18.6-.1 28.2-2.5.4-29.5 48.9-67.9 62.7-43.2 15.6-98.5-3.3-98.6-2.3zM472.4 254.3c-10.4-1.4-23.7-1.7-27.7-1.8-51.1 2-56.5 3-98.4 17.3-1.4.6-5.2 2.4-8.1 3.3 1.3-2.2 2.6-4.4 4.7-7.9-7.7 3.4-12.8 9.4-20.4 9.4-3.2-2.8-3.9-4.1-4.3-5.7 11.3-5.9 19.1-15.8 27.9-24.7 20.6-20.9 45.7-29.8 74.7-28.9 5.5.2 10.2 1.9 14.6 5.2 13.5 9.9 25.1 22 37 33.8z"/><path class="st1" d="M495.2 291.9c-20.1-10.2-41.3-7.4-62.5-5.4-36.4 3.4-69.4 16.7-101 34.3-1.4.8-3.1 1-4.7 1.5-3.9-18.2-1.7-34.9 11.2-49.3 22.1-12.8 46.1-19.1 71.3-22.3 15.5-1.9 31-1.3 46.5.1 5.7.5 11 2.3 16.5 3.4 9.4 6.2 16.2 14.5 20.3 25.1 1.5 4.2-.1 8.8 2.4 12.6zM551.3 213.1c-9.3 7.7-20.5 11.7-31.8 15.3-9.5-3.8-17.8-10-26.8-14.8-7.5-4-14.9-8.4-23.6-9.6-3.7-11-5.7-22.4-10.3-33.1-1.4-3.3.4-5.2 4.1-5.7 7.5-1.1 15.2-1.3 22.4-4.2-.3 3.6 3.4 5.3 4 8.5.5 7.2 5.5 9.6 11.6 11.1 2.5.6 5 .8 7.4 1.9 3.7 2 7.4 4 11.1 5.9 1.4 4.3 4.1 7.3 8.3 9 3.8 1.5 7 3.8 9.1 7.6 1.7 3.1 4.4 4 7.8 3.7 3.1-.3 6.1.4 6.7 4.4zM718.1 784.5c-3.2-1-2.9 1.3-2.9 3.2.1 4.1-3.1 5.7-6 5.6-3-.1-2.5-3.5-2.6-5.8-.1-11.5 0-23-1-34.8-1.5 4.9-3 9.8-4.4 14.7-.8 2.8-1.2 5.6-2.2 8.3-.9 2.5-2.9 4.9-5.5 5.3-3.2.5-2.9-3.2-3.9-5.1-3-6.2-4-13.3-8.4-20.7-.8 14.7-3.3 27.8-3.5 41.2 0 2.3 2.2 6.5-2.9 6.3-4.9-.2-2.7-4.4-2.7-6.7 0-18.2 3.3-36.3 2.8-54.5-.1-1.9-.3-3.9 0-5.7.4-2.6-2.3-6.5 1.8-7.4 4.3-1 5.4 3.2 6.6 6.2 3.9 10 7.5 20.1 12.6 30.2l6.3-25.5c.6-2.3.8-4.9 2-6.8 1.3-2 3-4.2 6.4-3.4 3.4.8 3 3.1 3.1 5.5.3 14.4.7 28.7 1 43.1.1 3.6.4 6 4.6 3 1.5 1.8.4 2.9-1.2 3.8zM604.6 685.8c-6.2 6.3-5.9 12.7-7 18.5-.8 4.2-1 8.5-1.4 12.8-.2 2.6-.9 4.8-3.9 5.2-3 .4-5-.9-6.3-3.7-2.5-5.4-2.3-11.2-2.9-16.9-.6-5.7-1.1-11.4-3.4-17.2-3.8 4.2-3.8 8.9-4 13.6-.3 6.2-.6 12.4-1 18.6-.1 2.3.3 5-3.2 5.4-3.5.4-5.6-1.3-6-4.6-1.6-12.9.3-25.2 6.3-36.8 1.4-2.8 4.1-4.8 7.7-4.4 3.5.4 5.2 3.1 6.4 6.1 2.7 6.4 2.6 13.4 3.7 22 3.1-7.6 5.2-13.5 7.8-19.2 1.5-3.3 3.7-6.6 8-6.1 4.4.5 6.4 4 7.3 7.9 1.8 7.9 3.2 15.9 4.7 23.9.9 5.2 2.1 10 8.9 10 1.1 0 2.7.6 2.3 2-.3 1-1.3 2.1-2.3 2.5-6.2 2.3-11.3.4-15.3-4.6-4.8-6.1-6-13.4-6.4-20.9-.1-4 0-8.2 0-14.1zM550.4 788.6c2.7 8.1.7 13.8-5.4 19-5.4 4.6-10.1 1.3-14.5-1.2-7.7-4.4-12.7-11.6-13.7-20.2-2.5-22.2-1-44.4 2.9-66.5 2-11 8.9-17.9 19.5-20.6 3.1-.8 6.1 1.2 6.3 5.2.2 5 .2 10.1.2 15.1-.1 3.7-2.8 4.9-5.8 5.1-4.2.3-2.6-2.9-2.8-5-.1-.7.1-1.4.1-2.2-.1-2.9 1.8-7.6-1.4-8.3-4.3-.9-4.8 4.3-6.1 7.4-3.2 7.7-3.1 15.9-3.4 24-.6 14.6-2.1 29.2.5 43.7.4 2.1.9 4.2 1.6 6.2 1.8 5.3 4.7 9.8 10.7 10.4 5.5.6 6.2-5.2 9-8.1.7-.7 1.1-1.9 2.3-4zM456.4 117.2c1-1.4 5-2.8-.1-4 4.7-2.7 4.2-8.2 6.5-12.2 2-3.6 3-9.4 8.1-8.7 4.6.6 4.1 6.3 5.1 10.1.5 2 .3 4.2.5 6.4-1.1 6.2-1.8 12.5-2.3 18.7-.3 4.1.4 8 4.5 10.4 2.9 6.1 1.3 11.6 5.1 17.4-9.1 2-17.7 5.3-27.1 4.7-5.5-8.7-2-17.9-2.7-27.3-.5-5.1.6-10.5 2.4-15.5zM316.6 267c2.6 1.9 5.3 4.9 5.9 7.5 2.6 9 1.3 16.6-6.3 23.1-6.8 5.8-13.6 7.1-21.4 2.7-8-4.5-11.3-11.8-9.6-21 1.5-8.1 7.9-13.7 16.1-14.8 6.4-1 10 0 15.3 2.5zM417 187.9c-7.4.8-14.5-3-21.9-1.1-2.3.2-4.3 3.1-7 .9-7.6-3.2-14.9.3-22.3.8-2.1.1-4.2.9-6.4.9-3.5.1-7.8.9-9.5-3-1.9-4.3 1.6-7.2 4.4-9.7 7.7-6.9 17.1-10.2 27.1-12 5.6 4.4 12.9 4.5 19.1 7.3 2.1 1 4.1.7 6.2.7 7.7-.1 12.6 7.5 10.3 15.2z"/><path class="st1" d="M563.7 761.2c0 8.6-.3 17.3.1 25.8.2 4.1-1.7 6.3-4.9 6.5-3.7.2-3.2-3.3-3.2-5.9-.1-6.7-.3-13.4-.2-20.1.1-3.4-1.1-4.9-4.6-4.6-3 .3-5.6.4-5.3 4.8.4 6.7.2 13.4.3 20.1.1 3.1-1.1 5.5-4.2 5.4-2.8-.1-3.4-2.9-3.4-5.5 0-5.5-.8-11.2.2-16.5 1-5.2-5.1-10.8-3-12.3 5.1-3.9 2.1-8.2 2.8-12.2.8-4.7.4-9.6.9-14.3.2-1.8-.5-4.9 3.2-4.3 2.7.4 3.1 2.5 3.1 4.8-.1 6.5.2 13-.2 19.4-.3 4.4 1.9 4.4 5.2 4.4 3.4 0 5.4-.4 5.2-4.6-.3-6.2-.1-12.5.1-18.7.1-2.3.2-5.4 3.3-5.4 3.4 0 3.7 2.7 3.7 5.7-.2 9.1-.1 18.2-.1 27.3.5.2.7.2 1 .2zM758 721.2c-10.5 4.3-12.8 10.4-7.5 19.7 3.9 6.8 8.5 13.3 12.4 20.2 2.7 4.8 4.6 10.1 3.9 15.8-.5 4.5-2.2 8-7.4 9.3-4.7 1.2-8.6.8-11.7-2.9-3.3-3.8-3.1-8.4-2.1-13 .4-2 1.7-2.2 3-.8 1.2 1.1 2.5 2.1 2.7 4 .3 3.1-.6 8.3 4.1 7.4 4.8-.9 3.3-6.2 2.6-9.7-2.1-9.8-8-17.8-13.4-26-2.9-4.4-4.3-8.9-4.5-14-.5-9.1 4.1-14.5 13.2-15.2 2.6-.2 5.8 1.5 7.2-2.7.6-1.7 2.4-1.1 3.7-.2 2 1.3 3.3 3.2 2.8 5.4-1 3.8-1.1 7.5-1 11.4.1 2.7-1.5 3.9-3.9 4.2-3.3.3-3.2-2.2-3.4-4.3-.3-2.9-.5-5.7-.7-8.6zM388.2 187.8c2.3-.3 4.6-.6 7-.9-14.9 13.2-31.4 16.4-49.3 6.7-3.8-2-5.4-1.4-7.1 2-1.1 2.1-2.3 4.1-3.5 6.2-5.4-2.4-9.8-5.9-12.9-11 8.9-7.4 8.8-7.4 1.3-16.7-2.7-3.3-5.2-6.9-7.7-10.4-1.4-1.9-2.3-4.3-5.5-3-1.2.5-2.4 0-3.1-1.2-3.1-5.3-6.1-10.6-9.1-15.8 4.7-3 9.3-6.5 15.4-5.9 1.1 6.7 3.2 13.2 4.7 19.8 2.1 8.9 9.1 15.5 15.8 21.4 1.2 1.1 5.9-.7 7.7 2.3 12.8 21 29.5 13.8 46.3 6.5zM631.1 732.5c-6.4 6.7-6.1 13-3.6 19.2 2.2 5.3 5.1 10.3 7.9 15.3 2.3 4.2 4.2 8.7 4.6 13.5.4 4.3.4 9.2-3.9 11.6-3.9 2.2-8.5 3.6-12.9.6-4.5-3.1-5.5-7.6-4.8-12.7.2-1.4.7-2.7 1.2-4.3 4.5 1.4 5.2 4.6 5.3 8.4.1 2.2.8 4.6 3.6 4.4 2.8-.1 3-2.6 3.2-4.8.5-5.8-1.9-10.8-4.6-15.6-4.4-8.2-9.6-15.9-9.1-26 .3-7 4-12.5 10.9-13.9 1.6-.3 3.1-.2 4.5-1.6 2.8-2.7 5.8-.1 6 1.9.4 5.3-.3 10.8-1 16.1-.1 1-2.6 2.1-4.4 1.7-1.8-.3-1.9-1.9-2.1-3.3-.2-2.9-.4-6-.8-10.5zM699.1 705.2c-2.3 2.8-5 6.1-7.6 9.5-1.5 1.9-2.9 4.2-.7 6.4 2 2.1 4.5 1.3 6.6.3 5.7-2.8 7.5-7.9 7.3-13.7-.2-5.2-.9-10.3-3-15.7-1.7 1.6-2.9 3-4.4 4.1-3.6 2.6-7.3 2.7-10.3-.6-3.4-3.8-3-8.5-.9-12.7 1-2 3-1.2 3.6.8.5 1.8.5 3.8.8 5.6.2 1.1 0 2.5 1.6 2.8 1.4.2 2-1 2.7-1.9 2.4-3.3 2.8-9.6 8.4-8.2 5.3 1.3 5.3 7.4 6.5 11.9 2.1 7.4 3.4 14.9 1.5 22.6-1.2 4.8-3.3 8.9-7 12.2-6 5.2-13.5 5.1-17.9-.1-4.6-5.6-3.8-13.7 2-18.6 3.5-3 7.4-4.9 10.8-4.7zM417 187.9c.2-3.5-1.3-6.5-2.8-9.4-.8-1.6-2.9-4.2-3.6-4-6.3 2.1-11.6-3.2-16.5-2.8-5.8.5-8.2-.9-10.3-5.4-.3-.7-1.5-1-2.3-1.5 12-2.3 24.1-1.4 36.1-.5 4.6.4 8.8.1 13.2-.4.6 4.9 4.5 1.8 6.8 2.8-3.1 7.4-4.7 15.4-7.9 22.8-4.4.8-8.4-1.8-12.7-1.6zM653 758.2c0-5.8.1-9.9 0-14-.1-4.9.5-10.3-7.1-10.2-1.8 0-3.3-1.3-3.3-3.2-.1-2.4 2.1-2.3 3.6-2.3 6.9-.2 13.9-.2 20.9-.2 2.2 0 3.8.9 3.9 3.3.1 3-2.6 2.6-4.2 2.5-5.5-.6-6.1 2.2-5.9 6.8.6 14.6.9 29.2 1.3 43.8 0 1.4.2 2.9.1 4.3-.2 4.1-3.7 4.2-6.3 4.4-3.7.3-2.4-3-2.3-4.7.2-10.8-2.5-21.5-.7-30.5z"/><path class="st1" d="M429.6 189.4c-.1-8.6 2-16.3 7.9-22.8.6 0 1.2 0 1.8.1 3.5 1.4 5.3 4.7 7.8 7.4 3.2-.1 1.2-7 6.1-4.7 4.8 5.4 4.7 12.7 7.3 18.9 1.3 3.3 1.9 6.8 2.8 10.2-11-3.6-22.2-6.6-33.7-9.1zM610.7 739.4c1.3 10.3.7 21.8.9 33.3 0 2.4 0 4.8-.6 7.1-.7 2.5-2 5.5-5.1 5.1-3.7-.4-2.7-3.9-2.7-6.4 0-14.6 0-29.2.2-43.8 0-2.5-2.4-7 3-7.1 5.4-.1 5 3.9 4.4 7.7 0 1.1 0 2-.1 4.1zM313.7 137.7c-5.1 2.1-9.6 5.7-15.4 5.9-6.9-3.8-9.2-8.9-7-15.2 1.9-5.2 7.9-8.7 13.2-7.5 6.5 1.4 9.8 6.2 9.5 13.9-.1 1-.2 2-.3 2.9zM562.7 188.2c-3.8 4.3-9.8 6-13 11.1-3.1.7-4.1-2-5.8-3.6-5.2-4.5-6.7-9.9-3.1-15.9 2.9-4.8 7.6-6.8 12.9-5.3 6.6 1.9 9.5 6.8 9 13.7zM626.3 166.6c-5.3-1.9-10.9-2.9-15.9-5.7-2.1-7.9.1-13.5 6.4-16 5.6-2.2 11.9 0 14.8 5.2 3.2 5.9 1.4 11.4-5.3 16.5zM431.5 131.1c.2 5.7.4 11.3.6 17-7.1 5-12.3 5.2-17.1.4-4.1-4-4.6-11-1.2-15.6 3.8-5.2 9.8-5.8 17.7-1.8zM501.4 248.5c5.7-1.3 11.3-2.6 17-4 6.1 6 7 11.5 2.8 16.9-3.9 5-9.1 6-14.7 3.4-6.1-2.7-7.8-8.6-5.1-16.3z"/><path class="st1" d="M543.9 195.7c2.4.4 4.1 2 5.8 3.6.7.6 1.4 1.2 2.2 1.8 7.2 6.1 7.2 6.1-.5 12-2.4-1.8-4.3-4.1-8.1-2.4-2.9 1.3-6.1-.5-7.2-3.2-2.2-5.5-6.8-7.5-11.7-9.5-4.1-1.7-8-4-5.1-9.6 5.7 1.7 11.3 3.9 16.8 6.3 2.2 1 4.8 3.4 7.8 1zM718.8 169.5c-3.8-3.5-8.5-6.1-9.6-11.8 1.3-4.8 1.1-10.5 7.9-11.6 6.9-1.1 13.2 3 14.1 9.7 1.2 7.7-3.4 12.8-12.4 13.7zM646.2 708.3c-.8 7.6-4.6 12-10.3 11.8-6.6-.2-9.9-4.3-10.9-10.4-1.4-8.5 2.5-15.7 9.5-17.9 3.1-1 6.3-1.7 8.5 1.5 2.1 3.1 1.4 6.4-.7 9.4-1.5 2.2-3.5 4.1-6.1 4.8-3.5.9-3.4 3-2.1 5.4 1.4 2.6 3.9 2.8 6.1 1.2 2-1.6 3.7-3.6 6-5.8zM736.2 723.8c-9.1-3.6-9.1-3.6-17.2-.5 1-5.1 1.2-9.9-3.2-13.6-1.2-1-.7-3.3 1.1-2.9 6 1.5 9-2.5 12.7-7 1.3 6.2 4.3 9.7 11.3 9.6-4 4.4-7.2 8.1-4.7 14.4zM644.2 692.4c3.7-4.3 7.3-4.9 10.1-1.9 3.2 3.4 5.7 3.8 9.3 1.1 1.6-1.2 4.3-2.3 5.6.1 1.1 2.2-1.3 3.3-3 4-4.5 1.8-5.5 5.5-5.6 9.8-.1 2.1 0 4.3-.4 6.4-.5 2.4-1.5 4.6-4.6 4.5-2.7-.1-3.7-2.1-4-4.2-.5-3.3-.6-6.6-.8-9.9-.3-4.4.7-9.4-6.6-9.9z"/><path class="st1" d="M665 701.3c2.7-3.2 6.2-3.7 8.4-1.3 3.3 3.5 6 3.5 9.6 1 1.3-.9 3.7-1.2 4.6.3 1 1.7-.8 3.1-2.4 3.7-5.3 2-5.8 6.4-5.8 11.2 0 3.6.4 8.4-4.5 8.3-4.8-.1-4.1-5-4.4-8.4-.4-5.6 1.6-11.9-5.5-14.8zM808 140.6c4.6 3.1 9.3 5.9 14.5 7.7.1.3.1.5 0 .8-2 2.3-4.3 4.4-5.9 6.9-2.9 4.7-6 7.8-11.9 4.7-6.5-3.4.6-6.8-.1-10.1 1.1-3.4 2.2-6.7 3.4-10zM477.9 137.9c-6.1 1.7-5.3-3.7-5.5-6.3-.7-7.9.4-15.7 4-22.9.5 1.1 1 2.3 1.5 3.4-2.7 3.2.1 4.8 2 6.6-1 3.7-.8 7.4-.4 11.2.3 2.9.8 5.8-1.6 8zM508.2 182.4c-5.7 1.1-10.8-.5-15.9-2.9-4.7-2.3-6.4-5.5-3.1-10.2 6.1 4.7 12 9.7 19 13.1zM647.6 162.1c-4.5 6.4-2.5 11.5 3.2 15.8 2.8 2.8 6.6 1.5 9.8 2.6 1.6-5.4 6-9.2 8.7-14-4.3-11.7-13.6-13.6-21.7-4.4zM765.9 112.8c-5.2-2.5-10.8-2.2-14.7 3.2-4.2 5.8-4.2 11.2 1.7 16l1.6 1.6c5-1.1 10-2.2 15.1-3.3 1.8-.9 1.2-.9 2.2-3.6 1.2-6.2-.3-11.3-5.9-13.9zM515.5 103.1c-5.3-3.1-9.3-.6-12.9 3.1-1 1.8-2 3.6-3.1 5.4 2.9 4.8 5.9 9.6 8.8 14.4 6.7.2 12.5-1.6 14.2-8.8 1.5-6.3.1-11.8-7-14.1zM322.3 190.7c-.9.2-1.7.3-2.6.5-3.5.5-5.8 2.5-6.9 5.8-2.6 8.5.6 15.4 7.7 16.9 7.8 1.7 13.4-3 14.6-12.2-4-3.9-7.8-8-12.8-11z"/><path class="st1" d="M850.4 184.8c-2.5-2-5.1-4-7.7-6.1 8.2-6.5 8.4-10.8.8-18-6-5.7-13.3-9.1-21-11.8-5-.1-5.7 4.8-8.4 7.4-2.1 2.1-4.1 4-7.3 2.7-3.2-1.3-1.7-3.8-1.3-6 .2-1-.1-1.8-.8-2.5l-4.2-1.2c-1.5.5-2.8 1.5-4.2 2.2-6.2 4.1-14.1 5.1-19.3 11-2.5 1.1-8.3 3.6-9.6 4.2-3.3 2.5-7.4 2.6-9.3 3.4-4.7 2.1-6.5 2.8-8.4 3.8-.8 1.3-.2 3.1-.3 5.6-.9 17.1 3.1 22.4.3 37.5 6.8-3.8 9.1-3.3 16.2-6.1.4-3.3.4-6.5.8-9.7.4 2 .9 3.5 1.8 4.3 2.7 2.3 31.2-18.2 34.8-16.9 2.1 3.9.7 6.5 6.9 4.2 4.2-1.7 8.5-3.1 12.5-5.2 8.7-4.6 17.2-9.7 25.4.7.9 1.2 2.5 1.7 3.6 0 1-1.4-.1-2.6-1.3-3.5z"/><path class="st1" d="M443.9 782.5c-11.3-13.3-13.7-29.7-15.7-46.2-3.3-27.3-3.8-54.9-8-82.2-5.3-34.4-14.8-67.7-22.9-101.4-2.7-11.2-6.7-26.6-7.9-38 2.7-2.9 7.3 2.1 10.6 2.2 32.4 1.3 62.6-6.4 90.9-21.9 6.1-3.3 8.7-2.2 10.3 4.7 1.9 8.4 3.8 16.8 5.3 25.2.6 3.4.5 7.2 3.6 9.7 2.5 1.4 12.9 0 15 .4 3.7.9 4.2.6 8.8.3 2.4.9 12.3 3.1 14.6 3.2 2.5 1.3 35.8-25.8 37.7-26.2 2.1-.2 1.7-1.6.4-3.9-9.5-20.5-25.3-36.3-39.8-53.1-7.4-8.6-7.8-8.8-3.2-18.7 6.6-14.3 9.1-29.1 4.3-44.5-.4-1.2-.5-2.3-.1-3.5 9.1-8.1 11.2-19.2 12.7-30.4 3.4-25.9 5-52 6.1-78 .5-10.5.9-21.1 1.3-31.6-.4-4 4.6-.8 7-.3 13.6 2.8 27.1 5.5 41.1 5.2 1.9 0 3.8.4 5.4 1.6 4.8 8.8 3.9 18.7 4.5 28.1 2.1 34.2.4 68.3-2.3 102.5-1.1 13.5-1.7 27.3 1.3 40.8 4.3 19.5 13.8 26.6 33.7 25.4 12.2 1.8 23.2-1.6 33.6-7.5 21.4-12 34.4-31.3 44.9-52.6 11.5-23.4 14.3-48.9 18.2-74.2 4.1-30.5 7-61.2 10.3-91.8.5-4.8 0-9.6.3-14.3.2-5.2-.9-10.6 2-15.4 2-2.3 3.2-.9 4.4.8 2.3 3.3 4.2 3.8 5.9-.4.3-.9.8-2.6 1.2-2.4 5.9 2.3 9.6-.5 12.8-4.9 7.3 3.2 8.1-2.9 10.1-7.2 5.1 2.4 5.4 6.6 7 12.1-1.2 7.6 1.8 14.5 3.7 21.4 10.1 36.6 12.8 74 13.7 111.7 1.4 62.5-2.9 124.5-17.1 185.6-6.4 27.6-13.8 55.4-31.1 78.3-30.2 40.1-69.6 66-120.5 72-53.8 6.3-101.1-10.2-144.1-41.5-4.8-3.5-9.7-7.1-14.9-10-8.3-4.7-13.2-1.9-12.6 7.7.7 11.7 2.5 23.3 4.1 34.9 3.2 24.2 1.8 48.3-.8 72.4-1.6 14.8-3.2 29.5-5.3 44.2-.9 6.5-4 12.7-10.5 16.7-1.9-2.1-.9-3.6-5.3-2.8-3.4.6-7.3-3-11.7-.2-.3.2-2.6-.9-2.7-1.3-3.3-10.3-8.8-4.3-10.3-.7z"/><path class="st1" d="M575.5 522.4c1-.6 2-1.2 3.1-1.8 2.9 3.4 5.9 6.9 8.8 10.4.9 1 2.1 2.4.4 3.6-1.4 1-2.9.4-3.7-.9-2.6-4-7.1-6.5-8.6-11.3zM558.6 534.9c.9-1.5 2.1-2.7 4.1-2.5 1.6 2.9 3.2 5.7 4.8 8.6 1 1.8 2.5 4.3.2 5.6-3 1.7-3-1.8-4-3.4-1.8-2.6-3.4-5.5-5.1-8.3zM541.8 543.8c1.3-.6 2.5-1.2 3.8-1.8 1.4 3.8 2.8 7.6 4.1 11.5.5 1.4.6 3-1.3 3.5-1.8.5-2.4-.8-2.9-2.3-1.2-3.6-2.5-7.2-3.7-10.9zM518.2 536.6c.6-.2 2.5-.5 3.2-.7.6.3 1-1 1.1-.5.7 3.6 3.8 8.6 2.1 12.5-.4.9-1.8 1.6-2.3.8-2.5-3.7-4.2-7.8-4.1-12.1zM567.1 529.2c1-1.5 2.2-2.7 4.1-2.5 1.6 2.6 3.2 5.2 4.9 7.8.7 1.1 1.2 2.1 0 3-1.1.9-2.4.7-3.2-.3-2-2.5-3.9-5.3-5.8-8zM549.9 539.5c1.4-.5 2.8-1.1 4.1-1.6 1 2.4 2.1 4.7 2.9 7.1.5 1.5 1 3.5-1 4.3-2.1.8-2.7-1-3.2-2.7-.8-2.3-1.9-4.7-2.8-7.1zM581.8 517.7c1-1 1.9-2 2.9-3.1 2.8 2.9 9 6.8 6.1 9.3-4.1 3.6-5.2-4.9-9-6.2zM587.4 512c.5-1.4 1-2.9 1.5-4.3.4.2 1 .3 1.3.6 2.2 2.5 7.2 5.6 4.2 8.4-3.5 3.3-3.9-4-7-4.7zM622 254.5c-18.1.6-35.8-2.3-53.2-7.1-13.2-4-26.1-8.8-38.5-14.9-2-1-3.9-1.7-6.1-1.6 2.3-4.4 7.4-3.6 11-5.5 5.2-2.8 10-6.7 16.2-7.3 1.4 1.3 1.2 3 1.1 4.6-.1 1.6-.6 3.5 1.7 4.1 1.8.4 3.1-.8 4.3-2 2.2-2.3 3-5.3 4.5-8 2.8-5.3 6.4-9.4 13.3-8.4 2.8.7 4.6 2.8 7.5 4 11.7 4.6 26.5 6 34.1 7.1 1.9-.8 4.8 0 6.8.3 1.9.5 4.7-1.5 4.7-1.5s2.8 4.1 6.3 3.8c8.2-.6 16-2.6 23.8-4.8 2.7 2.9 1.9 6.2 1.3 9.5-1.3 7.8-3.4 15.3-7.5 22.2-4.1 3.3-9.4 3.2-13.9 5.3-1.1.3-2.3.5-3.5.6-4.7-.6-9.4 2.5-13.9-.4zM526.2 535.1c6.9-4.2 6.9 4.2 8.7 6.6-7.2 4.8-6.1-5-8.7-6.6zM513 544.3c-2-.7-2-2.4-2-4s-.5-3.8 2.2-4c3.4-.3 2.1 3.7 2.2 5.3-.1 1.5-.7 2.6-2.4 2.7z"/><path class="st1" d="M571.4 206.6c1.5 1 3 1.9 4.4 2.9-5.8-.3-9.3 2.8-11.3 7.9-1.6 4-3 8.1-6.8 10.6-1.7 1.2-3.5 3-5.8 1.8s-1.6-3.7-1.4-5.8c.2-1.9.5-3.8.8-5.7 5.4-6.1 14.2-6.3 20.1-11.7zM469.1 203.9c.2-1.2-.4-3.3 2.1-2.3 17.1 7.2 33.4 15.6 48.3 26.7-3 .1-6.1 1.9-9-1.4-.9-1-4.9-.5-6.8.6-10.1 5.8-17.2.2-24.1-5.9-5.3-4.7-7.5-11.5-10.5-17.7zM453.3 169.4c-.6.3-1.6.4-1.9.8-1.1 2.2.8 6.2-2.3 6.8-3.6.7-4.5-3.5-6.4-5.8-1.2-1.5-2.2-3-3.4-4.5 3.3-.2 6.6-.3 9.9-.6 2.5-.3 4.2.3 4.1 3.3zM742.8 178.2c-5.4 2.4-10.7 5.1-16.2 7.1-4 1.5-7.3 5.5-12.4 4-1.8.2-3.2 1.2-4.7 2-3.3 2.1-7.6 2.6-9.6 6.6-1.9 2.9-6.9 9.4-16 13.7-1.2.6-2 1.4-2.6 2.6l-14.5 2.2s-2.8 19.3-7.7 30.4c5.9-1.6 10.4-2.8 16.3-4.4 3.6-1.2 7.3-2.4 10.9-3.6l12.6-4.8s9.9-1.5 14.8-2.2c4.6-1.8 9.4-3.2 14.2-4.3 4-1.4 8.2-2.2 12.2-4 2.5-1.1 5-2.5 5.3-5.3 1.3-13.5.4-26.8-2.6-40zM662.4 267.1c6.8 1.9 9 7 8 13.1-1 6.2-5.7 9.7-11.7 9.6-6.3-.1-10.6-3.8-11.7-10.4-.3-1.6-.2-3.3-.2-5 5.2-2.4 10.4-4.8 15.6-7.3zM606.2 797.4c-.5-2.9-2.2-4.4-5.5-2.7-.4.2-2-1.8-2.9-2.9-3.3-4.7-6.5-9.5-9.9-14.1-2.6-3.5-2.4-6 .9-9.2 3.8-3.7 6-8.5 7.5-13.7 4.7-17.1-6-29.3-23.5-26.7-2 .3-5.6.7-3.1 3.4 3.1 3.4 1.7 6.7 1.8 10.1.2 15.8 0 31.6-.1 47.3 0 2.1-.3 4.7 3 4.6 2.9-.1 5.1-1.1 4.7-4.8-.2-2.1 0-4.3 0-6.4 4.6 7 11 12.2 16.1 18.3 1.9 2.4 4.3 3.4 6.9 2 1.8-1.1 4.6-2.3 4.1-5.2zm-26.4-31.7c-.5-10.9-.9-20.2-1.5-29.5-.2-3.6 1.2-3.9 4.3-3.1 5.3 1.4 7 5.5 7.5 10.2 1 8.7-2.4 15.6-10.3 22.4zM747.2 241.4c5 5.5 5.8 11.8 2.2 16.5-3.3 4.3-10.6 5.8-15.4 3.1-5.5-3.1-7.1-8.9-4.4-16.1.4-1.1 1-2.1 1.4-3.2l16.2-.3z"/><path class="st1" d="M714.3 189.3c-.7 1.5-1.7 2.7-3.3 3.1-4-7.3-10.9-12.2-15.9-18.6-2.8-3.6-6-4.6-10-2.6-2.5 1.2-3.6 3-2.5 5.8 1.8 4.7-.4 8.6-4.1 10.3-5.5 2.5-6.7 7-7.8 11.9-1 4.4-1.8 8.9-2.9 13.3-.2 1-.6 2-.7 3.1-2 10.4-2.8 21-7.6 30.8-3.6 5.5-3.8 10.8.9 15.9 1.4 1.5 2.8 3.2 2 5.6-5 3.2-9.6 7.4-16.3 7-2.6-6-4.5-12.4-9.5-17.1-1.2-1.1-1.7-2.9-.9-4.6 1.3-.2 2.7-.3 4-.5 4.5.4 8.3-1.8 12.1-3.6 3.7-10.3 8.1-20.5 7.5-31.8 2.9-10.5 6.2-20.9 8.5-31.6 1-4.6-4.7-3.5-7.1-5.2-.6-6.8 3.4-10.8 8.7-14 3.2 4.6 5.8 6.1 10.3.6 3.5-4.3 9.5-5.2 14.3-2.3 6.3 3.8 9.1 1.3 11.6-4.2.6-1.4 1.3-3.2 3.5-2.9 3.7 3.5 7.4 7 9.6 11.8-11.9 4.2-7.6 12.1-4.4 19.8zM744.8 789.6c-2.7-19.6-11.9-37.9-12.1-58.1 0-2.6-2.6-3.6-4.8-3.2-2.4.4-1 2.7-1.1 4.2-.3 3.3-.4 6.7-1 10-2 12.7-4.2 25.5-6.3 38.2l-1.5 3.9c-.4 3.1-1 6.1-1.1 9.2-.1 1.6-1.7 4.2 1.3 4.7 2.3.3 4-1.3 4.4-3.8.4-2.4 1-4.7 1.2-7.1.2-2.1 1-3.2 3.3-3.9 7.4-2.3 8.4-1.7 10 6.5.5 2.7.3 6.2 4.8 5.5 3.9-.6 3.2-3.5 2.9-6.1zm-12.4-10.9c-2 .5-4.5 1.5-6.1.8-1.8-.8-.6-3.4-.3-5.2.8-5.4 1.7-10.8 2.6-16.2.3-.1.7-.3 1-.4 1.4 5.5 3 10.9 4.3 16.4.4 1.6 1.4 3.8-1.5 4.6zM830.4 132.3c-2.2-5.4-6.5-8.1-12.4-7.5-7.4.7-10.9 6.3-10.1 15.8 3.2 5.7 8.1 8 14.5 7.7 7.7-4.3 10.6-9.6 8-16zM632.6 703.4c.5-4.1 2.2-6.6 5.5-7.8.9-.3 1.9.8 1.7 1.7-.8 3.5-3.1 5.4-7.2 6.1zM449 776.9c5.1-.5 4.9 3.6 5.3 12 .5 11.3 10.7 24.2 10.7 24.2s-12.5-3.4-17.6-15.7c-5.2-12.3-4.1-19.9 1.6-20.5zM629.3 218.2c-.9 1.2.8 1.1-3.3 1.4-3.4 1.1-3-4.3-3-7.5 0-6.3-.2-12.4-1.8-18.6-1.1-4.3-3.9-6.3-7.6-8.7-11.9-7.6-20.4-1.8-28.4 6.1-4.9 4.8-11 8.7-12.9 16-6 5.7-13.4 8.8-21 11.5-8.5 5.3-17.2 10.2-27.1 12.5-10.4 3-10.4 3-5.8 13.6-4.9 4.7-10.8 4.8-17 4 0-1.7 0-3.3.1-5 .5-5.8-.2-9.3-7.9-9.8-10.2-.6-17.1-7.7-22.2-16.2-3.6-5.9-6-12.4-8-19-5.3-4.8-4.6-12.1-7.2-18-1.4-3.2-2-6.8-3.7-9.9-3.9-4.8-9.2-1.3-13.7-2.2-.7.1-1.5.1-2.2 0-2.1 0-4.2.1-6-.9-2.3-1.3-2.3-2.6.2-3.7 6.2-.7 12.3-1.4 19.2-2.2-1.4-4.7-2.7-9.4-4.1-14-.7-2.1-2.3-2-4.1-1.6-3.2.7-6.5 1.4-9.8 2.1-3.5-5.6-3-11.2-.6-17 1.6.3 3.3.4 4.9.8 5.4 1.6 8.6.5 9.8-5.9 1.1-5.7 4.3-10.5 10.2-12.8 1.1-.7 2.4-.7 3.1.4 1.2 2.1-.4 3.5-1.6 4.9-5.3 4.8-9.4 9-7.7 16.5.7 3.2 1.1 6.2 1.7 10 .8 5.2.7 11.1 7.3 13.7 8.4.2 16.5-2 24.7-3.5 2.4-1.1 4.9-1.9 7-3.4 6.6-4.5 6.6-12.6-.1-17-3.2-2.1-5.4-4.6-6.7-8.1-1.1-3.1-2.9-5.4-5.5-7.2-1.8-2.4-5.4-4.6-.6-7.5.6.4 1.2.7 1.8 1.1 3.5 2.2 7.2 6.4 10.5 6.1 3.3-.2 6.3-4.9 9.4-7.7 4.3 4 8.9 7.7 8.8 14.4-1.6.6-3.1 1.3-4.7 1.7-4.5 1.2-5.7 3-3.7 8 5.1 12.3 0 20.6-14.8 25.1-1.9 3.3-5.4 3.6-8.6 4.2-3 .6-6.1.9-9.2 1.3-5.1.6-6.8 2.3-5.1 8 3 9.5 6.2 19 8.4 28.7 2.1 5.4 4.8 10.4 8.3 15 6.1 8.1 14 11.1 23.7 7.9 5.7-1.9 10.8 2 16.2.5 11.3-3 21.9-7.3 31.2-14.6 5.3-2.7 5.7-5.9.9-9.6-.9-.7-1.5-1.8-1.8-2.9 2.4-6.3 7.5-9.3 13.6-11.1 1.6 3.2 3.1 6.3 5.5 11.2 4.1-4.5 7.5-8.7 11.4-12.3 7.4-6.8 15.2-13.1 26-13.4 2.5-.1 3.3-1.3 3.5-3.5.4-3.1.9-6.1 1.4-9.1 6 .1 11.6 1.1 15.9 5.7-.8 1.4-1.5 2.9-2.4 4.3-2.6 3.9-3.5 7-.5 11.9 6.2 10.7 4.3 23.4 5.7 35.3zM726.9 227c2.3-4.4 7.1-3 10.6-4.3 5-1.8 7-4.3 6.8-9.8-.3-11.6-2.6-23.1-1.6-34.7 2.1-11.9 4.9-23.5 14.8-31.7 2.2-1.9 1.1-3.9.3-5.9-1-2.4-2.3-4.7-3.4-7.1 4.9-2.2 8.6-2.6 13-3.9 2.4-.7 1.9.7 1.9 3.1 0 2.8 0 5.1.9 7.8 10.3 1.3 21.4 2.6 30.1 8.8-1.2 1.6-2.2 1.6-3.8 2.5-1.7.4-2.6.8-4 0-10.7-6.4-20.9-2.3-31.2 1.3-3.7 1.3-5.3 4.6-7 7.7-2 3.8-2.9 8-4.8 11.9-.8 9-.9 18 .3 26.9.8 6.2 1 12.3-.7 18.3-3.8 7.7-1 16-2.1 23.9-5.3 1.9-10.6 2.9-16.1.9-1.8-5-.7-10.9-4-15.7z"/><path class="st1" d="M461 781.1c5.6.3 4 13.1 6 20.9 1.5 5.9 8.9 15.5 8.9 15.5s-13.9-7.9-16.4-14.9c-3.9-10.4-5.3-21.8 1.5-21.5z"/><path class="st1" d="M470.6 783c5.2.1 2.7 12.5 2.8 16.1s5 14.1 5 14.1-10-7.3-11-13.4-1.7-16.9 3.2-16.8zM609.5 203.8c-6.1.7-4.8 5.5-3.1 15.4 2.4 13.3-6.2 31-6.2 31s13.7-7.1 16.5-22.9-.3-24.3-7.2-23.5z"/><path class="st1" d="M597.4 205.3c-6.6 1.5-2 16.4-2.9 26.1-.6 7.3-7.4 20.2-7.4 20.2s14.8-12.2 16.5-21.1c2.5-13.1 1.9-27-6.2-25.2z"/><path class="st1" d="M588.5 211.4c-6.1.4-2.6 14.9-2.5 19.1.1 4.2-5.2 16.8-5.2 16.8s11.4-9 12.3-16.3c.8-7.4 1.2-20-4.6-19.6zM687.1 191c-5.2 3.4-1.8 7 4.2 15.1 8.1 10.9 8.4 30.5 8.4 30.5s9-12.5 4.5-27.9c-4.6-15.3-11.3-21.5-17.1-17.7z"/><path class="st1" d="M677 197.8c-5.3 4.3 5.5 15.6 9.1 24.6 2.7 6.8 2.5 21.4 2.5 21.4s7.8-17.6 5.3-26.2c-3.7-12.9-10.5-25-16.9-19.8z"/><path class="st1" d="M671.7 207.2c-5.3 3.1 4.4 14.5 6.3 18.1s2.9 17.4 2.9 17.4 6.2-13.2 3.6-20.1-7.8-18.3-12.8-15.4zM800.3 191.9c-5.2 3.3-7.2-1.2-12-10-6.5-11.9-24.3-20.3-24.3-20.3s15.1-3 27.2 7.5c12.1 10.4 14.9 19.1 9.1 22.8z"/><path class="st1" d="M789.9 198.3c-6.1 3-11.9-11.5-18.6-18.5-5.1-5.3-18.5-11.1-18.5-11.1s19.2.2 26 6.1c10.3 8.7 18.5 19.8 11.1 23.5z"/><path class="st1" d="M779.1 199.2c-5 3.5-11.3-10-13.9-13.3-2.5-3.3-14.6-9.9-14.6-9.9s14.6-.1 19.8 5c5.3 5.3 13.5 14.9 8.7 18.2zM415.2 313.7s13-13.4 42-10.6 39.6 19.2 39.6 19.2H493s24.8 18.4 20.4 57.7c-4.4 39.3-15.5 42.5-20.8 48.9s-35.5 21.8-65.5 23c-30 1.2-59.4-6.6-67.8-14.3-8.4-7.7-15.8-20.2-16.6-20.2s-3.6.5-3.6.5-9.4-22.1-10.1-39.9c-.7-17.9 4.6-42.5 15-52.2 10.3-9.6 18.8-12.2 18.8-12.2l-4-3.1s10.7-6.2 27.8-6.2 24.1 6.1 28.6 9.4z"/><path class="st1" d="M541.8 543.8c-3.4 5.1-4.7-4.6-6.5-7.6-2.6-1.4-4.7-1-8.2-1.2-1.9.1-3.9-.5-5.6.8-.4.9-1.1 1.2-2 .7-3.3-.1-7.1.6-10.4.5-4-13-2.7-12.2-5.8-25.9-.1-.5-1.5-8.4-1.6-8.9-2.1-8.7-3.3-11.6-10.9-7.3-24.1 13.6-49.4 19.8-77.1 21.9-14.3 1.1-36.1-3.2-42.3-5.3-6.2-2-14.3-15.5-16.6-18.9-2.4-3.4-8.4-6.9-5.7-12.9-7.3-2.3-4.6-10-6.6-15.1-3.3-8.5-7.1-17.5.3-26.1 4.2-2.1 7.9.4 11.7 1.4 3.5.9 6.7 2.4 10.4 2.7 26.2 8.5 52.7 8.6 79.6 4.1 6.9-1.2 13.5-3.3 19.9-6 3.7-1.6 6.6-3.8 8.3-7.5 4.5-10 12.4-14.8 23.2-15.4 1.4-.1 2.8-.4 4.2-.8 7.3-3.1 10.3-9.9 14.1-16.1 1.5-2.4 2.6-5 3.7-7.6.2-.7.5-1.3.8-2 2.4-5.4 5.6-9.6 12.5-7.6 6 .3 11.9.7 17.3 3.7 8 15.4 5.7 31.1-1.5 45.3-5.1 10.2-2.7 15.4 4.3 23.2 13.2 14.6 27.2 28.8 35.7 47.1.7 1.5 1.2 3.1 1.8 4.6 1.2 2 .4 3.4-1.5 4.3-.9.9-1.9 1.8-2.8 2.7-.2 1.7-1.5 2.4-2.9 3.1-1.5.4-2.5 1.5-3.2 2.9-.6 1.3-1.3 2.4-3.1 1.8-1.8 1-3.3 2.5-4.3 4.4-1.2 1.2-2.3 2.5-4.1 2.5-1.5 1.1-2.9 2.1-4.4 3.2-.9 1.6-2.5 1.9-4.1 2.5-1.5 1-3 2-4.6 3-1.1 1.2-2.2 2.5-4.1 1.6-1.5.8-2.9 1.7-4.4 2.5-.6 1.4-1.8 2.1-3.5 1.7zM322.2 391.1c3 3.3 14.2-5 25.5-12.4s29.3-6.3 39.8-9.2c10.4-2.9 13.5-10.8 13.5-18.5 0-7.7-11.7-20.2-26.4-16.4-14.8 3.8-30 13.5-39.9 27s-13.9 27.8-12.5 29.5z"/><circle class="st1" cx="374.7" cy="354.9" r="11.9"/><circle class="st1" cx="373.3" cy="350.2" r="4.2"/><circle class="st1" cx="376.2" cy="361.9" r="2"/><path class="st1" d="M521.6 391.1c-3 3.3-14.2-5-25.5-12.4s-29.3-6.3-39.8-9.2c-10.4-2.9-13.5-10.8-13.5-18.5 0-7.7 11.7-20.2 26.4-16.4 14.8 3.8 30 13.5 39.9 27 10 13.4 14 27.8 12.5 29.5z"/><circle class="st1" cx="469.1" cy="354.9" r="11.9"/><circle class="st1" cx="470.5" cy="350.2" r="4.2"/><circle class="st1" cx="467.7" cy="361.9" r="2"/><path class="st1" d="M421 404.3c8.9 0 21.7-10.2 21.8-16.7.1-6.5-4.7-9.5-21.8-9.5s-22.5 5.4-22.5 9.8c-.1 4.5 9.2 16.4 22.5 16.4z"/><circle class="st2" cx="368.2" cy="397" r="17.8"/><circle class="st2" cx="478.1" cy="394.1" r="17.8"/><path d="M378.2 403c3.2 2.7 6.8 4.9 10.5 6.8 3.7 1.9 7.5 3.5 11.5 4.8 7.9 2.6 16.2 3.8 24.5 3.7 8.3-.1 16.5-1.6 24.3-4.6 3.9-1.5 7.6-3.3 11.2-5.4 3.6-2.1 7-4.5 10.1-7.3-1.4 1.6-2.9 3-4.6 4.4-1.6 1.4-3.3 2.6-5 3.8-1.8 1.2-3.6 2.3-5.4 3.3-1.9 1-3.8 1.9-5.7 2.7-3.9 1.7-8 2.9-12.2 3.8-4.2.8-8.4 1.3-12.7 1.3-8.5.1-17-1.3-25-4.2-8-2.9-15.5-7.2-21.5-13.1z"/><path class="st0" d="M371.7 481.7c-2.2.9-20.6-1.1-22.5-1.9"/><path d="M371.7 481.7c-.9.3-1.9.3-2.8.3h-2.8l-5.7-.3c-1.9-.1-3.8-.3-5.6-.6-.9-.2-1.9-.3-2.8-.5-.9-.2-1.9-.4-2.7-.8v-.1c.9.2 1.9.2 2.8.4l2.8.3c1.9.2 3.7.5 5.6.7 1.9.2 3.7.4 5.6.5.9.1 1.9.1 2.8.2.9 0 1.8.1 2.8-.1z"/><path class="st1" d="M472.8 571.2s15.4 25.7 13.9 42M487.9 548.9c.5 1.7 3.4 14.6 10.6 20.9M424.4 609.8l2.6-12.7M432.5 620.6l1.2-15.3M439.2 613v11M436.1 629l1.5 16.8M442.8 634.1v6.9M500.4 561.4s2.9 5.8 2.9 6.3M548.8 626.9l15.3 7.2M570 630.5l-5.9-2.6M616.3 631.9l-15.1-9.5M640.2 643.4l-18.3-1.4M656.6 637.5l-12.6-.1M659.6 631.9h-11.3M657.8 643.4h-12M654 648.6l-20.6 1.5M672.2 653.1l-25 1.3M682 643.4l-11.4 4M710 638.7l-16.5 6.7M575.4 559.3l11.6 15M584.4 557.2l7.2 12.6M589.3 551.5l9.4 9.9M575.4 546.1l5.8 2.8M613.2 451.5l14.8 4.8M616.3 440l5.6 11.5M598.7 406.4l6.3-8.6M601.8 387.7l-3.1 10.1M613.2 370.4l3.1-7.2M608.7 366.8v-11.2M648.3 468.3h11.4M584.4 468.3l-6.1-9.6M570 471.2l11.4 11M584.4 475l2.6 7.2M720.2 458.7l17.2-28.3M743.2 419.8l5.3-13.4M750.4 428.5V440M734.5 453.9l8.7-16.3M753.3 589.7l-2.9-18.5M745.8 618.5l7.5-8.7M760.5 605.3l6.2-15.6M760.5 574.3l3.1-15M771 567.7l7.2-13.5M774.6 577.7l6-10.9M803.6 486.5l5.8-7.9M803.6 478.6s5.8-4.1 9.1-12.7M799.3 472.3l4.3-6.4M806.5 458.7s2.4-18.2 2.9-18.7M812.8 419.8l-3.4-15.8M812.8 384.8v-12M771 328.2v-10.1M811.1 241.8v-14.4M803.6 223.6v-10.5M581.4 291.3v-14M578.3 267.3v-9.1M500.6 497.7s-7.9-41.7-23.7-59.7c0 0 15.1 5.8 28.1 31.7 13 25.9 33 73.4 33 73.4"/><circle class="st1" cx="709" cy="56.7" r="7.4"/><circle class="st1" cx="923.3" cy="92.2" r="2.4"/><circle class="st1" cx="952.1" cy="181.8" r="5.8"/><circle class="st1" cx="892.6" cy="284.3" r="7"/><circle class="st1" cx="988.5" cy="397.8" r="3.7"/><circle class="st1" cx="885.6" cy="475" r="5.9"/><circle class="st1" cx="185.4" cy="486.5" r="4.6"/><circle class="st1" cx="220.9" cy="193" r="6.6"/><circle class="st1" cx="119.8" cy="35.6" r="4.2"/><circle class="st1" cx="368.2" cy="49.3" r="3.5"/><circle class="st1" cx="290.5" cy="648.6" r="6.6"/><circle class="st1" cx="227.4" cy="732.4" r="4.1"/><circle class="st1" cx="346.7" cy="809.9" r="7.2"/><circle class="st1" cx="260.2" cy="430.4" r="6"/><circle class="st1" cx="852.1" cy="633.1" r="4.9"/><circle class="st1" cx="1123.1" cy="727.7" r="4.9"/><circle class="st1" cx="967" cy="553.7" r="5.7"/><circle class="st1" cx="984.9" cy="744" r="7.2"/><circle class="st1" cx="1034.8" cy="834.7" r="7.2"/><circle class="st1" cx="847.2" cy="844.5" r="9.8"/><circle class="st1" cx="863.3" cy="716.4" r="1.7"/><circle class="st1" cx="988.5" cy="56.7" r="3.9"/><circle class="st1" cx="831.3" cy="60.6" r="6.1"/><circle class="st1" cx="507.4" cy="56.7" r="4.6"/><circle class="st1" cx="223.3" cy="817.1" r="8.2"/><circle class="st1" cx="254.3" cy="52.1" r="6.3"/><circle class="st1" cx="584.3" cy="35.6" r="5"/><circle class="st1" cx="353.9" cy="591.6" r="6.5"/><circle class="st1" cx="624.6" cy="866.1" r="6.4"/><circle class="st1" cx="530.6" cy="848.3" r="3"/><circle class="st1" cx="631" cy="85.7" r="8.8"/><circle class="st1" cx="977.7" cy="286" r="9.7"/><circle class="st1" cx="260.2" cy="549.2" r="10.4"/><circle class="st1" cx="193.4" cy="791.1" r="4.6"/><circle class="st1" cx="84.8" cy="631.3" r="6.6"/><circle class="st1" cx="145.9" cy="546.2" r="4.1"/><circle class="st1" cx="119.8" cy="848.9" r="6"/><circle class="st1" cx="35.7" cy="94" r="6.5"/><circle class="st1" cx="117.2" cy="730.1" r="10.4"/><circle class="st1" cx="188.8" cy="378.6" r="4.6"/><circle class="st1" cx="80.1" cy="218.8" r="6.6"/><circle class="st1" cx="141.3" cy="133.7" r="4.1"/><circle class="st1" cx="50" cy="491.2" r="6"/><circle class="st1" cx="168" cy="291.3" r="6.5"/><circle class="st1" cx="91.3" cy="372.8" r="10.4"/><circle class="st1" cx="936.7" cy="683.3" r="3.7"/><circle class="st1" cx="1072" cy="362" r="5.9"/><circle class="st1" cx="1153.3" cy="440.8" r="5.7"/><circle class="st1" cx="1054.5" cy="627.1" r="7.2"/><circle class="st1" cx="1123.1" cy="570.3" r="3.7"/><circle class="st1" cx="992.5" cy="122.4" r="5.9"/><circle class="st1" cx="1070.9" cy="262.3" r="4.9"/><circle class="st1" cx="1029.1" cy="39.7" r="5.7"/><circle class="st1" cx="1139.1" cy="66.7" r="7.2"/><circle class="st1" cx="1056.2" cy="230.6" r="1.7"/><circle class="st1" cx="1090.4" cy="157.7" r="3.7"/></svg>