<svg version="1.1" id="Layer_1" xmlns="http://www.w3.org/2000/svg" x="0" y="0" viewBox="0 0 1200 900" xml:space="preserve"><style>.st0{stroke-width:.75}.st0,.st1,.st3,.st4{fill:#fff;stroke:#000;stroke-miterlimit:10}.st3,.st4{stroke-width:.25}.st4{stroke-width:.5}</style><path class="st0" d="M.3-.9h1200v900H.3z"/><path class="st1" d="M671.7 236.4c0-.8-.2-1.6-.4-2.3-.1-.2-.1-.4-.2-.6l-.3-.6c-.4-.8-.9-1.5-1.5-2.2l-.6-.6c-.9-.8-2-1.6-3.2-2.3l-.6-.3c-.3-.2-.6-.3-.8-.5-.3-.1-.5-.3-.8-.4-1.1-.5-2.3-1-3.4-1.5-1-.4-2.1-.8-3.1-1.2-.4-.2-.8-.3-1.2-.5-.1-.1-.3-.1-.4-.2-.6-.2-1.1-.4-1.6-.6-.9-.3-1.7-.6-2.4-.9-1.1-.4-2.2-.9-3-1.3-1.1-.6-2.1-1.2-3.2-1.8-.3-.2-.6-.3-.8-.5-.2-.1-.3-.2-.5-.3-2.4-1.5-4.6-3.1-6.7-4.8-.4-.3-.8-.7-1.2-1.1-.3-.2-.5-.5-.8-.7l-.5-.5c-1-.9-1.9-1.9-2.8-3-1-1.2-2-2.4-2.9-3.6-.9-1.2-1.8-2.5-2.6-3.9-.3-.5-.6-.9-.9-1.4-2-3.4-3.7-7.2-5.3-11.3-2.2-5.8-2.8-10.2-7.9-11.6-4.7-1.3-8.3 1.6-9.8 7.2-.4 1.6-.7 3.3-.7 5.3-1.3 4-2.5 7.7-3.9 11.1-1.7 4-3.6 7.5-6.3 10.4-.3.4-.6.7-1 1-.9.9-2 1.7-3.1 2.5-1.1.7-2.3 1.4-3.6 2-.7.3-1.5.6-2.2.9-.5.2-1.1.4-1.6.6-1.9.7-3.8 1.2-5.7 1.6-1.2.3-2.3.5-3.5.7-1.1.2-2.3.4-3.5.6-1.1.2-2.2.3-3.3.4-.2 0-.4.1-.7.1-.4 0-.8.1-1.3.1-.5.1-1 .1-1.5.2-2.3.3-4.7.5-7 .8-.3 8.8-.5 16.2 1.8 22.9.7 2.1 1.7 4.1 3 6.1.2.3.4.5.6.8.7 1 1.5 2 2.3 2.9.9 1 1.8 1.9 2.9 2.8 5.1 4.3 12.3 7.2 17.6 3 .1-.1.3-.2.4-.3.2.3.4.5.6.8 2.2 2.9 4 5.6 5.7 7.6.2.3.5.6.7.8 1.6 1.8 3.2 3 5.2 3.5.3.1.7.2 1.1.2 1 .1 2.2.1 3.5-.2.5-.1 1-.2 1.5-.4 1.3-.4 2.7-1 4.3-1.7 1.8-.9 3.3-2.2 4.7-3.5.4-.4.8-.7 1.2-1 .1-.1.2-.2.4-.3.2-.2.4-.3.6-.4.1-.1.3-.2.4-.3.3-.2.6-.4.9-.5.3-.2.6-.3.9-.4.5-.2 1-.3 1.6-.4h1c1 .1 2.8 1.4 4.4 2.6.9.7 1.8 1.3 2.5 1.5 4.9 1.9 10.8 2 16 1.9 7.2-.2 15.9-3 22.3-8.5.3-.2.5-.4.8-.7.6-.6 1.2-1.2 1.8-1.9l1.8-2.1c.3-.4.7-1 1-1.7.9-1.6 1.8-3.6 2.6-5.9.7-1.9 1.3-3.9 1.7-5.9.1-.6.3-1.2.3-1.8.1-.4.1-.8.2-1.3v-.2c0-.9.1-2 0-3z"/><path d="M614.3 300.3c.2.2.4.5.6.7" fill="#fff" stroke="#000" stroke-linecap="round" stroke-linejoin="round"/><path class="st1" d="M711 317.4l-.3-1.5c-.7 0-1.4 0-2.1-.1-.8 0-1.6-.1-2.3-.1-4.8-.3-8.5-1.1-12.2-3.7-1.4-1-2.8-2.2-4.2-3.7-.5-.5-.9-1-1.4-1.5-3.1-3.6-6.8-8-10.5-12.8-.2-.2-.3-.4-.5-.7-5-6.7-9.8-14.3-12.3-21.9-.8-2.5-1.4-5.1-1.7-7.6-.3.4-.5.8-.8 1.2-7.6 11.2-13.1 11.4-19.7 11.2-2.6 0-5.3-.1-8.5.4-2.1.3-3.9.1-5.6-.5-5.9-1.9-10-7.5-13.4-7.6-1.1 0-2.1.5-3.1 2-.5.6-1.1 1.2-1.8 1.8-1 .9-2.1 1.7-3.3 2.5-.3.2-.6.3-.9.5l-1.2.6c-1.9.9-3.9 1.6-6 2-1.3.3-2.6.4-3.9.4-1 0-1.9 0-2.9-.2-2.9-.4-5.7-1.6-7.8-3.8l-.3-.3c-.4-.4-.8-.9-1.1-1.4-.4-.5-.7-1.1-1-1.7-.4-.7-.7-1.4-1-2.2-1.7 1.2-3.1 2.1-4.4 2.7-.5.2-.9.4-1.3.5-1.6.5-3 .4-4.3-.1-.7-.3-1.5-.7-2.2-1.2-.5-.4-1-.8-1.5-1.3-.9-.9-1.8-2-2.8-3.3-.5-.6-1-1.3-1.6-2-.4-.5-.7-1-1.1-1.5-.7 1.5-1.6 2.9-2.6 4.4-1.2 1.6-2.5 3.2-3.9 4.8-2.3 2.5-4.9 5-7.6 7.4-.3.3-.7.6-1 .9-.3.3-.6.6-.9.8-.5.5-1 .9-1.6 1.4-.7.6-1.5 1.3-2.2 1.9-3.8 3.4-7.5 6.7-10.5 10.2-1.5 1.8-3.1 3.5-4.8 5.2l-.3.3c-.9.9-1.9 1.8-2.9 2.6-1.4 1.2-2.9 2.3-4.4 3.3-.3.2-.6.3-.8.5-2.1 1.3-4.2 2.3-6.4 3-2.5.8-5.3 1.1-8 1.4-3.1.3-6.2.8-9 2.2.8 3.5 1.9 6.5 3.2 9.3l.3.6c1.1 2.2 2.2 4.2 3.6 5.9 4.7 6.3 10.8 9.5 17.3 9.9 1.8.1 3.6-.1 5.5-.4 1.5-.3 3-.7 4.5-1.3 0 .4 0 .8.1 1.1v.2c.1 1.1.4 2.1.9 3 .3.7.8 1.3 1.2 1.8.3.4.7.8 1.1 1.1.9.8 1.9 1.5 2.9 2.1 3.4 1.9 7.6 2.9 10.8 3.6.2.1.4.1.7.2 10.6 2.5 23.5-5.6 30.8.2 5.7 4.6 8.1 11.8 16.3 11 6.4-.6 12.8-6.3 18.3-11.5.5-.5.9-.9 1.4-1.3 1.2-1.1 2.3-2.2 3.4-3.3 7.4 14.6 31.7 18.4 43.7 12.8 3-1.4 5.5-4.6 7.9-7.4 1.8-2.1 3.6-3.9 5.8-4.8 2.1-.9 4.6-.4 7.1-.1.2 0 .4 0 .6.1.5.1 1.1.1 1.6.1h.9c1 0 2-.1 2.9-.3 2.9-.4 5.3-1.2 7.3-2.4 1.7-1.1 3.1-2.5 4.3-4.2.1-.1.2-.2.2-.4.6-1 1.2-2.1 1.7-3.3.4-.9.8-1.9 1.1-3 .9-2.7 2.2-4 3.6-5 3.2-2 6.4-2 4.9-9.7z"/><path class="st1" d="M740.8 370.2c-3.6 4.4-11.1 4.5-15.7 4-8.6-.9-12.9-7.9-19.8-13.4-.8-.7-1.5-1.3-2.1-1.9-3.2-3.3-3.5-6.3-6.2-11.2-4.3 2.2-12 1.5-16.5 2.9-.2.1-.4.2-.6.2-.3.1-.6.3-.8.4-3 1.7-3.5 5.1-7.2 7.3-4.9 3-12.9 2.9-18 5.3-7.6 3.6-16.4 4-24.4 3-2.7-.3-5.1-1.9-7.4-3.6-3.1-2.3-6-4.9-9.5-5.4-1-.1-1.9-.1-2.8.1-4.1.9-7.4 4.8-11.6 6.5-.4.2-.9.3-1.4.4-1.9.5-4.1.8-6.4.8-3 0-6-.3-8.3-.7-2.6-.4-4.7-1.9-6.6-3.6-2.1-1.8-4-3.9-6.3-5.3-.8-.5-1.7-.9-2.6-1.2-4.5-1.5-8.6.1-13.1.9l-1.8.3c-1.2.2-2.3.3-3.5.3-1.8.1-3.6.1-5.4 0-1.3 0-2.6-.1-3.9-.1-3.8 0-7.2-3.8-10.5-8.1-1.2-1.6-2.4-3.3-3.6-4.9-.4 2.2-1.2 4.4-2.2 6.4-2.1 4.4-5.4 8.3-9.3 11.7-6.1 5.4-13.6 9.6-20.2 12.2-2.4.9-4.6 1.7-6.7 2.3-.2 0-.4.1-.5.1-.9.2-1.7.4-2.5.6-.4.1-.7.1-1.1.2-7.5 1.1-14.9.3-22.4.9.5 3 1.9 7.6 3.9 11.8 3 6.4 7.4 12.3 11.7 11.6 0 .5 0 1.1.1 1.6 0 1.6-.1 3.2-.1 4.8 0 .7-.1 1.3-.1 2 0 1 0 1.9.1 2.8.2 2.2.7 4.2 1.9 6.1.3.5.7.9 1.1 1.4.3.3.5.6.9.9.4.4.9.8 1.3 1.1 1.8 1.5 3.7 2.5 5.7 3.2.5.2 1.1.4 1.7.5 1.9.6 3.9.9 5.9 1.1.5.1 1.1.1 1.7.2h.2c.8.1 1.7.2 2.6.2.6 3.6 2.4 6.7 4.7 9.5 2.2 2.6 5 4.8 7.9 6.6.3.2.7.4 1 .6.3.2.6.3.9.5 3.6 1.9 7.2 3.1 10 3.5.8.1 1.6.2 2.4.2 3.7.3 7.4-.1 11-1.1 1.5-.5 3.3-1.5 4.9-2.2.8-.3 1.6-.6 2.4-.7.6 2.9 1.6 5.7 2.9 8.3 2.4 4.8 5.8 8.9 9.4 12.3 1.3 1.2 2.5 2.3 3.8 3.2 1.6 1.2 3.1 2.2 4.6 3 5.6 2.9 11.1 3.3 17.5 2.9 3.8-.3 8.3-.7 12.7-1.5.5-.1 1.1-.2 1.6-.3.4-.1.8-.2 1.2-.2 3.6-.8 7.1-1.9 10.3-3.5 1.4-.7 2.7-1.4 3.9-2.3 2.4-1.7 4.3-4 6.2-6.3.4-.5.8-1.1 1.3-1.6l1.2-1.5c1.9 1 3.7 2.4 5.5 3.8.3.2.5.4.8.6.8.6 1.5 1.2 2.3 1.8 1.2 1 2.5 1.9 3.7 2.8 4 2.7 8.1 4.6 13 3.4 1.7-.4 3.8-1.5 5.8-3 1.8-1.3 3.7-3 5.4-4.8 2.2-2.4 4.2-5.1 5.7-7.8.2-.3.3-.6.5-.9 0-.1.1-.2.1-.3.2-.3.3-.6.4-.9.6-1.3 1-2.7 1.2-4 .8.1 1.6.2 2.4.4.4.1.9.1 1.3.2l3.3.6h.1c.5.1.9.2 1.4.3.4.1.8.1 1.2.2 1.4.2 2.8.4 4.3.5 1.3.1 2.7.1 4-.1.8-.1 1.6-.2 2.5-.4.9-.2 1.8-.5 2.8-.8.7-.3 1.5-.6 2.2-.9.3-.1.6-.3.9-.4.4-.2.7-.4 1.1-.6.8-.4 1.6-.9 2.4-1.4.5-.3.9-.6 1.4-.9 1.1-.8 2.1-1.6 3.1-2.5.6-.6 1.3-1.2 1.9-1.8 4.4-4.7 7.3-10.8 5.7-18.1-.1-.3-.1-.6-.2-.9-.1-.2-.1-.4-.2-.6 0-.1 0-.2-.1-.2.7-.5 1.5-.7 2.5-.8 2-.3 4.4 0 6.5-.1.7 0 1.5-.1 2.1-.3.4-.1.9-.2 1.3-.4 2.3-.7 4.9-1.7 7.2-3.1.6-.4 1.2-.8 1.7-1.2 1-.8 1.9-1.6 2.7-2.6.1-.1.2-.3.3-.4.2-.2.3-.4.5-.6 0-.1.1-.1.1-.2 2.1-3.4.9-6.4 1.8-9.5.5-1.7 1.6-2.8 2.6-4.5.2-.4.5-.8.7-1.3 1.1-1.9 2-4.1 2.8-6.5 1.9-5.5 2.8-12.1 1.8-17.9z"/><path class="st1" d="M696.9 347.8c3.7 6-1.2-2.2 0 0zM791 499.7c-.7 0-1.4 0-2.1.1h-.7l-4.8.3c-1 .1-1.9.2-2.9.3-.5.1-1.1.1-1.6.2-3.4.3-6.6.6-9.7.7h-2c-1.1 0-2.2-.1-3.3-.2-1.6-.2-3.1-.4-4.7-.9-1.2-.3-2.5-.8-3.7-1.3-4.7-2.1-9.3-5.8-14-12.2-.3-.5-.7-1-1-1.5-.6-.9-1.3-1.9-1.9-3-.4-.6-.7-1.2-1.1-1.9-1-1.6-1.9-3.3-2.8-5-1.3-2.4-2.4-4.9-3.6-7.4-.2-.5-.4-1-.7-1.5-.1-.1-.1-.3-.2-.4l-.3-.6c-.3-.8-.7-1.6-1-2.4-1-2.3-1.9-4.6-2.9-7-.1-.3-.2-.6-.3-.8-.2-.5-.4-.9-.6-1.4-.1-.2-.1-.4-.2-.5-3.4-8.5-6.7-16.8-10.4-23.9-.4-.8-.8-1.5-1.2-2.3.2 1.9.2 3.7.1 5.5-.2 3.8-1.1 7.3-2.6 10.5-1 2.2-2.2 4.2-3.6 6-.3.4-.6.8-1 1.2-.8.9-1.6 1.8-2.5 2.7-.5.5-1.1 1-1.6 1.5-.7.5-1.4 1.1-2.1 1.6-.6.4-1.1.8-1.7 1.1-.1.1-.2.1-.4.2-1.5.9-3.1 1.6-4.7 2.2-8.1 2.9-17.1 1.9-23.7-4.8-2.4 5.4-4.9 9.6-7.6 13.1-6.5 8.3-13.9 11.4-22.9 12.1-2.3.2-4.7.2-7.3.1-3.8-.2-7.9-.6-12.2-1.1-12.5-1.5-26.7 5.9-41.8 8-3.3.5-6.7.7-10 .5-1.4-.1-2.8-.2-4.3-.5-2.2-.4-4.1-.9-5.9-1.5-10.8-3.8-15.9-11.8-22.3-18.5-1.3-1.4-2.6-2.7-4.1-3.9-.2-.2-.4-.4-.7-.5-1.2-1-2.5-1.8-3.9-2.6-1-.5-2-1.1-3.1-1.5-1.7-.7-3.3-.9-4.9-1h-2.1c-1.9 0-3.7 0-5.6-.6-1-.3-2-.9-3.1-1.7-.3-.3-.7-.6-1-.9-4.5-4.4-5.4-12.3-8.8-14.4-.7-.4-1.6-.6-2.6-.5v.8c0 3.8-.4 7.3-1.1 10.6-.1.4-.2.7-.3 1.1-.3 1.2-.6 2.3-.9 3.4-.5 1.6-1.1 3.2-1.8 4.7-1.4 3.1-3 5.9-4.9 8.6-1.4 1.9-2.9 3.7-4.5 5.4-5.4 5.6-12 10-19.1 13.5-13.6 6.8-28.9 10.3-40.5 12.5-.8 2.9-.9 5.7-.4 8.2.5 2.7 1.6 5.1 3.2 7.3l1.5 1.8c1.6 1.8 3.5 3.4 5.6 4.7.4.3.8.5 1.2.7.3.2.5.3.8.5.4.2.7.4 1.1.6.5.3 1.1.5 1.6.7.3.1.6.2.8.4.2.1.3.1.5.2 1.1.4 2.3.8 3.4 1.1 3 .8 6 1 8.4.7v2.6c0 2.4.1 4.7.3 6.8.1.8.2 1.5.3 2.3.4 2.8 1.1 5.3 1.9 7.6.2.6.5 1.2.7 1.7.1.2.2.5.3.7.7 1.6 1.6 3.1 2.5 4.5.2.3.5.7.7 1 .5.7 1.1 1.4 1.7 2 5.2 5.6 12.6 8.6 21.5 9.7 4.5.6 11.2-.9 15.8-1.5 1.5-.2 2.8-.3 3.7-.2 3.4.4 6.5 3.1 9.5 6.3.1.2.3.3.4.5.9 1 1.9 2.1 2.8 3.2 1.7 1.9 3.4 3.8 5.1 5.3.2.2.4.3.6.5l1.2.9c.2.2.5.3.7.5.4.3.9.5 1.3.7.9.5 1.9 1 2.8 1.4 2.6 1.2 5 2.1 7.3 2.7 1.1.3 2.2.5 3.3.7 1.1.2 2.3.3 3.4.4 9.3.6 18.1-2.3 31.3-3.1 11-.6 26.4-11.5 35.9-10.9 2 .1 3.8.6 5.6 1.3 3.4 1.3 6.6 3.4 9.8 5.5 6.2 4.1 12.7 8 21.9 5.5 4.8-1.3 8.8-3.8 12.3-7.2l1.5-1.5c.7-.8 1.5-1.6 2.1-2.5 1.6-2.1 3.2-4.3 4.6-6.7.2-.4.5-.8.7-1.2.2-.4.4-.7.6-1.1.3-.5.5-.9.8-1.4.1-.2.3-.5.4-.7.3.3.7.7 1.1 1 1 .9 2.1 1.7 3.3 2.4.6.4 1.3.8 2 1.1 1.4.7 2.9 1.4 4.4 1.9 1.6.6 3.3 1 5 1.3l1.8.3c1.6.2 3.2.3 4.8.3.5 0 1.1 0 1.6-.1h.2c.5 0 1-.1 1.5-.1 1-.1 1.9-.3 2.9-.5 1.9-.5 3.7-1.1 5.4-2 .7-.4 1.3-.8 1.9-1.2 1.5-1 2.8-2.3 3.9-3.7.2-.3.5-.6.7-.9.4-.6.8-1.2 1.1-1.9.1-.2.2-.4.3-.5l.3-.6c.9-2.2 1.5-4.8 1.7-7.8.6.3 1.2.7 1.8 1 1.2.6 2.6 1.3 4 1.9.6.3 1.3.6 2 .8 1.7.7 3.4 1.3 5.2 1.8 3.1 1 6.5 1.8 9.8 2.3 9.9 1.6 20 .8 26.4-4.7 5-4.3 7.5-13.9 10.4-20 18.8-.3 19.9-6.4 21.2-17.8.2-1.3.3-2.7.5-4.2 0-.2.1-.5.1-.7l.3-1.8c0-.1 0-.2.1-.4 0-.2.1-.4.1-.6.1-.5.2-1.1.3-1.7.1-.4.2-.8.2-1.2.3-1.5.6-3 1-4.6.2-.7.4-1.3.6-2-.7-.6-1.4-.6-2.1-.6z"/><path class="st0" d="M657.9 770.1s.1 0 .1-.1l-.1.1zM685.7 755.9v-1.7c0-2.2-.1-4.3-.2-6.5-8.3-.3-16.9-.1-25.3-.1H587.7c-1.2 0-2.6 0-4.2.1-2 .1-4.2.2-6.6.3-2.9.2-6 .3-9.1.5-.6 0-1.1 0-1.7.1-3.9.1-7.8.2-11.4 0-3.3-.1-6.2-.4-8.6-.9-1.3-.3-2.5-.6-3.4-1.1l-.6.9-1.5 2.4c-.5.9-.9 1.7-1.3 2.5-.4.7-.7 1.4-1 2.1-.1.3-.3.7-.4 1-.2.6-.4 1.1-.6 1.7-1 3.2-1.3 6-1.5 8.5-.1.7-.1 1.3-.2 2 3.5.9 7.3 1.5 11.2 1.9.4 0 .7.1 1.1.1 1.3.1 2.7.2 4 .3h6.5c1.9 0 3.8 0 5.7-.1h1.2c1.3 0 2.6-.1 3.9-.1.9 0 1.9-.1 2.8-.1.6 0 1.2-.1 1.8-.1.9 0 1.8-.1 2.7-.1 1.5-.1 3.1-.2 4.6-.3 1.6-.1 3.1-.2 4.7-.2.4 0 .9 0 1.3-.1h.5c.9 0 1.8-.1 2.7-.1 2.5-.1 5-.1 7.3-.1H620.7c6.4 0 12.9 0 19.3-.1h4.5c3.2 0 6.4-.1 9.6-.1h3.6c1.3 0 2.5 0 3.8-.1h3c.9 0 1.9-.1 2.8-.1h4.2c4.3-.1 8.5-.3 12.8-.5h1.1c.2-3.5.2-7.1.2-10.7.1-.7.1-1 .1-1.2z"/><path class="st0" d="M667.7 795.9c-.2-4.3-.4-8.5-.5-12.8 0-1-.1-2-.1-3-.1-2.9-.1-5.8 0-8.6v-1.4h-1.8c-2.4 0-4.8 0-7.2-.1 0 0-.1 0-.1.1v-.1H630.8c-5.5.1-10.9.1-16.4.2l-16.2.3c-3.4.1-6.9.1-10.3.2H586c-3.8.1-7.6.1-11.3.2h-1.4c-1.9 0-3.8 0-5.7.1h-17.5c.1.4.1.8.2 1.2.3 1.8.5 3.6.8 5.2.2 1.2.4 2.4.7 3.5.4 1.9.8 3.8 1.2 5.5.4 1.5.7 3 1 4.4.2.7.3 1.3.5 1.9 0 .2.1.4.1.6.1.5.2 1 .3 1.4.1.4.2.7.2 1.1.7 2.8 1.2 5.5 1.6 8.2.2 1.5.3 3 .4 4.5.2 5.1-2.6 19.6-.5 25.8.3.9.7 1.7 1.3 2.1 1.2 1.1 4.8 1.5 8.9 1.7h1.6c1 0 2 .1 3.1.1 2.9 0 5.8 0 8.3-.1 2.4 0 4.4-.1 5.5 0l7.8.3c.8 0 1.5.1 2.3.1 2.4.1 4.8.1 7.3.2.8 0 1.6.1 2.5.1 9.4.2 18.9.3 28.3.2h2.9c9.6-.1 19.1-.4 28.4-1.1.8-2.7 1.5-5.4 2-8.2.6-3.3 1-6.7 1.2-10.1 0-.5.1-.9.1-1.4.2-7.2-.1-14.7-.4-22.3zM623.6 700.9c0 14.2 1.4 30.1-1.3 44-7 .5-13.9 0-20.8-1.3.2-9.3-1.4-18.3-1.4-27.6 8.4-2.8 18.5-4.9 21.3-16.4"/><path class="st1" d="M845.3 612.7c-.7-.2-1.3-.3-2-.5-.3-.1-.5-.1-.8-.2-1.2-.3-2.3-.6-3.2-1-.6-.2-1.1-.4-1.5-.6 3.2-2.2 9.7-3.8 11.3-8-1.5-.4-3-.7-4.5-.9h-.1c-.6-.1-1.2-.2-1.8-.2-.3 0-.6-.1-.9-.1-3.3-.4-6.7-.7-9.9-1.7-1.1-.4-2.2-.8-3.3-1.3-1.8-.8-3.5-1.7-5.3-2.7-.4-.2-.7-.4-1.1-.7-3-1.8-5.9-3.7-8.7-5.6-.5-.3-1-.6-1.4-.9-.7-.4-1.3-.8-2-1.2-2.1-1.3-4-2.6-5.7-4.1-.5-.4-1-.8-1.4-1.2-1.1-1-2.2-2-3.2-3.1-1.6-1.7-3.1-3.6-4.7-5.6-1.8-2.4-3.3-4.9-4.6-7.5-1-2.1-1.9-4.3-2.8-6.4-.2-.5-.4-1-.6-1.6-.2-.6-.4-1.2-.7-1.7-.5-1.3-1-2.7-1.6-4-.6-1.6-1.3-3.2-2.1-4.7-.8-1.6-1.6-3.1-2.6-4.6-.3-.4-.5-.9-.8-1.3-.3.5-.7 1-1 1.5-.1.2-.3.4-.4.7-.2.3-.4.7-.6 1l-.9 1.5c-.2.3-.3.5-.5.8-2.5 4.3-4.7 8.4-7.5 12-.7.9-1.4 1.7-2.2 2.5-2.2 2.3-4.9 4.4-8.4 6.1-.8.4-1.7.8-2.8 1.2-2.1.9-4.6 1.8-7.5 2.7-1.8.6-3.7 1.1-5.6 1.5-1.8.4-3.6.8-5.3 1-.5.1-.9.1-1.4.2-8.4 1-16.3-.3-19.1-7.3-4.7 3.5-7.7 6.1-11 8-.3.2-.7.4-1 .6-2.8 1.4-5.9 2.4-10.5 3.1-.1 0-.3 0-.5.1-4.2.5-13.9 1.2-20.4-.1-1.2-.2-2.3-.5-3.2-.9-.9-.4-1.6-.8-2.2-1.3-2.3 4.7-4.7 8.3-7.8 10.9-.6.5-1.2 1-1.9 1.5-.8.5-1.7 1-2.6 1.5-.3.1-.6.3-.9.4-1.5.6-3 1.1-4.8 1.5-2.1.4-4.5.8-7.2 1.2-1.5.2-3 .3-4.6.5-1.8.1-3.7.2-5.5.2-2.3 0-4.5-.1-6.5-.4-1-.1-1.9-.3-2.7-.6-.1 0-.2-.1-.3-.1-3.2-1-5.2-2.9-7.1-4.6-1.2-1.1-2.3-2.1-3.6-2.7-1.1-.5-2.4-.7-4-.4-.5.1-1 .2-1.5.4-.2 0-.3.1-.5.1-.2.1-.4.1-.6.2h-.1c-4.3 1.6-8.1 3.6-12.1 5.2-1.4.6-2.9 1-4.4 1.5-1.3.3-2.5.6-3.9.8-3 .4-6.1.7-9.1.9-.3 0-.7.1-1 .1-2.6.2-5.1.3-7.7.4H565.7c-.7 0-1.5.1-2.2.1h-1c-.8 0-1.6.1-2.4.1-.9 0-1.8.1-2.7.2-2.2.1-4.5.2-6.8.3-1.8.1-3.5.1-5.3.1H543c-1 0-2 0-2.9-.1-2.8-.1-5.6-.3-8.3-.7-1.6-.2-3.2-.5-4.7-.9-5.6-1.5-11.5-4.4-16.6-7.8-.4-.3-.9-.6-1.3-.9-.2-.2-.4-.3-.7-.5-.6-.4-1.2-.9-1.8-1.3-.8-.6-1.5-1.1-2.1-1.7-5.1-4.2-8.5-8-15-8.5-9.6-.8-22.3-1.4-32.1-7.4-1.7-1-3.2-2.2-4.7-3.6l-.3-.3-1.2-1.2-.3-.3c-2.7-3.1-5-7-6.4-11.9-.3-1.1-.6-2.3-.9-3.5-.4 1.3-.7 2.5-1.2 3.7-.5 1.6-1.1 3.1-1.8 4.6-.2.5-.4 1-.7 1.5-2.1 4.6-4.8 8.8-7.8 12.5-1.6 2-3.4 3.9-5.3 5.7-.3.3-.7.6-1 1-1.7 1.6-3.4 3.1-5.3 4.5-1.4 1.1-2.9 2.2-4.4 3.2-1.2.8-2.3 1.6-3.5 2.3-2.6 1.6-4.9 3-7.2 4.1-6.3 3.2-11.8 4.8-19.4 6.7-.4.1-.9.2-1.5.3-3.1.7-8.2 1.8-9 4.2-.8 2.5.8 4.6 3 6.1 1.3.9 2.8 1.6 4.3 2.2 1.3.5 2.5.8 3.5.9-.4 1-1 2.1-1.5 3.1-1 1.9-2.3 3.8-3.7 5.6-2.9 3.7-6.4 7-9.8 8.5-.1.1-.3.1-.4.2 0 .7.1 1.4.3 2 0 .1 0 .2.1.3.2.9.5 1.6 1 2.4.9 1.5 2.2 2.8 3.8 3.9 2.2 1.5 5 2.6 8 3.4 7.1 1.9 15.6 2.1 21.7 2.3h1c2.2.1 4.1.1 5.3.2 0 .7.1 1.4.1 2.1.2 2.9.7 5.7 1.3 8.3 1 4.3 2.5 8.2 4.5 11.7 2.4 4.3 5.5 8 8.9 11 .7.6 1.5 1.3 2.3 1.8 4.4 3.2 9.4 5.3 14.7 6.2.9.1 1.8.3 2.7.3 3.6.3 7.2 0 10.9-.9 3.9-.9 7.7-2.5 11.5-4.9 2 3.4 4.2 6.4 6.8 9.1 3.1 3.3 6.7 5.9 10.6 7.9 1.6.8 3.3 1.6 5.1 2.1l2.1.6c1.1.3 2.4.6 3.7.9 1 .2 2.1.4 3.2.6.4.1.8.1 1.2.2 1.2.2 2.5.3 3.7.5 3.3.3 6.7.3 9.8-.1.9-.1 1.9-.3 2.7-.5h.1c1.9-.5 3.7-1.3 5.1-2.4 1.3 1.9 2.8 3.6 4.4 5.2 15.7 15.6 44 19.5 63.2 14.5 2.8-.7 5.6-1.8 8.4-3 1.1-.5 2.2-1 3.3-1.6l1.8-.9.6-.3c.3-.2.7-.4 1-.5 2-1.1 4-2.2 5.8-3.3.2-.1.4-.3.6-.4.5-.3.9-.7 1.4-1 1.6-1.3 3.1-2.6 5-2.8 2.6-.2 6.6 3.5 8.7 4.5 1.2.6 2.4 1.1 3.5 1.5 3.6 1.4 7.1 2.2 11.2 2.2h.4c1.9 0 3.8-.2 5.6-.6 2.8-.6 5.5-1.6 7.9-3.1.6-.4 1.2-.8 1.8-1.3 1.2-.9 2.3-1.9 3.3-3.1.9-1 1.6-1.9 2.2-2.7.3-.4.6-.8.9-1.1l.2-.2c1-1.2 1.8-1.8 2.6-1.9.8-.1 1.6.1 2.9.6 1.6.7 3.8 1.8 7.3 3.2.5.2 1 .4 1.6.6 5.5 1.8 15 2.7 23.7 1.3 2.4-.4 4.7-1 6.9-1.8 5.9-2.2 10.5-5.9 11.7-11.9.2-1.1.3-2.2.3-3.5 4 .6 8 1.4 12.1 2.1 2 .4 3.9.7 5.9 1 4.6.7 9.1 1.1 13.5 1 2-.1 4.1-.2 6-.6 1.9-.3 3.8-.8 5.6-1.5 4.3-1.5 8.3-3.9 12.1-7.6l3.3-3.3c1-1.1 2-2.2 2.9-3.3.2-.2.3-.4.5-.6 1.2-1.6 2.2-3.4 3-5.4.8-1.9 1.4-3.3 2-4.5.9-1.6 1.6-2.5 2.6-2.9.1 0 .1-.1.2-.1 1.7-.6 4.1-.2 8.6-.2h1.6c3.3-.1 6.8-.4 10.4-1.1 1.4-.3 2.8-.6 4.1-1 .5-.2 1-.3 1.6-.5 7.6-2.5 14.7-7 18.6-14.4.3-.5.5-1 .7-1.6.8-2.1 1.2-4.5 1.7-6.9.5-2.4 1.1-4.6 2.1-6.3.2-.2.4-.5.5-.7.7-.9 1.5-1.8 2.5-2.5 1.7-1.3 3.7-2.5 5.7-3.4.4-.2.8-.4 1.3-.6 1.3-.6 2.6-1.2 3.7-1.7-1.7-2.1-5.3-3.2-8.9-4.1z"/><path class="st0" d="M610.4 818.4c-13.3-1-25.4-22.6-18.8-32.4 2.7-4 7.8-4.7 12.5-2.9 4.3 1.6 4.4 5.4 6 9.3-1-9.7 3-12.7 14.1-10.2 12.9 9.8-1.2 30.2-13.8 36.2M577.6 310c0-.3 0-.6-.1-1 0-.3 0-.5-.1-.8v-.3c0-.2 0-.3-.1-.5-.1-.4-.1-.8-.2-1.2-.4-1.7-1-3.2-1.8-4.7-.3-.5-.6-1-1-1.6-.2-.2-.3-.5-.5-.7-.3-.4-.7-.8-1-1.2-.9-1-2-2-3.1-2.8-.9-.6-1.8-1.2-2.8-1.7-.2-.1-.3-.2-.5-.2 0-.2.1-.5.1-.8.1-1.3.2-3-.1-3.6-.1-.2-.3-.3-.5-.5l-.6-.3c-.3-.1-.5-.2-.9-.3-.2-.1-.4-.1-.6-.2-.3-.1-.7-.1-1-.2-1.2-.2-2.6-.3-3.6-.4h-.5c-.4 0-.8-.1-1.1-.1-.1 1-.4 2-.7 3-.1.5-.3.9-.4 1.4h-.9c-1.8.1-3.5.5-5.2 1-.1 0-.2.1-.4.1l-1.5.6c-.3.1-.7.3-1 .5-2 1-3.8 2.3-5.4 3.9l-.6.6c-.1.1-.2.2-.2.3-.3.4-.7.8-1 1.2-.1.1-.1.2-.2.3-.3.4-.6.9-.9 1.3-.4.6-.7 1.2-1 1.9v.1c-.5 1.2-.9 2.5-1.2 3.9-.1.5-.2 1-.2 1.4 0 .2 0 .3-.1.5 0 .3 0 .6-.1.9v.3c0 .9 0 1.9.2 2.8 0 .2.1.3.1.5s.1.4.1.6c.1.3.1.7.2 1 .1.5.3 1 .4 1.5.1.2.1.4.2.6.1.3.3.7.4 1 .1.1.1.3.2.4.3.6.6 1.1.9 1.7 0 .1.1.1.1.2.1.1.2.3.3.4.2.2.3.5.5.7.7.9 1.4 1.7 2.2 2.5 2.8 2.7 6.6 4.7 10.8 5.4.4.1.7.1 1.1.2h.2c.2 0 .4 0 .6.1h2.2c2.9-.1 5.7-.7 8.2-1.8.2-.1.3-.1.5-.2.3-.2.7-.3 1-.5.9-.5 1.8-1.1 2.7-1.8 3.4-2.6 5.9-6.3 7-10.6v-.1c.1-.3.1-.5.2-.8.1-.3.1-.6.1-.9 0-.1 0-.3.1-.4 0-.4.1-.8.1-1.3.4-.3.4-.8.4-1.3z"/><path class="st3" d="M552.5 300.5l1.6-1.2-.2-1.9 1.7 1 1.9-.7-.5 1.9 1.3 1.4-2 .1-1 1.6-.7-1.8-2.1-.4zm2.7 7.2l1.9-1.5-2.4-.5-.9-2.1-1.2 2-2.4.2 1.6 1.7-.6 2.3 2.2-1 2.1 1.2-.3-2.3zm13.8 0l3.1 2.1-.1-3.6 3.1-2.1-3.7-1-1.2-3.4-2.1 3h-3.8l2.3 2.9-1.2 3.4 3.6-1.3zm-4.2-10l1.2-.5-1.1-.6-.1-1.2-.9.8-1.2-.2.6 1.1-.6 1 1.3-.2.9.9-.1-1.1zm-20.4 5.2l.9-.4-.8-.4-.1-.9-.7.6-.9-.2.4.8-.5.8 1-.1.6.7.1-.9zm18.1 21.6l1.5 3 1.6-2.9 3.5-.4-2.4-2.3.6-3.2-3.1 1.5-3.1-1.6.5 3.3-2.5 2.3 3.4.3zm-3.1-9.8h.9l-.5-.7.3-.8-.8.2-.7-.5v.8l-.7.5.8.3.2.8.5-.6zm-12.5 6.9l.8-.8-1.2-.1-.5-1-.5 1-1.2.2.8.8-.2 1.1 1-.5 1 .5v-1.2zm6.8-2.1l1.7.9-.3-1.8 1.4-1.3-1.9-.3-.8-1.7-.9 1.6-1.9.3 1.4 1.3-.3 1.8 1.6-.8zm-8.1-7l2.1-1.9-2.9-.4-1.3-2.5-1.3 2.5-2.9.4 2.1 2-.5 2.7 2.6-1.3 2.6 1.3-.5-2.8zm27.6 3.7h.9l-.5-.7.3-.8-.8.2-.7-.5v.8l-.7.5.8.3.2.8.5-.6zm-8-1.6l.8-.6-1-.2-.4-.9-.5.9-1 .1.7.7-.3 1 1-.4.9.5-.2-1.1zm-4.8-8.1l.8 1.6.9-1.6 1.9-.2-1.3-1.3.4-1.8-1.7.8-1.7-.9.3 1.8-1.4 1.2 1.8.4zm-2.6-13.3l1-.8-1.2-.3-.5-1.1-.7 1-1.3.1.8.9-.3 1.2 1.2-.5 1.1.7-.1-1.2zm-7.6 5.4l1 .5-.2-1.1.8-.8-1.2-.2-.5-1-.5 1-1.1.2.8.8-.2 1.1 1.1-.5z"/><path class="st0" d="M634.8 425.4c0-.6-.1-1.3-.2-1.9v-.1c-.1-.4-.1-.9-.2-1.3-.1-.3-.1-.7-.2-1 0-.1-.1-.3-.1-.4-.1-.2-.1-.4-.2-.6-.2-.5-.3-1-.5-1.6-.8-2.2-1.9-4.3-3.3-6.2-.5-.7-1-1.4-1.6-2-.3-.3-.5-.6-.8-.9-.5-.5-1-1.1-1.6-1.6-1.5-1.3-3.1-2.5-4.8-3.5-1.3-.8-2.7-1.4-4.1-2-.2-.1-.4-.2-.7-.2V401c0-1.8-.2-4.2-.7-4.9-.2-.2-.4-.4-.7-.6-.3-.1-.5-.3-.9-.4l-1.2-.3c-.3-.1-.6-.1-.9-.1-.5-.1-.9-.1-1.4-.1-1.7-.1-3.6-.1-5.1 0h-2.3c0 1.3-.2 2.8-.4 4.2-.1.7-.2 1.3-.4 1.9-.4.1-.8.1-1.2.2-2.5.4-4.8 1.2-7 2.2-.2.1-.3.2-.5.2-.7.3-1.3.7-2 1-.4.3-.9.5-1.3.8-2.6 1.7-4.9 3.8-6.8 6.2-.2.3-.5.6-.7.9-.1.1-.2.3-.3.4-.4.6-.8 1.2-1.1 1.8-.1.1-.2.3-.2.5-.4.6-.7 1.3-1 2-.4.9-.7 1.8-1 2.7v.2c-.5 1.8-.9 3.6-1 5.5 0 .7-.1 1.4-.1 2v.7c0 .4 0 .8.1 1.3v.4c.1 1.3.4 2.6.7 3.8.1.2.1.5.2.7.1.3.2.5.2.8.2.5.3.9.5 1.4.3.7.5 1.3.8 1.9.1.3.3.5.4.8.2.5.5.9.8 1.4.1.2.2.3.3.5.5.8 1 1.5 1.6 2.2l.2.2c.1.2.3.4.4.5.3.3.5.6.8.9 1.1 1.1 2.2 2.2 3.5 3.1 4.4 3.3 9.8 5.5 15.8 5.9.5 0 1 0 1.5.1h2.8c.5 0 .9-.1 1.4-.1 4-.5 7.7-1.8 11-3.7.2-.1.4-.2.6-.4.4-.3.9-.6 1.3-.9 1.2-.9 2.4-1.8 3.4-2.8 4.2-4.1 7.1-9.5 7.9-15.6v-.2c0-.4.1-.7.1-1.1 0-.4 0-.8.1-1.3v-.6c.2-.6.2-1.2.1-1.8z"/><path class="st3" d="M598.5 414l2-1.9-.5-2.6 2.5 1.2 2.4-1.3-.4 2.6 2.1 1.8-2.8.5-1.2 2.4-1.3-2.3-2.8-.4zm4.9 9.6l2.3-2.4-3.4-.3-1.7-2.8-1.3 3-3.3.6 2.5 2.1-.4 3.2 2.9-1.6 3.1 1.3-.7-3.1zm19-2l4.6 2.5-.7-5 3.9-3.4-5.2-.9-2.2-4.6-2.5 4.4-5.2.6 3.7 3.6-1 4.9 4.6-2.1zm-7.4-13.2l1.5-.9-1.6-.6-.4-1.6-1.1 1.3-1.8-.1.9 1.4-.7 1.5 1.7-.4 1.3 1.1.2-1.7zm-27.3 10.2l1.1-.6-1.2-.5-.3-1.2-.9 1-1.3-.1.7 1.1-.5 1.2 1.3-.3 1 .8.1-1.4zm28.5 27.1l2.5 3.9 1.7-4.3 4.7-1.1-3.8-2.9.4-4.6-4 2.5-4.5-1.7 1.3 4.4-3.1 3.5 4.8.3zm-6-13l1.2-.1-.8-.8.3-1.1-1.1.5-1-.6.1 1.1-.9.7 1.2.2.5 1 .5-.9zM594.3 444l1-1.2h-1.6l-.9-1.3-.5 1.5-1.6.4 1.3.9-.1 1.5 1.3-.9 1.5.5-.4-1.4zm9-3.9l2.5.9-.7-2.5 1.7-2-2.7-.1-1.4-2.2-.9 2.4-2.6.6 2.1 1.6-.2 2.5 2.2-1.2zm-12.4-8.5l2.6-2.9-4-.2-2.1-3.2-1.4 3.6-3.9.9 3.2 2.4-.3 3.8 3.4-2.1 3.7 1.4-1.2-3.7zm38.7 1l1.2-.1-.8-.8.3-1.1-1.1.5-1-.6.1 1.1-.9.7 1.2.2.5 1 .5-.9zm-11.3-1l1-1-1.4-.1-.7-1.2-.6 1.3-1.4.3 1.1.9-.3 1.2 1.3-.7 1.3.6-.3-1.3zm-7.9-10.4l1.4 2.1 1-2.3 2.6-.6-2-1.6.2-2.5-2.2 1.4-2.4-1 .7 2.4-1.7 1.9 2.4.2zm-5.9-17.9l1.2-1.2-1.8-.2-.8-1.5-.7 1.5-1.7.3 1.3 1.1-.3 1.7 1.5-.8 1.6.7-.3-1.6zm-9.6 8.5l1.5.5-.5-1.5 1-1.2h-1.6l-.9-1.3-.5 1.4-1.6.4 1.3.9-.1 1.5 1.4-.7z"/><path class="st0" d="M734.3 498v-.2c-.1-.3-.2-.5-.2-.8l-.3-.9c-.1-.1-.1-.3-.2-.4-.2-.4-.4-.8-.6-1.3-.2-.4-.5-.9-.7-1.3l-.6-.9c-.2-.2-.3-.5-.5-.7-.1-.1-.1-.2-.2-.3-.1-.1-.2-.3-.3-.4-.3-.3-.5-.7-.8-1-1.3-1.4-2.7-2.6-4.2-3.6-.6-.4-1.1-.7-1.7-1-.3-.1-.6-.3-.8-.4-.5-.3-1.1-.5-1.6-.7-1.4-.6-2.9-1-4.5-1.2-1.2-.2-2.4-.3-3.6-.3h-.6c-.1-.2-.2-.5-.3-.8-.5-1.3-1.4-3-2-3.4-.2-.1-.4-.2-.7-.2-.2 0-.5-.1-.7 0-.3 0-.6.1-1 .1-.2 0-.4.1-.7.1-.3.1-.7.2-1.1.3-1.3.4-2.6.9-3.7 1.3-.2.1-.3.1-.5.2-.4.2-.8.3-1.1.4.4 1 .7 2.1 1 3.2l.3 1.5c-.3.1-.5.3-.8.5-1.6 1-3.1 2.2-4.4 3.5l-.3.3c-.4.4-.8.8-1.1 1.3-.2.3-.5.6-.7.9-1.4 1.9-2.4 4.1-3 6.3-.1.3-.1.6-.2.8 0 .1-.1.2-.1.4-.1.5-.2 1.1-.3 1.6v.4c-.1.6-.1 1.1-.1 1.7 0 .7 0 1.5.1 2.3v.1c.1 1.4.5 2.9.9 4.3l.6 1.5c.1.2.1.3.2.5.1.3.3.6.4.9 0 .1.1.2.1.3.5.9 1 1.8 1.6 2.6.1.2.2.3.4.5.1.2.3.3.4.5.3.3.5.6.8.9l1.2 1.2c.2.2.3.3.5.4.3.3.6.5 1 .8.1.1.3.2.4.3l1.8 1.2c.1 0 .1.1.2.1.2.1.3.2.5.3.3.1.6.3.8.4 1.1.5 2.2 1 3.4 1.3 4.1 1.2 8.7 1.3 13.2 0 .4-.1.7-.2 1.1-.4.1 0 .2-.1.2-.1.2-.1.4-.2.6-.2.1-.1.2-.1.4-.2.1-.1.3-.1.4-.2.1-.1.3-.1.4-.2.3-.2.6-.3.9-.5 2.7-1.4 5-3.4 6.8-5.6.1-.1.2-.3.3-.4.2-.3.5-.6.7-1 .6-.9 1.2-1.9 1.6-3 1.9-4.3 2.3-9 1-13.6z"/><path class="st3" d="M703.2 495.9l.8-1.9-1.2-1.7 2.2.2 1.4-1.6.5 2 2 .7-1.9 1.1-.1 2.1-1.6-1.3-2.1.4zm6.5 5.6l1-2.3-2.5.7-2-1.6-.1 2.5-2.2 1.3 2.5.8.7 2.4 1.6-2 2.6.1-1.6-1.9zm13.1-6.5l4.1.5-2-3.4 1.8-3.5-4 .8-3-2.7-.5 3.9-3.6 1.8 3.7 1.6.7 3.8 2.8-2.8zm-9.3-7.6l.8-1h-1.4l-.8-1.1-.4 1.2-1.3.4 1.1.8v1.3l1.1-.8 1.3.4-.4-1.2zm-16.7 14.7l.6-.8h-1l-.6-.8-.3.9-1 .3.8.6v1l.8-.6 1 .3-.3-.9zm28.8 11.9l3 2.1v-3.6l3.1-2-3.6-1.1-1.1-3.4-2.2 2.9-3.8.1 2.2 2.8-1.2 3.4 3.6-1.2zm-8.3-7.8l.8-.4-.8-.4-.1-.9-.7.6-.9-.2.4.8-.4.8.9-.1.6.6.2-.8zm-8.1 12.5l.4-1.1-1.2.4-1-.7.1 1.2-1 .7 1.2.3.4 1.1.7-1h1.3l-.9-.9zm5.3-5.3h2.1l-1.3-1.6.6-1.9-2 .7-1.7-1.2v2l-1.7 1.2 2 .6.6 1.9 1.4-1.7zm-11.5-2.8l1-2.8-3 1-2.5-1.8.1 3-2.6 1.7 3 .9.9 2.8 1.8-2.4h3.1l-1.8-2.4zm28.3-9.6l.8-.4-.8-.4-.1-.9-.7.6-.9-.2.4.8-.4.8.9-.1.6.6.2-.8zm-8.5 2.3l.4-1-1.1.3-.9-.7-.1 1.1-1 .6 1.1.4.3 1 .7-.8 1.1.1-.5-1zm-8.8-5.4l1.6 1.2v-1.9l1.7-1.1-2-.6-.6-1.9-1.2 1.6h-2.1l1.2 1.6-.7 1.8 2.1-.7zm-9.6-11.4l.5-1.2-1.3.3-1-.8-.1 1.3-1.2.7 1.3.5.3 1.3.9-1 1.4.1-.8-1.2zm-4.4 8.7h1.3l-.8-.9.4-1.1-1.2.4-1-.7v1.2l-1 .7 1.2.3.4 1.1.7-1z"/><path class="st0" d="M708.4 397.7c-.2-.6-.4-1.1-.6-1.7-.5-1.1-1-2.2-1.7-3.2-.9-1.4-2.1-2.7-3.4-3.9-.2-.2-.4-.4-.6-.5-.3-.2-.6-.5-.9-.7-.8-.6-1.7-1.1-2.6-1.6h-.1c-1.2-.6-2.6-1.2-3.9-1.6 0-1.2-.3-3.7-.8-4.3l-.1-.1c-.1-.1-.2-.1-.3-.2-.3-.2-.8-.4-1.4-.4-2.3-.4-5.9.1-7.3.2v1.3c0 1-.1 2.1-.3 3.1-.4.1-.7.2-1.1.3-.2 0-.4.1-.5.1-.1 0-.1 0-.2.1-.1 0-.2.1-.2.1-.4.1-.7.2-1.1.4-2 .7-3.8 1.7-5.4 3-.2.1-.4.3-.6.4-.5.4-1 .9-1.5 1.4l-.1.1c-.3.3-.7.7-1 1.1-.4.4-.7.9-1 1.3-.5.7-.9 1.5-1.3 2.2-.1.2-.2.5-.3.7-.2.3-.3.7-.4 1-.1.2-.1.3-.2.5l-.3.9c0 .1 0 .1-.1.2 0 .1-.1.2-.1.3-.1.4-.2.7-.3 1.1-.2.9-.3 1.8-.3 2.8v.8c0 .9.1 1.7.2 2.6 0 .2.1.4.1.5.1.5.2.9.3 1.4.2.9.5 1.7.9 2.6.5 1.1 1 2.2 1.7 3.2 1.4 2.1 3.2 3.9 5.3 5.4.7.4 1.3.9 2 1.2 1.8 1 3.9 1.7 6 2.1.4.1.7.1 1.1.2h.1c.9.1 1.8.2 2.8.2.6 0 1.2 0 1.8-.1 1.1-.1 2.2-.3 3.3-.5 2.2-.5 4.2-1.4 6.1-2.6.1-.1.2-.1.3-.2.1 0 .1-.1.2-.1.1-.1.2-.1.3-.2.4-.2.7-.5 1-.8l.2-.2c.8-.6 1.5-1.4 2.2-2.1.2-.2.4-.4.6-.7.2-.2.4-.5.6-.7.9-1.3 1.7-2.6 2.4-4.1.3-.7.5-1.4.7-2.1.5-1.6.7-3.3.7-5.1-.1-1.7-.4-3.4-.9-5.1z"/><path class="st3" d="M684.3 394.1l.2.2.7 1.2.8-1.8 1.8-.4h.1l-.1-.2-1.4-1 .1-2-.6.4-.2.1-.9.6-1.2-.5-.7-.2.6 1.8-1.1 1.2-.2.3 2 .1zM684.2 385.9l-.1.6v.6l1-.7 1.2.5-.3-1.2.8-.9-1.1-.1h-.2v-.1l-.6-.8v-.1l-.5 1.1-.9.2-.3.1.2.2zM685.2 402.1l1.4.5.3.1-.3-.9-.3-1-.1-.3.3-.4.4-.4.1-.2.5-.6.3-.3h-2.5l-.3-.4-.6-1-.4-.6-.5 1.3-.4.9-.5.2-.4.1-1.4.3 1.1.9.3.2.5.3v1.2l-.1 1.2.5-.3.1-.1 1.4-.9zM691.9 388.5l.1.2-.4 1.1 1.2-.4.6.5.4.2v-1.2l.6-.4.3-.2.1-.1h-.1l-.5-.1-.6-.2v-.2l-.1-.2-.3-.8-.7 1h-1.3l.1.1zM705.8 405.1l.1-.4.1-.4-.8.4-.3-.2-.5-.2.1.5.1.2v.1l-.2.1-.4.5h.6l.2.1.4.7.2-.5.2-.2.8-.1zM673.2 397.5l-.1.2-.2.5.9-.3.8.5v-.9l.8-.5-.9-.3-.3-.8v-.1l-.4.5-.1.2-.1.1h-.9l.5.7zM678.6 409.4l-.2-.3-.8-2.3 1.7-2.2h-2.9l-1.7-2.2-.3.8-.4 1.3-.2.5-.4.2-2.4.7 1.4.9 1 .7V410.2l.7-.5 1.7-1.1 2.3.7zM678.5 392.1v.1l.1.8.3-.3.2-.1.4-.3.4.1.3.1.4.1-.4-1v-.1l.3-.3.3-.5h-1.1l-.7-.9-.3 1.1h-.1l-1 .4.9.6zM700.2 409.2l-2.8 2-3.4-1.1 1.2 3.2-2.1 2.6h3.5l2 2.7 1.1-3.2 3.3-1-2.9-1.9zM687.4 409.8l-.4-.5-.8-1-.2.6-.3 1.1-.2.1-.7.2-.4.1-.3.1-.3.1.2.1.2.1.1.2h.1l.2.2.8.5v1.8l1.6-1.1 1.8.5-.6-1.7 1.1-1.5zM704.2 394.4l.3-.2.6-.7h-.8l-2.1-.3h-.9l-.2-.4-.6-1-.1-.1-.5-1-.1-.2-.3-.5-.7 1.4-.4.9-.1.3-.3.6-.1.1-.9.1-1.6.3-.4.1-.8.1.7.6.2.3.3.2.2.2 1.3 1.1.1.1-.4 2.5-.1.7v.4l3.3-1.8 1 .4 1.9.9.6.2-.1-.2-.4-1.7V397.5l-.2-.9-.1-.4.8-.9zM692 405.2l-.8.4v-.1l-.7-.3.1.8-.6.6.8.1.4.7.4-.7.9-.1-.6-.6zM697.9 404.8l-.9-.1-.5-.8h-.1l-.3.9-.8.2-.3.1.9.6-.1 1h.1l.8-.6 1 .4-.2-.5-.1-.5.6-.7zM694.2 397.3l-.9-.6-.2-.1v-1.8h-.1l-.4.3-.3.2-.5.4-.2.2-1.8-.6.6 1.7-.8 1-.4.4H691.1l.1.2.2.2.8 1.1.2-.6.2-.4.2-.7 1.8-.6zM681.3 414.7h-.5l-.6.1-.2-.3-.6-.6-.1.5-.2.5-.3.2-.3.1-.5.1 1 .6v1.1l.3-.1.6-.5.1-.1.3.1.4.2.4.1-.1-.3-.1-.1-.2-.6v-.1l.3-.5z"/><path class="st0" d="M671.3 299.6c-.1-.1-.1-.3-.2-.4 0-.1-.1-.1-.1-.2-.1-.2-.2-.4-.4-.6v-.1c-.2-.4-.5-.7-.8-1.1-.2-.3-.5-.6-.7-.8 0 0 0-.1-.1-.1-.3-.3-.6-.6-.8-.9l-.2-.2-.1-.1-.2-.2c-.2-.1-.3-.3-.5-.4l-.3-.3c-.2-.1-.4-.3-.5-.4 0 0-.1 0-.1-.1-1.5-1-3.2-1.9-5.1-2.4v-.4c0-.4-.1-.9-.1-1.3-.1-.8-.3-1.5-.5-1.8-.3-.3-.9-.5-1.6-.6-.2 0-.5-.1-.7-.1h-1.6c-1.4.1-2.8.2-3.5.3.1 1.2 0 2.5-.2 3.7-1.3.3-2.6.7-3.8 1.3-.9.4-1.8.9-2.6 1.5l-.1.1c-1.1.7-2 1.6-2.9 2.6-.6.7-1.1 1.4-1.6 2.1-1.5 2.4-2.3 5.1-2.3 8.1 0 3.9 1.5 7.4 3.9 10.2l.1.1c.1.1.2.3.4.4l.3.3.1.1c.2.2.4.4.7.6l.2.2.1.1c.1.1.2.2.3.2l.1.1c.7.5 1.4 1 2.2 1.4.3.1.5.3.8.4.5.3 1.1.5 1.7.7 1.1.4 2.2.7 3.3.8h.1c.3 0 .7.1 1 .1.5 0 .9.1 1.4.1.6 0 1.1 0 1.7-.1h.3c.4 0 .8-.1 1.2-.2.2 0 .3-.1.5-.1h.5c.1 0 .2-.1.3-.1h.1c.2 0 .3-.1.5-.1.5-.1.9-.3 1.4-.5.5-.2 1-.5 1.6-.7.2-.1.3-.2.5-.3.1-.1.2-.1.3-.2.4-.2.8-.5 1.1-.7.1 0 .1-.1.2-.2s.2-.2.3-.2l.2-.2c.1 0 .1-.1.2-.1.3-.2.6-.5.8-.7 1-.9 1.9-2 2.6-3.1.3-.5.7-1.1.9-1.7.9-2 1.5-4.2 1.5-6.5 0-2.8-.7-5.2-1.8-7.3z"/><path class="st3" d="M654.5 299.4c0 1.8-1.5 3.2-3.4 3.2s-3.4-1.4-3.4-3.2c0-1.8 1.5-3.2 3.4-3.2 1.8 0 3.4 1.4 3.4 3.2zm7.2-5.5c-1.6 0-2.9 1.2-2.9 2.8 0 1.5 1.3 2.8 2.9 2.8 1.6 0 2.9-1.2 2.9-2.8 0-1.6-1.3-2.8-2.9-2.8zm-17.5 7.9c-1.6 0-2.9 1.2-2.9 2.8 0 1.5 1.3 2.8 2.9 2.8 1.6 0 2.9-1.2 2.9-2.8 0-1.5-1.3-2.8-2.9-2.8zm12.5 10.4c-1.6 0-2.9 1.2-2.9 2.8s1.3 2.8 2.9 2.8c1.6 0 2.9-1.2 2.9-2.8s-1.3-2.8-2.9-2.8zm3.6-5.8c-1.6 0-2.9 1.2-2.9 2.8 0 1.5 1.3 2.8 2.9 2.8 1.6 0 2.9-1.2 2.9-2.8 0-1.6-1.3-2.8-2.9-2.8zm7.6-1.6c-1.6 0-2.9 1.2-2.9 2.8 0 1.5 1.3 2.8 2.9 2.8 1.6 0 2.9-1.2 2.9-2.8 0-1.5-1.3-2.8-2.9-2.8zm.9-5.4c-1.1 0-1.9.8-1.9 1.8s.9 1.8 1.9 1.8c1.1 0 1.9-.8 1.9-1.8s-.9-1.8-1.9-1.8zm-18.3 6.2c-1.4 0-2.5 1.1-2.5 2.4s1.1 2.4 2.5 2.4 2.5-1.1 2.5-2.4-1.1-2.4-2.5-2.4zm12.3-5.3c-1.4 0-2.5 1.1-2.5 2.4 0 1.3 1.1 2.4 2.5 2.4s2.5-1.1 2.5-2.4c0-1.3-1.1-2.4-2.5-2.4zm-7 3.5c-.7 0-1.3.6-1.3 1.2 0 .7.6 1.2 1.3 1.2.7 0 1.3-.6 1.3-1.2 0-.7-.6-1.2-1.3-1.2zm-.4-11.4c-1.1 0-2 .9-2 1.9 0 1.1.9 1.9 2 1.9s2-.9 2-1.9c0-1.1-.9-1.9-2-1.9zm8.8 20.7c-1.1 0-2 .9-2 1.9 0 1.1.9 1.9 2 1.9s2-.9 2-1.9c0-1-.9-1.9-2-1.9zm-13.1 3.2c-1.1 0-2 .9-2 1.9 0 1.1.9 1.9 2 1.9s2-.9 2-1.9c0-1-.9-1.9-2-1.9zm-3.2-4.4c-.8 0-1.5.6-1.5 1.4s.7 1.4 1.5 1.4 1.5-.6 1.5-1.4-.7-1.4-1.5-1.4z"/><path class="st0" d="M497.8 427.2v-.2c0-.2 0-.5-.1-.7v-.1c-.1-.4-.1-.9-.2-1.3-.1-.3-.2-.7-.3-1v-.1c-.1-.4-.3-.7-.4-1.1 0-.1-.1-.2-.1-.3v-.1c0-.1-.1-.2-.1-.2-.1-.2-.2-.4-.3-.5-.1-.1-.1-.2-.2-.4l-.3-.6s0-.1-.1-.1c-.9-1.6-2.1-3-3.6-4.2 0-.1.1-.2.2-.4.1-.4.3-.8.5-1.3.2-.8.4-1.5.3-1.8-.1-.4-.6-.8-1.2-1.2l-.6-.3c-.4-.2-.9-.4-1.4-.6-1.3-.5-2.7-.9-3.3-1.2-.4 1.1-1.1 2.2-1.8 3.3-1.3-.3-2.7-.4-4-.4-1 0-2 .1-3 .3h-.1c-1.3.3-2.5.7-3.7 1.2-.8.4-1.6.8-2.3 1.3-2.4 1.6-4.3 3.7-5.6 6.4-1.7 3.5-1.9 7.3-.9 10.8 0 .1 0 .1.1.2.1.2.1.3.2.5 0 .1.1.3.1.4 0 .1 0 .1.1.2.1.3.2.6.3.8 0 .1.1.2.1.2s0 .1.1.1c.1.1.1.2.2.3 0 0 0 .1.1.1.4.8.9 1.5 1.4 2.2.2.2.4.5.6.7.4.4.8.9 1.2 1.3.8.8 1.7 1.4 2.7 2 0 0 .1 0 .1.1.3.2.6.3.9.5l1.2.6c.5.2 1 .4 1.6.6.1 0 .2.1.3.1l1.2.3c.2 0 .3.1.5.1h.9c.2 0 .3 0 .5.1.5.1 1 .1 1.5.1h1.7c.2 0 .4 0 .6-.1h.4c.5-.1.9-.1 1.4-.2.1 0 .2 0 .3-.1.1 0 .3-.1.4-.1.1 0 .2 0 .2-.1.1 0 .2 0 .2-.1.4-.1.7-.2 1.1-.3 1.3-.5 2.6-1.1 3.7-1.8.6-.4 1.1-.8 1.6-1.2 1.7-1.4 3.1-3.2 4.1-5.3 1.1-2.3 1.6-4.8 1.5-7.2-.4.1-.4 0-.5-.2z"/><path class="st3" d="M482.6 420.9c-.8 1.6-2.8 2.3-4.5 1.6-1.7-.7-2.5-2.7-1.7-4.3.8-1.6 2.8-2.3 4.5-1.6 1.7.8 2.5 2.7 1.7 4.3zm9-2.2c-1.5-.6-3.2 0-3.9 1.4-.7 1.4 0 3 1.4 3.7 1.5.6 3.2 0 3.9-1.4.7-1.4 0-3-1.4-3.7zm-19.4.4c-1.5-.6-3.2 0-3.9 1.4-.7 1.4 0 3 1.4 3.7 1.5.6 3.2 0 3.9-1.4.8-1.4.1-3.1-1.4-3.7zm6.8 14.4c-1.5-.6-3.2 0-3.9 1.4s0 3 1.4 3.7c1.5.6 3.2 0 3.9-1.4.7-1.5.1-3.1-1.4-3.7zm5.9-3.9c-1.5-.6-3.2 0-3.9 1.4-.7 1.4 0 3 1.4 3.7 1.5.6 3.2 0 3.9-1.4.7-1.4.1-3.1-1.4-3.7zm7.6 1.5c-1.5-.6-3.2 0-3.9 1.4-.7 1.4 0 3 1.4 3.7 1.5.6 3.2 0 3.9-1.4.7-1.4 0-3-1.4-3.7zm3.1-4.5c-1-.4-2.1 0-2.5.9-.4.9 0 2 1 2.4s2.1 0 2.5-.9c.4-1 0-2-1-2.4zm-19.3-1.5c-1.2-.5-2.7 0-3.3 1.2-.6 1.2 0 2.6 1.2 3.1s2.7 0 3.3-1.2c.6-1.2.1-2.6-1.2-3.1zm13.5-.1c-1.2-.5-2.7 0-3.3 1.2-.6 1.2 0 2.6 1.2 3.1s2.7 0 3.3-1.2c.6-1.1.1-2.5-1.2-3.1zm-7.9.4c-.7-.3-1.4 0-1.7.6-.3.6 0 1.4.6 1.6.7.3 1.4 0 1.7-.6.3-.6.1-1.3-.6-1.6zm4.6-10.5c-1-.4-2.2 0-2.7.9-.5 1 0 2.1 1 2.5 1 .4 2.2 0 2.7-.9.4-1 0-2.1-1-2.5zm-1 22.3c-1-.4-2.2 0-2.7.9-.5 1 0 2.1 1 2.5 1 .4 2.2 0 2.7-.9s0-2-1-2.5zm-13.4-2.2c-1-.4-2.2 0-2.7.9-.5 1 0 2.1 1 2.5s2.2 0 2.7-.9 0-2.1-1-2.5zm-.9-5.3c-.8-.3-1.7 0-2 .7-.3.7 0 1.6.8 1.9.8.3 1.7 0 2-.7.3-.7-.1-1.5-.8-1.9z"/><path class="st0" d="M642.6 334.4c.1 0 .1 0 0 0 .1 0 .1 0 0 0-.2-.4-.4-.9-.7-1.3-.5-.9-1.2-1.8-1.8-2.6l-.2-.2c-.7-.9-1.5-1.6-2.3-2.4-.4-.4-.9-.8-1.4-1.1-.8-.6-1.7-1.2-2.6-1.7-1.2-.6-2.4-1.2-3.7-1.6-.1 0-.2-.1-.4-.1-.1 0-.1 0-.2-.1-.2-.1-.4-.1-.6-.2-.2 0-.3-.1-.5-.1 0-.2 0-.4-.1-.7-.1-1.4-.5-3.4-1-3.9-1.4-1.6-7.7-.5-9.8-.3v3.7c0 .4-.1.8-.1 1.2-3.2.7-6 2.1-8.5 4-.5.4-1.1.9-1.6 1.3-.1.1-.2.2-.3.2l.1-.1c-.1.1-.3.2-.4.4-.9.9-1.8 1.9-2.5 3-.6.8-1.1 1.6-1.5 2.5-1.2 2.4-2 5-2.1 7.7 0 .6-.1 1.3 0 1.9 0 .7.1 1.4.2 2 .1.6.2 1.3.4 1.9l.3 1.2c.2.7.5 1.4.7 2 1.7 4 4.6 7.4 8.4 9.7.3.2.6.4.9.5.1.1.3.2.4.2 3.4 1.8 7.3 2.8 11.5 2.7.6 0 1.1-.1 1.7-.1h.4c.2 0 .5-.1.7-.1.8-.1 1.6-.3 2.4-.5l.9-.3c9.1-2.8 15.6-11 15.3-20.6 0-2.8-.7-5.6-2-8.1zM644.1 348.3s0-.1 0 0c0-.1 0-.1 0 0 0-.1 0 0 0 0zM604.2 331.7z"/><path class="st3" d="M600.6 343.9c0 .6.1 1.1.1 1.7.4-.5.7-1.1.7-1.7 0-.7-.3-1.3-.8-1.7 0 .5-.1 1.1 0 1.7zM639.3 355.6c-1.3.1-2.6.3-4 .4-1.3.1-2.5.2-3.8.3-3.3.2-6.6.4-9.9.5h-1c-2.1 0-4.2-.1-6.3-.2-.6 0-1.2-.1-1.7-.1-2.4-.1-4.8-.2-7.1-.2 1 1.2 2.2 2.2 3.4 3.2 1.1.8 2.3 1.6 3.5 2.2h.3c.9-.1 1.8-.1 2.7-.1 1.9-.1 3.8-.1 5.8 0h12.3c2.7-1.4 5-3.4 6.9-5.7l.3-.3c-.6-.1-1 0-1.4 0zm-17.7 5.7zM639.9 340.3h-.5-.1c-1.4.1-2.5 1.2-2.4 2.5 0 1.4 1.3 2.4 2.7 2.4.5 0 1-.2 1.4-.4l.1-.1c.6-.5 1.1-1.2 1-2-.1-1.2-1.1-2.2-2.2-2.4zM606.5 341.2c-.9 0-1.6.4-2.1 1.1-.3.4-.5.9-.5 1.5 0 .7.4 1.4 1 1.8.2.2.4.3.7.4.3.1.7.2 1.1.2.8 0 1.5-.4 2-1 .4-.4.6-1 .5-1.6 0-1.3-1.2-2.4-2.7-2.4zM643.5 348.3c-.1 0-.1 0 0 0-1.3.2-2.6.3-3.8.4h-.1c-.4 0-.8.1-1.1.1h-.3c-.2 0-.4 0-.5.1-.4 0-.8.1-1.2.1-1.4.1-2.7.3-4.1.4-3.5.3-7.1.5-10.8.5-3.1.1-6.3-.1-9.4-.3-.8 0-1.5-.1-2.2-.1h-.5c-.7 0-1.4 0-2.1-.1h-1.6c-1.3 0-2.6 0-3.8.1h-.1c.3.8.6 1.6 1 2.4.5 1.1 1.2 2.1 1.9 3.1 2.7.1 5.4-.1 8.1-.3.7 0 1.4-.1 2.1-.1h.9c5-.1 10.7.1 16.4-.1 1.1 0 2.1-.1 3.2-.2 1-.1 1.9-.2 2.9-.3.2 0 .4 0 .6-.1.2 0 .5-.1.7-.1.8-.1 1.6-.2 2.4-.4 1-1.6 1.7-3.3 2.2-5 0-.2.1-.3.1-.5-.5.3-.7.4-.9.4zM617.6 342.9c-.2-.9-1-1.6-1.9-1.9-.2-.1-.4-.1-.7-.1-1.4 0-2.6 1.2-2.5 2.6 0 .7.4 1.4 1 1.8.5.4 1.1.6 1.7.6 1 0 1.9-.6 2.3-1.5.2-.3.2-.7.2-1.1-.1-.1-.1-.2-.1-.4zM633.9 342c-.4-.8-1.1-1.4-2.1-1.5h-.4-.1c-.2 0-.4 0-.6.1-.8.2-1.4.7-1.7 1.4-.1.3-.2.7-.2 1.1 0 .3.1.6.2.8.1.2.2.3.3.5.2.2.4.5.7.6.4.3 1 .5 1.6.5 1.4 0 2.6-1.2 2.5-2.6 0-.3 0-.6-.2-.9zM622.8 340.7h-.3c-1.3.2-2.3 1.2-2.3 2.5 0 .2.1.4.1.6.1.4.3.7.6 1 .1.1.2.2.3.2.4.3 1 .5 1.5.5h.1c1.4 0 2.6-1.2 2.5-2.6 0-.5-.2-1-.5-1.4-.3-.4-1.1-.8-2-.8zM637.9 328.1c-1-.9-2.1-1.8-3.3-2.5-.4 0-.8.1-1.2.1h-.5c-1.8.2-3.7.3-5.5.4-.4 0-.7 0-1.1.1-2.1.1-4.3.2-6.5.3-2.2 0-4.4 0-6.6-.1-.7 0-1.4-.1-2.2-.1h-1.1l-.1.1c-.3.2-.6.4-.9.7-.5.4-1 .8-1.5 1.3-.1.1-.2.2-.3.2-1 1-2 2-2.8 3.2 1.1 0 2.1-.1 3.2-.1.6 0 1.3-.1 1.9-.1.5 0 1-.1 1.4-.1.9 0 1.8-.1 2.7-.1 2.5-.1 5.2 0 8 0H628.8c3.8-.1 7.7-.3 11.3-1-.8-.9-1.5-1.6-2.2-2.3zM642.7 334.5s-1-1.9-1.6-2.7l-5.4.6c-.7.1-1.4.1-2.1.2-1.3.1-2.7.2-4 .3-.6 0-1.2.1-1.7.1-.3 0-.6 0-1 .1-.4 0-.9.1-1.3.1-1.9.1-3.7.2-5.6.2-3.3.1-6.6-.1-9.9-.3h-3.2-3.5c-.3.5-.6 1-.8 1.6-.1.3-.2.5-.4.8 0 .1-.1.2-.1.3-.4.9-.7 1.9-.9 2.9 2.5.2 5 .1 7.5-.1.4 0 .7 0 1.1-.1.6 0 1.2-.1 1.8-.1H630.1c2.2-.1 4.5-.2 6.7-.4h.3c.9-.1 1.8-.2 2.7-.4 1.3-.2 2.6-.5 3.8-.9-.3-1-.6-1.6-.9-2.2z"/><path class="st0" d="M489.2 611.2c-.1-.6-.3-1.2-.4-1.7-.1-.3-.2-.5-.3-.8l-.6-1.5c-.6-1.3-1.3-2.5-2.1-3.6-.6-.9-1.4-1.7-2.2-2.4-.1-.1-.2-.2-.4-.3.1-.2.2-.4.3-.7.5-1.2 1.1-2.8 1-3.5 0-.2-.2-.4-.3-.6-.1-.2-.3-.3-.5-.5s-.5-.4-.7-.5c-.2-.1-.3-.2-.5-.3-.3-.2-.6-.3-.9-.5-1.1-.5-2.3-1-3.4-1.4-.2-.1-.3-.1-.5-.2-.4-.2-.8-.3-1-.4-.4.9-1 1.8-1.5 2.7-.3.4-.5.8-.8 1.2-.3-.1-.6-.1-.9-.2-1.8-.4-3.5-.5-5.3-.4h-.4c-.5 0-1.1.1-1.6.2-.4.1-.7.1-1.1.2-2.2.4-4.4 1.2-6.3 2.3-.2.1-.5.3-.7.4-.1.1-.2.1-.3.2-.4.3-.9.6-1.3.9-.1.1-.2.2-.3.2-.4.3-.8.7-1.2 1.1l-1.5 1.5-.1.1c-.9 1-1.7 2.2-2.3 3.4-.2.4-.4.9-.6 1.3-.1.2-.1.3-.2.5l-.3.9c0 .1-.1.2-.1.3-.3.9-.5 1.8-.7 2.7 0 .2-.1.3-.1.5s-.1.4-.1.6c0 .4-.1.7-.1 1.1v2.1c0 .4.1.7.1 1.1 0 .1 0 .3.1.4.1.6.2 1.3.4 1.9v.2c0 .2.1.3.1.5.1.3.2.5.3.8.4 1 .8 2 1.4 3 1.9 3.4 4.9 6.3 8.7 8.1.3.2.6.3 1 .4.1 0 .1.1.2.1.2.1.4.2.6.2.1 0 .2.1.4.1.1 0 .3.1.4.1.1 0 .2.1.4.1.3.1.6.2 1 .3 2.8.7 5.6.9 8.4.5.2 0 .4 0 .5-.1.4-.1.8-.1 1.1-.2 1.1-.2 2.1-.6 3.1-1 4-1.6 7.6-4.4 9.9-8.3 0 0 0-.1.1-.1.1-.2.3-.5.4-.7.1-.3.3-.6.4-.8.1-.1.1-.3.2-.4.2-.4.3-.8.5-1.2.2-.4.3-.9.4-1.3.1-.3.2-.6.2-.9.1-.3.1-.5.2-.8v-.3c0-.2.1-.3.1-.5.1-.4.1-.8.1-1.2 0-1.5-.1-3.2-.4-4.9z"/><path class="st3" d="M467.7 603.9l1.9-.7.4-1.9 1.3 1.5 2-.2-1 1.6.8 1.7-2-.4-1.5 1.3-.2-1.9-1.7-1zm.4 7.6l2.2-.9-2.2-1.1-.3-2.3-1.8 1.6-2.4-.5 1.1 2.1-1.2 2 2.4-.3 1.6 1.7.6-2.3zm13.2 3.8l2.3 2.9 1-3.5 3.6-1.2-3.2-2-.1-3.6-3 2.3-3.7-1 1.4 3.4-2.2 3 3.9-.3zm-1-10.8l1.3-.2-.9-.8.2-1.2-1.1.6-1.1-.6.2 1.2-.9.8 1.3.2.6 1.1.4-1.1zm-21.1-.5l1-.1-.7-.6.2-.9-.9.4-.8-.4.2.9-.7.6 1 .1.4.8.3-.8zm10.8 25.7l.5 3.3 2.4-2.4 3.4.5-1.6-2.9 1.6-2.9-3.4.6-2.4-2.3-.5 3.3-3.1 1.5 3.1 1.3zm-.1-10.3l.8.3-.3-.8.5-.7h-.9l-.5-.7-.3.8-.8.2.7.5v.8l.8-.4zm-13.9 3.2l1-.5-1.1-.5-.2-1.1-.8.8-1.2-.1.6 1-.5 1 1.1-.2.8.8.3-1.2zm7.1-.1l1.4 1.3.2-1.8 1.7-.8-1.8-.8-.3-1.8-1.3 1.3-1.9-.3.9 1.6-.9 1.6 2-.3zm-5.7-9l2.6-1.3-2.6-1.2-.5-2.7-2 2-2.9-.4 1.4 2.4-1.3 2.5 2.9-.5 2.1 2 .3-2.8zm25.4 11l.8.3-.3-.8.5-.7h-.9l-.5-.7-.3.8-.8.2.7.5v.8l.8-.4zm-7.2-3.7l1-.4-.9-.5-.1-1-.8.7-1-.2.4.9-.5.9 1-.1.7.7.2-1zm-2.2-9l.3 1.8 1.3-1.3 1.9.3-.9-1.6.9-1.6-1.9.3-1.3-1.3-.3 1.8-1.7.8 1.7.8zm1.5-13.4l1.2-.5-1.1-.6-.1-1.2-.9.8-1.2-.3.5 1.1-.7 1 1.3-.1.8.9.2-1.1zm-8.9 3l.8.8.1-1.1 1-.5-1.1-.5-.2-1.1-.8.8-1.2-.2.6 1-.5 1 1.3-.2z"/><path class="st0" d="M574.9 646.3c-.4-2.5-1.5-4.8-2.9-6.8-.1-.1-.2-.2-.3-.4l-.2-.2c-.2-.2-.3-.4-.5-.5l-.1-.1-.9-.9c-.3-.2-.5-.5-.8-.7 0 0-.1 0-.1-.1-.3-.3-.6-.5-1-.7-.1-.1-.2-.1-.3-.2h-.1c-.1 0-.1-.1-.2-.1-.2-.1-.4-.2-.5-.3-.1-.1-.2-.1-.4-.2l-.6-.3s-.1 0-.1-.1c-1.7-.8-3.5-1.4-5.4-1.6 0-.1-.1-.2-.1-.4-.1-.4-.2-.8-.3-1.3-.2-.8-.5-1.5-.8-1.7-.3-.3-1-.4-1.7-.4h-.7c-.5 0-1 .1-1.6.2-1.4.3-2.7.6-3.5.8.3 1.1.4 2.5.4 3.7-1.3.5-2.5 1.1-3.6 1.8-.8.5-1.6 1.2-2.3 1.8l-.1.1c-.9.9-1.7 1.9-2.4 3-.5.7-.9 1.5-1.2 2.3-1.1 2.5-1.5 5.4-1 8.3.6 3.8 2.7 7.1 5.5 9.5l.1.1c.1.1.3.2.4.3l.3.3.1.1c.3.2.5.3.8.5.1 0 .2.1.2.1l.1.1c.1.1.2.1.3.2 0 0 .1 0 .1.1.8.4 1.6.8 2.4 1.1l.9.3c.6.2 1.2.3 1.8.4 1.1.2 2.2.3 3.4.3h1.1c.5 0 .9-.1 1.4-.1.6-.1 1.1-.2 1.7-.3.1 0 .2-.1.3-.1.4-.1.8-.2 1.2-.4.2-.1.3-.1.5-.2.1 0 .1 0 .2-.1h.1s.1 0 .1-.1h.1c.1 0 .2-.1.3-.1h.1c.2-.1.3-.1.5-.2.4-.2.9-.4 1.3-.7.5-.3 1-.6 1.4-.9.1-.1.3-.2.4-.3.1-.1.2-.2.3-.2.3-.3.7-.6 1-.9l.2-.2.3-.3.2-.2.2-.2c.2-.3.5-.5.7-.8.8-1.1 1.5-2.2 2-3.5.3-.6.5-1.2.6-1.8 1-2.3 1.1-4.5.7-6.8z"/><path class="st3" d="M555.3 641.9c.3 1.8-1 3.4-2.8 3.7-1.9.3-3.6-.9-3.9-2.7-.3-1.8 1-3.4 2.8-3.7 1.9-.3 3.7.9 3.9 2.7zm6.3-6.6c-1.6.2-2.7 1.6-2.4 3.2.2 1.5 1.7 2.5 3.3 2.3s2.7-1.6 2.4-3.2c-.3-1.5-1.8-2.5-3.3-2.3zm-16 10.4c-1.6.2-2.7 1.6-2.4 3.2.2 1.5 1.7 2.5 3.3 2.3 1.6-.2 2.7-1.6 2.4-3.2-.2-1.5-1.7-2.5-3.3-2.3zm14 8.5c-1.6.2-2.7 1.6-2.4 3.2.2 1.5 1.7 2.5 3.3 2.3 1.6-.2 2.7-1.6 2.4-3.2s-1.7-2.5-3.3-2.3zm2.7-6.3c-1.6.2-2.7 1.6-2.4 3.2.2 1.5 1.7 2.5 3.3 2.3 1.6-.2 2.7-1.6 2.4-3.2-.2-1.5-1.7-2.5-3.3-2.3zm7.2-2.7c-1.6.2-2.7 1.6-2.4 3.2.2 1.5 1.7 2.5 3.3 2.3s2.7-1.6 2.4-3.2c-.2-1.5-1.7-2.5-3.3-2.3zm0-5.4c-1 .2-1.8 1.1-1.6 2.1.2 1 1.1 1.7 2.2 1.5 1-.2 1.8-1.1 1.6-2.1-.2-1-1.2-1.7-2.2-1.5zm-17 8.8c-1.4.2-2.3 1.4-2.1 2.7.2 1.3 1.5 2.2 2.8 2 1.4-.2 2.3-1.4 2.1-2.7-.2-1.3-1.5-2.2-2.8-2zm11.2-7.1c-1.4.2-2.3 1.4-2.1 2.7.2 1.3 1.5 2.2 2.8 2s2.3-1.4 2.1-2.7c-.1-1.3-1.4-2.2-2.8-2zm-6.3 4.5c-.7.1-1.2.7-1.1 1.4s.8 1.1 1.5 1c.7-.1 1.2-.7 1.1-1.4s-.8-1.1-1.5-1zm-2.3-11.2c-1.1.2-1.8 1.1-1.7 2.2.2 1 1.2 1.7 2.3 1.6 1.1-.2 1.8-1.1 1.7-2.2s-1.2-1.8-2.3-1.6zm12.1 19.1c-1.1.2-1.8 1.1-1.7 2.2.2 1 1.2 1.7 2.3 1.6 1.1-.2 1.8-1.1 1.7-2.2-.1-1-1.2-1.7-2.3-1.6zm-12.4 5.2c-1.1.2-1.8 1.1-1.7 2.2.2 1 1.2 1.7 2.3 1.6 1.1-.2 1.8-1.1 1.7-2.2-.2-1.1-1.3-1.8-2.3-1.6zm-3.9-3.9c-.8.1-1.4.9-1.3 1.7.1.8.9 1.3 1.7 1.2.8-.1 1.4-.9 1.3-1.7-.1-.8-.9-1.3-1.7-1.2z"/><path class="st0" d="M521.7 674.3c-.3-1.3-.7-2.7-1.2-3.9 0-.1-.1-.2-.1-.3-.6-1.3-1.2-2.6-2-3.8-.4-.6-.8-1.3-1.3-1.9-.8-1.1-1.7-2.1-2.6-3-1.2-1.2-2.6-2.4-4-3.4-.1-.1-.3-.2-.4-.3-.1 0-.1-.1-.2-.1-.2-.1-.4-.3-.7-.4-.2-.1-.4-.3-.6-.4.1-.2.1-.6.2-.9.4-1.8.7-4.4.4-5.3-1.2-2.5-9.5-3.3-12.1-3.9-.1.2-.1.5-.2.7-.2.9-.5 1.8-.8 2.7-.1.4-.3.7-.4 1.1l-.6 1.5c-4.2-.2-8.4.5-12.2 2-1.2.4-2.3 1-3.3 1.5-1.5.8-3 1.8-4.3 2.8-1 .8-2 1.7-2.9 2.6-2.4 2.5-4.4 5.5-5.7 8.9-.3.8-.6 1.6-.8 2.4-.2.9-.4 1.7-.6 2.6-.1.8-.2 1.7-.3 2.5 0 .5-.1 1.1-.1 1.6 0 .9 0 1.9.1 2.8.5 5.6 2.9 10.8 6.6 15.1.3.3.6.7.9 1l.4.4c3.5 3.5 8.1 6.1 13.3 7.4.7.2 1.4.3 2.1.4.2 0 .4.1.6.1.3.1.6.1 1 .1 1 .1 2.1.2 3.1.2h1.3c12.5-.3 23.8-8.3 27.2-20.3 1.1-4 1.1-8.4.2-12.5z"/><path class="st3" d="M504.4 700.7l-4.8-.9c-4.2-.9-8.4-1.8-12.6-2.9-.4-.1-.8-.2-1.3-.4-2.6-.7-5.2-1.6-7.8-2.4-.7-.2-1.4-.5-2.1-.7-2.9-1-5.9-2-8.8-2.8.8 1.8 1.8 3.6 3 5.2 1 1.4 2.2 2.8 3.5 4 .1 0 .2.1.4.1 1.2.3 2.3.5 3.5.8 2.3.6 4.8 1.3 7.3 2 1.1.3 2.2.7 3.4 1 .4.1.7.2 1.1.3 1.4.4 2.7.8 4.1 1.2.4.1.9.2 1.3.4.9.2 1.7.5 2.6.7.1 0 .2.1.4.1.2.1.5.1.7.2.6.1 1.2.3 1.8.4 3.9-.8 7.6-2.4 10.8-4.7.1-.1.3-.2.4-.3-.5-.1-1.1-.2-1.6-.3-1.9-.4-3.6-.7-5.3-1zM466.7 673.4c.2-.8.1-1.7-.3-2.4-.3.7-.5 1.4-.7 2.1-.2.7-.4 1.5-.5 2.2.7-.4 1.2-1 1.5-1.9zM517.6 693.9c-.1 0-.1 0 0 0-1.7-.3-3.3-.6-5-.8h-.2c-.5-.1-1-.2-1.5-.2-.1 0-.2 0-.4-.1-.2 0-.5-.1-.7-.1-.5-.1-1.1-.2-1.6-.3-1.7-.3-3.5-.6-5.2-1-4.5-.9-9.1-1.9-13.7-3.1-3.9-1-7.8-2.3-11.7-3.6-.9-.3-1.8-.6-2.8-.9-.2-.1-.4-.1-.6-.2-.9-.3-1.8-.6-2.7-.8-.7-.2-1.3-.4-2-.6-1.6-.5-3.2-.9-4.8-1.2l-.1-.1c0 1.1.1 2.3.3 3.4.2 1.6.6 3.1 1.1 4.6 3.3 1 6.8 1.7 10.2 2.5l2.7.6c.2.1.4.1.6.1.2 0 .3.1.5.1 6.3 1.6 13.4 4 20.5 5.7 1.3.3 2.7.6 4 .9 1.2.3 2.5.5 3.7.7.3 0 .6.1.8.1.3 0 .6.1 1 .1 1 .1 2.1.3 3.1.4 1.8-1.6 3.4-3.5 4.7-5.5.1-.2.2-.3.3-.5 0-.1-.3-.2-.5-.2zM516.2 682.6c-.2-.1-.4-.2-.7-.2h-.1c-1.8-.4-3.6.6-4 2.3-.5 1.7.6 3.5 2.4 4 .6.2 1.3.1 1.9 0 .1 0 .1 0 .2-.1 1-.4 1.8-1.1 2.1-2.2.4-1.6-.4-3.1-1.8-3.8zM479 660.2l2.4.6c.6.1 1.2.3 1.8.4 1.2.3 2.3.5 3.4.8 3.2.8 6.5 1.8 10 2.8.2.1.4.1.6.2.6.2 1.2.4 1.8.5.6.2 1.1.3 1.7.5l1.2.3c.5.1.9.3 1.4.4.8.2 1.6.4 2.5.7 4.8 1.3 9.7 2.3 14.5 2.8-.5-1.2-1.1-2.4-1.8-3.5-.9-1.5-2-3-3.2-4.3-.5-.1-1-.2-1.6-.3-.1 0-.2 0-.3-.1-.1 0-.3-.1-.4-.1-2.4-.4-4.7-.9-7.1-1.4-.5-.1-.9-.2-1.4-.3-2.7-.6-5.4-1.2-8.2-2-2.8-.7-5.5-1.6-8.2-2.5l-2.7-.9c-.1 0-.2-.1-.3-.1-.4-.1-.7-.2-1.1-.4-.1 0-.1 0-.2.1-.5.2-.9.3-1.4.5-.8.3-1.6.7-2.4 1.1-.1.1-.3.1-.4.2-1.7.9-3.2 1.9-4.7 3 1.4.4 2.8.7 4.1 1zM471.2 672.6c-.6.4-1 1-1.2 1.7-.3.9-.1 1.9.5 2.6.2.3.4.5.7.7.4.3.8.5 1.3.6 1 .3 2.1 0 2.9-.5.6-.4 1.1-1 1.3-1.8.5-1.7-.6-3.5-2.4-4-1.2-.2-2.3.1-3.1.7zM494.7 677.1c-.1 0-.2 0-.3-.1-1.7-.3-3.4.7-3.8 2.3-.1.3-.1.6-.1.9 0 .5.1 1 .4 1.5.1.1.2.3.3.4.4.5 1 1 1.7 1.2.1 0 .1 0 .2.1 1.8.5 3.7-.6 4.2-2.3.2-.6.1-1.3-.1-1.9-.5-1-1.4-1.8-2.5-2.1zM484.8 674.6c-1.8-.5-3.7.6-4.2 2.3-.3.9-.1 1.9.5 2.6.4.6 1.1 1.1 1.9 1.3 1.3.3 2.6-.1 3.4-1 .3-.4.6-.8.7-1.3.1-.2.1-.4.1-.6.1-1.2-.6-2.4-1.7-3-.1-.1-.4-.2-.7-.3zM506.1 680.1c-.1-.1-.3-.1-.4-.2h-.1c-.2-.1-.5-.1-.7-.1-1.1 0-2.1.4-2.7 1.2-.3.4-.6.8-.7 1.2-.1.4-.1.7-.1 1.1 0 .2.1.5.1.7.1.4.3.7.6 1 .4.5 1.1.9 1.8 1.1 1.8.5 3.7-.6 4.2-2.3.1-.4.1-.8.1-1.2-.2-1.1-.9-2.1-2.1-2.5zM479.3 669.5c.8.2 1.5.3 2.3.5.2.1.5.1.7.2.2 0 .3.1.5.1.5.1 1 .2 1.4.3 1.2.3 2.5.6 3.8 1 2.4.7 4.8 1.4 7.3 2.1.9.3 1.8.5 2.7.8 1.3.4 2.7.8 4 1.1.9.2 1.8.5 2.7.7 2.8.7 5.7 1.3 8.5 1.8.1 0 .3 0 .4.1 1.2.2 2.4.3 3.6.5 1.7.2 3.4.3 5.1.3 0-.9-.1-1.8-.3-2.7v-.1c-.2-1.3-.5-2.6-.9-3.9-2.3-.4-4.7-.8-7-1.2-.9-.2-1.8-.3-2.7-.5-1.7-.3-3.4-.6-5.1-1-.7-.2-1.5-.3-2.2-.5l-1.2-.3c-.6-.1-1.1-.2-1.7-.4-2.4-.5-4.7-1.1-7.1-1.7-4.1-1.1-8.2-2.5-12.3-3.9-.5-.2-.9-.3-1.4-.5-.3-.1-.7-.2-1-.3-.5-.2-1-.3-1.5-.5h-.1c-.1 0-.3-.1-.4-.1-1-.3-2.1-.6-3.1-.9-.2-.1-.4-.1-.6-.2-.6.5-1.1 1.1-1.7 1.7-.3.3-.5.6-.8.9l-.3.3c-.8 1-1.6 2.1-2.3 3.3 3 1.1 6.3 1.9 9.4 2.6.4.2.9.3 1.3.4z"/><path class="st0" d="M515.7 512.4c0-.3 0-.6-.1-1 0-.3 0-.5-.1-.8v-.3c0-.2 0-.3-.1-.5-.1-.4-.1-.8-.2-1.2-.4-1.7-1-3.2-1.8-4.7-.3-.5-.6-1-1-1.6-.2-.2-.3-.5-.5-.7-.3-.4-.7-.8-1-1.2-.9-1-2-2-3.1-2.8-.9-.6-1.8-1.2-2.8-1.7-.2-.1-.3-.2-.5-.2 0-.2.1-.5.1-.8.1-1.3.2-3-.1-3.6-.1-.2-.3-.3-.5-.5l-.6-.3c-.3-.1-.5-.2-.9-.3-.2-.1-.4-.1-.6-.2-.3-.1-.7-.1-1-.2-1.2-.2-2.6-.3-3.6-.4h-.5c-.4 0-.8-.1-1.1-.1-.1 1-.4 2-.7 3-.1.5-.3.9-.4 1.4h-.9c-1.8.1-3.5.5-5.2 1-.1 0-.2.1-.4.1l-1.5.6c-.3.1-.7.3-1 .5-2 1-3.8 2.3-5.4 3.9l-.6.6c-.1.1-.2.2-.2.3-.3.4-.7.8-1 1.2-.1.1-.1.2-.2.3-.3.4-.6.9-.9 1.3-.4.6-.7 1.2-1 1.9v.1c-.5 1.2-.9 2.5-1.2 3.9-.1.5-.2 1-.2 1.4 0 .2 0 .3-.1.5 0 .3 0 .6-.1.9v.3c0 .9 0 1.9.2 2.8 0 .2.1.3.1.5s.1.4.1.6c.1.3.1.7.2 1 .1.5.3 1 .4 1.5.1.2.1.4.2.6.1.3.3.7.4 1 .1.1.1.3.2.4.3.6.6 1.1.9 1.7 0 .1.1.1.1.2.1.1.2.3.3.4.2.2.3.5.5.7.7.9 1.4 1.7 2.2 2.5 2.8 2.7 6.6 4.7 10.8 5.4.4.1.7.1 1.1.2h.2c.2 0 .4 0 .6.1h2.2c2.9-.1 5.7-.7 8.2-1.8.2-.1.3-.1.5-.2.3-.2.7-.3 1-.5.9-.5 1.8-1.1 2.7-1.8 3.4-2.6 5.9-6.3 7-10.6v-.1c.1-.3.1-.5.2-.8.1-.3.1-.6.1-.9 0-.1 0-.3.1-.4 0-.4.1-.8.1-1.3.4-.3.4-.8.4-1.3 0 .1 0 0 0 0z"/><path class="st3" d="M490.6 502.9l1.6-1.2-.2-1.9 1.7 1 1.9-.7-.5 1.9 1.3 1.4-2 .1-1 1.6-.7-1.8-2.1-.4zm2.7 7.2l1.9-1.5-2.4-.5-.9-2.1-1.2 2-2.4.2 1.6 1.7-.6 2.3 2.2-1 2.1 1.2-.3-2.3zm13.7 0l3.1 2.1-.1-3.6 3.1-2.1-3.7-1-1.2-3.4-2.1 3h-3.8l2.3 2.9-1.2 3.4 3.6-1.3zm-4.1-10l1.2-.5-1.1-.6-.1-1.2-.9.8-1.2-.2.6 1.1-.6 1 1.3-.2.9.9-.1-1.1zm-20.4 5.2l.9-.4-.8-.4-.1-.9-.7.6-.9-.2.4.8-.5.8 1-.1.6.7.1-.9zm18.1 21.6l1.5 3 1.6-2.9 3.5-.4-2.4-2.3.6-3.2-3.1 1.5-3.1-1.6.5 3.3-2.5 2.3 3.4.3zm-3.2-9.8h.9l-.5-.7.3-.8-.8.2-.7-.5v.8l-.7.5.8.3.2.8.5-.6zM485 524l.8-.8-1.2-.1-.5-1-.5 1-1.2.2.8.8-.2 1.1 1-.5 1 .5V524zm6.8-2.1l1.7.9-.3-1.8 1.4-1.3-1.9-.3-.8-1.7-.9 1.6-1.9.3 1.4 1.3-.3 1.8 1.6-.8zm-8.2-7l2.1-1.9-2.9-.4-1.3-2.5-1.3 2.5-2.9.4 2.1 2-.5 2.7 2.6-1.3 2.6 1.3-.5-2.8zm27.7 3.7h.9l-.5-.7.3-.8-.8.2-.7-.5v.8l-.7.5.8.3.2.8.5-.6zm-8-1.6l.8-.6-1-.2-.4-.9-.5.9-1 .1.7.7-.3 1 1-.4.9.5-.2-1.1zm-4.8-8.1l.8 1.6.9-1.6 1.9-.2-1.3-1.3.4-1.8-1.7.8-1.7-.9.3 1.8-1.4 1.2 1.8.4zm-2.7-13.3l1-.8-1.2-.3-.5-1.1-.7 1-1.3.1.8.9-.3 1.2 1.2-.5 1.1.7-.1-1.2zm-7.6 5.4l1 .5-.2-1.1.8-.8-1.2-.2-.5-1-.5 1-1.1.2.8.8-.2 1.1 1.1-.5z"/><path class="st0" d="M617.2 501.8c-.1-.1-.1-.3-.2-.4 0-.1-.1-.1-.1-.2-.1-.2-.2-.4-.4-.6v-.1c-.2-.4-.5-.7-.8-1.1-.2-.3-.5-.6-.7-.8 0 0 0-.1-.1-.1-.3-.3-.6-.6-.8-.9l-.2-.2-.1-.1-.2-.2c-.2-.1-.3-.3-.5-.4l-.3-.3c-.2-.1-.4-.3-.5-.4 0 0-.1 0-.1-.1-1.5-1-3.2-1.9-5.1-2.4v-.4c0-.4-.1-.9-.1-1.3-.1-.8-.3-1.5-.5-1.8-.3-.3-.9-.5-1.6-.6-.2 0-.5-.1-.7-.1h-1.6c-1.4.1-2.8.2-3.5.3.1 1.2 0 2.5-.2 3.7-1.3.3-2.6.7-3.8 1.3-.9.4-1.8.9-2.6 1.5l-.1.1c-1.1.7-2 1.6-2.9 2.6-.6.7-1.1 1.4-1.6 2.1-1.5 2.4-2.3 5.1-2.3 8.1 0 3.9 1.5 7.4 3.9 10.2l.1.1c.1.1.2.3.4.4l.3.3.1.1c.2.2.4.4.7.6l.2.2.1.1c.1.1.2.2.3.2l.1.1c.7.5 1.4 1 2.2 1.4.3.1.5.3.8.4.5.3 1.1.5 1.7.7 1.1.4 2.2.7 3.3.8h.1c.3 0 .7.1 1 .1.5 0 .9.1 1.4.1.6 0 1.1 0 1.7-.1h.3c.4 0 .8-.1 1.2-.2.2 0 .3-.1.5-.1h.5c.1 0 .2-.1.3-.1h.1c.2 0 .3-.1.5-.1.5-.1.9-.3 1.4-.5.5-.2 1-.5 1.6-.7.2-.1.3-.2.5-.3.1-.1.2-.1.3-.2.4-.2.8-.5 1.1-.7.1 0 .1-.1.2-.2s.2-.2.3-.2l.2-.2c.1 0 .1-.1.2-.1.3-.2.6-.5.8-.7 1-.9 1.9-2 2.6-3.1.3-.5.7-1.1.9-1.7.9-2 1.5-4.2 1.5-6.5 0-2.8-.7-5.2-1.8-7.3z"/><path class="st3" d="M600.3 501.6c0 1.8-1.5 3.2-3.4 3.2s-3.4-1.4-3.4-3.2c0-1.8 1.5-3.2 3.4-3.2s3.4 1.4 3.4 3.2zm7.2-5.5c-1.6 0-2.9 1.2-2.9 2.8 0 1.5 1.3 2.8 2.9 2.8 1.6 0 2.9-1.2 2.9-2.8.1-1.6-1.2-2.8-2.9-2.8zm-17.4 7.9c-1.6 0-2.9 1.2-2.9 2.8s1.3 2.8 2.9 2.8c1.6 0 2.9-1.2 2.9-2.8s-1.3-2.8-2.9-2.8zm12.4 10.4c-1.6 0-2.9 1.2-2.9 2.8 0 1.5 1.3 2.8 2.9 2.8 1.6 0 2.9-1.2 2.9-2.8 0-1.5-1.3-2.8-2.9-2.8zm3.7-5.8c-1.6 0-2.9 1.2-2.9 2.8 0 1.5 1.3 2.8 2.9 2.8 1.6 0 2.9-1.2 2.9-2.8 0-1.6-1.3-2.8-2.9-2.8zm7.6-1.6c-1.6 0-2.9 1.2-2.9 2.8 0 1.5 1.3 2.8 2.9 2.8 1.6 0 2.9-1.2 2.9-2.8 0-1.5-1.3-2.8-2.9-2.8zm.8-5.4c-1.1 0-1.9.8-1.9 1.8s.9 1.8 1.9 1.8c1.1 0 1.9-.8 1.9-1.8.1-1-.8-1.8-1.9-1.8zm-18.2 6.2c-1.4 0-2.5 1.1-2.5 2.4 0 1.3 1.1 2.4 2.5 2.4s2.5-1.1 2.5-2.4c0-1.3-1.1-2.4-2.5-2.4zm12.3-5.3c-1.4 0-2.5 1.1-2.5 2.4s1.1 2.4 2.5 2.4 2.5-1.1 2.5-2.4-1.1-2.4-2.5-2.4zm-7 3.5c-.7 0-1.3.6-1.3 1.2 0 .7.6 1.2 1.3 1.2.7 0 1.3-.6 1.3-1.2 0-.7-.6-1.2-1.3-1.2zm-.5-11.4c-1.1 0-2 .9-2 1.9 0 1.1.9 1.9 2 1.9s2-.9 2-1.9c0-1.1-.9-1.9-2-1.9zm8.9 20.7c-1.1 0-2 .9-2 1.9 0 1.1.9 1.9 2 1.9s2-.9 2-1.9c0-1.1-.9-1.9-2-1.9zm-13.2 3.2c-1.1 0-2 .9-2 1.9 0 1.1.9 1.9 2 1.9s2-.9 2-1.9c0-1-.9-1.9-2-1.9zm-3.1-4.4c-.8 0-1.5.6-1.5 1.4 0 .8.7 1.4 1.5 1.4s1.5-.6 1.5-1.4c0-.7-.7-1.4-1.5-1.4z"/><path class="st0" d="M852.6 625.6c-.2-.9-.5-1.8-.8-2.7-1.1-3-2.8-5.8-5.2-8.2-2.7-2.7-5.9-4.7-9.3-5.9-.2-.1-.4-.1-.6-.2-.1 0-.2-.1-.3-.1-.3-.1-.7-.2-1-.3h-.1c-.6-.2-1.3-.3-1.9-.4-.5-.1-1.1-.2-1.6-.2h-.2c-.6-.1-1.2-.1-1.8-.1h-.5-2c-.3 0-.7.1-1 .1h-.2c-2.7.3-5.4 1-7.9 2.2l-.4-.4c-.4-.4-1-.8-1.5-1.3-.9-.7-1.9-1.4-2.4-1.4-.7-.1-1.5.2-2.4.8-.3.2-.5.4-.8.6-.6.4-1.1.9-1.7 1.5-1.4 1.4-2.8 2.9-3.5 3.6 1.3 1.2 2.6 2.7 3.6 4.1-1.1 1.5-2.1 3.2-2.8 4.9-.5 1.3-.9 2.6-1.2 3.9-.4 1.8-.5 3.7-.4 5.6.1 1.2.2 2.5.5 3.7.9 3.9 2.9 7.6 5.9 10.7 4 4.1 9.3 6.5 14.7 7.2h.3c.3 0 .5.1.8.1H830.5c1.3-.1 2.6-.3 3.9-.5.4-.1.9-.2 1.3-.3.8-.2 1.7-.5 2.5-.8 1.5-.6 3-1.3 4.4-2.2.1 0 .1-.1.2-.1.4-.3.8-.5 1.2-.8l1.5-1.2c.6-.5 1.2-1.1 1.7-1.7.1-.1.2-.2.3-.4.4-.4.8-.9 1.1-1.4.1-.2.3-.4.4-.6l.2-.2.1-.1c0-.1.1-.1.1-.2v-.1c.1-.1.2-.3.2-.4 0 0 0-.1.1-.1.1-.2.3-.4.4-.6.3-.6.7-1.2 1-1.8.3-.7.6-1.5.9-2.2.1-.2.2-.5.2-.7.1-.2.1-.3.1-.5.2-.6.3-1.2.4-1.8 0-.1 0-.2.1-.4 0-.2.1-.4.1-.5v-.4-.3c.1-.5.1-1 .1-1.5.1-2.2 0-4.1-.4-6z"/><path class="st3" d="M819.2 624.4c1.9 1.9 1.7 4.9-.3 6.6-2 1.8-5.1 1.7-7-.2-1.9-1.9-1.7-4.9.3-6.6 2-1.8 5.2-1.7 7 .2zm1.9-12.6c-1.7 1.5-1.8 4-.2 5.7 1.6 1.6 4.3 1.7 6 .2s1.8-4 .2-5.7-4.3-1.7-6-.2zm-10.3 24.7c-1.7 1.5-1.8 4-.2 5.7 1.6 1.6 4.3 1.7 6 .2 1.7-1.5 1.8-4 .2-5.7-1.6-1.6-4.3-1.7-6-.2zm24.1-.5c-1.7 1.5-1.8 4-.2 5.7 1.6 1.6 4.3 1.7 6 .2 1.7-1.5 1.8-4 .2-5.7-1.6-1.6-4.3-1.7-6-.2zm-2.2-9.7c-1.7 1.5-1.8 4-.2 5.7 1.6 1.6 4.3 1.7 6 .2s1.8-4 .2-5.7-4.3-1.7-6-.2zm6.4-8.7c-1.7 1.5-1.8 4-.2 5.7 1.6 1.6 4.3 1.7 6 .2s1.8-4 .2-5.7c-1.6-1.6-4.3-1.7-6-.2zm-4.7-6.6c-1.1 1-1.2 2.7-.1 3.7 1 1.1 2.8 1.1 3.9.1s1.2-2.7.1-3.7c-1-1-2.8-1.1-3.9-.1zm-12.9 23.7c-1.5 1.3-1.5 3.4-.2 4.8 1.4 1.4 3.6 1.5 5.1.2 1.5-1.3 1.5-3.4.2-4.8-1.4-1.4-3.6-1.5-5.1-.2zm7.5-17.2c-1.5 1.3-1.5 3.4-.2 4.8 1.4 1.4 3.6 1.5 5.1.2 1.5-1.3 1.5-3.4.2-4.8-1.4-1.4-3.6-1.5-5.1-.2zm-3.9 10.3c-.8.7-.8 1.8-.1 2.5.7.7 1.9.8 2.7.1.8-.7.8-1.8.1-2.5-.7-.7-1.9-.8-2.7-.1zm-12.3-11.7c-1.2 1-1.2 2.8-.2 3.9 1.1 1.1 2.9 1.2 4.1.1 1.2-1 1.2-2.8.2-3.9s-2.9-1.1-4.1-.1zm31 13.7c-1.2 1-1.2 2.8-.2 3.9 1.1 1.1 2.9 1.2 4.1.1 1.2-1 1.2-2.8.2-3.9s-2.9-1.1-4.1-.1zm-10.6 15.8c-1.2 1-1.2 2.8-.2 3.9 1.1 1.1 2.9 1.2 4.1.1 1.2-1 1.2-2.8.2-3.9-1.1-1.1-2.9-1.2-4.1-.1zm-8-1.8c-.9.8-.9 2.1-.1 3 .8.8 2.2.9 3.1.1s.9-2.1.1-3c-.8-.8-2.2-.8-3.1-.1z"/><path class="st0" d="M582.6 529.5c-.5-.9-1.1-1.8-1.8-2.6l-.2-.2c-.7-.9-1.5-1.6-2.3-2.4-.4-.4-.9-.8-1.4-1.1-.8-.6-1.7-1.2-2.6-1.7-1.2-.6-2.4-1.2-3.7-1.6-.1 0-.2-.1-.4-.1-.1 0-.1 0-.2-.1-.2-.1-.4-.1-.6-.2-.2 0-.3-.1-.5-.1 0-.2 0-.4-.1-.7-.1-1.4-.5-3.4-1-3.9-1.4-1.6-7.7-.5-9.8-.3v3.7c0 .4-.1.8-.1 1.2-3.2.7-6 2.1-8.5 4l-2.1 1.8c-.9.9-1.8 1.9-2.5 3-.6.8-1.1 1.6-1.5 2.5-1.2 2.4-2 5-2.1 7.7 0 .6-.1 1.3 0 1.9 0 .7.1 1.4.2 2 .1.6.2 1.3.4 1.9l.3 1.2c.2.7.5 1.4.7 2 1.7 4 4.6 7.4 8.4 9.7.3.2.6.4.9.5.1.1.3.2.4.2 3.4 1.8 7.3 2.8 11.5 2.7.6 0 1.1-.1 1.7-.1h.4c.2 0 .5-.1.7-.1.8-.1 1.6-.3 2.4-.5l.9-.3c9.1-2.8 15.6-11 15.3-20.6-.2-3.4-1.2-6.6-2.8-9.4z"/><g><path class="st3" d="M576 552.4c-1.3.1-2.5.2-3.8.3-3.3.2-6.6.4-9.9.5h-1c-2.1 0-4.2-.1-6.3-.2-.6 0-1.2-.1-1.7-.1-2.4-.1-4.8-.2-7.1-.2 1 1.2 2.2 2.2 3.4 3.2 1.1.8 2.3 1.6 3.5 2.2h.3c.9-.1 1.8-.1 2.7-.1 1.9-.1 3.8-.1 5.8 0h12.3c2.7-1.4 5-3.4 6.9-5.7l.3-.3c-.4 0-.8.1-1.2.1-1.6 0-2.9.2-4.2.3zM541.2 540.3c0 .6.1 1.1.1 1.7.4-.5.7-1.1.7-1.7s-.3-1.3-.8-1.7v1.7zM548 528c.6 0 1.3-.1 1.9-.1.5 0 1-.1 1.4-.1.9 0 1.8-.1 2.7-.1 2.5-.1 5.2 0 8 0H569.3c3.8-.1 7.7-.3 11.3-1-.6-.8-1.4-1.5-2.1-2.2-1-.9-2.1-1.8-3.3-2.5-.4 0-.8.1-1.2.1h-.5c-1.8.2-3.7.3-5.5.4-.4 0-.7 0-1.1.1-2.1.1-4.3.2-6.5.3-2.2 0-4.4 0-6.6-.1-.7 0-1.4-.1-2.2-.1h-1.1l-.1.1c-.3.2-.6.4-.9.7-.5.4-1 .8-1.5 1.3-.1.1-.2.2-.3.2-1 1-2 2-2.8 3.2 1-.1 2.1-.2 3.1-.2zM549.3 534.8c.4 0 .7 0 1.1-.1.6 0 1.2-.1 1.8-.1H570.7c2.2-.1 4.5-.2 6.7-.4h.3c.9-.1 1.8-.2 2.7-.4 1.3-.2 2.6-.5 3.8-.9-.2-.7-.5-1.3-.8-1.9v-.1c-.5-.9-1-1.8-1.5-2.6l-5.4.6c-.7.1-1.4.1-2.1.2-1.3.1-2.7.2-4 .3-.6 0-1.2.1-1.7.1-.3 0-.6 0-1 .1-.4 0-.9.1-1.3.1-1.9.1-3.7.2-5.6.2-3.3.1-6.6-.1-9.9-.3h-3.2-3.5c-.3.5-.6 1-.8 1.6-.1.3-.2.5-.4.8 0 .1-.1.2-.1.3-.4.9-.7 1.9-.9 2.9 2.2-.2 4.8-.3 7.3-.4zM547.2 537.6c-.9 0-1.6.4-2.1 1.1-.3.4-.5.9-.5 1.5 0 .7.4 1.4 1 1.8.2.2.4.3.7.4.3.1.7.2 1.1.2.8 0 1.5-.4 2-1 .4-.4.6-1 .5-1.6-.1-1.4-1.3-2.4-2.7-2.4zM580 536.6c-.1 0-.1 0 0 0-1.5.1-2.6 1.2-2.5 2.6 0 1.4 1.3 2.4 2.7 2.4.5 0 1-.2 1.4-.4l.1-.1c.6-.5 1.1-1.2 1-2 0-1.2-1-2.2-2.1-2.4-.3-.1-.5-.1-.6-.1zM563.4 537.1h-.3c-1.3.2-2.3 1.2-2.3 2.5 0 .2.1.4.1.6.1.4.3.7.6 1 .1.1.2.2.3.2.4.3 1 .5 1.5.5h.1c1.4 0 2.6-1.2 2.5-2.6 0-.5-.2-1-.5-1.4-.2-.4-1.1-.8-2-.8zM572.5 536.9h-.4-.1c-.2 0-.4 0-.6.1-.8.2-1.4.7-1.7 1.4-.1.3-.2.7-.2 1.1 0 .3.1.6.2.8.1.2.2.3.3.5.2.2.4.5.7.6.4.3 1 .5 1.6.5 1.4 0 2.6-1.2 2.5-2.6 0-.3-.1-.6-.2-.9-.4-.8-1.2-1.4-2.1-1.5zM584.7 544.6c-.2 0-.4 0-.6.1-1.3.2-2.5.3-3.8.4h-.2c-.4 0-.8.1-1.1.1h-.3c-.2 0-.4 0-.5.1-.4 0-.8.1-1.2.1-1.4.1-2.7.3-4.1.4-3.5.3-7.1.5-10.8.5-3.1.1-6.3-.1-9.4-.3-.8 0-1.5-.1-2.2-.1h-.5c-.7 0-1.4 0-2.1-.1h-1.6c-1.3 0-2.6 0-3.8.1h-.1c.3.8.6 1.6 1 2.4.5 1.1 1.2 2.1 1.9 3.1 2.7.1 5.4-.1 8.1-.3.7 0 1.4-.1 2.1-.1h.9c5-.1 10.7.1 16.4-.1 1.1 0 2.1-.1 3.2-.2 1-.1 1.9-.2 2.9-.3.2 0 .4 0 .6-.1.2 0 .5-.1.7-.1.8-.1 1.6-.2 2.4-.4 1-1.6 1.7-3.3 2.2-5-.2.1-.1 0-.1-.2zM556.3 537.4c-.2-.1-.4-.1-.7-.1-1.4 0-2.6 1.2-2.5 2.6 0 .7.4 1.4 1 1.8.5.4 1.1.6 1.7.6 1 0 1.9-.6 2.3-1.5.2-.3.2-.7.2-1.1 0-.2 0-.3-.1-.5-.2-.8-1-1.5-1.9-1.8z"/></g><path class="st0" d="M631.4 241.7c0-.2 0-.5-.1-.7v-.3-.1c-.1-.8-.3-1.6-.5-2.4-.1-.2-.2-.5-.2-.7 0-.1-.1-.2-.1-.3-.1-.2-.2-.5-.3-.7-.9-1.9-2.2-3.6-3.8-5-.1-.1-.2-.1-.2-.2-1-.8-2-1.4-3.1-2-.4-.2-.7-.3-1.1-.5-.1 0-.2-.1-.4-.1-.4-.1-.7-.2-1.1-.3 0-.9-.2-2.8-.6-3.3-1-1.2-5.4-.5-6.8-.4.1 1.1 0 2.3-.2 3.4-.3.1-.6.1-.9.2-.7.2-1.4.4-2 .7-.1 0-.2.1-.3.1-.1 0-.1.1-.2.1-5.2 2.4-8.7 7.4-8.7 13.2 0 1.1.1 2.2.4 3.2.2.7.4 1.5.7 2.2.4.9.9 1.8 1.4 2.6 1 1.4 2.2 2.7 3.7 3.7 1.1.8 2.3 1.4 3.5 1.9.1 0 .1.1.2.1.2.1.5.2.8.3 1.5.5 3.1.7 4.8.7h1c.4 0 .8-.1 1.3-.1.4-.1.8-.1 1.3-.2.1 0 .2 0 .2-.1.2-.1.4-.1.6-.2h.1c.1 0 .3-.1.4-.1.1 0 .3-.1.4-.1.1 0 .1-.1.2-.1s.2-.1.4-.1c.5-.2.9-.4 1.4-.6 1-.5 2-1.1 2.9-1.9.6-.5 1.1-1 1.6-1.5.5-.6 1-1.1 1.4-1.8.5-.8.9-1.6 1.3-2.4.7-1.7 1.1-3.5 1.1-5.3-.5-.4-.5-.6-.5-.9zM562 397c0-.3 0-.6-.1-.9v-.3-.1c-.1-1-.4-2-.7-3l-.3-.9c-.1-.1-.1-.3-.2-.4-.1-.3-.2-.6-.4-.9-1.1-2.4-2.8-4.6-4.9-6.3l-.3-.3c-1.2-1-2.5-1.8-4-2.5-.4-.2-.9-.4-1.4-.6-.2-.1-.3-.1-.5-.2-.4-.2-.9-.3-1.4-.4 0-1.1-.3-3.5-.8-4.1-1.2-1.5-6.8-.6-8.7-.5.1 1.4 0 2.9-.2 4.3l-1.2.3c-.9.2-1.8.5-2.6.9-.1.1-.3.1-.4.2-.1 0-.2.1-.2.1-6.5 3-11.1 9.3-11.1 16.7 0 1.4.2 2.8.5 4.1.2.9.5 1.9.9 2.7.5 1.2 1.1 2.2 1.8 3.3 1.2 1.8 2.8 3.4 4.6 4.7 1.4 1 2.9 1.8 4.5 2.4.1 0 .2.1.3.1.3.1.6.2 1 .3 1.9.6 3.9.9 6.1.9h1.3c.5 0 1.1-.1 1.6-.2s1.1-.2 1.6-.3c.1 0 .2 0 .3-.1.3-.1.5-.1.8-.2h.1c.2 0 .3-.1.5-.2s.3-.1.5-.2c.1 0 .2-.1.3-.1.2-.1.3-.1.5-.2.6-.2 1.2-.5 1.8-.8 1.3-.7 2.5-1.5 3.6-2.4.7-.6 1.4-1.2 2-1.9.6-.7 1.2-1.4 1.7-2.2.6-1 1.2-2 1.6-3.1.9-2.1 1.3-4.4 1.3-6.8.2-.3.2-.6.2-.9zM727.8 646.8v-.2c-.1-.4-.1-.7-.2-1.1l-.3-1.2c-.1-.2-.1-.4-.2-.6-.2-.6-.4-1.1-.6-1.7-.2-.6-.5-1.2-.7-1.8v-.1l-.6-1.2c-.2-.3-.3-.6-.5-.9-.1-.1-.1-.2-.2-.3-.1-.2-.2-.4-.4-.6-.3-.5-.6-.9-.9-1.4-1.4-1.9-3.1-3.6-5-5.1l-2.1-1.5c-.3-.2-.7-.4-1-.6-.7-.4-1.3-.8-2-1.1-1.8-.9-3.7-1.6-5.6-2.1-1.5-.4-3-.6-4.5-.8-.2 0-.5 0-.7-.1-.1-.3-.2-.6-.3-1-.5-1.7-1.4-4-2.1-4.6-.2-.2-.5-.3-.9-.4-.3-.1-.6-.1-.9-.1h-1.3c-.3 0-.6.1-.9.1-.5.1-.9.1-1.4.2-1.7.3-3.5.9-4.9 1.3-.2.1-.4.1-.7.2-.6.2-1.1.3-1.5.4.4 1.3.6 2.7.8 4.2.1.7.2 1.3.2 2-.4.2-.7.3-1.1.5-2.2 1.1-4.3 2.4-6.1 3.9-.1.1-.3.2-.4.3-.6.5-1.1 1-1.6 1.5-.3.4-.7.7-1 1.1-2 2.3-3.6 4.9-4.7 7.8-.1.3-.3.7-.4 1.1-.1.1-.1.3-.1.4-.2.7-.4 1.4-.6 2 0 .2-.1.3-.1.5-.1.7-.3 1.4-.4 2.2-.1 1-.2 1.9-.2 2.9v.2c0 1.8.2 3.7.6 5.6.2.7.3 1.3.5 2 .1.2.1.4.2.7.1.4.3.8.4 1.2 0 .1.1.2.1.4.5 1.2 1.1 2.4 1.8 3.5.1.2.3.4.4.6.1.2.3.5.5.7l.9 1.2c.4.6.9 1.1 1.4 1.6l.6.6 1.1 1.1c.2.1.3.3.5.4.7.6 1.4 1.2 2.1 1.7l.2.2c.2.1.4.3.6.4.3.2.7.4 1 .7 1.3.8 2.8 1.5 4.2 2.1 5.2 2.1 11 2.7 16.9 1.5.5-.1 1-.2 1.4-.3.1 0 .2-.1.3-.1.3-.1.6-.2.8-.2.2-.1.3-.1.5-.2s.4-.1.6-.2c.2-.1.3-.1.5-.2.4-.2.9-.3 1.3-.5 3.7-1.5 6.9-3.8 9.4-6.5.2-.2.3-.4.5-.5.3-.4.7-.8 1-1.2.9-1.1 1.7-2.3 2.5-3.6 3.1-4.9 4.3-10.9 3.3-17z"/><path class="st3" d="M688.1 640.6l1.3-2.3-1.3-2.4 2.8.5 2-1.9.4 2.6 2.5 1.2-2.5 1.2-.4 2.6-1.9-1.9-2.9.4zm7.6 7.9l1.5-2.9-3.3.6-2.4-2.3-.4 3.2-3 1.5 3.1 1.4.5 3.2 2.3-2.3 3.4.5-1.7-2.9zm17.6-6.8l5.1 1.2-2.2-4.6 2.7-4.3-5.3.5-3.4-3.8-1.1 4.9-4.9 1.9 4.6 2.5.4 5 4.1-3.3zm-10.9-10.8l1.2-1.2-1.7-.2-.9-1.5-.7 1.5-1.7.3 1.3 1.1-.2 1.7 1.5-.9 1.6.7-.4-1.5zm-23.3 16.9l.9-.9-1.3-.1-.6-1.1-.5 1.2-1.3.2 1 .8-.2 1.3 1.2-.6 1.2.5-.4-1.3zm35.4 18.7l3.6 3.1.4-4.6 4.2-2.3-4.4-1.8-1-4.5-3.2 3.5-4.8-.5 2.5 3.9-2 4.2 4.7-1zm-9.6-11l1.1-.4-1-.6-.1-1.1-.9.7-1.2-.3.4 1.1-.7.9 1.2-.1.7.9.5-1.1zm-12 15l.6-1.4-1.6.4-1.2-1-.1 1.5-1.4.8 1.5.5.4 1.5 1-1.2 1.6.1-.8-1.2zm7.5-6.1l2.7.2-1.4-2.2 1.1-2.3-2.6.6-2-1.7-.2 2.5-2.3 1.3 2.5 1 .6 2.5 1.6-1.9zm-14.4-4.9l1.6-3.5-3.9.9-3-2.6-.3 3.8-3.5 1.9 3.7 1.5.9 3.7 2.6-2.9 4 .4-2.1-3.2zm37.5-9.2l1.1-.4-1-.6-.1-1.1-.9.7-1.2-.3.4 1.1-.7.9 1.2-.1.7.9.5-1.1zm-11.2 2l.7-1.2-1.4.2-1-1-.2 1.4-1.3.6 1.3.6.2 1.4 1-1 1.4.2-.7-1.2zm-10.6-7.9l1.9 1.7.2-2.5 2.3-1.2-2.4-1-.5-2.5-1.7 1.9-2.6-.3 1.4 2.1-1.1 2.3 2.5-.5zm-10.9-15.7l.8-1.5-1.7.3-1.2-1.2-.3 1.7-1.6.7 1.6.8.2 1.7 1.2-1.2 1.7.3-.7-1.6zm-6.7 10.7l1.6.1-.9-1.3.6-1.4-1.6.4-1.2-1-.1 1.5-1.4.8 1.5.6.4 1.5 1.1-1.2z"/><path class="st0" d="M792.2 601c-.2-.7-.4-1.4-.7-2.1-.7-1.6-1.5-3.1-2.6-4.5-1.2-1.5-2.5-2.7-4-3.8-.5-.4-1-.7-1.6-1-1.1-.6-2.2-1.2-3.4-1.6-1.7-.6-3.4-1-5.2-1.2-.3 0-.6-.1-.8-.1h-1.2c-1 0-2 .1-3.1.2h-.1c-1.4.2-2.8.5-4.1 1-.8-.9-2.6-2.8-3.4-3h-.5c-.4 0-.9.2-1.4.4-2.1 1-4.6 3.4-5.7 4.3.1.1.2.3.3.4.1.1.1.2.2.2.1.1.2.3.3.4.6.8 1.2 1.8 1.7 2.7-.3.3-.5.6-.7.8-.1.1-.2.3-.3.4 0 .1-.1.1-.1.2s-.1.1-.1.2l-.6.9c-1.1 1.7-1.9 3.5-2.4 5.5-.1.2-.1.4-.2.7-.1.7-.3 1.3-.3 2v.2c0 .5-.1.9-.1 1.4v1.6c.1.9.2 1.7.3 2.6.1.2.1.5.2.7.1.4.2.7.3 1.1.1.2.1.3.2.5l.3.9c0 .1 0 .1.1.2 0 .1.1.2.1.3.2.4.3.7.5 1 .4.8.9 1.6 1.5 2.4.2.2.3.5.5.7.6.7 1.1 1.3 1.8 2l.4.4c.4.3.7.6 1.1 1 .7.6 1.5 1.1 2.3 1.6 1.1.6 2.2 1.2 3.4 1.6 2.4.9 5 1.3 7.7 1.3.8 0 1.6-.1 2.4-.2 2.1-.3 4.2-.8 6.1-1.7.3-.1.7-.3 1-.5 0 0 .1 0 .1-.1.8-.4 1.6-.9 2.3-1.4.5-.4 1-.7 1.4-1.1.8-.7 1.6-1.5 2.3-2.3 1.4-1.7 2.5-3.5 3.3-5.5 0-.1.1-.2.1-.4 0-.1 0-.1.1-.2 0-.1.1-.2.1-.3.1-.4.2-.8.4-1.2 0-.1 0-.2.1-.2.2-1 .4-2 .5-3v-.9-.9c-.1-1.5-.4-3.1-.8-4.6z"/><g><path class="st3" d="M758 594.9l.3.6.4.5.4-1.2 1.3-.3-1.1-.7.1-1.2-.9.6H758.2l-.9-.4h-.1l.3 1.2-.6.6-.2.3h.3zM765.9 615.4v-2.7l-2.3 1.7-2.8-.8.3.7.5 1.3.2.6-.3.3-1.4 1.9h1.6l1.3-.1.3.4 1.5 1.8.2-.8.6-1.8 2.3-.8.5-.1-.3-.2zM761.4 602v.4l1.6-1.1.3.1.3.1 1.3.5-.5-1.8 1.2-1.4.1-.1h-.2l-1.9-.1-1-1.6-.3.7-.1.2-.3.9-1.3.3-.7.2 1.6 1.2zM758.4 601.7v-1l-.2.1-.7.6-1.2-.3.5 1-.1.1-.6.8 1.2-.1.1.3h.1l.5.6.1-.4.1-.2.1-.5.4-.1.3-.1.4-.1-1-.6zM765.8 592.7h.2l.4 1.2.7-1h1.3l-.2-.2-.1-.2-.2-.2-.3-.4.3-.6.1-.4v-.1h-.2l-.4.2-.6.2-.1-.1-.2-.1v-.1l-.7-.4v1.2l-.4.2-.6.5h.2zM757.9 610l-.2-.3.3-.9-.9.3-.8-.5V609.5l-.8.5 1 .3v.2l.1.2.1.5.6-.8h1l-.2-.1zM769.2 605.7l-.4-.3v-.4l.1-.5v-1.4l-.3.2-.2.2-1.3.9-.2.1-.4-.2-1.2-.4-.7-.2.5 1.3.2.9-.3.4-.3.3-.9 1.1h2.5l.7 1 .7 1 .1-.6h.1l.5-1.6.7-.2 1.4-.4.3-.1-.8-.5zM791.1 607.1l-3.5.1-2.1-2.7-1 3.2-3.3 1.1 2.9 1.8v3.3l2.8-2 3.3 1-1.2-3.1zM781.4 603.5l-.4-.3v-1l-.1.1-.7.5-.9-.4h-.1l.3 1-.5.5-.2.2 1.1.1.6.8v-.1l.3-.8 1-.3zM777.1 611.1l-1.5 1.1-.6-.1-1.2-.4.2.6.4 1.1-.1.2-.4.5-.2.4-.2.2-.2.3.2-.1h1.8l1.1 1.4.6-1.7 1.8-.6-1.6-1.1zM786.2 598.5l.2.2h.1l-.1.3-.1.5.6-.3.2-.1.8.4-.1-.5-.1-.3.6-.6-.8-.1-.2-.3-.2-.4-.4.7-.4.1-.4.1h-.1.1zM776.9 606.7l-.4-.7-.4.7h-.1l-.8.1.7.6-.2.8.8-.4.8.4-.2-.8.6-.6zM772 601.2l1.3.4-.2-.6-.2-.4-.2-.7 1.1-1.5h-.5l-1.2.1h-.2l-1.1-1.5-.1.1-.1.4-.1.4-.2.6-.1.2-1.8.6 1.6 1v1.8l.7-.5.7-.5.1-.1.2.1zM774.6 621.1l-.5-.3-.1-.1-.1-.5v-.6l-.4.3-.5.4h-.3l-.8-.3.2.6.2.5-.2.3-.2.2-.2.4 1.1-.1.8.9v-.3l.2-.7.1-.1.2-.1.5-.1.4-.2-.3-.1zM772.4 595.8l.3.1h.4l1.6.2h.2l1.3 2.2.4.6.2.3 1.5-3.3 1-.2 2.1-.4.6-.1-.2-.2-1.3-1.1-.1-.1-.2-.1-.7-.6-.4-.3.2-1.2.2-1.2v-.3l.1-.9-.3.2-.4.2-1.8 1-.8.4-.4-.1-1-.5-.2-.1-1.1-.4-.1-.1-.7-.3.4 1.5.2 1 .1.3.2.7v.1l-.6.6-1.2 1.1-.2.3-.6.6.9.1z"/></g><path class="st0" d="M648.2 630.1c0-.4-.1-.8-.2-1.3-.1-.4-.1-.8-.2-1.3 0-.2-.1-.3-.1-.5v-.2c-.3-1.4-.8-2.8-1.4-4.1l-.6-1.2c-.1-.2-.2-.3-.3-.5-.2-.4-.4-.8-.6-1.1-1.9-3.2-4.6-5.9-7.7-8.1-.2-.1-.3-.2-.5-.3-1.8-1.2-3.8-2.2-5.9-2.9-.6-.2-1.3-.4-2-.6-.2-.1-.4-.1-.7-.2-.6-.2-1.3-.3-2-.4-.2-1.6-.9-4.9-1.7-5.6-1.9-1.9-9.5 0-12.1.4.3 1.9.4 4 .3 6-.5.2-1 .4-1.6.5-1.2.4-2.4 1-3.5 1.6-.2.1-.3.2-.5.3-.1.1-.2.1-.3.2-8.6 5-13.9 14.4-12.8 24.6.2 1.9.6 3.8 1.3 5.6.5 1.3 1 2.5 1.6 3.7.8 1.5 1.8 3 2.9 4.3 2 2.3 4.4 4.4 7.1 5.9 2 1.2 4.2 2.1 6.6 2.7.1 0 .3.1.4.1.5.1.9.2 1.4.3 2.7.6 5.6.7 8.5.4h.7c.3 0 .5-.1.8-.1h.3c.7-.1 1.5-.3 2.2-.4.7-.2 1.4-.4 2.2-.6.1 0 .3-.1.4-.1.4-.1.7-.3 1.1-.4.1 0 .1 0 .2-.1.2-.1.4-.2.7-.3.2-.1.4-.2.7-.3.1-.1.2-.1.4-.2l.6-.3c.8-.4 1.6-.9 2.3-1.3 1.7-1.1 3.3-2.3 4.6-3.8.9-.9 1.7-1.9 2.5-2.9.8-1.1 1.5-2.2 2.1-3.3.7-1.4 1.3-2.9 1.8-4.5 1.1-3.2 1.4-6.5 1-9.7zM433.2 580.4c-1.4.9-3.2 1.7-4.9 2.2-.3-.3-.6-.7-1-1-.8-.7-1.6-1.4-2.5-2.1-.1-.1-.3-.2-.4-.3-.1-.1-.2-.1-.3-.2-7.1-4.7-16.7-5.5-24.7-1.3-1.5.8-2.9 1.8-4.2 2.8-.9.8-1.7 1.6-2.5 2.5-1 1.1-1.8 2.4-2.6 3.6-1.3 2.3-2.1 4.8-2.5 7.3-.3 1.9-.3 3.9 0 5.8v.3c.1.4.1.8.2 1.1.5 2.2 1.3 4.4 2.5 6.5 0 .1.1.1.1.2.1.1.1.2.2.3l.3.6c0 .1.1.1.1.2.3.5.7 1 1.1 1.5.4.5.8 1 1.2 1.4l.3.3.7.7.1.1c.2.1.3.3.5.4.2.1.3.3.5.4.1.1.2.1.3.2.2.1.3.2.5.4.6.5 1.2.9 1.9 1.3 1.5.9 3.1 1.6 4.7 2.2 1.1.4 2.2.7 3.3.9 1.1.2 2.3.4 3.5.4 1.4.1 2.9 0 4.3-.2 2.8-.4 5.6-1.2 8.2-2.6.3-.2.7-.4 1-.6.3-.2.7-.4 1-.6.1-.1.2-.2.4-.2l.1-.1c1.1-.7 2-1.5 2.9-2.4.3-.3.6-.5.8-.8.1-.1.2-.3.3-.4.3-.3.5-.6.7-.9 2-2.5 3.4-5.4 4.1-8.5 0-.2.1-.3.1-.5.4-1.8.5-3.6.5-5.4 0-.6-.1-1.1-.1-1.7 0-.2 0-.4-.1-.5-.1-.5-.2-1.1-.3-1.6 1.2-.7 3.7-2.3 4.1-3.1.9-1.8-3.2-6.9-4.4-8.6zM671.7 525c-.2-.6-.4-1.1-.6-1.7-.5-1.1-1-2.2-1.7-3.2-.9-1.4-2.1-2.7-3.4-3.9-.2-.2-.4-.4-.6-.5-.3-.2-.6-.5-.9-.7-.8-.6-1.7-1.1-2.6-1.6h-.1c-1.2-.6-2.6-1.2-3.9-1.6 0-1.2-.3-3.7-.8-4.3l-.1-.1c-.1-.1-.2-.1-.3-.2-.3-.2-.8-.4-1.4-.4-2.3-.4-5.9.1-7.3.2v1.3c0 1-.1 2.1-.3 3.1-.4.1-.7.2-1.1.3-.2 0-.4.1-.5.1-.1 0-.1 0-.2.1-.1 0-.2 0-.2.1-.4.1-.7.2-1.1.4-2 .7-3.8 1.7-5.4 3-.2.1-.4.3-.6.4-.5.4-1 .9-1.5 1.4l-.1.1c-.3.3-.7.7-1 1.1-.4.4-.7.9-1 1.3-.5.7-.9 1.5-1.3 2.2-.1.2-.2.5-.3.7-.2.3-.3.7-.4 1-.1.2-.1.3-.2.5l-.3.9c0 .1 0 .1-.1.2 0 .1-.1.2-.1.3-.1.4-.2.7-.3 1.1-.2.9-.3 1.8-.3 2.8v.8c0 .9.1 1.7.2 2.6 0 .2.1.4.1.5.1.5.2.9.3 1.4.2.9.5 1.7.9 2.6.5 1.1 1 2.2 1.7 3.2 1.4 2.1 3.2 3.9 5.3 5.4.7.4 1.3.9 2 1.2 1.8 1 3.9 1.7 6 2.1.4.1.7.1 1.1.2h.1c.9.1 1.8.2 2.8.2.6 0 1.2 0 1.8-.1 1.1-.1 2.2-.3 3.3-.5 2.2-.5 4.2-1.4 6.1-2.6.1-.1.2-.1.3-.2.1 0 .1-.1.2-.1.1-.1.2-.1.3-.2.4-.2.7-.5 1-.8l.2-.2c.8-.6 1.5-1.4 2.2-2.1.2-.2.4-.4.6-.7.2-.2.4-.5.6-.7.9-1.3 1.7-2.6 2.4-4.1.3-.7.5-1.4.7-2.1.5-1.6.7-3.3.7-5.1-.1-1.6-.4-3.4-.9-5.1z"/><g><path class="st3" d="M647.6 521.4l.2.3.7 1.2.8-1.8 1.8-.4.1-.1-.1-.1-1.4-1.1.1-1.9-.6.4-.2.1-.9.5-1.2-.4-.7-.3.6 1.9-1.1 1.1-.2.3 2 .1zM647.5 513.2l-.1.7v.5l1-.6 1.2.4-.3-1.1.8-.9-1.1-.1h-.2v-.1l-.6-.8v-.1l-.5 1.1-.9.2-.3.1.2.1zM648.5 529.4l1.4.5.3.1-.3-.9-.3-.9-.1-.4.3-.3.4-.4.1-.2.5-.6.3-.3h-.7l-1.6-.1h-.2l-.3-.3-.6-1-.4-.6-.5 1.3-.4.9-.5.1-.4.1-1.4.4 1.1.8.3.2.5.4v1.2l-.1 1.1.5-.3h.1l1.4-1zM655.2 515.8l.1.2-.4 1.2 1.2-.4.7.4.3.3v-1.2l.6-.4.3-.2.1-.1-.1-.1-.5-.1-.6-.2v-.1l-.1-.2-.3-.8-.7 1h-.5l-.8-.1.1.2zM669.1 532.4l.1-.4.1-.4-.8.4-.3-.2-.4-.2h-.1v.1l.1.4.1.3-.2.2-.4.4.6.1h.2l.4.8.2-.5.2-.3.8-.1zM636.5 524.9l-.1.2-.2.4.9-.3.8.6v-.9l.8-.5-.9-.3-.3-.9-.4.5-.1.1-.1.1h-.9l.5.8zM641.9 536.8l-.2-.3-.8-2.3 1.7-2.3-2.9.1-1.7-2.3-.3.8-.4 1.3-.2.6-.4.1-2.4.8 1.4.8 1.1.7v.5l-.1 2.3.7-.5 1.7-1.2 2.3.7zM641.8 519.5v.1l.1.7.4-.3.1-.1.4-.2.4.1.3.1.4.1-.4-1.1.3-.4.3-.5h-.2l-.9.1-.7-.9-.3 1.1h-.1l-1 .3.9.6zM663.5 536.5l-2.8 2-3.3-1 1.1 3.1-2.1 2.7 3.5-.1 2 2.7 1.1-3.1 3.3-1-2.9-1.9zM650.7 537.1l-.4-.5-.8-1-.2.7-.3 1.1h-.2l-.7.3-.4.1-.3.1-.3.1.2.1.2.1.1.1.1.1.3.1.7.5v1.9l1.6-1.2 1.8.6-.6-1.7 1.1-1.5zM667.5 521.8l.3-.3.6-.6h-.4l-.4-.1-2.1-.2-.9-.1-.2-.3-.6-1-.1-.2-.5-.9-.1-.2-.3-.6-.7 1.4-.4 1-.1.2-.3.6-.1.1-.9.2-1.6.3h-.4l-.8.2.7.6.2.2.3.2.2.3 1.3 1 .1.1-.4 2.6-.1.7v.3l3.3-1.8 1 .4 1.9.9.6.3-.1-.2-.4-1.7V524.9l-.2-1-.1-.4.8-.8zM655.3 532.6l-.8.3-.7-.3.1.8-.6.5.9.2.3.7.4-.7.9-.2-.6-.5zM661.2 532.1h-.9l-.5-.8-.1-.1-.3 1-.8.2h-.3l.9.7-.1.9h.1l.8-.5 1 .4-.2-.6-.1-.4.7-.8zM657.5 524.7l-.9-.6-.2-.2v-1.8l-.1.1-.4.3-.3.2-.5.3-.2.2-1.8-.6.6 1.7-.8 1-.4.5H654.4l.1.1.2.3.8 1.1.2-.7.2-.4.2-.7 1.8-.5zM644.6 542.1h-1.1l-.2-.2-.6-.7-.1.6-.2.5-.3.1-.3.1-.5.2 1 .6v1.1l.3-.2.6-.5h.1l.3.1.4.1.4.1-.1-.2-.1-.1-.2-.6v-.1l.3-.5z"/></g><path class="st0" d="M670.4 157.2c-.6-1-4.5-2.1-9.5-3.2-.3-.1-.6-.1-.9-.2-.5-.1-1-.2-1.6-.3-.4-.1-.9-.2-1.4-.3-.7-.1-1.4-.3-2.1-.4-3.9-.7-8-1.4-11.7-2.1-5.5-1-10-1.8-11.4-2.4h-.1c-2.7-1.6-14-30.7-17-40.4-2.9.4-9.4 11.9-15 22.1-.3.5-.5 1-.8 1.5-.1.3-.3.5-.4.8-3.6 6.7-6.6 12.4-7.6 13.4-2.3 2.3-14.3 5-25 8.5-.7.2-1.3.4-2 .7-4 1.4-7.8 2.9-10.5 4.5-.6.3-1.1.7-1.6 1.1-1.9 1.3-3 2.7-3 4.2v.1c3.5 1.3 6.8 3.1 10.1 5 5.1 2.9 10 6.3 15.2 9.1.3.2.6.3.9.5.2.1.5.3.7.4l1.2.6c1.4.7 2.8 1.4 4.3 1.9.7.3 1.3.5 2 .8-.1 1.7-.4 3.8-.7 6.2-.3 2.1-.6 4.3-1 6.6 0 .2-.1.4-.1.6l-.3 1.8c-.1.4-.1.8-.2 1.3-1 6.6-2 13.6-2.2 19.1-.1 4.2.2 7.5 1.4 9.2 4.7-.6 11.9-7.5 18.8-15 .4-.4.8-.8 1.1-1.3.7-.8 1.5-1.6 2.2-2.4.3-.3.6-.6.8-1l.1-.1c.1-.2.3-.3.4-.5 1.1-1.3 2.2-2.5 3.2-3.7l.4-.4c.8-.9 1.5-1.8 2.2-2.6.3-.3.5-.6.7-.9 1.2-1.4 2.3-2.7 3.3-3.7 7.8 6.4 14.6 12.4 22.2 17.3 1.6 1 3.3 2 5 3 .2.1.3.2.5.3l3.6 1.8c.5.3 1.1.5 1.6.7.5.2 1.1.4 1.6.7 1.8.7 3.7 1.4 5.7 2 .1 0 .3.1.4.1.7.2 1.4.4 2.2.6 0-.1-.1-.2-.1-.3-.1-.4-.3-.9-.5-1.5 0-.1 0-.1-.1-.2-.1-.2-.1-.4-.2-.6-.2-.8-.5-1.8-.8-2.9-.3-1-.6-2.2-1-3.4-.1-.5-.3-.9-.4-1.4l-.3-1.2c-.4-1.6-.9-3.2-1.3-4.9-2-7.4-4.2-15.6-5.5-20.7-.8-3.1-1.3-5-1.3-5 .2-.9 1.7-2.1 3.9-3.5 3.5-2.2 8.9-5 13.5-7.9 6.1-3.9 10.9-8.2 8.4-12.1z"/><path class="st4" d="M639.7 201.7c-2.1-2.4-4.6-4.4-6.5-7-2.1-2.8-3.4-5.9-5.5-8.7-3.4-4.6-8.4-10.1-10.6-15.4 7.8.2 12.9 2.6 16.8 4.2 3.5 1.5 7.2 4 11.2 4.6.2 0 .3 0 .5.1 4.9-4.9 29.9-14.1 25-22.1-6.6 2-13.4 3.6-20 5.8-4.6 1.5-9.5 2.4-14.2 3.6-5.7 1.5-13.3.2-18.4 3.1.5-4.8 3.9-7.3 5.6-9.5 1.6-2 3.2-4.1 4.7-6.2 1-1.4 2.4-4.3 3.8-5.8-2.6-1.3-14.1-30.7-17-40.4-.3 0-.6.2-1 .5.1 4.9 1 15.9 1.3 20 .4 6 .1 12 .9 17.9.6 4.7 1.1 9.3 1.6 14 .2 2.6-.1 6.5-.8 9-4.1-6.8-9.3-14-15.8-18.9-2.6-1.9-5.2-3.8-7.9-5.5-.3-.2-.6-.4-1-.6-.4.7-.8 1.2-1 1.4-4 3.9-37.4 9.4-41.7 17.3 3.1-1 6.4-1.2 9.9-1.3 10.2-.3 19.7 4.1 29.8 5.2 4.6.5 9.5.9 14.1.5 4.3-.4 8.4.7 12.7 2-4.2 5-11.2 6.5-17.3 8.4-5 1.5-10.1 4.5-15.3 5.6-.9 10.4-6.3 34.2-3.9 42.6 2.8-7.1 6.7-12.7 11.2-18.6 3.7-4.8 7.7-9.4 10.8-14.7 2.2-3.9 4.9-6.9 7.7-10.4 3-3.7 4.3-7.2 7.4-11.7-2.9 7.2-2.4 15.7-3.3 23.2-.1 1-.3 2.1-.5 3.1.2-.2.4-.5.6-.7 13.7 11.3 24.4 21.3 41.4 26.1-5.6-6.6-9.6-14.3-15.3-20.7z"/><path class="st4" d="M601.1 150.4c6.5 4.8 11.7 12.1 15.8 18.9.7-2.5 1.1-6.4.8-9-.4-4.7-1-9.3-1.6-14-.8-6-.4-11.9-.9-17.9-.3-4.1-1.2-15.1-1.3-20-5.4 3.7-17.8 29.4-21.9 36 .4.2.8.4 1 .6 2.8 1.7 5.5 3.5 8.1 5.4zM616 169.5c-4.3-1.3-8.4-2.5-12.7-2-4.6.5-9.5 0-14.1-.5-10.1-1.1-19.6-5.5-29.8-5.2-3.5.1-6.8.2-9.9 1.3-.3.5-.5 1.1-.5 1.6 11.8 4.5 22.4 14 34.4 18.3v.5c5.2-1.1 10.3-4.1 15.3-5.6 6.1-1.9 13.1-3.4 17.3-8.4zM633.8 174.8c-3.8-1.6-9-4-16.8-4.2 2.2 5.2 7.1 10.8 10.6 15.4 2.1 2.8 3.5 5.9 5.5 8.7 1.9 2.6 4.4 4.6 6.5 7 5.8 6.4 9.7 14.1 15.2 20.8.4.1.8.3 1.3.4-1.7-4.2-11.5-42.2-11.5-42.2.1-.4.4-.8.8-1.2-.2 0-.3 0-.5-.1-3.9-.6-7.6-3.2-11.1-4.6zM623.4 160.3c-1.7 2.2-5.1 4.7-5.6 9.5 5.1-2.8 12.6-1.5 18.4-3.1 4.7-1.3 9.6-2.1 14.2-3.6 6.7-2.1 13.4-3.8 20-5.8v-.1c-1.9-3.1-34.5-7.1-38.5-8.9-1.4 1.5-2.8 4.4-3.8 5.8-1.5 2.2-3 4.2-4.7 6.2zM616.7 170.7c-3.1 4.4-4.4 8-7.4 11.7-2.9 3.5-5.5 6.5-7.7 10.4-3.1 5.3-7 9.9-10.8 14.7-4.6 5.9-8.5 11.4-11.2 18.6.2.7.5 1.3.8 1.8 8.4-1 25-22.4 32.6-30.8.2-1 .4-2.1.5-3.1.7-7.6.3-16.1 3.2-23.3z"/><g><path class="st4" d="M432.2 185.4c0 3.2-2.8 5.8-6.2 5.8-3.4 0-6.2-2.6-6.2-5.8 0-3.2 2.8-5.8 6.2-5.8 3.4 0 6.2 2.6 6.2 5.8zM449.3 140.5c0 6.9-5.9 12.5-13.2 12.5-7.3 0-13.2-5.6-13.2-12.5s5.9-12.5 13.2-12.5c7.3-.1 13.2 5.5 13.2 12.5zM335.1 216.8c0 5.5-4.7 10-10.6 10s-10.6-4.5-10.6-10 4.7-10 10.6-10 10.6 4.5 10.6 10zM411 286.7c0 1.6-1.4 3-3.1 3-1.7 0-3.1-1.3-3.1-3 0-1.6 1.4-3 3.1-3 1.7 0 3.1 1.4 3.1 3zM458.4 246.4c0 1.3-1.1 2.3-2.4 2.3s-2.4-1-2.4-2.3c0-1.3 1.1-2.3 2.4-2.3s2.4 1 2.4 2.3zM295.8 337.9c0 2-1.7 3.6-3.7 3.6-2.1 0-3.7-1.6-3.7-3.6s1.7-3.6 3.7-3.6c2 .1 3.7 1.7 3.7 3.6zM205.1 354.5c0 1.6-1.4 2.9-3 2.9-1.7 0-3-1.3-3-2.9 0-1.6 1.4-2.9 3-2.9s3 1.3 3 2.9zM324.6 511.8v-8.5 8.5zM387.5 404.9c0 1-.9 1.8-1.9 1.8s-1.9-.8-1.9-1.8.9-1.8 1.9-1.8 1.9.8 1.9 1.8z"/><ellipse class="st4" cx="299.4" cy="419.9" rx="11.1" ry="10.6"/><path class="st4" d="M241.4 471.3c0 5.2-4.4 9.3-9.9 9.3-5.4 0-9.9-4.2-9.9-9.3 0-5.2 4.4-9.3 9.9-9.3s9.9 4.1 9.9 9.3zM324.6 518.7c0 6.6-5.6 11.9-12.6 11.9s-12.6-5.3-12.6-11.9c0-6.6 5.6-11.9 12.6-11.9s12.6 5.3 12.6 11.9zM364.8 449.9c0 3-2.6 5.4-5.7 5.4-3.2 0-5.7-2.4-5.7-5.4 0-3 2.6-5.4 5.7-5.4s5.7 2.4 5.7 5.4z"/><ellipse class="st4" cx="210.2" cy="571.5" rx="8.2" ry="7.7"/><path class="st4" d="M872.2 296.2c0 2.8-2.4 5.1-5.4 5.1-3 0-5.4-2.3-5.4-5.1s2.4-5.1 5.4-5.1c3 0 5.4 2.3 5.4 5.1zM790.3 183.8c0 .8-.7 1.4-1.5 1.4s-1.5-.6-1.5-1.4.7-1.4 1.5-1.4 1.5.6 1.5 1.4z"/><ellipse class="st4" cx="870.5" cy="139" rx="9" ry="8.6"/><path class="st4" d="M858.4 223.2c0 3.6-3 6.4-6.8 6.4s-6.8-2.9-6.8-6.4c0-3.6 3-6.4 6.8-6.4s6.8 2.9 6.8 6.4zM937.1 219c0 2-1.7 3.6-3.8 3.6-2.1 0-3.8-1.6-3.8-3.6s1.7-3.6 3.8-3.6c2.1 0 3.8 1.6 3.8 3.6zM768.1 255.6c0 2.1-1.8 3.8-4 3.8s-4-1.7-4-3.8c0-2.1 1.8-3.8 4-3.8s4 1.7 4 3.8zM857.8 408c0 8.2-7 14.8-15.6 14.8s-15.6-6.6-15.6-14.8 7-14.8 15.6-14.8 15.6 6.6 15.6 14.8z"/><ellipse class="st4" cx="807.8" cy="442.7" rx="9.8" ry="9.3"/><path class="st4" d="M947.7 469.1v-7.2 7.2zM960.1 369.7c0 6-5.2 10.9-11.5 10.9-6.4 0-11.5-4.9-11.5-10.9s5.2-10.9 11.5-10.9c6.4 0 11.5 4.9 11.5 10.9zM994.9 309.1c0 5.3-4.5 9.5-10 9.5s-10-4.3-10-9.5c0-5.3 4.5-9.5 10-9.5s10 4.2 10 9.5z"/><ellipse class="st4" cx="883.7" cy="349.8" rx="4.2" ry="4"/><path class="st4" d="M953.6 468.5c0 4.3-3.7 7.8-8.3 7.8-4.6 0-8.3-3.5-8.3-7.8s3.7-7.8 8.3-7.8c4.6 0 8.3 3.5 8.3 7.8zM886.5 468.8c0 3.7-3.2 6.8-7.2 6.8-3.9 0-7.2-3-7.2-6.8 0-3.7 3.2-6.8 7.2-6.8s7.2 3.1 7.2 6.8zM775.3 128.7c0 7.5-6.4 13.7-14.4 13.7s-14.4-6.1-14.4-13.7c0-7.5 6.4-13.7 14.4-13.7s14.4 6.1 14.4 13.7z"/><ellipse class="st4" cx="784.5" cy="79.1" rx="6.2" ry="5.9"/><path class="st4" d="M878 68.4c0 2-1.7 3.6-3.8 3.6-2.1 0-3.8-1.6-3.8-3.6s1.7-3.6 3.8-3.6c2.1.1 3.8 1.6 3.8 3.6zM501 59.7c0 1.9-1.6 3.5-3.7 3.5s-3.7-1.6-3.7-3.5 1.6-3.5 3.7-3.5 3.7 1.6 3.7 3.5zM449.8 52.1c0 1.7-1.4 3-3.2 3s-3.2-1.3-3.2-3 1.4-3 3.2-3 3.2 1.3 3.2 3zM361 97.8c0 3.1-2.7 5.6-5.9 5.6-3.3 0-5.9-2.5-5.9-5.6s2.7-5.6 5.9-5.6 5.9 2.5 5.9 5.6z"/><ellipse class="st4" cx="386.3" cy="344" rx="7.1" ry="6.8"/><path class="st4" d="M241.4 681.6c0 2.6-2.2 4.7-4.9 4.7s-4.9-2.1-4.9-4.7 2.2-4.7 4.9-4.7 4.9 2.1 4.9 4.7zM182.4 763.1v-3.4 3.4zM159.3 659.1c0 6.2-5.3 11.3-11.9 11.3s-11.9-5.1-11.9-11.3 5.3-11.3 11.9-11.3 11.9 5.1 11.9 11.3zM290.4 744.2c0 2.1-1.8 3.9-4.1 3.9s-4.1-1.7-4.1-3.9c0-2.1 1.8-3.9 4.1-3.9s4.1 1.8 4.1 3.9z"/><ellipse class="st4" cx="288.4" cy="653.4" rx="2" ry="1.9"/><path class="st4" d="M296.2 581.2c0 3.6-3.1 6.6-7 6.6-3.8 0-7-3-7-6.6 0-3.6 3.1-6.6 7-6.6 3.8 0 7 2.9 7 6.6z"/><ellipse class="st4" cx="749.2" cy="762.8" rx="4.2" ry="4"/><ellipse class="st4" cx="860" cy="745.9" rx="7.5" ry="7.1"/><ellipse class="st4" cx="895.1" cy="557.4" rx="5" ry="4.7"/><ellipse class="st4" cx="984.9" cy="580.9" rx="10" ry="9.5"/><ellipse class="st4" cx="1011.2" cy="522.9" rx="4.5" ry="4.3"/><path class="st4" d="M947.7 667.3c0 2.8-2.4 5-5.3 5s-5.3-2.2-5.3-5 2.4-5 5.3-5 5.3 2.3 5.3 5zM946.1 710.8c0 4.4-3.7 7.9-8.3 7.9-4.6 0-8.3-3.5-8.3-7.9s3.7-7.9 8.3-7.9c4.6 0 8.3 3.5 8.3 7.9z"/><ellipse class="st4" cx="1039.2" cy="729.5" rx="5.3" ry="5"/><path class="st4" d="M1065.1 671.4c0 1.8-1.6 3.3-3.5 3.3s-3.5-1.5-3.5-3.3c0-1.8 1.6-3.3 3.5-3.3s3.5 1.5 3.5 3.3zM379.4 773.2c0 3.7-3.2 6.7-7 6.7-3.9 0-7-3-7-6.7s3.2-6.7 7-6.7c3.9 0 7 3 7 6.7zM446.6 804.9c0 2.5-2.1 4.5-4.8 4.5-2.6 0-4.8-2-4.8-4.5s2.1-4.5 4.8-4.5c2.7 0 4.8 2 4.8 4.5z"/><ellipse class="st4" cx="371.5" cy="844.9" rx="4.5" ry="4.3"/><path class="st4" d="M744.7 842.7c0 2.8-2.4 5-5.3 5s-5.3-2.2-5.3-5 2.4-5 5.3-5 5.3 2.2 5.3 5zM826.7 792.5c0 5.1-4.4 9.3-9.8 9.3s-9.8-4.2-9.8-9.3c0-5.1 4.4-9.3 9.8-9.3s9.8 4.2 9.8 9.3zM499.2 777.1c0 5.4-4.6 9.7-10.2 9.7-5.7 0-10.2-4.3-10.2-9.7 0-5.4 4.6-9.7 10.2-9.7s10.2 4.4 10.2 9.7zM335.9 721.9c0 5.7-4.9 10.4-11 10.4s-11-4.7-11-10.4 4.9-10.4 11-10.4 11 4.7 11 10.4zM423 448.6c0 2.8-2.4 5.1-5.4 5.1-3 0-5.4-2.3-5.4-5.1s2.4-5.1 5.4-5.1c3 0 5.4 2.2 5.4 5.1zM793.4 305c0 2-1.7 3.6-3.8 3.6s-3.8-1.6-3.8-3.6 1.7-3.6 3.8-3.6 3.8 1.6 3.8 3.6zM724.5 172.8c0 4.2-3.6 7.6-8 7.6s-8-3.4-8-7.6c0-4.2 3.6-7.6 8-7.6s8 3.4 8 7.6zM531.7 147.3c0 5.1-4.4 9.3-9.8 9.3s-9.8-4.2-9.8-9.3c0-5.1 4.4-9.3 9.8-9.3s9.8 4.2 9.8 9.3z"/></g></svg>