<?xml version="1.0" encoding="utf-8"?>
<svg version="1.1" id="Layer_1" xmlns="http://www.w3.org/2000/svg" xmlns:xlink="http://www.w3.org/1999/xlink" x="0px" y="0px"
	 viewBox="0 0 1200 900" style="enable-background:new 0 0 1200 900;" xml:space="preserve">
<style scoped='true' type="text/css">
	.st0{fill:#FFFFFF;}
	.st1{fill:#FFFFFF;stroke:#000000;stroke-width:0.75;stroke-miterlimit:10;}
	.st2{fill:#FFFFFF;stroke:#000000;stroke-width:0.25;stroke-miterlimit:10;}
</style>
<path class="st0" d="M0.4,450.6c0-148.3,0-296.5-0.2-444.8C0.3,1,1.5,0,8.1,0c394.7,0.2,789.4,0.2,1184,0c6.6,0,7.8,1,7.8,5.9
	c-0.2,296.5-0.2,593,0,889.5c0,4.9-1.3,5.9-7.8,5.9c-394.7-0.2-789.4-0.2-1184,0c-6.6,0-7.9-1-7.8-5.9
	C0.5,747.2,0.4,598.9,0.4,450.6z"/>
<path class="st1" d="M755.4,313.9c-0.1,0-0.1,0-0.2,0c-0.3-0.8-0.5-1.6-0.9-2.3c-6.3-12.8-12.7-25.7-19-38.5c0-2.8-1.8-4.8-2.9-7.1
	c-6.1-12-12.3-24-18.4-35.9c-5,1.4-9.9,2.8-14.9,4.2c-1.2-0.5-2.5-0.2-3.7,0.1c-1.8,0.5-3.6,1.2-5.1,2.4c-1.2,1.2-2.2,3-4.2,1.4
	c-3.8,0.7-8.1,0.1-10.5,4.3c1.6,1.6,2,3.7,2.7,5.7c8.6,24.7,15.3,49.9,19.8,75.7c3.7,29.9-0.5,59-9.7,87.5
	c-6.3,15.4-13.3,30.4-27.6,40.4c0.5,0.7,1,2.2,1.5,2.1c10.7-1,21.5-2.5,30.7-8.1c15.9-9.7,28.2-22.6,38.2-38.7
	c17-27.7,22.9-58.1,26.2-89.5C757.5,315.8,756.8,314.6,755.4,313.9z"/>
<path class="st1" d="M364.7,444.2c-7.6-0.5-14.3-4.5-21.8-5.7c-9.4-7-16.7-23-20.3-19.4c-1.7-2.4-3.3-5.4-4.4-10.9
	c-0.9-4.7-1.3-25.6-2.2-19.9c-2.7,0.8,0.2-21,1.6-31.9c0.5-3.7,1-4.9-1.8-3.5c0-10.8,5.4-21.1,11.2-30.6c5.2-5.2,12-7.8,18.3-11.1
	c37.7-19.7,78-29,120.4-28.5c10.5,0.1,21.1,1.3,29.4,9.2c6.8,6.1,18.9,18.2,18.7,19.7c-3,0.7-1.2,1.7-1.1,1.9
	c5.1,5.5,8.5,11.6,11.9,17.5c-4.2,2.1,7.3,21.2,6.7,24.6c-3.7,0.4,0.8,18.6-0.1,28.2c-2.5,0.4-29.5,48.9-67.9,62.7
	C420.1,462.1,364.8,443.2,364.7,444.2z"/>
<path class="st1" d="M472.4,254.3c-10.4-1.4-23.7-1.7-27.7-1.8c-51.1,2-56.5,3-98.4,17.3c-1.4,0.6-5.2,2.4-8.1,3.3
	c1.3-2.2,2.6-4.4,4.7-7.9c-7.7,3.4-12.8,9.4-20.4,9.4c-3.2-2.8-3.9-4.1-4.3-5.7c11.3-5.9,19.1-15.8,27.9-24.7
	c20.6-20.9,45.7-29.8,74.7-28.9c5.5,0.2,10.2,1.9,14.6,5.2C448.9,230.4,460.5,242.5,472.4,254.3z"/>
<path class="st1" d="M495.2,291.9c-20.1-10.2-41.3-7.4-62.5-5.4c-36.4,3.4-69.4,16.7-101,34.3c-1.4,0.8-3.1,1-4.7,1.5
	c-3.9-18.2-1.7-34.9,11.2-49.3c22.1-12.8,46.1-19.1,71.3-22.3c15.5-1.9,31-1.3,46.5,0.1c5.7,0.5,11,2.3,16.5,3.4
	c9.4,6.2,16.2,14.5,20.3,25.1C494.3,283.5,492.7,288.1,495.2,291.9z"/>
<path class="st1" d="M551.3,213.1c-9.3,7.7-20.5,11.7-31.8,15.3c-9.5-3.8-17.8-10-26.8-14.8c-7.5-4-14.9-8.4-23.6-9.6
	c-3.7-11-5.7-22.4-10.3-33.1c-1.4-3.3,0.4-5.2,4.1-5.7c7.5-1.1,15.2-1.3,22.4-4.2c-0.3,3.6,3.4,5.3,4,8.5c0.5,7.2,5.5,9.6,11.6,11.1
	c2.5,0.6,5,0.8,7.4,1.9c3.7,2,7.4,4,11.1,5.9c1.4,4.3,4.1,7.3,8.3,9c3.8,1.5,7,3.8,9.1,7.6c1.7,3.1,4.4,4,7.8,3.7
	C547.7,208.4,550.7,209.1,551.3,213.1z"/>
<path class="st1" d="M718.1,784.5c-3.2-1-2.9,1.3-2.9,3.2c0.1,4.1-3.1,5.7-6,5.6c-3-0.1-2.5-3.5-2.6-5.8c-0.1-11.5,0-23-1-34.8
	c-1.5,4.9-3,9.8-4.4,14.7c-0.8,2.8-1.2,5.6-2.2,8.3c-0.9,2.5-2.9,4.9-5.5,5.3c-3.2,0.5-2.9-3.2-3.9-5.1c-3-6.2-4-13.3-8.4-20.7
	c-0.8,14.7-3.3,27.8-3.5,41.2c0,2.3,2.2,6.5-2.9,6.3c-4.9-0.2-2.7-4.4-2.7-6.7c0-18.2,3.3-36.3,2.8-54.5c-0.1-1.9-0.3-3.9,0-5.7
	c0.4-2.6-2.3-6.5,1.8-7.4c4.3-1,5.4,3.2,6.6,6.2c3.9,10,7.5,20.1,12.6,30.2c2.1-8.5,4.2-17,6.3-25.5c0.6-2.3,0.8-4.9,2-6.8
	c1.3-2,3-4.2,6.4-3.4c3.4,0.8,3,3.1,3.1,5.5c0.3,14.4,0.7,28.7,1,43.1c0.1,3.6,0.4,6,4.6,3C720.8,782.5,719.7,783.6,718.1,784.5z"/>
<path class="st1" d="M604.6,685.8c-6.2,6.3-5.9,12.7-7,18.5c-0.8,4.2-1,8.5-1.4,12.8c-0.2,2.6-0.9,4.8-3.9,5.2c-3,0.4-5-0.9-6.3-3.7
	c-2.5-5.4-2.3-11.2-2.9-16.9c-0.6-5.7-1.1-11.4-3.4-17.2c-3.8,4.2-3.8,8.9-4,13.6c-0.3,6.2-0.6,12.4-1,18.6c-0.1,2.3,0.3,5-3.2,5.4
	c-3.5,0.4-5.6-1.3-6-4.6c-1.6-12.9,0.3-25.2,6.3-36.8c1.4-2.8,4.1-4.8,7.7-4.4c3.5,0.4,5.2,3.1,6.4,6.1c2.7,6.4,2.6,13.4,3.7,22
	c3.1-7.6,5.2-13.5,7.8-19.2c1.5-3.3,3.7-6.6,8-6.1c4.4,0.5,6.4,4,7.3,7.9c1.8,7.9,3.2,15.9,4.7,23.9c0.9,5.2,2.1,10,8.9,10
	c1.1,0,2.7,0.6,2.3,2c-0.3,1-1.3,2.1-2.3,2.5c-6.2,2.3-11.3,0.4-15.3-4.6c-4.8-6.1-6-13.4-6.4-20.9
	C604.5,695.9,604.6,691.7,604.6,685.8z"/>
<path class="st1" d="M550.4,788.6c2.7,8.1,0.7,13.8-5.4,19c-5.4,4.6-10.1,1.3-14.5-1.2c-7.7-4.4-12.7-11.6-13.7-20.2
	c-2.5-22.2-1-44.4,2.9-66.5c2-11,8.9-17.9,19.5-20.6c3.1-0.8,6.1,1.2,6.3,5.2c0.2,5,0.2,10.1,0.2,15.1c-0.1,3.7-2.8,4.9-5.8,5.1
	c-4.2,0.3-2.6-2.9-2.8-5c-0.1-0.7,0.1-1.4,0.1-2.2c-0.1-2.9,1.8-7.6-1.4-8.3c-4.3-0.9-4.8,4.3-6.1,7.4c-3.2,7.7-3.1,15.9-3.4,24
	c-0.6,14.6-2.1,29.2,0.5,43.7c0.4,2.1,0.9,4.2,1.6,6.2c1.8,5.3,4.7,9.8,10.7,10.4c5.5,0.6,6.2-5.2,9-8.1
	C548.8,791.9,549.2,790.7,550.4,788.6z"/>
<path class="st1" d="M456.4,117.2c1-1.4,5-2.8-0.1-4c4.7-2.7,4.2-8.2,6.5-12.2c2-3.6,3-9.4,8.1-8.7c4.6,0.6,4.1,6.3,5.1,10.1
	c0.5,2,0.3,4.2,0.5,6.4c-1.1,6.2-1.8,12.5-2.3,18.7c-0.3,4.1,0.4,8,4.5,10.4c2.9,6.1,1.3,11.6,5.1,17.4c-9.1,2-17.7,5.3-27.1,4.7
	c-5.5-8.7-2-17.9-2.7-27.3C453.5,127.6,454.6,122.2,456.4,117.2z"/>
<path class="st1" d="M316.6,267c2.6,1.9,5.3,4.9,5.9,7.5c2.6,9,1.3,16.6-6.3,23.1c-6.8,5.8-13.6,7.1-21.4,2.7
	c-8-4.5-11.3-11.8-9.6-21c1.5-8.1,7.9-13.7,16.1-14.8C307.7,263.5,311.3,264.5,316.6,267z"/>
<path class="st1" d="M417,187.9c-7.4,0.8-14.5-3-21.9-1.1c-2.3,0.2-4.3,3.1-7,0.9c-7.6-3.2-14.9,0.3-22.3,0.8
	c-2.1,0.1-4.2,0.9-6.4,0.9c-3.5,0.1-7.8,0.9-9.5-3c-1.9-4.3,1.6-7.2,4.4-9.7c7.7-6.9,17.1-10.2,27.1-12c5.6,4.4,12.9,4.5,19.1,7.3
	c2.1,1,4.1,0.7,6.2,0.7C414.4,172.6,419.3,180.2,417,187.9z"/>
<path class="st1" d="M563.7,761.2c0,8.6-0.3,17.3,0.1,25.8c0.2,4.1-1.7,6.3-4.9,6.5c-3.7,0.2-3.2-3.3-3.2-5.9
	c-0.1-6.7-0.3-13.4-0.2-20.1c0.1-3.4-1.1-4.9-4.6-4.6c-3,0.3-5.6,0.4-5.3,4.8c0.4,6.7,0.2,13.4,0.3,20.1c0.1,3.1-1.1,5.5-4.2,5.4
	c-2.8-0.1-3.4-2.9-3.4-5.5c0-5.5-0.8-11.2,0.2-16.5c1-5.2-5.1-10.8-3-12.3c5.1-3.9,2.1-8.2,2.8-12.2c0.8-4.7,0.4-9.6,0.9-14.3
	c0.2-1.8-0.5-4.9,3.2-4.3c2.7,0.4,3.1,2.5,3.1,4.8c-0.1,6.5,0.2,13-0.2,19.4c-0.3,4.4,1.9,4.4,5.2,4.4c3.4,0,5.4-0.4,5.2-4.6
	c-0.3-6.2-0.1-12.5,0.1-18.7c0.1-2.3,0.2-5.4,3.3-5.4c3.4,0,3.7,2.7,3.7,5.7c-0.2,9.1-0.1,18.2-0.1,27.3
	C563.2,761.2,563.4,761.2,563.7,761.2z"/>
<path class="st1" d="M758,721.2c-10.5,4.3-12.8,10.4-7.5,19.7c3.9,6.8,8.5,13.3,12.4,20.2c2.7,4.8,4.6,10.1,3.9,15.8
	c-0.5,4.5-2.2,8-7.4,9.3c-4.7,1.2-8.6,0.8-11.7-2.9c-3.3-3.8-3.1-8.4-2.1-13c0.4-2,1.7-2.2,3-0.8c1.2,1.1,2.5,2.1,2.7,4
	c0.3,3.1-0.6,8.3,4.1,7.4c4.8-0.9,3.3-6.2,2.6-9.7c-2.1-9.8-8-17.8-13.4-26c-2.9-4.4-4.3-8.9-4.5-14c-0.5-9.1,4.1-14.5,13.2-15.2
	c2.6-0.2,5.8,1.5,7.2-2.7c0.6-1.7,2.4-1.1,3.7-0.2c2,1.3,3.3,3.2,2.8,5.4c-1,3.8-1.1,7.5-1,11.4c0.1,2.7-1.5,3.9-3.9,4.2
	c-3.3,0.3-3.2-2.2-3.4-4.3C758.4,726.9,758.2,724.1,758,721.2z"/>
<path class="st1" d="M388.2,187.8c2.3-0.3,4.6-0.6,7-0.9c-14.9,13.2-31.4,16.4-49.3,6.7c-3.8-2-5.4-1.4-7.1,2
	c-1.1,2.1-2.3,4.1-3.5,6.2c-5.4-2.4-9.8-5.9-12.9-11c8.9-7.4,8.8-7.4,1.3-16.7c-2.7-3.3-5.2-6.9-7.7-10.4c-1.4-1.9-2.3-4.3-5.5-3
	c-1.2,0.5-2.4,0-3.1-1.2c-3.1-5.3-6.1-10.6-9.1-15.8c4.7-3,9.3-6.5,15.4-5.9c1.1,6.7,3.2,13.2,4.7,19.8c2.1,8.9,9.1,15.5,15.8,21.4
	c1.2,1.1,5.9-0.7,7.7,2.3C354.7,202.3,371.4,195.1,388.2,187.8z"/>
<path class="st1" d="M631.1,732.5c-6.4,6.7-6.1,13-3.6,19.2c2.2,5.3,5.1,10.3,7.9,15.3c2.3,4.2,4.2,8.7,4.6,13.5
	c0.4,4.3,0.4,9.2-3.9,11.6c-3.9,2.2-8.5,3.6-12.9,0.6c-4.5-3.1-5.5-7.6-4.8-12.7c0.2-1.4,0.7-2.7,1.2-4.3c4.5,1.4,5.2,4.6,5.3,8.4
	c0.1,2.2,0.8,4.6,3.6,4.4c2.8-0.1,3-2.6,3.2-4.8c0.5-5.8-1.9-10.8-4.6-15.6c-4.4-8.2-9.6-15.9-9.1-26c0.3-7,4-12.5,10.9-13.9
	c1.6-0.3,3.1-0.2,4.5-1.6c2.8-2.7,5.8-0.1,6,1.9c0.4,5.3-0.3,10.8-1,16.1c-0.1,1-2.6,2.1-4.4,1.7c-1.8-0.3-1.9-1.9-2.1-3.3
	C631.7,740.1,631.5,737,631.1,732.5z"/>
<path class="st1" d="M699.1,705.2c-2.3,2.8-5,6.1-7.6,9.5c-1.5,1.9-2.9,4.2-0.7,6.4c2,2.1,4.5,1.3,6.6,0.3c5.7-2.8,7.5-7.9,7.3-13.7
	c-0.2-5.2-0.9-10.3-3-15.7c-1.7,1.6-2.9,3-4.4,4.1c-3.6,2.6-7.3,2.7-10.3-0.6c-3.4-3.8-3-8.5-0.9-12.7c1-2,3-1.2,3.6,0.8
	c0.5,1.8,0.5,3.8,0.8,5.6c0.2,1.1,0,2.5,1.6,2.8c1.4,0.2,2-1,2.7-1.9c2.4-3.3,2.8-9.6,8.4-8.2c5.3,1.3,5.3,7.4,6.5,11.9
	c2.1,7.4,3.4,14.9,1.5,22.6c-1.2,4.8-3.3,8.9-7,12.2c-6,5.2-13.5,5.1-17.9-0.1c-4.6-5.6-3.8-13.7,2-18.6
	C691.8,706.9,695.7,705,699.1,705.2z"/>
<path class="st1" d="M417,187.9c0.2-3.5-1.3-6.5-2.8-9.4c-0.8-1.6-2.9-4.2-3.6-4c-6.3,2.1-11.6-3.2-16.5-2.8
	c-5.8,0.5-8.2-0.9-10.3-5.4c-0.3-0.7-1.5-1-2.3-1.5c12-2.3,24.1-1.4,36.1-0.5c4.6,0.4,8.8,0.1,13.2-0.4c0.6,4.9,4.5,1.8,6.8,2.8
	c-3.1,7.4-4.7,15.4-7.9,22.8C425.3,190.3,421.3,187.7,417,187.9z"/>
<path class="st1" d="M653,758.2c0-5.8,0.1-9.9,0-14c-0.1-4.9,0.5-10.3-7.1-10.2c-1.8,0-3.3-1.3-3.3-3.2c-0.1-2.4,2.1-2.3,3.6-2.3
	c6.9-0.2,13.9-0.2,20.9-0.2c2.2,0,3.8,0.9,3.9,3.3c0.1,3-2.6,2.6-4.2,2.5c-5.5-0.6-6.1,2.2-5.9,6.8c0.6,14.6,0.9,29.2,1.3,43.8
	c0,1.4,0.2,2.9,0.1,4.3c-0.2,4.1-3.7,4.2-6.3,4.4c-3.7,0.3-2.4-3-2.3-4.7C653.9,777.9,651.2,767.2,653,758.2z"/>
<path class="st1" d="M429.6,189.4c-0.1-8.6,2-16.3,7.9-22.8c0.6,0,1.2,0,1.8,0.1c3.5,1.4,5.3,4.7,7.8,7.4c3.2-0.1,1.2-7,6.1-4.7
	c4.8,5.4,4.7,12.7,7.3,18.9c1.3,3.3,1.9,6.8,2.8,10.2C452.3,194.9,441.1,191.9,429.6,189.4z"/>
<path class="st1" d="M610.7,739.4c1.3,10.3,0.7,21.8,0.9,33.3c0,2.4,0,4.8-0.6,7.1c-0.7,2.5-2,5.5-5.1,5.1c-3.7-0.4-2.7-3.9-2.7-6.4
	c0-14.6,0-29.2,0.2-43.8c0-2.5-2.4-7,3-7.1c5.4-0.1,5,3.9,4.4,7.7C610.8,736.4,610.8,737.3,610.7,739.4z"/>
<path class="st1" d="M313.7,137.7c-5.1,2.1-9.6,5.7-15.4,5.9c-6.9-3.8-9.2-8.9-7-15.2c1.9-5.2,7.9-8.7,13.2-7.5
	c6.5,1.4,9.8,6.2,9.5,13.9C313.9,135.8,313.8,136.8,313.7,137.7z"/>
<path class="st1" d="M562.7,188.2c-3.8,4.3-9.8,6-13,11.1c-3.1,0.7-4.1-2-5.8-3.6c-5.2-4.5-6.7-9.9-3.1-15.9
	c2.9-4.8,7.6-6.8,12.9-5.3C560.3,176.4,563.2,181.3,562.7,188.2z"/>
<path class="st1" d="M626.3,166.6c-5.3-1.9-10.9-2.9-15.9-5.7c-2.1-7.9,0.1-13.5,6.4-16c5.6-2.2,11.9,0,14.8,5.2
	C634.8,156,633,161.5,626.3,166.6z"/>
<path class="st1" d="M431.5,131.1c0.2,5.7,0.4,11.3,0.6,17c-7.1,5-12.3,5.2-17.1,0.4c-4.1-4-4.6-11-1.2-15.6
	C417.6,127.7,423.6,127.1,431.5,131.1z"/>
<path class="st1" d="M501.4,248.5c5.7-1.3,11.3-2.6,17-4c6.1,6,7,11.5,2.8,16.9c-3.9,5-9.1,6-14.7,3.4
	C500.4,262.1,498.7,256.2,501.4,248.5z"/>
<path class="st1" d="M543.9,195.7c2.4,0.4,4.1,2,5.8,3.6c0.7,0.6,1.4,1.2,2.2,1.8c7.2,6.1,7.2,6.1-0.5,12c-2.4-1.8-4.3-4.1-8.1-2.4
	c-2.9,1.3-6.1-0.5-7.2-3.2c-2.2-5.5-6.8-7.5-11.7-9.5c-4.1-1.7-8-4-5.1-9.6c5.7,1.7,11.3,3.9,16.8,6.3
	C538.3,195.7,540.9,198.1,543.9,195.7z"/>
<path class="st1" d="M718.8,169.5c-3.8-3.5-8.5-6.1-9.6-11.8c1.3-4.8,1.1-10.5,7.9-11.6c6.9-1.1,13.2,3,14.1,9.7
	C732.4,163.5,727.8,168.6,718.8,169.5z"/>
<path class="st1" d="M646.2,708.3c-0.8,7.6-4.6,12-10.3,11.8c-6.6-0.2-9.9-4.3-10.9-10.4c-1.4-8.5,2.5-15.7,9.5-17.9
	c3.1-1,6.3-1.7,8.5,1.5c2.1,3.1,1.4,6.4-0.7,9.4c-1.5,2.2-3.5,4.1-6.1,4.8c-3.5,0.9-3.4,3-2.1,5.4c1.4,2.6,3.9,2.8,6.1,1.2
	C642.2,712.5,643.9,710.5,646.2,708.3z"/>
<path class="st1" d="M736.2,723.8c-9.1-3.6-9.1-3.6-17.2-0.5c1-5.1,1.2-9.9-3.2-13.6c-1.2-1-0.7-3.3,1.1-2.9c6,1.5,9-2.5,12.7-7
	c1.3,6.2,4.3,9.7,11.3,9.6C736.9,713.8,733.7,717.5,736.2,723.8z"/>
<path class="st1" d="M644.2,692.4c3.7-4.3,7.3-4.9,10.1-1.9c3.2,3.4,5.7,3.8,9.3,1.1c1.6-1.2,4.3-2.3,5.6,0.1c1.1,2.2-1.3,3.3-3,4
	c-4.5,1.8-5.5,5.5-5.6,9.8c-0.1,2.1,0,4.3-0.4,6.4c-0.5,2.4-1.5,4.6-4.6,4.5c-2.7-0.1-3.7-2.1-4-4.2c-0.5-3.3-0.6-6.6-0.8-9.9
	C650.5,697.9,651.5,692.9,644.2,692.4z"/>
<path class="st1" d="M665,701.3c2.7-3.2,6.2-3.7,8.4-1.3c3.3,3.5,6,3.5,9.6,1c1.3-0.9,3.7-1.2,4.6,0.3c1,1.7-0.8,3.1-2.4,3.7
	c-5.3,2-5.8,6.4-5.8,11.2c0,3.6,0.4,8.4-4.5,8.3c-4.8-0.1-4.1-5-4.4-8.4C670.1,710.5,672.1,704.2,665,701.3z"/>
<path class="st1" d="M808,140.6c4.6,3.1,9.3,5.9,14.5,7.7c0.1,0.3,0.1,0.5,0,0.8c-2,2.3-4.3,4.4-5.9,6.9c-2.9,4.7-6,7.8-11.9,4.7
	c-6.5-3.4,0.6-6.8-0.1-10.1C805.7,147.2,806.8,143.9,808,140.6z"/>
<path class="st1" d="M477.9,137.9c-6.1,1.7-5.3-3.7-5.5-6.3c-0.7-7.9,0.4-15.7,4-22.9c0.5,1.1,1,2.3,1.5,3.4c-2.7,3.2,0.1,4.8,2,6.6
	c-1,3.7-0.8,7.4-0.4,11.2C479.8,132.8,480.3,135.7,477.9,137.9z"/>
<path class="st1" d="M508.2,182.4c-5.7,1.1-10.8-0.5-15.9-2.9c-4.7-2.3-6.4-5.5-3.1-10.2C495.3,174,501.2,179,508.2,182.4z"/>
<path class="st1" d="M647.6,162.1c-4.5,6.4-2.5,11.5,3.2,15.8c0,0,0,0,0,0c0,0,0,0,0,0c2.8,2.8,6.6,1.5,9.8,2.6
	c1.6-5.4,6-9.2,8.7-14C665,154.8,655.7,152.9,647.6,162.1z"/>
<path class="st1" d="M765.9,112.8c-5.2-2.5-10.8-2.2-14.7,3.2c-4.2,5.8-4.2,11.2,1.7,16c0,0,0,0,0,0c0,0,0,0,0,0
	c0.5,0.5,1.1,1.1,1.6,1.6c5-1.1,10-2.2,15.1-3.3c1.8-0.9,1.2-0.9,2.2-3.6C773,120.5,771.5,115.4,765.9,112.8z"/>
<path class="st1" d="M515.5,103.1c-5.3-3.1-9.3-0.6-12.9,3.1c0,0,0,0,0,0c0,0,0,0,0,0c-1,1.8-2,3.6-3.1,5.4
	c2.9,4.8,5.9,9.6,8.8,14.4c6.7,0.2,12.5-1.6,14.2-8.8C524,110.9,522.6,105.4,515.5,103.1z"/>
<path class="st1" d="M322.3,190.7c-0.9,0.2-1.7,0.3-2.6,0.5c-3.5,0.5-5.8,2.5-6.9,5.8c-2.6,8.5,0.6,15.4,7.7,16.9
	c7.8,1.7,13.4-3,14.6-12.2C331.1,197.8,327.3,193.7,322.3,190.7z"/>
<path class="st1" d="M850.4,184.8c-2.5-2-5.1-4-7.7-6.1c8.2-6.5,8.4-10.8,0.8-18c-6-5.7-13.3-9.1-21-11.8c-5-0.1-5.7,4.8-8.4,7.4
	c-2.1,2.1-4.1,4-7.3,2.7c-3.2-1.3-1.7-3.8-1.3-6c0.2-1-0.1-1.8-0.8-2.5c-1.4-0.4-2.8-0.8-4.2-1.2c-1.5,0.5-2.8,1.5-4.2,2.2
	c-6.2,4.1-14.1,5.1-19.3,11c-2.5,1.1-8.3,3.6-9.6,4.2c-3.3,2.5-7.4,2.6-9.3,3.4c-4.7,2.1-6.5,2.8-8.4,3.8c-0.8,1.3-0.2,3.1-0.3,5.6
	c-0.9,17.1,3.1,22.4,0.3,37.5c6.8-3.8,9.1-3.3,16.2-6.1c0.4-3.3,0.4-6.5,0.8-9.7c0.4,2,0.9,3.5,1.8,4.3c2.7,2.3,31.2-18.2,34.8-16.9
	c2.1,3.9,0.7,6.5,6.9,4.2c4.2-1.7,8.5-3.1,12.5-5.2c8.7-4.6,17.2-9.7,25.4,0.7c0.9,1.2,2.5,1.7,3.6,0
	C852.7,186.9,851.6,185.7,850.4,184.8z"/>
<path class="st1" d="M443.9,782.5c-11.3-13.3-13.7-29.7-15.7-46.2c-3.3-27.3-3.8-54.9-8-82.2c-5.3-34.4-14.8-67.7-22.9-101.4
	c-2.7-11.2-6.7-26.6-7.9-38c2.7-2.9,7.3,2.1,10.6,2.2c32.4,1.3,62.6-6.4,90.9-21.9c6.1-3.3,8.7-2.2,10.3,4.7
	c1.9,8.4,3.8,16.8,5.3,25.2c0.6,3.4,0.5,7.2,3.6,9.7c2.5,1.4,12.9,0,15,0.4c3.7,0.9,4.2,0.6,8.8,0.3c2.4,0.9,12.3,3.1,14.6,3.2
	c2.5,1.3,35.8-25.8,37.7-26.2c2.1-0.2,1.7-1.6,0.4-3.9c-9.5-20.5-25.3-36.3-39.8-53.1c-7.4-8.6-7.8-8.8-3.2-18.7
	c6.6-14.3,9.1-29.1,4.3-44.5c-0.4-1.2-0.5-2.3-0.1-3.5c9.1-8.1,11.2-19.2,12.7-30.4c3.4-25.9,5-52,6.1-78
	c0.5-10.5,0.9-21.1,1.3-31.6c-0.4-4,4.6-0.8,7-0.3c13.6,2.8,27.1,5.5,41.1,5.2c1.9,0,3.8,0.4,5.4,1.6c4.8,8.8,3.9,18.7,4.5,28.1
	c2.1,34.2,0.4,68.3-2.3,102.5c-1.1,13.5-1.7,27.3,1.3,40.8c4.3,19.5,13.8,26.6,33.7,25.4c12.2,1.8,23.2-1.6,33.6-7.5
	c21.4-12,34.4-31.3,44.9-52.6c11.5-23.4,14.3-48.9,18.2-74.2c4.1-30.5,7-61.2,10.3-91.8c0.5-4.8,0-9.6,0.3-14.3
	c0.2-5.2-0.9-10.6,2-15.4c2-2.3,3.2-0.9,4.4,0.8c2.3,3.3,4.2,3.8,5.9-0.4c0.3-0.9,0.8-2.6,1.2-2.4c5.9,2.3,9.6-0.5,12.8-4.9
	c7.3,3.2,8.1-2.9,10.1-7.2c5.1,2.4,5.4,6.6,7,12.1c-1.2,7.6,1.8,14.5,3.7,21.4c10.1,36.6,12.8,74,13.7,111.7
	c1.4,62.5-2.9,124.5-17.1,185.6c-6.4,27.6-13.8,55.4-31.1,78.3c-30.2,40.1-69.6,66-120.5,72c-53.8,6.3-101.1-10.2-144.1-41.5
	c-4.8-3.5-9.7-7.1-14.9-10c-8.3-4.7-13.2-1.9-12.6,7.7c0.7,11.7,2.5,23.3,4.1,34.9c3.2,24.2,1.8,48.3-0.8,72.4
	c-1.6,14.8-3.2,29.5-5.3,44.2c-0.9,6.5-4,12.7-10.5,16.7c-1.9-2.1-0.9-3.6-5.3-2.8c-3.4,0.6-7.3-3-11.7-0.2
	c-0.3,0.2-2.6-0.9-2.7-1.3C450.9,772.9,445.4,778.9,443.9,782.5z"/>
<path class="st1" d="M575.5,522.4c1-0.6,2-1.2,3.1-1.8c2.9,3.4,5.9,6.9,8.8,10.4c0.9,1,2.1,2.4,0.4,3.6c-1.4,1-2.9,0.4-3.7-0.9
	C581.5,529.7,577,527.2,575.5,522.4z"/>
<path class="st1" d="M558.6,534.9c0.9-1.5,2.1-2.7,4.1-2.5c1.6,2.9,3.2,5.7,4.8,8.6c1,1.8,2.5,4.3,0.2,5.6c-3,1.7-3-1.8-4-3.4
	C561.9,540.6,560.3,537.7,558.6,534.9z"/>
<path class="st1" d="M541.8,543.8c1.3-0.6,2.5-1.2,3.8-1.8c1.4,3.8,2.8,7.6,4.1,11.5c0.5,1.4,0.6,3-1.3,3.5
	c-1.8,0.5-2.4-0.8-2.9-2.3C544.3,551.1,543,547.5,541.8,543.8z"/>
<path class="st1" d="M518.2,536.6c0.6-0.2,2.5-0.5,3.2-0.7c0.6,0.3,1-1,1.1-0.5c0.7,3.6,3.8,8.6,2.1,12.5c-0.4,0.9-1.8,1.6-2.3,0.8
	C519.8,545,518.1,540.9,518.2,536.6z"/>
<path class="st1" d="M567.1,529.2c1-1.5,2.2-2.7,4.1-2.5c1.6,2.6,3.2,5.2,4.9,7.8c0.7,1.1,1.2,2.1,0,3c-1.1,0.9-2.4,0.7-3.2-0.3
	C570.9,534.7,569,531.9,567.1,529.2z"/>
<path class="st1" d="M549.9,539.5c1.4-0.5,2.8-1.1,4.1-1.6c1,2.4,2.1,4.7,2.9,7.1c0.5,1.5,1,3.5-1,4.3c-2.1,0.8-2.7-1-3.2-2.7
	C551.9,544.3,550.8,541.9,549.9,539.5z"/>
<path class="st1" d="M581.8,517.7c1-1,1.9-2,2.9-3.1c2.8,2.9,9,6.8,6.1,9.3C586.7,527.5,585.6,519,581.8,517.7z"/>
<path class="st1" d="M587.4,512c0.5-1.4,1-2.9,1.5-4.3c0.4,0.2,1,0.3,1.3,0.6c2.2,2.5,7.2,5.6,4.2,8.4
	C590.9,520,590.5,512.7,587.4,512z"/>
<path class="st1" d="M622,254.5c-18.1,0.6-35.8-2.3-53.2-7.1c-13.2-4-26.1-8.8-38.5-14.9c-2-1-3.9-1.7-6.1-1.6
	c2.3-4.4,7.4-3.6,11-5.5c5.2-2.8,10-6.7,16.2-7.3c1.4,1.3,1.2,3,1.1,4.6c-0.1,1.6-0.6,3.5,1.7,4.1c1.8,0.4,3.1-0.8,4.3-2
	c2.2-2.3,3-5.3,4.5-8c2.8-5.3,6.4-9.4,13.3-8.4c2.8,0.7,4.6,2.8,7.5,4c11.7,4.6,26.5,6,34.1,7.1c1.9-0.8,4.8,0,6.8,0.3
	c1.9,0.5,4.7-1.5,4.7-1.5s2.8,4.1,6.3,3.8c8.2-0.6,16-2.6,23.8-4.8c2.7,2.9,1.9,6.2,1.3,9.5c-1.3,7.8-3.4,15.3-7.5,22.2
	c-4.1,3.3-9.4,3.2-13.9,5.3c-1.1,0.3-2.3,0.5-3.5,0.6C631.2,254.3,626.5,257.4,622,254.5z"/>
<path class="st1" d="M526.2,535.1c6.9-4.2,6.9,4.2,8.7,6.6C527.7,546.5,528.8,536.7,526.2,535.1z"/>
<path class="st1" d="M513,544.3c-2-0.7-2-2.4-2-4c0-1.6-0.5-3.8,2.2-4c3.4-0.3,2.1,3.7,2.2,5.3C515.3,543.1,514.7,544.2,513,544.3z"
	/>
<path class="st1" d="M571.4,206.6c1.5,1,3,1.9,4.4,2.9c-5.8-0.3-9.3,2.8-11.3,7.9c-1.6,4-3,8.1-6.8,10.6c-1.7,1.2-3.5,3-5.8,1.8
	c-2.3-1.2-1.6-3.7-1.4-5.8c0.2-1.9,0.5-3.8,0.8-5.7C556.7,212.2,565.5,212,571.4,206.6z"/>
<path class="st1" d="M469.1,203.9c0.2-1.2-0.4-3.3,2.1-2.3c17.1,7.2,33.4,15.6,48.3,26.7c-3,0.1-6.1,1.9-9-1.4
	c-0.9-1-4.9-0.5-6.8,0.6c-10.1,5.8-17.2,0.2-24.1-5.9C474.3,216.9,472.1,210.1,469.1,203.9z"/>
<path class="st1" d="M453.3,169.4c-0.6,0.3-1.6,0.4-1.9,0.8c-1.1,2.2,0.8,6.2-2.3,6.8c-3.6,0.7-4.5-3.5-6.4-5.8
	c-1.2-1.5-2.2-3-3.4-4.5c3.3-0.2,6.6-0.3,9.9-0.6C451.7,165.8,453.4,166.4,453.3,169.4z"/>
<path class="st1" d="M742.8,178.2c-5.4,2.4-10.7,5.1-16.2,7.1c-4,1.5-7.3,5.5-12.4,4c-1.8,0.2-3.2,1.2-4.7,2
	c-3.3,2.1-7.6,2.6-9.6,6.6c-1.9,2.9-6.9,9.4-16,13.7c-1.2,0.6-2,1.4-2.6,2.6l-14.5,2.2c0,0-2.8,19.3-7.7,30.4
	c5.9-1.6,10.4-2.8,16.3-4.4c3.6-1.2,7.3-2.4,10.9-3.6l12.6-4.8c0,0,9.9-1.5,14.8-2.2c4.6-1.8,9.4-3.2,14.2-4.3c4-1.4,8.2-2.2,12.2-4
	c2.5-1.1,5-2.5,5.3-5.3C746.7,204.7,745.8,191.4,742.8,178.2z"/>
<path class="st1" d="M662.4,267.1c6.8,1.9,9,7,8,13.1c-1,6.2-5.7,9.7-11.7,9.6c-6.3-0.1-10.6-3.8-11.7-10.4c-0.3-1.6-0.2-3.3-0.2-5
	C652,272,657.2,269.6,662.4,267.1z"/>
<path class="st1" d="M606.2,797.4c-0.5-2.9-2.2-4.4-5.5-2.7c-0.4,0.2-2-1.8-2.9-2.9c-3.3-4.7-6.5-9.5-9.9-14.1
	c-2.6-3.5-2.4-6,0.9-9.2c3.8-3.7,6-8.5,7.5-13.7c4.7-17.1-6-29.3-23.5-26.7c-2,0.3-5.6,0.7-3.1,3.4c3.1,3.4,1.7,6.7,1.8,10.1
	c0.2,15.8,0,31.6-0.1,47.3c0,2.1-0.3,4.7,3,4.6c2.9-0.1,5.1-1.1,4.7-4.8c-0.2-2.1,0-4.3,0-6.4c4.6,7,11,12.2,16.1,18.3
	c1.9,2.4,4.3,3.4,6.9,2C603.9,801.5,606.7,800.3,606.2,797.4z M579.8,765.7c-0.5-10.9-0.9-20.2-1.5-29.5c-0.2-3.6,1.2-3.9,4.3-3.1
	c5.3,1.4,7,5.5,7.5,10.2C591.1,752,587.7,758.9,579.8,765.7z"/>
<path class="st1" d="M747.2,241.4c5,5.5,5.8,11.8,2.2,16.5c-3.3,4.3-10.6,5.8-15.4,3.1c-5.5-3.1-7.1-8.9-4.4-16.1
	c0.4-1.1,1-2.1,1.4-3.2C736.4,241.6,741.8,241.5,747.2,241.4z"/>
<path class="st1" d="M714.3,189.3c-0.7,1.5-1.7,2.7-3.3,3.1c-4-7.3-10.9-12.2-15.9-18.6c-2.8-3.6-6-4.6-10-2.6
	c-2.5,1.2-3.6,3-2.5,5.8c1.8,4.7-0.4,8.6-4.1,10.3c-5.5,2.5-6.7,7-7.8,11.9c-1,4.4-1.8,8.9-2.9,13.3c-0.2,1-0.6,2-0.7,3.1
	c-2,10.4-2.8,21-7.6,30.8c-3.6,5.5-3.8,10.8,0.9,15.9c1.4,1.5,2.8,3.2,2,5.6c-5,3.2-9.6,7.4-16.3,7c-2.6-6-4.5-12.4-9.5-17.1
	c-1.2-1.1-1.7-2.9-0.9-4.6c1.3-0.2,2.7-0.3,4-0.5c4.5,0.4,8.3-1.8,12.1-3.6c3.7-10.3,8.1-20.5,7.5-31.8c2.9-10.5,6.2-20.9,8.5-31.6
	c1-4.6-4.7-3.5-7.1-5.2c-0.6-6.8,3.4-10.8,8.7-14c3.2,4.6,5.8,6.1,10.3,0.6c3.5-4.3,9.5-5.2,14.3-2.3c6.3,3.8,9.1,1.3,11.6-4.2
	c0.6-1.4,1.3-3.2,3.5-2.9c3.7,3.5,7.4,7,9.6,11.8C706.8,173.7,711.1,181.6,714.3,189.3z"/>
<path class="st1" d="M744.8,789.6c-2.7-19.6-11.9-37.9-12.1-58.1c0-2.6-2.6-3.6-4.8-3.2c-2.4,0.4-1,2.7-1.1,4.2
	c-0.3,3.3-0.4,6.7-1,10c-2,12.7-4.2,25.5-6.3,38.2c-0.5,1.3-1,2.6-1.5,3.9c-0.4,3.1-1,6.1-1.1,9.2c-0.1,1.6-1.7,4.2,1.3,4.7
	c2.3,0.3,4-1.3,4.4-3.8c0.4-2.4,1-4.7,1.2-7.1c0.2-2.1,1-3.2,3.3-3.9c7.4-2.3,8.4-1.7,10,6.5c0.5,2.7,0.3,6.2,4.8,5.5
	C745.8,795.1,745.1,792.2,744.8,789.6z M732.4,778.7c-2,0.5-4.5,1.5-6.1,0.8c-1.8-0.8-0.6-3.4-0.3-5.2c0.8-5.4,1.7-10.8,2.6-16.2
	c0.3-0.1,0.7-0.3,1-0.4c1.4,5.5,3,10.9,4.3,16.4C734.3,775.7,735.3,777.9,732.4,778.7z"/>
<path class="st1" d="M830.4,132.3c-2.2-5.4-6.5-8.1-12.4-7.5c-7.4,0.7-10.9,6.3-10.1,15.8c3.2,5.7,8.1,8,14.5,7.7
	C830.1,144,833,138.7,830.4,132.3z"/>
<path class="st1" d="M632.6,703.4c0.5-4.1,2.2-6.6,5.5-7.8c0.9-0.3,1.9,0.8,1.7,1.7C639,700.8,636.7,702.7,632.6,703.4z"/>
<path class="st1" d="M449,776.9c5.1-0.5,4.9,3.6,5.3,12c0.5,11.3,10.7,24.2,10.7,24.2s-12.5-3.4-17.6-15.7
	C442.2,785.1,443.3,777.5,449,776.9z"/>
<path class="st1" d="M629.3,218.2c-0.9,1.2,0.8,1.1-3.3,1.4c-3.4,1.1-3-4.3-3-7.5c0-6.3-0.2-12.4-1.8-18.6c-1.1-4.3-3.9-6.3-7.6-8.7
	c-11.9-7.6-20.4-1.8-28.4,6.1c-4.9,4.8-11,8.7-12.9,16c-6,5.7-13.4,8.8-21,11.5c-8.5,5.3-17.2,10.2-27.1,12.5
	c-10.4,3-10.4,3-5.8,13.6c-4.9,4.7-10.8,4.8-17,4c0-1.7,0-3.3,0.1-5c0.5-5.8-0.2-9.3-7.9-9.8c-10.2-0.6-17.1-7.7-22.2-16.2
	c-3.6-5.9-6-12.4-8-19c-5.3-4.8-4.6-12.1-7.2-18c-1.4-3.2-2-6.8-3.7-9.9c-3.9-4.8-9.2-1.3-13.7-2.2c-0.7,0.1-1.5,0.1-2.2,0
	c-2.1,0-4.2,0.1-6-0.9c-2.3-1.3-2.3-2.6,0.2-3.7c6.2-0.7,12.3-1.4,19.2-2.2c-1.4-4.7-2.7-9.4-4.1-14c-0.7-2.1-2.3-2-4.1-1.6
	c-3.2,0.7-6.5,1.4-9.8,2.1c-3.5-5.6-3-11.2-0.6-17c1.6,0.3,3.3,0.4,4.9,0.8c5.4,1.6,8.6,0.5,9.8-5.9c1.1-5.7,4.3-10.5,10.2-12.8
	c1.1-0.7,2.4-0.7,3.1,0.4c1.2,2.1-0.4,3.5-1.6,4.9c-5.3,4.8-9.4,9-7.7,16.5c0.7,3.2,1.1,6.2,1.7,10c0.8,5.2,0.7,11.1,7.3,13.7
	c8.4,0.2,16.5-2,24.7-3.5c2.4-1.1,4.9-1.9,7-3.4c6.6-4.5,6.6-12.6-0.1-17c-3.2-2.1-5.4-4.6-6.7-8.1c-1.1-3.1-2.9-5.4-5.5-7.2
	c-1.8-2.4-5.4-4.6-0.6-7.5c0.6,0.4,1.2,0.7,1.8,1.1c3.5,2.2,7.2,6.4,10.5,6.1c3.3-0.2,6.3-4.9,9.4-7.7c4.3,4,8.9,7.7,8.8,14.4
	c-1.6,0.6-3.1,1.3-4.7,1.7c-4.5,1.2-5.7,3-3.7,8c5.1,12.3,0,20.6-14.8,25.1c-1.9,3.3-5.4,3.6-8.6,4.2c-3,0.6-6.1,0.9-9.2,1.3
	c-5.1,0.6-6.8,2.3-5.1,8c3,9.5,6.2,19,8.4,28.7c2.1,5.4,4.8,10.4,8.3,15c6.1,8.1,14,11.1,23.7,7.9c5.7-1.9,10.8,2,16.2,0.5
	c11.3-3,21.9-7.3,31.2-14.6c5.3-2.7,5.7-5.9,0.9-9.6c-0.9-0.7-1.5-1.8-1.8-2.9c2.4-6.3,7.5-9.3,13.6-11.1c1.6,3.2,3.1,6.3,5.5,11.2
	c4.1-4.5,7.5-8.7,11.4-12.3c7.4-6.8,15.2-13.1,26-13.4c2.5-0.1,3.3-1.3,3.5-3.5c0.4-3.1,0.9-6.1,1.4-9.1c6,0.1,11.6,1.1,15.9,5.7
	c-0.8,1.4-1.5,2.9-2.4,4.3c-2.6,3.9-3.5,7-0.5,11.9C629.8,193.6,627.9,206.3,629.3,218.2z"/>
<path class="st1" d="M726.9,227c2.3-4.4,7.1-3,10.6-4.3c5-1.8,7-4.3,6.8-9.8c-0.3-11.6-2.6-23.1-1.6-34.7
	c2.1-11.9,4.9-23.5,14.8-31.7c2.2-1.9,1.1-3.9,0.3-5.9c-1-2.4-2.3-4.7-3.4-7.1c4.9-2.2,8.6-2.6,13-3.9c2.4-0.7,1.9,0.7,1.9,3.1
	c0,2.8,0,5.1,0.9,7.8c10.3,1.3,21.4,2.6,30.1,8.8c-1.2,1.6-2.2,1.6-3.8,2.5c-1.7,0.4-2.6,0.8-4,0c-10.7-6.4-20.9-2.3-31.2,1.3
	c-3.7,1.3-5.3,4.6-7,7.7c-2,3.8-2.9,8-4.8,11.9c-0.8,9-0.9,18,0.3,26.9c0.8,6.2,1,12.3-0.7,18.3c-3.8,7.7-1,16-2.1,23.9
	c-5.3,1.9-10.6,2.9-16.1,0.9C729.1,237.7,730.2,231.8,726.9,227z"/>
<path class="st1" d="M461,781.1c5.6,0.3,4,13.1,6,20.9c1.5,5.9,8.9,15.5,8.9,15.5s-13.9-7.9-16.4-14.9
	C455.6,792.2,454.2,780.8,461,781.1z"/>
<path class="st1" d="M470.6,783c5.2,0.1,2.7,12.5,2.8,16.1s5,14.1,5,14.1s-10-7.3-11-13.4S465.7,782.9,470.6,783z"/>
<path class="st1" d="M609.5,203.8c-6.1,0.7-4.8,5.5-3.1,15.4c2.4,13.3-6.2,31-6.2,31s13.7-7.1,16.5-22.9S616.4,203,609.5,203.8z"/>
<path class="st1" d="M597.4,205.3c-6.6,1.5-2,16.4-2.9,26.1c-0.6,7.3-7.4,20.2-7.4,20.2s14.8-12.2,16.5-21.1
	C606.1,217.4,605.5,203.5,597.4,205.3z"/>
<path class="st1" d="M588.5,211.4c-6.1,0.4-2.6,14.9-2.5,19.1c0.1,4.2-5.2,16.8-5.2,16.8s11.4-9,12.3-16.3
	C593.9,223.6,594.3,211,588.5,211.4z"/>
<path class="st1" d="M687.1,191c-5.2,3.4-1.8,7,4.2,15.1c8.1,10.9,8.4,30.5,8.4,30.5s9-12.5,4.5-27.9
	C699.6,193.4,692.9,187.2,687.1,191z"/>
<path class="st1" d="M677,197.8c-5.3,4.3,5.5,15.6,9.1,24.6c2.7,6.8,2.5,21.4,2.5,21.4s7.8-17.6,5.3-26.2
	C690.2,204.7,683.4,192.6,677,197.8z"/>
<path class="st1" d="M671.7,207.2c-5.3,3.1,4.4,14.5,6.3,18.1s2.9,17.4,2.9,17.4s6.2-13.2,3.6-20.1S676.7,204.3,671.7,207.2z"/>
<path class="st1" d="M800.3,191.9c-5.2,3.3-7.2-1.2-12-10c-6.5-11.9-24.3-20.3-24.3-20.3s15.1-3,27.2,7.5
	C803.3,179.5,806.1,188.2,800.3,191.9z"/>
<path class="st1" d="M789.9,198.3c-6.1,3-11.9-11.5-18.6-18.5c-5.1-5.3-18.5-11.1-18.5-11.1s19.2,0.2,26,6.1
	C789.1,183.5,797.3,194.6,789.9,198.3z"/>
<path class="st1" d="M779.1,199.2c-5,3.5-11.3-10-13.9-13.3c-2.5-3.3-14.6-9.9-14.6-9.9s14.6-0.1,19.8,5
	C775.7,186.3,783.9,195.9,779.1,199.2z"/>
<path class="st1" d="M415.2,313.7c0,0,13-13.4,42-10.6s39.6,19.2,39.6,19.2H493c0,0,24.8,18.4,20.4,57.7
	c-4.4,39.3-15.5,42.5-20.8,48.9s-35.5,21.8-65.5,23c-30,1.2-59.4-6.6-67.8-14.3c-8.4-7.7-15.8-20.2-16.6-20.2s-3.6,0.5-3.6,0.5
	s-9.4-22.1-10.1-39.9c-0.7-17.9,4.6-42.5,15-52.2c10.3-9.6,18.8-12.2,18.8-12.2l-4-3.1c0,0,10.7-6.2,27.8-6.2
	S410.7,310.4,415.2,313.7z"/>
<path class="st1" d="M541.8,543.8c-3.4,5.1-4.7-4.6-6.5-7.6c-2.6-1.4-4.7-1-8.2-1.2c-1.9,0.1-3.9-0.5-5.6,0.8
	c-0.4,0.9-1.1,1.2-2,0.7c-3.3-0.1-7.1,0.6-10.4,0.5c-4-13-2.7-12.2-5.8-25.9c-0.1-0.5-1.5-8.4-1.6-8.9c-2.1-8.7-3.3-11.6-10.9-7.3
	c-24.1,13.6-49.4,19.8-77.1,21.9c-14.3,1.1-36.1-3.2-42.3-5.3c-6.2-2-14.3-15.5-16.6-18.9c-2.4-3.4-8.4-6.9-5.7-12.9
	c-7.3-2.3-4.6-10-6.6-15.1c-3.3-8.5-7.1-17.5,0.3-26.1c4.2-2.1,7.9,0.4,11.7,1.4c3.5,0.9,6.7,2.4,10.4,2.7
	c26.2,8.5,52.7,8.6,79.6,4.1c6.9-1.2,13.5-3.3,19.9-6c3.7-1.6,6.6-3.8,8.3-7.5c4.5-10,12.4-14.8,23.2-15.4c1.4-0.1,2.8-0.4,4.2-0.8
	c7.3-3.1,10.3-9.9,14.1-16.1c1.5-2.4,2.6-5,3.7-7.6c0.2-0.7,0.5-1.3,0.8-2c2.4-5.4,5.6-9.6,12.5-7.6c6,0.3,11.9,0.7,17.3,3.7
	c8,15.4,5.7,31.1-1.5,45.3c-5.1,10.2-2.7,15.4,4.3,23.2c13.2,14.6,27.2,28.8,35.7,47.1c0.7,1.5,1.2,3.1,1.8,4.6
	c1.2,2,0.4,3.4-1.5,4.3c-0.9,0.9-1.9,1.8-2.8,2.7c-0.2,1.7-1.5,2.4-2.9,3.1c-1.5,0.4-2.5,1.5-3.2,2.9c-0.6,1.3-1.3,2.4-3.1,1.8
	c-1.8,1-3.3,2.5-4.3,4.4c-1.2,1.2-2.3,2.5-4.1,2.5c-1.5,1.1-2.9,2.1-4.4,3.2c-0.9,1.6-2.5,1.9-4.1,2.5c-1.5,1-3,2-4.6,3
	c-1.1,1.2-2.2,2.5-4.1,1.6c-1.5,0.8-2.9,1.7-4.4,2.5C544.7,543.5,543.5,544.2,541.8,543.8z"/>
<path class="st1" d="M322.2,391.1c3,3.3,14.2-5,25.5-12.4c11.3-7.4,29.3-6.3,39.8-9.2c10.4-2.9,13.5-10.8,13.5-18.5
	c0-7.7-11.7-20.2-26.4-16.4c-14.8,3.8-30,13.5-39.9,27S320.8,389.4,322.2,391.1z"/>
<circle class="st1" cx="374.7" cy="354.9" r="11.9"/>
<circle class="st1" cx="373.3" cy="350.2" r="4.2"/>
<circle class="st1" cx="376.2" cy="361.9" r="2"/>
<path class="st1" d="M521.6,391.1c-3,3.3-14.2-5-25.5-12.4c-11.3-7.4-29.3-6.3-39.8-9.2c-10.4-2.9-13.5-10.8-13.5-18.5
	c0-7.7,11.7-20.2,26.4-16.4c14.8,3.8,30,13.5,39.9,27C519.1,375,523.1,389.4,521.6,391.1z"/>
<circle class="st1" cx="469.1" cy="354.9" r="11.9"/>
<circle class="st1" cx="470.5" cy="350.2" r="4.2"/>
<circle class="st1" cx="467.7" cy="361.9" r="2"/>
<path class="st1" d="M421,404.3c8.9,0,21.7-10.2,21.8-16.7c0.1-6.5-4.7-9.5-21.8-9.5s-22.5,5.4-22.5,9.8
	C398.4,392.4,407.7,404.3,421,404.3z"/>
<circle class="st2" cx="368.2" cy="397" r="17.8"/>
<circle class="st2" cx="478.1" cy="394.1" r="17.8"/>
<g>
	<path d="M378.2,403c3.2,2.7,6.8,4.9,10.5,6.8c3.7,1.9,7.5,3.5,11.5,4.8c7.9,2.6,16.2,3.8,24.5,3.7c8.3-0.1,16.5-1.6,24.3-4.6
		c3.9-1.5,7.6-3.3,11.2-5.4c3.6-2.1,7-4.5,10.1-7.3c-1.4,1.6-2.9,3-4.6,4.4c-1.6,1.4-3.3,2.6-5,3.8c-1.8,1.2-3.6,2.3-5.4,3.3
		c-1.9,1-3.8,1.9-5.7,2.7c-3.9,1.7-8,2.9-12.2,3.8c-4.2,0.8-8.4,1.3-12.7,1.3c-8.5,0.1-17-1.3-25-4.2
		C391.7,413.2,384.2,408.9,378.2,403z"/>
</g>
<g>
	<path class="st0" d="M371.7,481.7c-2.2,0.9-20.6-1.1-22.5-1.9"/>
	<path d="M371.7,481.7c-0.9,0.3-1.9,0.3-2.8,0.3c-0.9,0-1.9,0-2.8,0c-1.9-0.1-3.8-0.2-5.7-0.3c-1.9-0.1-3.8-0.3-5.6-0.6
		c-0.9-0.2-1.9-0.3-2.8-0.5c-0.9-0.2-1.9-0.4-2.7-0.8l0-0.1c0.9,0.2,1.9,0.2,2.8,0.4l2.8,0.3c1.9,0.2,3.7,0.5,5.6,0.7
		c1.9,0.2,3.7,0.4,5.6,0.5c0.9,0.1,1.9,0.1,2.8,0.2C369.8,481.8,370.7,481.9,371.7,481.7L371.7,481.7z"/>
</g>
<path class="st1" d="M472.8,571.2c0,0,15.4,25.7,13.9,42"/>
<path class="st1" d="M487.9,548.9c0.5,1.7,3.4,14.6,10.6,20.9"/>
<line class="st1" x1="424.4" y1="609.8" x2="427" y2="597.1"/>
<line class="st1" x1="432.5" y1="620.6" x2="433.7" y2="605.3"/>
<line class="st1" x1="439.2" y1="613" x2="439.2" y2="624"/>
<line class="st1" x1="436.1" y1="629" x2="437.6" y2="645.8"/>
<line class="st1" x1="442.8" y1="634.1" x2="442.8" y2="641"/>
<path class="st1" d="M500.4,561.4c0,0,2.9,5.8,2.9,6.3"/>
<line class="st1" x1="548.8" y1="626.9" x2="564.1" y2="634.1"/>
<line class="st1" x1="570" y1="630.5" x2="564.1" y2="627.9"/>
<line class="st1" x1="616.3" y1="631.9" x2="601.2" y2="622.4"/>
<line class="st1" x1="640.2" y1="643.4" x2="621.9" y2="642"/>
<line class="st1" x1="656.6" y1="637.5" x2="644" y2="637.4"/>
<line class="st1" x1="659.6" y1="631.9" x2="648.3" y2="631.9"/>
<line class="st1" x1="657.8" y1="643.4" x2="645.8" y2="643.4"/>
<line class="st1" x1="654" y1="648.6" x2="633.4" y2="650.1"/>
<line class="st1" x1="672.2" y1="653.1" x2="647.2" y2="654.4"/>
<line class="st1" x1="682" y1="643.4" x2="670.6" y2="647.4"/>
<line class="st1" x1="710" y1="638.7" x2="693.5" y2="645.4"/>
<line class="st1" x1="575.4" y1="559.3" x2="587" y2="574.3"/>
<line class="st1" x1="584.4" y1="557.2" x2="591.6" y2="569.8"/>
<line class="st1" x1="589.3" y1="551.5" x2="598.7" y2="561.4"/>
<line class="st1" x1="575.4" y1="546.1" x2="581.2" y2="548.9"/>
<line class="st1" x1="613.2" y1="451.5" x2="628" y2="456.3"/>
<line class="st1" x1="616.3" y1="440" x2="621.9" y2="451.5"/>
<line class="st1" x1="598.7" y1="406.4" x2="605" y2="397.8"/>
<line class="st1" x1="601.8" y1="387.7" x2="598.7" y2="397.8"/>
<line class="st1" x1="613.2" y1="370.4" x2="616.3" y2="363.2"/>
<line class="st1" x1="608.7" y1="366.8" x2="608.7" y2="355.6"/>
<line class="st1" x1="648.3" y1="468.3" x2="659.7" y2="468.3"/>
<line class="st1" x1="584.4" y1="468.3" x2="578.3" y2="458.7"/>
<line class="st1" x1="570" y1="471.2" x2="581.4" y2="482.2"/>
<line class="st1" x1="584.4" y1="475" x2="587" y2="482.2"/>
<line class="st1" x1="720.2" y1="458.7" x2="737.4" y2="430.4"/>
<line class="st1" x1="743.2" y1="419.8" x2="748.5" y2="406.4"/>
<line class="st1" x1="750.4" y1="428.5" x2="750.4" y2="440"/>
<line class="st1" x1="734.5" y1="453.9" x2="743.2" y2="437.6"/>
<line class="st1" x1="753.3" y1="589.7" x2="750.4" y2="571.2"/>
<line class="st1" x1="745.8" y1="618.5" x2="753.3" y2="609.8"/>
<line class="st1" x1="760.5" y1="605.3" x2="766.7" y2="589.7"/>
<line class="st1" x1="760.5" y1="574.3" x2="763.6" y2="559.3"/>
<line class="st1" x1="771" y1="567.7" x2="778.2" y2="554.2"/>
<line class="st1" x1="774.6" y1="577.7" x2="780.6" y2="566.8"/>
<line class="st1" x1="803.6" y1="486.5" x2="809.4" y2="478.6"/>
<path class="st1" d="M803.6,478.6c0,0,5.8-4.1,9.1-12.7"/>
<line class="st1" x1="799.3" y1="472.3" x2="803.6" y2="465.9"/>
<path class="st1" d="M806.5,458.7c0,0,2.4-18.2,2.9-18.7"/>
<line class="st1" x1="812.8" y1="419.8" x2="809.4" y2="404"/>
<line class="st1" x1="812.8" y1="384.8" x2="812.8" y2="372.8"/>
<line class="st1" x1="771" y1="328.2" x2="771" y2="318.1"/>
<line class="st1" x1="811.1" y1="241.8" x2="811.1" y2="227.4"/>
<line class="st1" x1="803.6" y1="223.6" x2="803.6" y2="213.1"/>
<line class="st1" x1="581.4" y1="291.3" x2="581.4" y2="277.3"/>
<line class="st1" x1="578.3" y1="267.3" x2="578.3" y2="258.2"/>
<path class="st1" d="M500.6,497.7c0,0-7.9-41.7-23.7-59.7c0,0,15.1,5.8,28.1,31.7c13,25.9,33,73.4,33,73.4"/>
<circle class="st1" cx="709" cy="56.7" r="7.4"/>
<circle class="st1" cx="923.3" cy="92.2" r="2.4"/>
<circle class="st1" cx="952.1" cy="181.8" r="5.8"/>
<circle class="st1" cx="892.6" cy="284.3" r="7"/>
<circle class="st1" cx="988.5" cy="397.8" r="3.7"/>
<circle class="st1" cx="885.6" cy="475" r="5.9"/>
<circle class="st1" cx="185.4" cy="486.5" r="4.6"/>
<circle class="st1" cx="220.9" cy="193" r="6.6"/>
<circle class="st1" cx="119.8" cy="35.6" r="4.2"/>
<circle class="st1" cx="368.2" cy="49.3" r="3.5"/>
<circle class="st1" cx="290.5" cy="648.6" r="6.6"/>
<circle class="st1" cx="227.4" cy="732.4" r="4.1"/>
<circle class="st1" cx="346.7" cy="809.9" r="7.2"/>
<circle class="st1" cx="260.2" cy="430.4" r="6"/>
<circle class="st1" cx="852.1" cy="633.1" r="4.9"/>
<circle class="st1" cx="1123.1" cy="727.7" r="4.9"/>
<circle class="st1" cx="967" cy="553.7" r="5.7"/>
<circle class="st1" cx="984.9" cy="744" r="7.2"/>
<circle class="st1" cx="1034.8" cy="834.7" r="7.2"/>
<circle class="st1" cx="847.2" cy="844.5" r="9.8"/>
<circle class="st1" cx="863.3" cy="716.4" r="1.7"/>
<circle class="st1" cx="988.5" cy="56.7" r="3.9"/>
<circle class="st1" cx="831.3" cy="60.6" r="6.1"/>
<circle class="st1" cx="507.4" cy="56.7" r="4.6"/>
<circle class="st1" cx="223.3" cy="817.1" r="8.2"/>
<circle class="st1" cx="254.3" cy="52.1" r="6.3"/>
<circle class="st1" cx="584.3" cy="35.6" r="5"/>
<circle class="st1" cx="353.9" cy="591.6" r="6.5"/>
<circle class="st1" cx="624.6" cy="866.1" r="6.4"/>
<circle class="st1" cx="530.6" cy="848.3" r="3"/>
<circle class="st1" cx="631" cy="85.7" r="8.8"/>
<circle class="st1" cx="977.7" cy="286" r="9.7"/>
<circle class="st1" cx="260.2" cy="549.2" r="10.4"/>
<circle class="st1" cx="193.4" cy="791.1" r="4.6"/>
<circle class="st1" cx="84.8" cy="631.3" r="6.6"/>
<circle class="st1" cx="145.9" cy="546.2" r="4.1"/>
<circle class="st1" cx="119.8" cy="848.9" r="6"/>
<circle class="st1" cx="35.7" cy="94" r="6.5"/>
<circle class="st1" cx="117.2" cy="730.1" r="10.4"/>
<circle class="st1" cx="188.8" cy="378.6" r="4.6"/>
<circle class="st1" cx="80.1" cy="218.8" r="6.6"/>
<circle class="st1" cx="141.3" cy="133.7" r="4.1"/>
<circle class="st1" cx="50" cy="491.2" r="6"/>
<circle class="st1" cx="168" cy="291.3" r="6.5"/>
<circle class="st1" cx="91.3" cy="372.8" r="10.4"/>
<circle class="st1" cx="936.7" cy="683.3" r="3.7"/>
<circle class="st1" cx="1072" cy="362" r="5.9"/>
<circle class="st1" cx="1153.3" cy="440.8" r="5.7"/>
<circle class="st1" cx="1054.5" cy="627.1" r="7.2"/>
<circle class="st1" cx="1123.1" cy="570.3" r="3.7"/>
<circle class="st1" cx="992.5" cy="122.4" r="5.9"/>
<circle class="st1" cx="1070.9" cy="262.3" r="4.9"/>
<circle class="st1" cx="1029.1" cy="39.7" r="5.7"/>
<circle class="st1" cx="1139.1" cy="66.7" r="7.2"/>
<circle class="st1" cx="1056.2" cy="230.6" r="1.7"/>
<circle class="st1" cx="1090.4" cy="157.7" r="3.7"/>
</svg>
